<svg width="220" height="220" fill="none" xmlns="http://www.w3.org/2000/svg">
  <g clip-path="url(#a)">
    <path fill-rule="evenodd" clip-rule="evenodd" d="M11.144 52.558c0 14.702 5.735 27.938 14.89 37.177C10.797 101.63 1 120.17 1 141c0 35.899 29.102 65 65 65 16.278 0 31.158-5.983 42.561-15.871C119.158 208.666 138.01 221 159.5 221c33.137 0 60-29.325 60-65.5 0-14.633-4.395-28.145-11.823-39.048 5.62-11.086 8.823-23.858 8.823-37.452 0-42.526-31.34-77-70-77-19.693 0-37.487 8.945-50.206 23.344C88.084 11.306 73.709 2 57.348 2 31.831 2 11.144 24.636 11.144 52.558Z" fill="#9AC8FF"/>
    <path d="M41.996 131.771 29.003 189.1h65.249v-48.988l-52.256-8.341Z" fill="#FFE8DB" stroke="#222" stroke-linejoin="round"/>
    <path d="m151.203 81.416-28.915.245a7.954 7.954 0 0 0-7.961 7.954v2.14a7.953 7.953 0 0 0 7.961 7.954h23.792c.323 0 .62-.038.929-.077l1.433 55.717 18.063 33.583h44.246l-8.635-30.076s-13.328-67.307-14.192-71.703l-40.321-39.384c-3.574-3.481-9.29-3.404-12.774.167-3.483 3.571-3.406 9.282.168 12.763l34.502 43.522" fill="#FFE8DB"/>
    <path d="m151.203 81.416-28.915.245a7.954 7.954 0 0 0-7.961 7.954v2.14a7.953 7.953 0 0 0 7.961 7.954h23.792c.323 0 .62-.038.929-.077l1.433 55.717 18.063 33.583h44.246l-8.635-30.076s-13.328-67.307-14.192-71.703l-40.321-39.384c-3.574-3.481-9.29-3.404-12.774.167-3.483 3.571-3.406 9.282.168 12.763l34.502 43.522" stroke="#222" stroke-linejoin="round"/>
    <path d="M155.578 55.658a7.32 7.32 0 0 1-1.536 2.011l-.335.323c-2.335 2.178-5.858 2.552-8.193.89-3.832-2.721-8.697-8.638-3.484-13.485l.323-.297" fill="#FFE8DB"/>
    <path d="M155.578 55.658a7.32 7.32 0 0 1-1.536 2.011l-.335.323c-2.335 2.178-5.858 2.552-8.193.89-3.832-2.721-8.697-8.638-3.484-13.485l.323-.297" stroke="#222" stroke-linejoin="round"/>
    <path d="M122.573 99.967h24.85a4.533 4.533 0 0 1 4.529 4.525v7.929a5.587 5.587 0 0 1-5.587 5.582h-23.792a7.953 7.953 0 0 1-7.961-7.954v-2.14a7.953 7.953 0 0 1 7.961-7.955v.013Z" fill="#FFE8DB" stroke="#222" stroke-linejoin="round"/>
    <path d="M122.573 118.015h24.85a4.533 4.533 0 0 1 4.529 4.525v7.928a5.587 5.587 0 0 1-5.587 5.582h-23.792a7.953 7.953 0 0 1-7.961-7.954v-2.14a7.953 7.953 0 0 1 7.961-7.954v.013Z" fill="#FFE8DB" stroke="#222" stroke-linejoin="round"/>
    <path d="m166.492 131.294-.477-1.057c-.981-2.179-1.974-4.358-2.955-6.524-1.509-3.326-3.019-6.664-4.529-9.991-1.587-3.519-3.186-7.038-4.774-10.558-1.238-2.733-2.477-5.479-3.715-8.212-1.433-3.158-2.465-6.678-5.652-8.534-2.09-1.225-4.632-1.573-6.967-.89-4.787 1.38-7.509 6.524-6.077 11.474l17.096 58.373.464.877" fill="#FFE8DB"/>
    <path d="m166.492 131.294-.477-1.057c-.981-2.179-1.974-4.358-2.955-6.524-1.509-3.326-3.019-6.664-4.529-9.991-1.587-3.519-3.186-7.038-4.774-10.558-1.238-2.733-2.477-5.479-3.715-8.212-1.433-3.158-2.465-6.678-5.652-8.534-2.09-1.225-4.632-1.573-6.967-.89-4.787 1.38-7.509 6.524-6.077 11.474l17.096 58.373.464.877" stroke="#222" stroke-linejoin="round"/>
    <path d="m143.797 107.277-.439.116c-2.993.773-6.232-.787-7.548-3.649-2.154-4.68-3.832-12.956 2.839-14.683l.413-.103c8.399-2.18 14.025 15.908 4.748 18.331l-.013-.012Z" fill="#FFE8DB" stroke="#222" stroke-linejoin="round"/>
    <path d="M173.95 86.972H49.517v54.648H173.95V86.972Z" fill="#156FDA" stroke="#222" stroke-miterlimit="10"/>
    <path d="M108.224 114.135H53.801v27.498h54.423v-27.498Z" fill="#222" stroke="#222" stroke-linecap="round" stroke-linejoin="round"/>
    <path d="M52.692 141.646c15.128 0 27.392-12.254 27.392-27.369S67.82 86.908 52.692 86.908 25.3 99.162 25.3 114.277s12.264 27.369 27.392 27.369Z" fill="#4F97EB" stroke="#222" stroke-miterlimit="10"/>
    <path d="M52.691 136.296c12.171 0 22.038-9.858 22.038-22.019 0-12.161-9.867-22.019-22.038-22.019-12.17 0-22.037 9.858-22.037 22.019 0 12.161 9.866 22.019 22.037 22.019Z" fill="#DDD" stroke="#222" stroke-miterlimit="10"/>
    <path d="M68.872 114.277h-.025c-.723-1.109-14.851-22.2-32.283 0h-.038s0 .012.012.025c0 0 0 .013-.012.026h.038c17.432 22.199 31.573 1.109 32.283 0h.025l-.013-.026c0-.013.013-.025.013-.025Z" fill="#fff" stroke="#222" stroke-linejoin="round"/>
    <path d="M59.956 121.07a6.784 6.784 0 0 0 6.787-6.781 6.784 6.784 0 0 0-6.787-6.781 6.784 6.784 0 0 0-6.787 6.781 6.784 6.784 0 0 0 6.787 6.781Z" fill="#222"/>
    <path d="M108.147 141.646c15.128 0 27.392-12.254 27.392-27.369s-12.264-27.369-27.392-27.369c-15.129 0-27.392 12.254-27.392 27.369s12.264 27.369 27.392 27.369Z" fill="#4F97EB" stroke="#222" stroke-miterlimit="10"/>
    <path d="M108.147 136.296c12.171 0 22.038-9.858 22.038-22.019 0-12.161-9.867-22.019-22.038-22.019s-22.038 9.858-22.038 22.019c0 12.161 9.867 22.019 22.038 22.019Z" fill="#DDD" stroke="#222" stroke-miterlimit="10"/>
    <path d="M124.314 114.277h-.026c-.722-1.109-14.851-22.2-32.282 0h-.039s0 .012.013.025c0 0 0 .013-.013.026h.04c17.43 22.199 31.572 1.109 32.281 0h.026l-.013-.026c0-.013.013-.025.013-.025Z" fill="#fff" stroke="#222" stroke-linejoin="round"/>
    <path d="M115.399 121.07a6.784 6.784 0 0 0 6.787-6.781 6.784 6.784 0 0 0-6.787-6.781 6.783 6.783 0 0 0-6.786 6.781 6.783 6.783 0 0 0 6.786 6.781Z" fill="#222"/>
    <path d="M146.081 99.722c.323 0 .619-.039.929-.077l1.432 55.717 18.064 33.583H211.3l-9.183-30.076s-13.328-67.308-14.193-71.704l-40.32-39.383c-3.575-3.481-9.29-3.404-12.774.167-3.484 3.571-3.406 9.282.168 12.763l34.501 43.522-3.006 27.072" fill="#FFE8DB"/>
    <path d="M146.081 99.722c.323 0 .619-.039.929-.077l1.432 55.717 18.064 33.583H211.3l-9.183-30.076s-13.328-67.308-14.193-71.704l-40.32-39.383c-3.575-3.481-9.29-3.404-12.774.167-3.484 3.571-3.406 9.282.168 12.763l34.501 43.522-3.006 27.072" stroke="#222" stroke-linejoin="round"/>
    <path d="M154.042 57.67a7.343 7.343 0 0 0 1.536-2.012C153.052 52.938 148 48 147.5 47.5c-.354-.354-2.263-2.2-5.881-1.85-5.35 1.901.063 10.511 3.895 13.231 2.335 1.663 5.857 1.29 8.193-.89l.335-.322Z" fill="#FFE8DB" stroke="#222" stroke-linejoin="round"/>
    <path d="m166.492 131.294-.477-1.057c-.981-2.179-1.974-4.358-2.955-6.524-1.509-3.326-3.019-6.664-4.529-9.991-1.587-3.519-3.186-7.038-4.774-10.558-1.238-2.733-2.477-5.479-3.715-8.212-1.433-3.158-2.465-6.678-5.652-8.534-2.09-1.225-4.632-1.573-6.967-.89-4.787 1.38-7.509 6.524-6.077 11.474l17.096 58.373.464.877" fill="#FFE8DB"/>
    <path d="m166.492 131.294-.477-1.057c-.981-2.179-1.974-4.358-2.955-6.524-1.509-3.326-3.019-6.664-4.529-9.991-1.587-3.519-3.186-7.038-4.774-10.558-1.238-2.733-2.477-5.479-3.715-8.212-1.433-3.158-2.465-6.678-5.652-8.534-2.09-1.225-4.632-1.573-6.967-.89-4.787 1.38-7.509 6.524-6.077 11.474l17.096 58.373.464.877" stroke="#222" stroke-linejoin="round"/>
    <path d="m143.797 107.277-.439.116c-2.993.773-6.232-.787-7.548-3.649-2.154-4.68-3.832-12.956 2.839-14.683l.413-.103c8.399-2.18 14.025 15.908 4.748 18.331l-.013-.012ZM99.774 64.567c4.954-.168 9.109 3.48 9.277 8.134l.413 11.074c.167 4.654-3.704 8.56-8.658 8.728-4.955.167-9.11-3.481-9.277-8.135l-.413-11.074c-.168-4.654 3.703-8.56 8.658-8.727Z" fill="#FFE8DB" stroke="#222" stroke-linejoin="round"/>
    <path d="M74.772 86.905a8.445 8.445 0 0 0 16.88-.59l-.387-11.066a8.445 8.445 0 0 0-16.88.589l.387 11.067Z" fill="#FFE8DB" stroke="#222" stroke-linejoin="round"/>
    <path d="M66.768 97.587h.013c4.657-.163 8.301-4.067 8.138-8.72l-.386-11.068c-.163-4.653-4.07-8.294-8.728-8.132h-.013c-4.657.163-8.301 4.067-8.139 8.721l.387 11.067c.163 4.654 4.07 8.294 8.728 8.132Z" fill="#FFE8DB" stroke="#222" stroke-linejoin="round"/>
    <path d="M41.391 90.814a8.445 8.445 0 0 0 16.88-.589l-.234-6.686a8.445 8.445 0 0 0-16.88.589l.234 6.686ZM99.839 71.58h.451c3.123-.117 5.987 2.01 6.658 4.937 1.097 4.796.929 12.84-6.038 13.06h-.439c-8.774.296-10.335-17.688-.645-18.01l.013.012ZM82.6 73.462h.426c2.942-.116 5.638 2.01 6.27 4.937 1.033 4.796.878 12.84-5.69 13.06h-.412c-8.27.296-9.729-17.688-.607-18.01l.013.013Z" fill="#FFE8DB" stroke="#222" stroke-linejoin="round"/>
    <path d="M65.879 76.091h.425c2.942-.116 5.639 2.011 6.271 4.938 1.032 4.795.877 12.84-5.69 13.059h-.413c-8.27.296-9.728-17.688-.606-18.01l.013.013ZM49.105 80.036h.387c2.658-.103 5.097 1.818 5.665 4.474.942 4.344.787 11.615-5.136 11.821h-.374c-7.47.271-8.8-15.998-.542-16.282v-.013Z" fill="#FFE8DB" stroke="#222" stroke-linejoin="round"/>
    <path d="M3.836 52.533v-8.925L26.274 8.162h7.733v12.43h-4.589L15.254 42.994v.434H47.23v9.105H3.836ZM29.635 62V49.823l.217-4.01V8.163h10.695V62H29.635Zm41.865.723c-4.577 0-8.491-1.084-11.743-3.252-3.228-2.192-5.71-5.336-7.444-9.431-1.71-4.12-2.565-9.093-2.565-14.923 0-5.805.867-10.767 2.602-14.886 1.734-4.144 4.215-7.311 7.443-9.504C63.045 8.535 66.947 7.44 71.5 7.44c4.577 0 8.48 1.096 11.707 3.288 3.252 2.193 5.733 5.348 7.443 9.467 1.735 4.12 2.602 9.094 2.602 14.923 0 5.83-.855 10.804-2.566 14.923-1.71 4.095-4.19 7.239-7.443 9.43-3.228 2.169-7.142 3.253-11.743 3.253Zm0-9.395c2.192 0 4.035-.698 5.528-2.096 1.518-1.42 2.662-3.492 3.433-6.214.795-2.722 1.192-6.023 1.192-9.9 0-3.903-.397-7.215-1.192-9.937-.77-2.722-1.915-4.794-3.433-6.215-1.493-1.446-3.336-2.168-5.528-2.168-3.252 0-5.757 1.602-7.516 4.806-1.758 3.18-2.637 7.684-2.637 13.513 0 3.878.385 7.179 1.156 9.9.795 2.723 1.951 4.794 3.469 6.215 1.517 1.398 3.36 2.096 5.528 2.096Zm24.594-.795v-8.925l22.438-35.446h7.733v12.43h-4.589l-14.164 22.402v.434h31.977v9.105H96.094ZM121.893 62V49.823l.216-4.01V8.163h10.696V62h-10.912Z" fill="#156FDA"/>
    <path d="M208.326 17 173.11 60.03M192.247 18.708l-6.018 44.111M165.033 40.723l47.884-3.535M168.177 14.717l37.316 43.359M6.69 182.842l27.1 33.389M4.223 215.526l22.898-37.717M-.802 194.275l36.484 2.787M16.918 213.115 16.138 175" stroke="#6A6A6A" stroke-linecap="round" stroke-linejoin="round"/>
  </g>
  <defs>
    <clipPath id="a">
      <path fill="#fff" d="M0 0h220v220H0z"/>
    </clipPath>
  </defs>
</svg>
