<svg fill="none" height="253" viewBox="0 0 311 253" width="311" xmlns="http://www.w3.org/2000/svg"><path d="m303.14 146.295h-206.1351v67.903h206.1351z" stroke="#152065"/><path d="m39.2117 225.717v-10.307l-13.3382-6.062-1.8188 8.488.6063 5.456 8.4879 2.425z" fill="#9fa9b9"/><path d="m108.327 217.23-4.85-9.701-12.1254 9.701 3.0314 4.85h4.2439z" fill="#9fa9b9"/><path d="m303.747 209.953h3.031v-67.297h-205.529v3.032" stroke="#152065"/><path d="m307.384 206.317h3.032v-67.297h-205.529v3.031" stroke="#152065"/><circle cx="266.763" cy="179.034" fill="#00f5a6" r="19.401"/><path d="m255.851 179.618 8.121 7.904 13.705-13.338" stroke="#152065"/><path d="m111.556 168.121h127.319" stroke="#152065"/><path d="m111.556 177.82h54.565" stroke="#152065"/><path d="m135.61 29.2836c-3.395 1.9401-3.031 6.4669-2.425 8.4879 1.617-.606 4.85-1.9393 4.85-2.4243s3.638-1.8189 5.457-2.4251l4.243 2.4251.607 4.8502-1.819 7.8817 1.819 2.4251h5.456l3.638 1.2125c1.213-.4041 4.001-1.6975 5.457-3.6376 1.455-1.9401.606-4.8503 0-6.0628.606-.8084 2.425-3.0323 2.425-5.4574s-3.436-4.2431-4.851-4.8494c.405-.6063.849-2.3039-.606-4.244s-5.456-2.4259-7.275-1.2125c.202-.809-1.213-3.3026-4.244-3.6394-4.365-.485-6.063 3.6382-6.063 5.4574-.808-.4042-3.274-.7275-6.669 1.2126z" fill="#152065"/><path d="m129.547 49.2896c.485-10.6705 8.69-17.38 12.732-19.4009.606 3.0314 5.456 3.0314 8.488 4.8502 3.031 1.8189 0 6.0628-1.819 8.4879-1.455 1.9401-.606 5.2545 0 6.6691.808-.4042 2.91-1.2125 4.85-1.2125 2.425 0 5.457 3.0314 3.032 7.2753-1.94 3.3952-5.255 2.223-6.669 1.2126l-2.426 9.7005c-.606 2.4251-3.637 5.4565-8.487 5.4565-3.881 0-5.659-4.0419-6.063-6.0628l1.819-7.8817.161-.5617c-3.245-.5532-5.878-2.8119-5.618-8.5325z" fill="#4a8df9"/><path d="m143.492 56.5645c-2.685 1.3914-5.457 1.8188-8.326 1.2571" stroke="#152065"/><circle cx="135.307" cy="39.2864" fill="#152065" r=".90942"/><circle cx="141.37" cy="42.3176" fill="#152065" r=".90942"/><path d="m138.035 41.4082-6.062 3.6377 3.031 2.4251m-1.213 2.4251c0 2.4251 3.638 2.4251 4.851 1.2126m15.763.6063h-3.638c.607.8083 1.334 2.5463-.606 3.0314" stroke="#152065"/><path d="m101.659 119.619s28.691 16.976 31.723 18.795c3.031 1.819 3.031 11.519 3.031 11.519s-1.212 4.244-6.063 6.063c-4.85 1.819-47.4861 9.094-47.4861 9.094l30.9201 36.983-25.4636 21.22-30.314-47.29-9.7005 43.652-27.8889-9.7c3.4356-16.572 13.8232-53.353 27.8889-67.903 14.0657-14.551 41.4291-21.018 53.3531-22.433z" fill="#00f5a6"/><path d="m119.847 140.232-44.8646 19.401 23.6449 54.566" stroke="#152065"/><path d="m86.502 134.17c-12.7319 4.648-36.0131 19.765-27.2826 43.046" stroke="#152065"/><path d="m57.4 168.727-23.0387 45.471" stroke="#152065"/><path d="m108.934 216.623-9.7009 3.638c-5.3352-1.94-6.2649 2.021-6.0628 4.244.8083 2.627.8488 9.458-5.4565 15.763s-5.4565 11.115-4.244 12.732l15.7633-5.457 14.5509-23.038z" fill="#152065"/><path d="m88.5166 242.088 2.4251 3.031" stroke="#fff"/><path d="m91.5488 240.875 2.4251 3.031" stroke="#fff"/><path d="m27.6927 218.442c-1.9401-1.455-4.0419.606-4.8502 1.819-2.4248 5.457-10.3068 10.306-17.58218 15.762-5.820286 4.365-5.658611 10.711-4.850237 13.338l38.801917-16.369.6063-7.882-9.0942-2.425c-.2021-.808-1.0913-2.788-3.0314-4.243z" fill="#152065"/><path d="m67.9034 31.102c1.8181.6062 12.7308 4.851 12.7308 10.9138s-3.8991 8.2674-6.2485 9.8337l8.6746 34.4247 16.3696-6.0628v10.9121l-23.2269 6.6691-9.0942-45.9431-3.0298-3.6377c-1.2126-3.0314-2.9819-10.2537-.6079-9.6997 3.6377.8489 3.1291 9.6561 6.2501 6.5351 7.749-7.7491-1.0218-7.6928-4.243-10.9141-1.4551-1.4551.6071-3.6374 2.4252-3.0311z" fill="#4a8df9"/><path d="m187.34 151.336v-4.946l-20.007-39.504 6.669-5.456 21.826 44.41c2.771-.183 15.621 0 17.046 0 3.078 0 2.097 1.162 1.732 1.876 1.831-.314 2.544 1.242 1.346 2.195 2.356 0 2.02 2.524.485 2.524h-8.313c.792 0 1.769.299 5.344 1.649 2.563.967.801 2.726 0 2.413l-19.002-4.062c.99.733 3.444 2.748 5.344 4.946 1.901 2.198-.791 2.381-2.375 2.198z" fill="#4a8df9"/><path d="m94.5801 126.893c2.6222-10.306 11.5199-35.771 11.5199-35.771-1.824 1.5201-5.325 3.002-8.8977 3.9681l-2.6222-18.5196s13.6459-6.7758 18.7949-9.0929c7.749-3.4877 11.387-5.0952 19.401-3.6382-1.617 2.4254-2.061 7.5187 1.819 8.4887 3.031 1.0105 9.943 1.4551 13.338-4.8502 14.551 4.2439 24.995 16.9158 34.168 32.7381l-15.619 13.944-10.061-13.944-19.401 47.291s-7.276 3.638-17.582 0-22.2353-13.338-24.8579-20.614z" fill="#fff"/><path d="m106.1 91.122s-8.8977 25.465-11.5199 35.771c2.6226 7.276 14.5519 16.976 24.8579 20.614s17.582 0 17.582 0l19.401-47.291 10.061 13.944 15.619-13.944c-9.173-15.8223-19.617-28.4942-34.168-32.7381-3.395 6.3053-10.307 5.8607-13.338 4.8502-3.88-.97-3.436-6.0633-1.819-8.4887-8.014-1.457-11.652.1505-19.401 3.6382-5.149 2.3171-18.7949 9.0929-18.7949 9.0929l2.6222 18.5196c3.5727-.9661 7.0737-2.448 8.8977-3.9681zm0 0 2.425-6.0619" stroke="#152065"/><g stroke="#fff"><path d="m84.8789 249.362 11.5193-3.637 14.5508-21.827"/><path d="m3.6377 244.513 31.5266-12.126 1.8188-4.85"/><path d="m7.88184 236.023 2.42516 3.032"/><path d="m10.9131 234.812 2.4251 3.032"/></g><path d="m71.5408 15.3379h-15.157l7.8816 7.8816z" fill="#ea559c"/><path d="m63.8291 23.5843 11.3495-11.8831h-21.8261zm0 0v13.5806m0 0h4.3652m-4.3652 0h-4.3653" stroke="#152065"/><path d="m66.6904 16.5514 8.488-12.12562" stroke="#152065"/><path d="m78.5 7.50056c2.5-4.49881-5.5-9.00064-8.5-5.99951l3 2.00065" stroke="#152065"/><circle cx="256" cy="12" fill="#4a8df9" r="3"/><circle cx="206" cy="78" fill="#152065" r="3"/><circle cx="33" cy="62" fill="#ea559c" r="3"/><circle cx="11" cy="141" fill="#00f5a6" r="3"/><circle cx="54.5" cy="104.5" fill="#4a8df9" r="1.5"/><circle cx="101.5" cy="60.5" fill="#ea559c" r="1.5"/><circle cx="259.5" cy="101.5" fill="#152065" r="1.5"/><circle cx="200.5" cy="24.5" fill="#00f5a6" r="1.5"/><path d="m117.5 84.5 2 4.5m-8 5.5 4-1m-13-15 2.5 2.5m34 23.5 4-2m-24.5 6.5 3.5-1.5m15 9.5 5-1m-35-14 2 3m-2.5 7 3.5-2m5-7.5v4.5m-14 9 3 3m44-27 3.5-1m.5 6v3.5m-35-26 5 2.5m-9.5 1v5m4.5-13.5h5m4-3 1.5 3m-19 8 2-4m-11 53.5 5-1.5m2.5-3v5m4.5-10.5-3.5 2.5m37-21 2 4m10.5-8.5 4.5-3m0 5.5-2.5 3m4.5-12.5 2.5 6m2.5-3.5h3m-68 43.5h4.5m1.5 2v3.5m1-8.5 4.5-2.5m-4-5h3.5m17.5-1.5 2.5 3.5m-19-11 1.5 3.5m-.5-19.5 3 2.5m22.5 8 4 1m-25 4-.5 3.5m5-5.5 2.5 4m3.5-3.5 4-.5m3-1 .5 3m-8.5 5.5-5 1.5m-6.5 1.5-1 4.5m4.5-1.5 5 2.5m-6.5 3-4 2m-2.5 2.5 1.5 3.5m-3.5 3 5 1.5m4-6.5v4.5m2.5 3.5 1.5 3m.5-8.5 4.5-1.5m-3.5-2.5-2.5-5m7.5 1.5 5-2m-1 8-.5 3.5m-6 2 4 2.5m7.5-17-2.5-3.5m.5-4 4.5.5m2.5-5.5-2.5-3.5m6-5.5v2.5m-16-1.5v-5m5-3 3.5-5.5m4 2 3-.5m14.5 7v3m3.5 3.5 2.5-5.5m5.5-1-5.5-3.5m3.5-5 2 4m-7-2.5-4 3.5m3-13.5-3.5-5m-4.5 4-3.5 6.5m-2-7 1-8m4.5 4.5 1.5.5m-1.5-3.5-3.5-4m-6.5 0-5.5 1.5m7.5-4v5.5m-6 6-4 3m6 .5 1-5.5m1.5 5.5 2 2.5m-12 2.5 5.5-1.5m-10.5 4.5 1.5 3.5m-3.5 0-4 4m0 6-4.5-2m-1.5-5-1.5-5m3.5-6v5.5m3-1.5 2.5 2.5m3.5-4.5 3.5-1.5m-.5-4-2-4.5m4.5-.5 4.5-2.5m-7-1.5-1 1.5m-6.5-5-4 2.5m5 1.5.5 5m-3 3 5-.5m-3.5 6 1.5-1.5m-10.5-8.5 4 4m-14 3.5 3.5-1m4 4.5h4m-9.5 6-2.5 2m-1-6-2 3.5m-1 9-3 2m0 4.5 1.5 2.5m-5 5.5-2.5 3.5m2.5-32.5 2.5-3.5m-3.5-7h3.5m-1 4 3.5-.5m.5-11.5-5.5 3.5" stroke="#152065" stroke-linecap="round"/></svg>