<svg width="112" height="112" viewBox="0 0 112 112" fill="none" xmlns="http://www.w3.org/2000/svg">
  <path fill-rule="evenodd" clip-rule="evenodd" d="M100.942 107.06H94.8388C94.3178 107.06 93.7968 106.91 93.3502 106.61L79.0596 96.488C78.6131 96.1881 78.092 96.0382 77.571 96.0382H18.9945C12.4447 95.9632 7.16016 90.6398 7.16016 84.1167V16.8614C7.16016 10.2634 12.4447 4.93994 18.9945 4.93994H69.5326C76.0824 4.93994 81.367 10.2634 81.367 16.8614V22.9347C81.367 24.3592 82.5579 25.5589 83.972 25.5589H91.7872C98.337 25.5589 103.622 30.8823 103.622 37.4804V104.436C103.547 105.86 102.356 107.06 100.942 107.06ZM19.1434 86.516H80.6227C81.1437 86.516 81.6647 86.6659 82.1113 86.9659L91.6383 93.7139C92.6804 94.4636 94.169 93.7139 94.169 92.3643V37.6303C94.169 36.2058 92.9781 35.0061 91.5639 35.0061H83.8976C82.4834 35.0061 81.2925 36.2058 81.2925 37.6303V72.795C81.2925 74.2196 80.1017 75.4192 78.6875 75.4192H31.9454C30.5312 75.4192 29.3403 74.2196 29.3403 72.795V28.1831C29.3403 26.7585 30.5312 25.5589 31.9454 25.5589H69.3837C70.7979 25.5589 71.9888 24.3592 71.9888 22.9347V17.0114C71.9888 15.5868 70.7979 14.3872 69.3837 14.3872H19.1434C17.7292 14.3872 16.5384 15.5868 16.5384 17.0114V83.8917C16.5384 85.3913 17.6548 86.516 19.1434 86.516ZM39.9838 65.897H70.649C71.3933 65.897 71.9144 65.2972 71.9144 64.6224V36.2807C71.9144 35.531 71.3189 35.0061 70.649 35.0061H39.9838C39.2395 35.0061 38.7185 35.6059 38.7185 36.2807V64.6224C38.7185 65.3722 39.314 65.897 39.9838 65.897Z" fill="#DDDDDD"/>
</svg>
