<svg width="205" height="223" viewBox="0 0 205 223" fill="none" xmlns="http://www.w3.org/2000/svg">
<path d="M131.405 158.235C132.029 158.611 132.65 158.988 133.367 159.416L124.477 164.562L122.478 163.404L131.405 158.235Z" fill="#F9F9F9"/>
<path d="M143.036 151.509L144.983 152.695L134.6 158.707C133.891 158.392 133.214 158.01 132.578 157.566L143.036 151.509Z" fill="#F9F9F9"/>
<path d="M153.474 145.474L155.47 146.632C152.324 148.45 149.261 150.224 146.167 152.015C145.515 151.639 144.885 151.274 144.16 150.858L153.474 145.474Z" fill="#F9F9F9"/>
<path d="M163.339 139.767L165.361 140.925L156.642 145.969L154.652 144.812L163.339 139.767Z" fill="#F9F9F9"/>
<path d="M166.569 141.55V156.021L157.394 161.329V146.858L166.569 141.55Z" fill="#F9F9F9"/>
<path d="M156.134 147.587V162.058L146.918 167.387V152.916L156.134 147.587Z" fill="#F9F9F9"/>
<path d="M145.783 153.573V168.044L135.562 173.945V159.474L145.783 153.573Z" fill="#F9F9F9"/>
<path d="M134.378 160.168V174.64L125.422 179.821C125.286 174.918 125.376 170.159 125.353 165.396L134.378 160.168Z" fill="#F9F9F9"/>
<path d="M166.612 171.659C166.65 172.154 166.538 172.649 166.291 173.08C166.045 173.511 165.674 173.858 165.229 174.075C159.012 177.632 152.805 181.201 146.61 184.784C138.476 189.483 130.346 194.183 122.219 198.885C121.54 199.276 120.939 199.8 120.176 200.043C119.367 200.303 118.971 200.092 118.847 199.253C118.777 198.785 118.741 198.313 118.74 197.84C118.74 187.247 118.74 176.652 118.74 166.055C118.74 165.014 118.657 163.966 118.87 162.918C119.159 161.535 120.141 160.82 121.257 160.177C127.227 156.729 133.197 153.276 139.168 149.819C147.665 144.906 156.159 139.996 164.651 135.087C165.229 134.751 165.806 134.378 166.497 133.947V140.172C165.764 139.882 165.072 139.499 164.437 139.032C163.669 138.505 163.022 138.592 162.259 139.032C149.729 146.292 137.195 153.545 124.657 160.788C123.909 161.219 123.186 161.717 122.406 162.076C121.265 162.603 120.907 163.523 120.904 164.681C120.904 169.228 120.904 173.777 120.887 178.324C120.887 179.239 121.248 179.737 121.976 180.304C123.709 181.653 125.107 181.395 126.948 180.304C139.861 172.712 152.853 165.254 165.818 157.755C166.02 157.639 166.228 157.535 166.584 157.344V159.103C166.592 163.3 166.563 167.479 166.612 171.659ZM163.868 171.639V161.08C163.204 160.614 162.793 160.991 162.374 161.231L127.086 181.641L120.968 185.169C120.931 185.278 120.906 185.391 120.893 185.505C120.878 188.764 120.858 192.026 120.864 195.285C120.864 195.968 121.378 196.272 122.019 195.947C122.886 195.505 123.703 194.989 124.544 194.5L163.31 172.084C163.536 171.99 163.73 171.832 163.868 171.63V171.639Z" fill="#F9F9F9"/>
<path d="M172.09 174.764C172.09 175.523 172.28 176.272 172.124 177.042C172.067 177.392 171.931 177.724 171.727 178.013C171.522 178.302 171.255 178.541 170.946 178.712C153.048 189.066 135.15 199.416 117.252 209.762C116.111 210.422 114.973 211.171 113.54 211.304V157.08C116.478 156.038 118.945 154.23 121.56 152.725C138.071 143.22 154.565 133.689 171.041 124.132C171.33 123.964 171.633 123.82 172.015 123.617C172.121 124.596 172.151 125.582 172.104 126.566C172.104 142.633 172.099 158.699 172.09 174.764ZM167.776 153.185C167.776 146.979 167.776 140.776 167.776 134.575C167.776 133.996 167.618 133.4 167.066 133.073C166.514 132.745 166.017 132.948 165.52 133.258C164.74 133.741 163.94 134.187 163.146 134.647C148.83 142.923 134.517 151.198 120.208 159.474C119.5 159.854 118.901 160.409 118.468 161.085C118.034 161.762 117.78 162.538 117.729 163.341C117.639 164.278 117.611 165.222 117.608 166.165C117.608 176.996 117.608 187.828 117.608 198.662C117.608 200.937 119.052 201.846 121.097 200.9C122.051 200.451 122.906 199.843 123.813 199.319L157.81 179.647C160.196 178.266 162.493 176.698 164.992 175.566C167.115 174.605 167.774 173.19 167.748 171.008C167.672 165.066 167.722 159.124 167.722 153.185H167.776Z" fill="#F9F9F9"/>
<path d="M173.242 176.507C173.309 178.052 172.578 179.129 171.31 179.864C153.346 190.258 135.381 200.648 117.414 211.032C116.62 211.492 115.843 212.071 114.976 212.271C113.286 212.662 111.48 212.85 109.929 211.915C105.578 209.31 101.178 206.821 96.7988 204.286C77.0021 192.819 57.1986 181.366 37.3884 169.928C36.7326 169.549 36.0133 169.28 35.3661 168.906C33.6964 167.96 32.3472 166.733 31.8532 164.773C31.7668 164.394 31.729 164.005 31.7406 163.616C31.7406 147.103 31.7406 130.59 31.7406 114.077C31.761 113.263 31.8412 112.452 31.9803 111.649C32.2692 109.8 33.5288 108.738 35.0224 107.887C39.6042 105.232 44.1927 102.58 48.788 99.9332V57.7609L42.3169 54.0157C38.3851 55.4397 35.9613 54.9563 34.2279 52.4325C33.5323 51.3891 33.1938 50.1475 33.2637 48.8946C33.3335 47.6418 33.8077 46.4456 34.615 45.4863C35.4441 44.5224 36.5697 43.8622 37.8145 43.6096C39.0593 43.357 40.3525 43.5265 41.4906 44.0913C44.0589 45.3821 45.1133 47.9117 44.3795 51.1822L48.7996 53.7378C48.7996 52.557 48.8314 51.515 48.7996 50.476C48.7757 49.5565 48.8886 48.6386 49.1347 47.7525C49.2611 47.2381 49.4973 46.7573 49.8269 46.3431C50.1566 45.9289 50.5719 45.5912 51.0443 45.3532C53.757 43.9668 56.3396 42.3605 58.9743 40.8439C65.7151 36.9714 72.4376 33.0854 79.1418 29.1858C79.344 29.0672 79.5434 28.9427 79.7889 28.7951V24.1643C79.7889 21.7997 79.7658 19.4322 79.7889 17.0675C79.8323 13.305 83.7207 9.35433 88.2708 10.7002C89.5723 11.1075 90.6898 11.9598 91.4284 13.1082C92.3402 13.1652 93.2261 13.4352 94.0151 13.8965C94.8042 14.3579 95.4745 14.9978 95.9726 15.7651C98.1162 15.8664 99.8322 16.7868 100.979 18.6594C101.838 18.7225 102.673 18.9762 103.423 19.4022C104.172 19.8281 104.818 20.4157 105.312 21.1224C107.361 21.215 109.12 21.9907 110.316 23.8459C111.252 23.8999 112.161 24.1797 112.966 24.6614C113.771 25.1432 114.447 25.8126 114.938 26.6128C115.979 26.7025 116.99 27.0028 117.911 27.4956C119.783 28.5549 120.297 30.2914 120.245 32.2422C120.17 34.9743 120.153 37.7036 120.153 40.4387V41.1738C120.324 41.3979 120.553 41.5718 120.814 41.6775C129.468 46.6826 138.12 51.6868 146.771 56.69C148.089 57.4541 149.438 58.1834 150.041 59.7319C150.228 60.1674 150.326 60.6357 150.33 61.1095C150.131 70.047 150.287 78.9845 150.247 87.922C150.223 93.259 150.206 98.596 150.267 103.933C150.284 105.554 150.353 107.177 150.374 108.868C151.455 108.47 152.626 108.382 153.754 108.616C154.702 108.789 155.589 109.204 156.33 109.821C157.071 110.438 157.64 111.236 157.983 112.138C158.159 112.599 158.497 112.98 158.934 113.209C162.868 115.47 166.771 117.791 170.738 119.996C172.402 120.925 173.081 122.288 173.202 124.086C173.367 126.5 173.228 128.913 173.231 131.321C173.252 145.407 173.252 159.5 173.231 173.601C173.234 174.565 173.199 175.537 173.242 176.507ZM172.124 177.042C172.28 176.272 172.09 175.523 172.09 174.764C172.103 158.699 172.103 142.633 172.09 126.566C172.136 125.582 172.106 124.596 172 123.617C171.619 123.82 171.315 123.964 171.027 124.132C154.535 133.668 138.041 143.199 121.545 152.725C118.945 154.23 116.464 156.038 113.526 157.08V211.304C114.97 211.171 116.097 210.422 117.238 209.762C135.149 199.425 153.047 189.075 170.931 178.712C171.244 178.543 171.514 178.305 171.72 178.015C171.927 177.726 172.065 177.393 172.124 177.042ZM171.685 122.427C171.495 121.956 171.148 121.564 170.703 121.319C166.872 119.102 163.031 116.886 159.179 114.671C158.968 114.549 158.778 114.312 158.442 114.419C158.304 116.381 157.504 118.008 155.842 119.134C154.181 120.26 152.332 120.37 150.443 119.779C150.195 120.451 149.914 120.966 149.313 121.313C140.106 126.619 130.907 131.937 121.719 137.266C118.989 138.858 116.195 140.372 113.534 142.108C111.529 143.408 109.412 143.752 107.222 142.519C106.745 142.25 106.312 141.906 105.838 141.634C96.0275 135.949 86.2187 130.272 76.4118 124.601C68.1004 119.796 59.8179 114.934 51.4545 110.225C49.2907 109.007 48.5656 107.397 48.7765 105.07C48.8863 103.84 48.7938 102.593 48.7938 101.256C48.5338 101.389 48.4182 101.441 48.3085 101.505C43.9674 104.013 39.6283 106.521 35.291 109.03C34.6671 109.354 34.1149 109.801 33.6675 110.344C34.0055 110.529 34.3261 110.7 34.6381 110.879L91.7924 143.935C98.1075 147.587 104.46 151.17 110.715 154.933C112.552 156.036 114.051 155.952 115.692 154.774C116.27 154.363 116.935 154.102 117.544 153.749L171.685 122.427ZM152.462 119.035C155.123 119.07 157.345 117.009 157.275 114.381C157.206 111.753 155.556 109.733 152.693 109.597C149.805 109.597 147.956 111.774 147.889 114.196C147.858 115.444 148.322 116.654 149.179 117.56C150.036 118.467 151.217 118.996 152.462 119.032V119.035ZM148.308 120.642C148.886 120.315 149.386 119.979 149.357 119.194C147.008 117.412 146.289 115.061 147.095 112.248C146.76 112.025 146.517 111.779 146.139 111.774L145.659 112.405C143.868 114.795 141.716 116.775 138.988 118.037C135.626 119.597 132.223 119.86 128.848 118.069C127.927 117.579 127.098 116.911 126.194 116.387C123.929 115.079 121.643 113.802 119.364 112.517C118.842 112.261 118.406 111.859 118.107 111.36C117.039 109.348 116.293 107.227 116.169 104.929C115.845 98.8941 117.769 93.641 121.872 89.2418C125.009 85.8786 128.843 83.8787 133.572 84.0581C135.08 84.116 136.544 84.3476 137.905 85.2158C139.462 86.223 141.043 87.2418 142.761 87.9596C144.469 88.6543 145.97 89.7764 147.121 91.2185C147.987 92.3184 148.565 93.5716 149.241 94.8393V94.0636C149.241 84.7306 149.241 75.3966 149.241 66.0616C149.241 64.4331 149.229 62.8036 149.204 61.1732C149.217 60.8522 149.166 60.5318 149.053 60.231C148.94 59.9302 148.769 59.6552 148.548 59.4222C147.727 59.9142 146.927 60.412 146.11 60.8838C136.663 66.3424 127.212 71.7961 117.758 77.245C115.375 78.6111 113.167 80.4287 110.157 80.4953C109.984 101.068 110.122 121.559 110.068 142.108C110.908 142.137 111.737 141.903 112.439 141.44C113.292 140.861 114.173 140.375 115.071 139.865C126.145 133.45 137.224 127.041 148.308 120.639V120.642ZM149.175 109.626V105.661C148.733 106.767 148.224 107.832 147.794 108.981C148.265 109.189 148.603 109.533 149.166 109.623L149.175 109.626ZM146.864 108.202C148.814 103.861 149.542 99.4093 147.846 94.8219C146.569 91.3719 144.186 89.0536 140.442 88.5414C137.264 88.1072 134.424 89.1954 131.922 91.1028C127.496 94.4746 124.974 99.0273 124.304 104.497C123.726 109.189 124.567 113.525 128.658 116.61C130.227 117.788 132.171 118.355 134.126 118.205C136.914 118.048 139.341 116.914 141.499 115.174C142.933 114.018 144.185 112.652 145.214 111.122L141.976 109.25C141.713 109.597 141.482 109.913 141.239 110.216C139.887 111.898 138.333 113.325 136.258 114.066C132.965 115.241 129.998 113.962 128.626 110.749C127.621 108.387 127.624 105.939 128.167 103.479C129.033 99.5714 130.894 96.2574 134.193 93.9073C138.659 90.7236 143.409 92.6251 144.503 97.9969C144.821 99.6535 144.812 101.357 144.477 103.01C144.223 104.189 143.889 105.349 143.478 106.483L146.693 108.335C146.777 108.26 146.838 108.245 146.855 108.199L146.864 108.202ZM147.595 111.206C147.831 110.943 148.063 110.769 148.089 110.436L133.687 102.098C133.361 102.139 133.164 102.275 133.11 102.816L147.595 111.206ZM143.839 60.904C145.13 60.1573 146.399 59.3759 147.794 58.5394L120.179 42.5602V50.612C120.287 50.702 120.4 50.7861 120.517 50.8638C123.374 52.5251 126.248 54.1546 129.082 55.8535C130.151 56.4961 131.304 57.0518 132.101 58.0821C132.812 58.9996 132.968 60.085 132.353 60.9359C131.914 61.5898 131.34 62.1407 130.668 62.5509C126.196 65.1383 121.733 67.7432 117.244 70.3046C116.412 70.7793 115.635 71.3871 114.67 71.6157C113.095 71.9833 111.654 71.5376 110.247 70.9095C108.47 70.1107 106.924 68.9125 105.246 67.9429C92.167 60.3811 79.0869 52.8204 66.0059 45.2605C64.313 44.2823 64.3217 42.5052 66.0059 41.5356L78.538 34.3C78.9425 34.0655 79.3412 33.8166 79.6936 33.6054V30.1004L51.8041 46.2301C53.1821 47.0347 54.4618 47.7901 55.7503 48.5455L103.232 76.0034C104.931 76.9874 106.621 77.9889 108.331 78.9498C109.023 79.3356 109.82 79.4869 110.605 79.381C112.194 79.19 113.543 78.4114 114.875 77.6444C124.543 72.0836 134.197 66.5025 143.836 60.9011L143.839 60.904ZM143.362 102.804C143.773 100.489 143.773 98.1966 142.634 96.0462C141.496 93.8957 139.405 93.0361 137.116 93.7018C136.511 93.8765 135.933 94.1336 135.398 94.4659C132.338 96.3674 130.57 99.2183 129.548 102.57C128.779 105.085 128.597 107.629 129.576 110.144C130.458 112.407 132.295 113.649 134.522 113.328C137.428 112.905 139.315 110.989 140.97 108.668L132.85 103.968C131.957 103.453 131.711 102.602 132.217 101.788C132.331 101.588 132.486 101.415 132.672 101.278C132.858 101.142 133.07 101.046 133.295 100.998C133.52 100.949 133.753 100.948 133.978 100.995C134.203 101.042 134.416 101.136 134.603 101.27C135.06 101.577 135.526 101.867 136.001 102.139C138.128 103.374 140.26 104.602 142.421 105.846C142.873 104.88 143.189 103.855 143.359 102.801L143.362 102.804ZM130.718 61.0979C131.928 59.9402 131.914 59.1067 130.541 58.1053C129.721 57.5062 128.831 56.9968 127.941 56.4787C126.015 55.3442 124.089 54.2212 122.163 53.1098C121.525 52.7422 120.924 52.2878 120.161 52.0476V54.8377C120.45 55.0084 120.707 55.1734 120.976 55.3297C122.362 56.0777 123.703 56.9069 124.992 57.813C126.092 58.6349 126.133 59.3961 125.148 60.3339C124.806 60.6582 124.426 60.9391 124.015 61.1703C120.858 62.9937 117.66 64.7592 114.571 66.6694C113.006 67.6419 111.57 67.6158 110.068 66.7504C97.9111 59.7386 85.7555 52.72 73.6009 45.6947C73.0809 45.4053 72.5262 45.1419 72.0293 44.8061C71.0355 44.1289 71.0326 43.2693 72.0293 42.6065C72.6591 42.1839 73.3178 41.8048 73.9736 41.4228C75.9005 40.3027 77.8303 39.1913 79.7109 38.1059V34.9599C79.5681 35.0152 79.4283 35.078 79.292 35.148C75.2938 37.4634 71.2994 39.7788 67.3088 42.0942C66.9152 42.3504 66.5449 42.641 66.2024 42.9625C66.0786 43.0477 65.9891 43.1743 65.9499 43.3196C65.9107 43.4649 65.9245 43.6194 65.9886 43.7555C66.3461 44.0935 66.7546 44.3728 67.1991 44.5833C69.2078 45.7661 71.2214 46.9431 73.2398 48.1143C81.296 52.7818 89.356 57.4473 97.42 62.1109C101.638 64.5624 105.893 66.9415 110.036 69.5231C111.859 70.6635 113.777 71.0803 115.871 69.8126C120.346 67.1238 124.902 64.5711 129.423 61.9604C129.886 61.7242 130.32 61.4337 130.715 61.0951L130.718 61.0979ZM119.107 32.4158C119.194 30.9687 118.951 29.6431 117.648 28.7256C115.978 27.5506 114.216 27.4782 112.448 28.3928C110.585 29.3653 109.467 30.9455 109.311 33.0757C109.224 34.2334 109.311 35.4374 109.311 36.6183C109.328 38.0654 109.285 39.5125 109.383 40.9597C109.424 41.5433 109.665 42.0948 110.065 42.5209C110.465 42.947 111 43.2216 111.579 43.2982C112.806 43.3995 113.491 43.1854 114.222 41.7759C114.549 41.0857 114.728 40.3343 114.748 39.5704C114.927 36.789 114.84 34.0048 114.855 31.2234C114.855 31.0266 114.933 30.8066 114.753 30.6445C114.416 30.6638 114.093 30.7871 113.829 30.9976C113.829 33.6025 113.815 36.2073 113.829 38.8121C113.84 39.546 113.752 40.278 113.569 40.9886C113.508 41.2321 113.373 41.4509 113.184 41.6159C112.995 41.7809 112.761 41.8842 112.512 41.9119C111.356 42.1405 110.539 41.4893 110.53 40.3085C110.513 38.3635 110.53 36.4186 110.53 34.4736C110.537 33.405 110.872 32.3645 111.49 31.4931C112.107 30.6218 112.977 29.9618 113.982 29.6026C116.097 28.8472 117.533 29.8283 117.556 32.0714C117.556 32.6502 117.452 33.2291 117.452 33.808C117.452 43.3764 117.452 52.9438 117.452 62.5103C117.402 62.8233 117.44 63.1439 117.561 63.4365L119.006 62.5682V33.753C119.023 33.3101 119.081 32.8644 119.107 32.4158ZM116.449 31.7038C116.471 31.5206 116.441 31.3349 116.362 31.1683C116.282 31.0018 116.157 30.8613 116.001 30.7632C115.678 32.5837 115.857 38.5082 116.29 38.9858C116.317 38.9131 116.338 38.8386 116.354 38.7629C116.423 36.4186 116.238 34.0626 116.449 31.7125V31.7038ZM116.354 48.4211V40.6558C116.354 40.3866 116.244 40.2101 115.9 40.1811C115.444 42.2505 114.745 44.2012 112.237 44.453C111.506 44.5497 110.764 44.4054 110.122 44.0421C109.227 43.5182 108.638 42.5602 108.204 41.4372C105.754 42.0161 104.287 40.9163 103.438 38.815C101.21 39.1797 100.335 38.6558 98.8153 36.1176C97.7955 36.5257 96.9375 36.5372 96.1373 36.0915C95.3371 35.6458 94.6495 34.8065 93.8897 33.4867C91.5237 33.9179 90.1486 32.6908 89.357 30.5924C87.3348 31.3594 85.9279 30.6301 84.5008 28.086L83.3452 28.2625V31.7935C87.511 31.8485 87.8403 31.9412 91.4341 34.0192L95.8628 36.5835L109.779 44.6441L112.601 46.2764C113.823 46.9797 115.034 47.6715 116.354 48.4298V48.4211ZM116.334 52.4586V49.7293C116.097 49.5846 115.897 49.4601 115.692 49.3415C107.268 44.4772 98.8452 39.6071 90.423 34.7312C89.4899 34.19 88.5828 33.6198 87.5341 33.3188C86.1648 32.9223 84.7839 32.7052 83.3596 33.0641V35.9931C84.9688 35.0496 86.4334 35.3072 87.8952 36.1552C97.1744 41.5443 106.459 46.9247 115.75 52.2965C115.918 52.3862 116.071 52.583 116.334 52.4673V52.4586ZM112.668 36.818V32.1003C111.761 32.7776 111.567 34.5547 111.772 36.3723C112.008 36.6229 112.326 36.781 112.668 36.818ZM111.977 40.6731C112.757 40.5776 112.936 39.8483 112.604 38.2043C112.353 38.0567 112.145 37.7905 111.737 37.8454C111.717 38.7977 111.576 39.7557 111.966 40.6731H111.977ZM112.211 27.1743L113.609 26.7141C112.997 25.9223 112.146 25.3497 111.182 25.0817C110.219 24.8136 109.194 24.8644 108.262 25.2265C106.147 25.9674 104.402 28.2249 104.402 30.2393C104.402 32.4969 104.402 34.7573 104.402 37.0148C104.402 39.6515 105.526 40.6818 108.138 40.4213C108.179 39.9292 108.163 39.4339 108.092 38.9453C106.428 39.3736 105.633 38.5922 105.714 36.954C105.806 35.1712 105.772 33.3825 105.714 31.5967C105.696 30.9261 105.82 30.2591 106.078 29.64C106.336 29.0209 106.722 28.4636 107.21 28.005C108.649 26.5665 110.744 26.0137 112.2 27.1743H112.211ZM112.298 211.38V157.109L33.2168 111.38C32.9388 112.296 32.8139 113.251 32.847 114.208C32.847 121.096 32.847 127.984 32.847 134.873C32.847 144.152 32.8817 153.434 32.8239 162.713C32.8239 164.875 33.5201 166.409 35.4239 167.508C60.4612 181.96 85.4878 196.432 110.504 210.922C111.054 211.214 111.664 211.37 112.286 211.38H112.298ZM111.09 27.785C108.372 27.183 106.439 29.866 106.823 33.5214C107.235 33.8448 107.693 34.1052 108.181 34.2942C108.01 33.0349 108.211 31.7531 108.759 30.6069C109.329 29.5124 110.124 28.5508 111.09 27.785ZM109.025 141.978V80.5937L50.8074 46.945C50.4997 47.2698 50.2808 47.6685 50.1718 48.1027C49.8656 49.1533 49.9176 50.2387 49.9147 51.3067C49.8974 63.7954 49.9147 76.2841 49.8974 88.7729C49.8974 94.5614 49.9812 100.33 49.8627 106.107C49.8396 107.146 50.0996 108.153 51.1714 108.711C51.5643 108.914 51.9225 109.189 52.3067 109.412C63.1633 115.692 74.0188 121.97 84.8734 128.245C92.477 132.65 100.076 137.062 107.67 141.48C108.08 141.709 108.496 142.007 109.025 141.978ZM108.857 23.8922C108.681 23.5649 108.413 23.2963 108.086 23.1194C106.485 22.0254 104.792 21.9617 103.094 22.83C101.199 23.7735 99.9824 25.3393 99.8553 27.4464C99.7051 29.9586 99.7946 32.4882 99.8553 35.0091C99.8958 36.9511 101.343 38.0799 103.253 37.721V36.4302C101.482 36.3694 101.178 36.0452 101.176 34.2479C101.176 32.355 101.213 30.4622 101.176 28.5722C101.112 26.1382 104.29 22.6911 107.494 24.2887L108.857 23.8922ZM108.12 37.6081V35.5995C107.699 35.3824 107.332 35.0496 106.766 34.9136C106.803 35.9786 106.615 36.9916 107.083 37.9033C107.505 38.0075 107.725 37.6949 108.12 37.5965V37.6081ZM106.162 25.0354C103.443 24.9312 101.828 27.4695 102.27 30.9021C102.572 31.1567 102.917 31.353 103.29 31.481C103.024 28.7719 104.128 26.7488 106.162 25.0239V25.0354ZM103.253 34.9628V32.7805C102.92 32.6329 102.675 32.355 102.233 32.3058C102.184 33.3275 102.097 34.2971 102.487 35.2001C102.624 35.2518 102.774 35.2554 102.913 35.2102C103.053 35.1649 103.172 35.0736 103.253 34.9512V34.9628ZM103.88 21.2845C103.716 20.9609 103.455 20.6967 103.134 20.5291C101.482 19.4524 99.7571 19.4379 98.0642 20.3525C96.2182 21.3539 95.0597 22.9255 94.9644 25.0615C94.8691 27.1975 94.9644 29.3161 94.9644 31.4289C94.9644 34.381 95.6924 35.1509 98.5986 35.2869C98.6189 35.2869 98.6391 35.258 98.694 35.2175V33.7095C97.0502 34.1495 96.1922 33.4201 96.2788 31.7183C96.3713 29.9123 96.3308 28.0947 96.2788 26.2829C96.2608 25.3573 96.5259 24.4483 97.0386 23.678C98.356 21.5942 100.546 20.8359 102.594 21.7418L103.88 21.2845ZM101.303 22.5753C99.1215 21.9559 97.2582 24.4711 97.3275 27.9702C97.6771 28.361 98.1537 28.5491 98.7315 28.8617C98.4658 26.2337 99.4682 24.2308 101.303 22.5753ZM98.6853 32.3724V30.1351C98.2375 29.9036 97.8822 29.5563 97.3044 29.4695C97.3766 30.5953 97.134 31.6894 97.6337 32.6879C98.1104 32.8008 98.3329 32.4158 98.6853 32.3782V32.3724ZM98.1451 19.0443L99.552 18.6449C98.9418 17.862 98.0965 17.2965 97.1409 17.0317C96.1853 16.767 95.17 16.8171 94.2451 17.1746C92.1593 17.9011 90.3941 20.1152 90.3739 22.0949C90.3546 24.5666 90.3604 27.0373 90.3912 29.5071C90.4172 31.5649 91.9859 32.821 93.8348 32.2711C93.7857 31.8514 93.9157 31.4028 93.7568 30.9889C92.1564 31.0468 91.7201 30.6156 91.7173 29.018C91.7173 27.1772 91.749 25.3364 91.7173 23.4957C91.7006 22.811 91.8334 22.131 92.1063 21.5031C92.3793 20.8752 92.7858 20.3146 93.2975 19.8605C94.6206 18.5986 96.4897 17.9879 98.1451 19.0443ZM96.8566 19.7274C94.3202 19.1804 92.3846 21.9675 92.8121 25.4117C93.1148 25.6745 93.4649 25.8769 93.8435 26.0079C93.706 24.7842 93.9406 23.5474 94.5166 22.4595C95.0823 21.3846 95.882 20.4508 96.8566 19.7274ZM93.8059 29.5679V27.3393C93.5082 27.0919 93.1586 26.9148 92.7833 26.8212C92.7255 27.8516 92.659 28.8472 93.0144 29.8197C93.1534 29.8818 93.3101 29.8914 93.4556 29.8467C93.6012 29.802 93.7256 29.7061 93.8059 29.5765V29.5679ZM93.2686 16.3324L94.5946 15.8664C93.2282 14.2688 91.2464 13.7912 89.2588 14.5235C87.1817 15.2876 85.4888 17.5306 85.4888 19.519C85.4888 21.7765 85.4888 24.034 85.4888 26.2916C85.4888 28.9195 86.6125 29.9412 89.2097 29.6894V28.2104C87.5225 28.6359 86.7194 27.921 86.8032 26.1584C86.8928 24.2743 86.8523 22.3785 86.8032 20.4886C86.7743 17.9445 90.2497 14.5235 93.2686 16.3411V16.3324ZM92.0379 17.0762C91.8834 16.9824 91.7091 16.9262 91.529 16.9122C91.3489 16.8981 91.168 16.9265 91.0008 16.9952C90.372 17.1408 89.7883 17.4386 89.3008 17.8624C88.8133 18.2862 88.4369 18.8232 88.2043 19.4264C87.5774 20.9864 87.9559 22.6101 87.8663 24.2366C88.0087 24.2446 88.1515 24.2446 88.2939 24.2366C88.6001 24.1845 88.9035 24.1237 89.3108 24.0485C88.9063 21.2063 89.8452 18.8793 92.0379 17.0762ZM89.9608 13.1458C89.7705 12.8198 89.4974 12.5502 89.1692 12.3644C87.5312 11.2645 85.8123 11.224 84.105 12.1184C82.2358 13.0966 81.0716 14.6653 80.9445 16.7897C80.8174 18.9141 80.8867 21.0414 80.8838 23.1571C80.8838 30.1978 80.8838 37.2405 80.8838 44.2852V46.1462C81.5945 46.2012 81.5945 46.2012 82.181 45.7641C82.181 43.0242 82.181 40.2901 82.181 37.5618C82.181 31.125 82.181 24.6881 82.1665 18.2542C82.1665 15.2065 85.4656 12.0084 88.6175 13.551L89.9608 13.1458ZM89.2675 26.7923C89.2126 26.2626 89.3397 25.7677 89.1779 25.2554C88.7338 25.2209 88.2897 25.3218 87.9039 25.5448C87.7826 26.1237 87.9877 26.6475 88.1697 27.1685C88.655 27.2524 88.9237 26.9428 89.2675 26.7923ZM87.1701 14.3701C87.106 14.3068 87.0252 14.2631 86.9372 14.2441C86.8492 14.2252 86.7576 14.2317 86.6732 14.263C85.7528 14.4295 84.9185 14.9104 84.3123 15.6239C83.706 16.3373 83.3653 17.2392 83.3481 18.176C83.3336 19.7997 83.3481 21.4263 83.3481 23.05C83.3371 23.5244 83.4075 23.9973 83.5561 24.4479C83.9259 24.5868 84.1339 24.4479 84.3765 24.1961C84.3765 22.6766 84.3765 21.1079 84.3765 19.5392C84.3708 19.0699 84.441 18.6026 84.5845 18.1558C85.0506 16.6624 85.9533 15.3436 87.1759 14.3701H87.1701ZM83.4058 26.662C83.793 26.3986 84.4025 26.4189 84.3621 25.6346C83.9663 25.6693 83.6254 25.5709 83.3192 25.7677C83.3192 26.0629 83.2181 26.3379 83.4058 26.662ZM48.762 56.4556V55.0084L43.874 52.1807C43.6111 52.5338 43.3742 52.8551 43.12 53.2024L48.762 56.4556ZM38.8848 53.8681C40.1181 53.862 41.299 53.3685 42.1711 52.4948C43.0431 51.6212 43.5357 50.438 43.5418 49.2025C43.5418 47.982 43.0584 46.8113 42.1978 45.9475C41.3371 45.0836 40.1696 44.5972 38.9513 44.5949C37.7324 44.5985 36.5635 45.0811 35.696 45.9389C34.8284 46.7967 34.3314 47.9612 34.3117 49.1823C34.323 50.4036 34.8053 51.5733 35.6576 52.4466C36.5099 53.32 37.6663 53.8293 38.8848 53.8681Z" fill="#99A5B6"/>
<path d="M170.703 121.316C171.148 121.561 171.495 121.953 171.685 122.424L117.544 153.737C116.934 154.091 116.261 154.351 115.692 154.762C114.051 155.94 112.552 156.024 110.714 154.921C104.46 151.159 98.1073 147.587 91.7921 143.923L34.6379 110.87C34.3259 110.691 34.0052 110.52 33.6672 110.335C34.1146 109.792 34.6668 109.345 35.2908 109.021C39.6222 106.501 43.9614 103.993 48.3082 101.496C48.418 101.432 48.5336 101.38 48.7936 101.247C48.7936 102.584 48.886 103.832 48.7762 105.062C48.5653 107.377 49.2905 108.998 51.4543 110.216C59.8177 114.925 68.1002 119.788 76.4115 124.592C86.2184 130.265 96.0263 135.94 105.835 141.616C106.309 141.888 106.742 142.233 107.219 142.502C109.409 143.735 111.526 143.39 113.531 142.091C116.195 140.354 118.988 138.849 121.73 137.257C130.917 131.919 140.115 126.601 149.325 121.304C149.926 120.957 150.206 120.436 150.454 119.77C152.344 120.349 154.178 120.268 155.854 119.125C157.529 117.982 158.306 116.372 158.454 114.41C158.789 114.303 158.979 114.54 159.19 114.662C163.035 116.877 166.872 119.095 170.703 121.316Z" fill="#F9F9F9"/>
<path d="M167.768 134.583C167.781 140.785 167.781 146.988 167.768 153.193H167.713C167.713 159.132 167.664 165.074 167.739 171.016C167.765 173.198 167.106 174.614 164.983 175.575C162.484 176.706 160.187 178.275 157.801 179.655L123.81 199.305C122.903 199.828 122.048 200.436 121.095 200.885C119.072 201.843 117.605 200.922 117.605 198.648C117.605 187.813 117.605 176.981 117.605 166.151C117.605 165.207 117.637 164.264 117.726 163.326C117.779 162.526 118.035 161.752 118.469 161.078C118.904 160.404 119.502 159.852 120.208 159.474C134.525 151.214 148.835 142.943 163.137 134.661C163.931 134.201 164.732 133.755 165.512 133.272C166.008 132.962 166.517 132.768 167.057 133.087C167.597 133.405 167.765 134.004 167.768 134.583ZM165.228 174.084C165.674 173.866 166.044 173.52 166.291 173.089C166.538 172.658 166.65 172.163 166.612 171.667C166.563 167.488 166.592 163.309 166.595 159.126V157.367C166.24 157.558 166.032 157.656 165.829 157.778C152.864 165.262 139.872 172.727 126.959 180.312C125.119 181.395 123.715 181.652 121.987 180.312C121.259 179.734 120.892 179.247 120.898 178.333C120.927 173.786 120.898 169.236 120.915 164.689C120.915 163.531 121.277 162.62 122.418 162.084C123.198 161.725 123.92 161.216 124.668 160.796C137.204 153.547 149.738 146.297 162.27 139.046C163.033 138.606 163.68 138.519 164.448 139.046C165.083 139.513 165.776 139.896 166.508 140.186V133.961C165.809 134.392 165.246 134.765 164.662 135.101C156.169 140.016 147.674 144.926 139.179 149.833C133.209 153.285 127.238 156.738 121.268 160.192C120.153 160.834 119.168 161.549 118.882 162.932C118.668 163.98 118.755 165.028 118.752 166.07C118.732 176.665 118.732 187.26 118.752 197.855C118.753 198.327 118.788 198.799 118.859 199.267C118.983 200.106 119.379 200.318 120.187 200.057C120.95 199.808 121.551 199.284 122.23 198.899C130.359 194.199 138.49 189.499 146.621 184.799C152.817 181.214 159.019 177.639 165.228 174.075V174.084ZM166.569 156.001V141.529L157.394 146.84V161.312L166.569 156.001ZM165.347 140.91L163.325 139.752L154.623 144.791L156.614 145.949L165.347 140.91ZM156.134 162.038V147.567L146.919 152.892V167.363L156.134 162.038ZM155.47 146.626L153.473 145.468L144.157 150.863C144.882 151.277 145.512 151.642 146.165 152.021C149.261 150.227 152.324 148.452 155.47 146.635V146.626ZM145.783 168.023V153.552L135.562 159.474V173.945L145.783 168.023ZM144.983 152.684L143.036 151.497L132.572 157.566C133.208 158.01 133.886 158.392 134.594 158.707L144.983 152.684ZM134.378 174.617V160.145L125.353 165.355C125.376 170.119 125.286 174.877 125.422 179.78L134.378 174.617ZM133.367 159.404C132.65 158.976 132.029 158.6 131.405 158.223L122.49 163.404L124.489 164.562L133.367 159.404Z" fill="#99A5B6"/>
<path d="M163.868 161.08V171.63C163.724 171.833 163.523 171.989 163.29 172.078L124.532 194.494C123.692 194.981 122.868 195.496 122.007 195.942C121.378 196.266 120.852 195.962 120.852 195.279C120.852 192.02 120.866 188.758 120.881 185.499C120.894 185.385 120.919 185.272 120.956 185.163L127.075 181.635L162.363 161.225C162.793 160.99 163.203 160.614 163.868 161.08Z" fill="#99A5B6"/>
<path d="M157.275 114.378C157.345 117.001 155.123 119.067 152.462 119.032C151.216 118.996 150.035 118.466 149.178 117.559C148.321 116.652 147.857 115.442 147.889 114.193C147.956 111.771 149.79 109.609 152.693 109.594C155.556 109.73 157.203 111.719 157.275 114.378Z" fill="#F9F9F9"/>
<path d="M149.357 119.194C149.386 119.976 148.874 120.312 148.308 120.642C137.224 127.042 126.143 133.449 115.065 139.862C114.179 140.372 113.286 140.867 112.434 141.437C111.733 141.9 110.907 142.135 110.068 142.108C110.128 121.559 109.99 101.071 110.151 80.4923C113.162 80.4315 115.369 78.6081 117.752 77.2421C127.22 71.8163 136.671 66.3625 146.104 60.8808C146.921 60.409 147.722 59.9112 148.542 59.4192C148.763 59.6522 148.935 59.9273 149.047 60.2281C149.16 60.5288 149.211 60.8492 149.198 61.1702C149.225 62.7987 149.237 64.4282 149.235 66.0586C149.235 75.3936 149.235 84.7276 149.235 94.0606V94.8421C148.574 93.5744 147.987 92.3212 147.115 91.2213C145.964 89.7792 144.463 88.6571 142.756 87.9624C141.037 87.2388 139.457 86.2258 137.899 85.2186C136.547 84.3504 135.083 84.1217 133.566 84.0609C128.837 83.8815 125.003 85.8814 121.866 89.2446C117.764 93.6409 115.84 98.8969 116.163 104.931C116.287 107.23 117.03 109.351 118.102 111.363C118.4 111.862 118.837 112.264 119.358 112.52C121.638 113.805 123.923 115.082 126.188 116.39C127.092 116.914 127.921 117.582 128.843 118.071C132.217 119.863 135.62 119.6 138.983 118.04C141.71 116.778 143.862 114.798 145.653 112.407L146.133 111.776C146.511 111.776 146.754 112.028 147.089 112.251C146.289 115.061 147.008 117.412 149.357 119.194Z" fill="#F9F9F9"/>
<path d="M147.837 94.819C149.533 99.4064 148.805 103.858 146.855 108.199C146.837 108.237 146.777 108.26 146.684 108.324L143.469 106.471C143.88 105.338 144.214 104.177 144.468 102.998C144.803 101.345 144.812 99.642 144.494 97.9854C143.4 92.6136 138.65 90.7121 134.184 93.8958C130.885 96.2459 129.021 99.5598 128.158 103.467C127.615 105.927 127.612 108.387 128.617 110.737C129.989 113.95 132.95 115.229 136.25 114.054C138.324 113.313 139.878 111.886 141.23 110.205C141.473 109.901 141.704 109.586 141.967 109.238L145.205 111.111C144.177 112.64 142.924 114.006 141.49 115.163C139.332 116.899 136.905 118.037 134.118 118.193C132.162 118.343 130.218 117.777 128.649 116.598C124.558 113.513 123.72 109.177 124.295 104.486C124.965 99.0157 127.487 94.463 131.913 91.0912C134.415 89.1839 137.252 88.0957 140.433 88.5298C144.177 89.0508 146.56 91.3691 147.837 94.819Z" fill="#F9F9F9"/>
<path d="M148.08 110.434C148.054 110.766 147.823 110.94 147.586 111.203L133.095 102.81C133.156 102.269 133.352 102.133 133.673 102.092L148.08 110.434Z" fill="#F9F9F9"/>
<path d="M147.791 58.5365C146.396 59.3729 145.127 60.1544 143.836 60.9011C134.191 66.4967 124.539 72.0758 114.881 77.6386C113.549 78.4027 112.2 79.1812 110.611 79.3752C109.826 79.4811 109.029 79.3298 108.337 78.9439C106.627 77.983 104.937 76.9816 103.238 75.9975L55.7561 48.5368C54.4676 47.793 53.1878 47.0376 51.8098 46.2214L79.6994 30.1003V33.5937C79.3469 33.805 78.9482 34.0539 78.5438 34.2883L66.0117 41.524C64.3332 42.4936 64.3246 44.2706 66.0117 45.2489C79.0908 52.8106 92.1708 60.3714 105.252 67.9312C106.93 68.9008 108.476 70.099 110.252 70.8979C111.659 71.5259 113.101 71.9716 114.675 71.6041C115.64 71.3754 116.409 70.7676 117.249 70.293C121.739 67.7315 126.205 65.1267 130.674 62.5392C131.345 62.1291 131.92 61.5781 132.358 60.9242C132.962 60.0733 132.818 58.988 132.107 58.0705C131.31 57.0401 130.157 56.4844 129.088 55.8419C126.254 54.143 123.38 52.5135 120.523 50.8522C120.405 50.7744 120.293 50.6904 120.185 50.6004V42.5601L147.791 58.5365Z" fill="#F9F9F9"/>
<path d="M142.631 96.0432C143.77 98.1937 143.77 100.483 143.359 102.801C143.19 103.858 142.875 104.886 142.423 105.855C140.262 104.61 138.13 103.383 136.004 102.147C135.528 101.871 135.062 101.582 134.606 101.279C134.419 101.144 134.206 101.05 133.981 101.003C133.755 100.956 133.523 100.957 133.298 101.006C133.073 101.055 132.861 101.151 132.675 101.287C132.489 101.423 132.334 101.597 132.22 101.797C131.714 102.61 131.96 103.461 132.852 103.976L140.979 108.671C139.323 110.986 137.437 112.908 134.531 113.331C132.303 113.655 130.466 112.413 129.585 110.147C128.606 107.632 128.788 105.088 129.556 102.573C130.579 99.2125 132.347 96.3616 135.406 94.4688C135.941 94.1364 136.52 93.8793 137.125 93.7047C139.401 93.0332 141.513 93.9246 142.631 96.0432Z" fill="#F9F9F9"/>
<path d="M130.538 58.1023C131.911 59.1037 131.925 59.9517 130.715 61.0949C130.319 61.4348 129.885 61.7263 129.42 61.9632C124.899 64.5681 120.343 67.1266 115.868 69.8154C113.774 71.0744 111.856 70.6576 110.033 69.5259C105.89 66.9442 101.635 64.5652 97.417 62.1137C89.3627 57.4366 81.3026 52.771 73.2368 48.1171C71.2184 46.9594 69.2048 45.7824 67.1961 44.5861C66.7517 44.3756 66.3432 44.0963 65.9856 43.7583C65.9215 43.6222 65.9078 43.4677 65.9469 43.3224C65.9861 43.1771 66.0756 43.0505 66.1994 42.9653C66.5419 42.6437 66.9122 42.3532 67.3059 42.097C71.2925 39.77 75.2869 37.4546 79.2891 35.1508C79.4253 35.0807 79.5651 35.0179 79.7079 34.9626V38.1174C77.8273 39.2027 75.8975 40.3141 73.9706 41.4342C73.3148 41.8163 72.6561 42.1954 72.0263 42.618C71.0412 43.2808 71.0441 44.1404 72.0263 44.8176C72.5232 45.1533 73.0779 45.3965 73.5979 45.7061C85.7621 52.7257 97.9187 59.7443 110.068 66.7619C111.57 67.6302 113.006 67.6533 114.571 66.6809C117.665 64.7562 120.858 62.9907 124.015 61.1818C124.426 60.9506 124.806 60.6697 125.148 60.3453C126.133 59.4076 126.092 58.6464 124.992 57.8244C123.703 56.9184 122.362 56.0892 120.976 55.3411C120.707 55.1849 120.442 55.0199 120.161 54.8491V52.0591C120.924 52.2993 121.525 52.7537 122.163 53.1212C124.089 54.2326 126.015 55.3556 127.941 56.4902C128.828 56.9938 129.712 57.5032 130.538 58.1023Z" fill="#F9F9F9"/>
<path d="M117.648 28.7343C118.951 29.6518 119.194 30.9832 119.107 32.4245C119.081 32.8644 119.023 33.3102 119.023 33.753V62.5393L117.579 63.4076C117.457 63.115 117.419 62.7944 117.469 62.4814C117.469 52.913 117.469 43.3455 117.469 33.779C117.469 33.2002 117.582 32.6213 117.573 32.0425C117.55 29.7994 116.129 28.8183 113.999 29.5737C112.997 29.9346 112.13 30.595 111.515 31.4656C110.899 32.3362 110.566 33.3751 110.559 34.4418C110.559 36.3868 110.559 38.3317 110.559 40.2767C110.559 41.4575 111.388 42.1087 112.541 41.8801C112.79 41.8524 113.024 41.7491 113.213 41.5841C113.402 41.4191 113.536 41.2003 113.598 40.9568C113.781 40.2462 113.869 39.5142 113.858 38.7803C113.832 36.1755 113.858 33.5706 113.858 30.9658C114.122 30.7553 114.445 30.6319 114.782 30.6127C114.961 30.7893 114.883 31.0092 114.883 31.1916C114.883 33.973 114.956 36.7572 114.777 39.5386C114.757 40.3025 114.578 41.0539 114.251 41.744C113.52 43.1536 112.835 43.3677 111.607 43.2664C111.028 43.1898 110.494 42.9152 110.094 42.4891C109.694 42.063 109.453 41.5114 109.412 40.9279C109.314 39.4807 109.357 38.0336 109.34 36.5865C109.34 35.4056 109.239 34.2161 109.34 33.0439C109.496 30.9137 110.614 29.3334 112.477 28.361C114.216 27.4956 115.978 27.5593 117.648 28.7343Z" fill="#F9F9F9"/>
<path d="M116.334 49.7378V52.4671C116.071 52.5829 115.918 52.3861 115.756 52.2905C106.467 46.9169 97.1822 41.5364 87.9011 36.1492C86.4393 35.3012 84.9746 35.0436 83.3655 35.9872V33.0582C84.7897 32.6993 86.1706 32.9164 87.5399 33.3129C88.5857 33.6023 89.4929 34.1812 90.4289 34.7253C98.8471 39.6108 107.271 44.4857 115.701 49.35C115.897 49.4686 116.097 49.5931 116.334 49.7378Z" fill="#F9F9F9"/>
<path d="M112.592 38.2041C112.925 39.8481 112.746 40.5774 111.966 40.673C111.576 39.7555 111.717 38.7975 111.72 37.8453C112.133 37.7903 112.341 38.0565 112.592 38.2041Z" fill="#F9F9F9"/>
<path d="M113.598 26.714L112.199 27.1742C110.755 26.0165 108.649 26.5664 107.219 28.0048C106.732 28.4645 106.348 29.0222 106.092 29.6413C105.836 30.2604 105.714 30.9268 105.734 31.5966C105.783 33.3824 105.818 35.171 105.734 36.9539C105.653 38.5921 106.448 39.3735 108.112 38.9451C108.183 39.4338 108.199 39.929 108.158 40.4212C105.558 40.6817 104.425 39.6514 104.422 37.0147C104.422 34.7572 104.408 32.4967 104.422 30.2392C104.422 28.2132 106.156 25.9673 108.282 25.2263C109.21 24.8719 110.228 24.8251 111.184 25.0929C112.141 25.3607 112.987 25.9289 113.598 26.714Z" fill="#F9F9F9"/>
<path d="M112.286 157.109V211.379C111.659 211.368 111.044 211.208 110.492 210.91C85.4704 196.439 60.4438 181.968 35.4123 167.497C33.5057 166.397 32.795 164.863 32.8123 162.701C32.8701 153.422 32.8354 144.14 32.8354 134.861C32.8354 127.973 32.8354 121.084 32.8354 114.196C32.8023 113.239 32.9272 112.284 33.2052 111.368L112.286 157.109ZM105.156 199.759C105.156 186.486 105.156 173.212 105.156 159.937C105.173 159.677 105.111 159.417 104.978 159.193C104.845 158.969 104.647 158.79 104.411 158.681C99.5962 155.906 94.7814 153.121 89.9665 150.325C89.6256 150.128 89.3021 150.012 88.8745 150.345C88.4498 152.661 88.7156 155.086 88.5856 157.471L85.6418 159.233C85.6418 161.164 85.5523 163.106 85.7025 165.022C86.9043 165.282 87.6958 165.942 88.6232 166.469V184.564C87.4358 185.392 86.5374 186.46 86.1763 187.907C85.8357 189.143 85.8093 190.445 86.0994 191.694C86.3895 192.943 86.987 194.1 87.8374 195.059C89.3801 196.876 91.3041 197.69 93.7423 196.905C94.4794 196.666 95.1962 196.368 95.8859 196.014L103.686 200.52C104.03 200.723 104.362 200.94 104.813 200.755C105.174 200.454 105.156 200.1 105.156 199.759ZM72.0582 177.731V144.646C71.2839 144.612 70.787 144.267 70.267 143.966C66.706 141.907 63.143 139.851 59.5781 137.796C55.8071 135.615 52.0399 133.434 48.2767 131.252L41.8893 127.553C40.9735 127.026 40.3726 127.365 40.3264 128.421C40.3264 128.577 40.3264 128.737 40.3264 128.893C40.3264 138.301 40.3264 147.71 40.3264 157.121V160.883C40.4594 161.054 40.6319 161.189 40.829 161.277L70.2439 178.286C70.5328 178.46 70.8217 178.657 71.2897 178.457C71.3215 178.061 71.7519 177.977 72.0582 177.731Z" fill="#F9F9F9"/>
<path d="M109.024 80.5937V141.978C108.496 142.007 108.08 141.709 107.67 141.472C100.066 137.072 92.4672 132.66 84.8732 128.236C74.0224 121.954 63.1669 115.676 52.3065 109.403C51.9223 109.18 51.564 108.905 51.1711 108.703C50.0994 108.147 49.8394 107.14 49.8625 106.098C49.9809 100.309 49.8885 94.544 49.8971 88.7642C49.9174 76.2754 49.8971 63.7867 49.9145 51.2979C49.9145 50.23 49.8654 49.1446 50.1716 48.094C50.2806 47.6598 50.4995 47.261 50.8071 46.9363L109.024 80.5937ZM100.681 96.5439C102.455 94.5961 103.206 92.2894 103.137 89.6845C103.166 88.3691 102.987 87.0573 102.608 85.7975C101.323 81.5285 99.0028 78.0264 94.9179 76.0005C92.3555 74.727 89.7554 74.5823 87.2594 76.3536C86.3047 77.002 85.3056 77.5823 84.2694 78.0901C82.6174 78.9322 81.3575 80.3854 80.7565 82.1421C79.5691 85.3952 79.962 88.6137 81.2245 91.7452C82.7065 95.4267 85.0494 98.402 88.7559 100.032C90.9197 100.99 93.1326 101.062 95.2617 99.8492C96.8564 98.9404 98.4395 97.994 100.011 97.0649C100.26 96.9271 100.486 96.7513 100.681 96.5439ZM94.2159 126.612C96.2122 127.397 99.3206 125.377 99.1935 122.815C99.078 120.482 99.1704 118.138 99.1704 115.797V108.778C99.1673 108.466 99.1236 108.155 99.0404 107.855C98.6417 106.321 97.4082 105.565 96.1977 104.85C91.3559 102.008 86.4881 99.2153 81.6289 96.405C75.7664 93.0149 69.9038 89.6295 64.0412 86.249C62.8857 85.5805 61.6694 85.4676 60.4965 86.3098C59.1936 87.2418 58.9163 88.6252 58.9105 90.0724C58.8932 94.2777 58.9914 98.486 58.8701 102.688C58.7979 105.175 59.8148 106.801 61.9034 108.002C72.0146 113.827 82.1162 119.675 92.2081 125.544C92.8499 125.95 93.521 126.307 94.2159 126.612ZM77.6191 74.7444C77.6553 73.4022 77.4739 72.0631 77.0818 70.7792C75.8107 66.5681 73.5227 63.0949 69.5157 61.069C66.9157 59.7463 64.2695 59.5697 61.7157 61.3844C60.7823 62.0173 59.8053 62.5831 58.7921 63.0776C57.0919 63.9497 55.8015 65.4557 55.1983 67.2714C54.1583 70.1656 54.3981 73.0599 55.3889 75.9136C56.8074 79.9888 59.2283 83.268 63.2641 85.0682C65.4221 86.0291 67.6408 86.0812 69.7671 84.8598C71.3357 83.9597 72.89 83.0335 74.45 82.116C74.7024 81.9794 74.9324 81.8047 75.1318 81.598C75.981 80.6791 76.6385 79.5995 77.0656 78.4226C77.4927 77.2457 77.6809 75.9951 77.6191 74.7444Z" fill="#F9F9F9"/>
<path d="M108.086 23.1078C108.412 23.2846 108.681 23.5532 108.857 23.8806L107.493 24.2886C104.29 22.691 101.112 26.1381 101.158 28.5461C101.204 30.4361 101.158 32.3289 101.158 34.2217C101.158 36.0191 101.464 36.3432 103.235 36.404V37.6949C101.326 38.0538 99.8783 36.925 99.8378 34.9829C99.7858 32.462 99.6963 29.9325 99.8378 27.4202C99.965 25.3132 101.181 23.7474 103.076 22.8039C104.792 21.9588 106.485 22.0138 108.086 23.1078Z" fill="#F9F9F9"/>
<path d="M108.12 35.5994V37.6051C107.725 37.7035 107.505 38.0161 107.083 37.8946C106.615 36.9829 106.794 35.9699 106.766 34.9048C107.332 35.0408 107.699 35.3737 108.12 35.5994Z" fill="#F9F9F9"/>
<path d="M105.156 159.937C105.141 173.21 105.141 186.484 105.156 199.759C105.156 200.101 105.188 200.454 104.838 200.734C104.388 200.92 104.056 200.703 103.712 200.5L95.9117 195.994C95.222 196.347 94.5052 196.646 93.7681 196.885C91.3328 197.669 89.4059 196.856 87.8632 195.039C87.0128 194.08 86.4154 192.923 86.1252 191.674C85.8351 190.425 85.8615 189.123 86.2021 187.887C86.5632 186.44 87.4617 185.372 88.649 184.544V166.449C87.7217 165.937 86.9301 165.277 85.7283 165.002C85.5781 163.092 85.6763 161.15 85.6676 159.213L88.6114 157.451C88.7357 155.066 88.4699 152.646 88.9003 150.325C89.3279 149.992 89.6515 150.108 89.9923 150.305C94.8072 153.095 99.6221 155.88 104.437 158.661C104.672 158.775 104.866 158.959 104.994 159.187C105.123 159.415 105.179 159.676 105.156 159.937ZM104.001 169.893V166.018L100.762 167.899V171.728L104.001 169.893ZM104.001 164.273V159.781L89.9143 151.659C89.8017 153.219 89.6688 154.626 89.7988 156.099L95.2559 159.245C95.6026 158.49 94.9035 157.509 96.0533 157.057C96.998 157.911 96.2295 159.083 96.6484 160.061L104.001 164.273ZM104.001 199.322V171.225C102.955 171.824 102.002 172.353 101.066 172.918C100.554 173.224 100.15 173.207 99.6211 172.848C98.5464 172.125 97.4024 171.505 96.1804 170.782V177.083C96.1804 178.136 96.1977 179.187 96.1804 180.237C96.1602 180.97 95.8655 181.146 95.0884 180.839V170.154L89.8017 167.103V183.948C91.4541 182.729 93.1933 182.394 95.0277 182.848C96.8622 183.302 98.168 184.584 99.0866 186.22C100.548 188.848 100.667 193.328 97.2724 195.389L104.001 199.322ZM100.262 166.84L103.177 165.155L90.3159 157.717C89.4781 158.435 88.4901 158.782 87.5541 159.491L100.262 166.84ZM98.9509 190.254C98.9711 187.849 98.0582 185.777 95.9435 184.446C94.6348 183.621 92.6415 183.577 91.7517 184.202C96.1371 186.362 97.2637 188.917 96.2555 194.384C98.2777 193.756 98.9335 192.112 98.9509 190.254Z" fill="#99A5B6"/>
<path d="M104.001 166.018V169.893L100.762 171.717V167.899L104.001 166.018Z" fill="#F9F9F9"/>
<path d="M104.001 159.781V164.284L96.6485 160.053C96.2296 159.066 96.998 157.902 96.0533 157.048C94.8978 157.506 95.6027 158.481 95.256 159.236L89.7988 156.09C89.6688 154.617 89.7988 153.211 89.9144 151.651L104.001 159.781Z" fill="#F9F9F9"/>
<path d="M103.983 171.224V199.334L97.2551 195.389C100.65 193.328 100.531 188.848 99.0694 186.22C98.1507 184.57 96.8767 183.325 95.0105 182.848C93.1442 182.37 91.4369 182.729 89.7844 183.948V167.103L95.0711 170.154V180.839C95.8482 181.146 96.1429 180.969 96.1631 180.237C96.1891 179.187 96.1631 178.136 96.1631 177.082V170.782C97.3851 171.505 98.5292 172.125 99.6038 172.848C100.124 173.195 100.528 173.224 101.048 172.918C101.979 172.353 102.938 171.824 103.983 171.224Z" fill="#F9F9F9"/>
<path d="M103.253 32.7689V34.9512C103.171 35.072 103.051 35.1616 102.912 35.2052C102.773 35.2489 102.623 35.244 102.487 35.1914C102.097 34.2855 102.184 33.3159 102.233 32.2971C102.666 32.3434 102.92 32.6213 103.253 32.7689Z" fill="#F9F9F9"/>
<path d="M103.134 20.529C103.454 20.6931 103.716 20.953 103.882 21.2728L102.591 21.7648C100.543 20.8589 98.3529 21.6172 97.0356 23.7011C96.5229 24.4713 96.2577 25.3803 96.2758 26.3059C96.3191 28.1177 96.3595 29.9353 96.2758 31.7413C96.1891 33.4461 97.0471 34.1725 98.6909 33.7326V35.2405C98.636 35.281 98.6158 35.3129 98.5956 35.31C95.6893 35.1739 94.9642 34.4041 94.9613 31.4519C94.9613 29.3246 94.8775 27.1945 94.9613 25.0845C95.0451 22.9746 96.2151 21.377 98.0611 20.3756C99.754 19.4378 101.479 19.4523 103.134 20.529Z" fill="#F9F9F9"/>
<path d="M103.134 89.6846C103.204 92.2895 102.452 94.6049 100.679 96.544C100.484 96.7555 100.258 96.9352 100.008 97.0766C98.4253 98.0056 96.8538 98.9521 95.2591 99.8609C93.13 101.074 90.9257 101.001 88.7533 100.043C85.0497 98.405 82.7068 95.4384 81.2248 91.7482C79.9623 88.6166 79.5694 85.3982 80.7568 82.1451C81.3577 80.3884 82.6177 78.9352 84.2697 78.0931C85.3058 77.5853 86.305 77.005 87.2597 76.3565C89.7557 74.5853 92.3557 74.73 94.9182 76.0034C99.0031 78.0294 101.323 81.5315 102.608 85.8005C102.986 87.0595 103.164 88.3703 103.134 89.6846ZM101.823 92C102.591 87.8149 101.36 84.1045 98.8905 80.7674C97.186 78.452 95.0366 76.7646 92.1246 76.2639C90.4317 75.9745 88.9757 76.536 87.5688 77.5808C92.0755 78.3536 94.9355 81.1263 96.9549 84.883C98.9742 88.6398 99.5925 92.6339 98.0498 96.8045C99.9565 96.1273 101.401 94.3762 101.826 91.9914L101.823 92ZM96.9809 96.3125C97.5991 95.0043 97.81 93.615 97.8042 91.5543C97.5587 87.5342 95.7415 83.6617 92.116 80.7066C90.7871 79.571 89.1382 78.878 87.3984 78.724C84.6481 78.5215 82.3514 80.2522 81.5685 83.2304C80.517 87.2303 81.5685 90.8742 83.7526 94.2431C85.3299 96.6858 87.3926 98.5845 90.2728 99.392C93.1531 100.199 95.7098 99.0013 96.9838 96.3038L96.9809 96.3125Z" fill="#99A5B6"/>
<path d="M98.8934 80.7499C101.363 84.087 102.594 87.7974 101.826 91.9825C101.389 94.3674 99.9565 96.1184 98.0528 96.787C99.5954 92.6164 98.9888 88.6426 96.9579 84.8655C94.9269 81.0885 92.0785 78.3448 87.5718 77.5662C88.9787 76.5214 90.4347 75.9599 92.1276 76.2493C95.0454 76.7558 97.189 78.4548 98.8934 80.7499Z" fill="#F9F9F9"/>
<path d="M103.177 165.155L100.262 166.84L87.5513 159.491C88.4873 158.782 89.4753 158.435 90.3131 157.717L103.177 165.155Z" fill="#F9F9F9"/>
<path d="M99.1937 122.815C99.3208 125.376 96.2123 127.397 94.2161 126.612C93.5211 126.306 92.85 125.948 92.2083 125.541C82.1048 119.693 72.0033 113.846 61.9036 107.999C59.815 106.798 58.7981 105.172 58.8703 102.685C58.9916 98.483 58.8934 94.2747 58.9107 90.0694C58.9107 88.6222 59.1996 87.2417 60.4967 86.3068C61.6696 85.4646 62.8743 85.5775 64.0414 86.246C69.9117 89.6169 75.7723 93.0022 81.6234 96.402C86.4825 99.2123 91.3503 102.005 96.1921 104.847C97.4026 105.562 98.6361 106.318 99.0348 107.852C99.118 108.153 99.1617 108.463 99.1648 108.775V115.794C99.1706 118.138 99.0897 120.482 99.1937 122.815ZM96.5243 123.727C96.6052 118.604 96.6428 113.481 96.5099 108.046C84.6712 101.163 72.7862 94.2902 60.855 87.4269C60.1472 88.2778 60.0374 89.1316 60.0374 90.0028C60.0374 94.4976 60.075 98.9953 60.0374 103.49C60.0374 104.986 60.7221 105.968 61.947 106.674L93.8897 125.177C95.6028 126.161 96.4897 125.706 96.5243 123.727Z" fill="#99A5B6"/>
<path d="M95.9438 184.446C98.0584 185.777 98.9713 187.849 98.9511 190.254C98.9338 192.112 98.278 193.756 96.2558 194.384C97.264 188.917 96.1373 186.362 91.752 184.202C92.6417 183.574 94.6351 183.621 95.9438 184.446Z" fill="#F9F9F9"/>
<path d="M98.6853 30.1408V32.378C98.3329 32.4157 98.1076 32.8006 97.6338 32.6935C97.134 31.695 97.3767 30.601 97.3044 29.4751C97.8822 29.5532 98.2376 29.9092 98.6853 30.1408Z" fill="#F9F9F9"/>
<path d="M99.5519 18.6448L98.145 19.0442C96.4752 17.9878 94.6206 18.5985 93.2888 19.8719C92.7771 20.3261 92.3705 20.8866 92.0976 21.5145C91.8247 22.1424 91.6919 22.8225 91.7085 23.5071C91.749 25.3479 91.7085 27.1886 91.7085 29.0294C91.7085 30.627 92.1477 31.0554 93.7481 31.0004C93.907 31.4229 93.777 31.8686 93.8261 32.2825C91.9772 32.8324 90.4085 31.5763 90.3825 29.5185C90.3479 27.0487 90.3421 24.578 90.3652 22.1063C90.3854 20.115 92.1505 17.9009 94.2363 17.1861C95.1613 16.8252 96.1776 16.7722 97.1349 17.0349C98.0922 17.2976 98.9397 17.8621 99.5519 18.6448Z" fill="#F9F9F9"/>
<path d="M97.8069 91.5455C97.8069 93.6062 97.6018 94.9955 96.9836 96.3037C95.7095 99.0012 93.1413 100.194 90.2726 99.3861C87.4039 98.5786 85.3297 96.6684 83.7523 94.2372C81.577 90.8683 80.5168 87.2244 81.5683 83.2245C82.3512 80.2463 84.6479 78.5156 87.3982 78.7182C89.1387 78.8708 90.7886 79.5627 92.1186 80.6978C95.7442 83.6442 97.5613 87.5254 97.8069 91.5455ZM94.3171 93.039C94.7331 90.6744 94.1495 88.5037 93.02 86.4545C92.1273 84.8366 90.9486 83.4705 89.2355 82.692C86.8984 81.6182 84.7028 82.692 84.0355 85.1926C83.8955 85.8128 83.8247 86.4467 83.8246 87.0826C84.0297 90.6512 85.3355 93.6728 88.4006 95.6872C91.0324 97.4035 93.774 96.1272 94.3171 93.039Z" fill="#F9F9F9"/>
<path d="M96.5099 108.046C96.6428 113.481 96.6053 118.604 96.5244 123.727C96.4926 125.707 95.6028 126.161 93.9012 125.174L61.9585 106.677C60.7336 105.968 60.0374 104.987 60.049 103.493C60.075 98.9983 60.049 94.5006 60.049 90.0058C60.049 89.1376 60.1587 88.2693 60.8665 87.4299C72.7785 94.2874 84.6596 101.159 96.5099 108.046ZM95.597 109.768C95.6329 109.393 95.5529 109.017 95.3679 108.69C95.1828 108.363 94.9017 108.1 94.5628 107.939C85.4955 102.729 76.4378 97.4942 67.3897 92.2344C65.8239 91.3285 64.261 90.4168 62.6837 89.5341C62.2445 89.2881 61.817 88.9176 61.2045 89.1665C61.0503 89.4055 60.9858 89.6917 61.0225 89.974C61.0225 92.9088 61.0225 95.8436 61.0225 98.7783C61.0225 100.538 61.0225 102.298 61.0225 104.057C61.0225 104.564 61.0601 105.059 61.5656 105.366C62.1434 105.719 62.7212 106.11 63.299 106.451C70.2208 110.457 77.1446 114.46 84.0703 118.462L94.4212 124.453C94.8344 124.691 95.2619 124.98 95.5768 124.416V123.096C95.5797 118.647 95.5624 114.208 95.597 109.768Z" fill="#F9F9F9"/>
<path d="M96.1344 36.0942L95.8455 36.5891L91.4168 34.0248C87.8288 31.9467 87.4995 31.8541 83.3279 31.7991V28.2681L84.4834 28.0916C85.9106 30.6356 87.3059 31.365 89.3397 30.598C90.1313 32.6847 91.5064 33.9119 93.8724 33.4922C94.6466 34.8091 95.366 35.6629 96.1344 36.0942Z" fill="#F9F9F9"/>
<path d="M94.5627 107.939C94.9017 108.1 95.1828 108.363 95.3678 108.69C95.5528 109.017 95.6328 109.393 95.597 109.768C95.5623 114.208 95.5796 118.647 95.5796 123.081V124.401C95.2619 124.966 94.8343 124.676 94.4241 124.439L84.0673 118.462C77.1339 114.46 70.2102 110.457 63.2961 106.451C62.7183 106.11 62.1405 105.719 61.5627 105.366C61.0572 105.059 61.0196 104.564 61.0196 104.057C61.0196 102.298 61.0196 100.538 61.0196 98.7784C61.0196 95.8436 61.0196 92.9088 61.0196 89.974C60.9828 89.6917 61.0473 89.4056 61.2016 89.1665C61.8083 88.9176 62.2416 89.2881 62.6807 89.5341C64.2581 90.4024 65.821 91.3285 67.3868 92.2344C76.4464 97.473 85.505 102.708 94.5627 107.939ZM94.4327 123.119V117.507L86.8869 113.137V118.763L94.4327 123.119ZM94.4327 116.153V109.206L86.8898 104.865V111.811L94.4327 116.153ZM85.7024 111.102V104.156L78.4802 99.9882V106.934L85.7024 111.102ZM85.688 118.048V112.431L78.4657 108.269V113.892L85.688 118.048ZM77.3102 113.195V107.58L69.0508 102.807V108.437L77.3102 113.195ZM77.2928 106.225V99.2733L69.1201 94.5498V101.496L77.2928 106.225ZM67.9472 107.748V102.168L62.1954 98.8391V104.338C64.0385 105.51 65.8961 106.694 67.9241 107.756L67.9472 107.748ZM67.9472 100.801V93.8552L62.2243 90.55V97.4962L67.9472 100.801Z" fill="#99A5B6"/>
<path d="M94.4328 117.507V123.133L86.887 118.778V113.137L94.4328 117.507Z" fill="#F9F9F9"/>
<path d="M94.4211 109.198V116.144L86.8782 111.788V104.842L94.4211 109.198Z" fill="#F9F9F9"/>
<path d="M93.0229 86.4544C94.1525 88.5036 94.736 90.6743 94.32 93.0389C93.7769 96.1271 91.0354 97.4034 88.4122 95.6784C85.3471 93.6525 84.0413 90.6424 83.8362 87.0738C83.8363 86.4379 83.9071 85.8041 84.0471 85.1839C84.7057 82.6948 86.9013 81.6094 89.2471 82.6832C90.9487 83.4705 92.1274 84.8365 93.0229 86.4544Z" fill="#99A5B6"/>
<path d="M93.8059 27.3393V29.5765C93.7245 29.7025 93.601 29.7952 93.4575 29.8382C93.314 29.8812 93.16 29.8715 93.023 29.811C92.6677 28.8385 92.7341 27.8429 92.7919 26.8125C93.165 26.9099 93.5115 27.0899 93.8059 27.3393Z" fill="#F9F9F9"/>
<path d="M94.5945 15.8751L93.2684 16.3411C90.2495 14.5235 86.7742 17.933 86.8262 20.4886C86.8637 22.3785 86.9042 24.2743 86.8262 26.1584C86.7424 27.9124 87.5455 28.6359 89.2326 28.2105V29.6981C86.6326 29.9499 85.5146 28.9283 85.5117 26.3003C85.5117 24.0427 85.5117 21.7852 85.5117 19.5277C85.5117 17.5393 87.2046 15.2963 89.2817 14.5322C91.2462 13.7999 93.228 14.2775 94.5945 15.8751Z" fill="#F9F9F9"/>
<path d="M89.1692 12.3644C89.4974 12.5502 89.7705 12.8198 89.9608 13.1458L88.6174 13.5568C85.4656 12.0142 82.1578 15.2123 82.1665 18.26C82.1867 24.6939 82.1665 31.1308 82.1809 37.5676C82.1809 40.2959 82.1809 43.0301 82.1809 45.77C81.6032 46.207 81.6032 46.207 80.8838 46.152V44.2823C80.8838 37.2396 80.8838 30.1969 80.8838 23.1542C80.8838 21.0269 80.8174 18.8938 80.9445 16.7868C81.0716 14.6798 82.2358 13.0937 84.1049 12.1155C85.8007 11.224 87.5341 11.2646 89.1692 12.3644Z" fill="#F9F9F9"/>
<path d="M89.1835 25.2554C89.3453 25.7677 89.2182 26.2626 89.2731 26.7923C88.9235 26.9428 88.6549 27.2524 88.1753 27.1772C87.9933 26.6562 87.7882 26.141 87.9095 25.5535C88.2944 25.3274 88.7386 25.2235 89.1835 25.2554Z" fill="#F9F9F9"/>
<path d="M85.6908 104.153V111.099L78.4685 106.934V99.988L85.6908 104.153Z" fill="#F9F9F9"/>
<path d="M85.6766 112.431V118.057L78.4543 113.892V108.269L85.6766 112.431Z" fill="#F9F9F9"/>
<path d="M77.0819 70.7791C77.474 72.063 77.6555 73.4021 77.6193 74.7443C77.6811 75.9944 77.4932 77.2442 77.0665 78.4206C76.6399 79.597 75.9832 80.6762 75.1348 81.595C74.9354 81.8017 74.7055 81.9764 74.453 82.1131C72.893 83.0306 71.3388 83.9567 69.7701 84.8568C67.6439 86.0782 65.4367 86.0145 63.2672 85.0652C59.2227 83.265 56.8105 79.9858 55.392 75.9107C54.4011 73.0685 54.1613 70.1656 55.2013 67.2684C55.8045 65.4527 57.095 63.9468 58.7951 63.0746C59.8084 62.5801 60.7853 62.0143 61.7187 61.3815C64.2696 59.5668 66.9188 59.7433 69.5188 61.066C73.5228 63.0949 75.8108 66.568 77.0819 70.7791ZM76.4608 76.0033C76.8508 71.2162 75.077 67.2221 71.7057 63.9053C70.4891 62.6958 68.9737 61.8319 67.3145 61.4017C65.3819 60.8923 63.6861 61.3612 62.0596 62.5855C66.5548 63.3496 69.4177 66.1223 71.437 69.8761C73.4564 73.63 74.0804 77.627 72.5521 81.7426C72.6128 81.7802 72.6359 81.8063 72.6503 81.8005C72.7493 81.7678 72.8459 81.7282 72.9392 81.6818C75.2244 80.4894 76.2673 78.4605 76.4608 76.0033ZM71.4515 81.349C72.0428 80.0557 72.3304 78.6438 72.2921 77.2218C72.2903 76.1963 72.1642 75.1749 71.9166 74.1799C70.8217 70.0498 68.6954 66.6548 64.8358 64.6028C63.5994 63.94 62.2561 63.529 60.826 63.7808C58.096 64.2584 56.4031 65.9862 55.8658 68.9615C55.1782 72.7588 56.2153 76.1972 58.3011 79.3491C59.89 81.7513 61.9412 83.6181 64.7954 84.4082C67.6496 85.1984 70.2006 84.0059 71.4515 81.349Z" fill="#99A5B6"/>
<path d="M77.287 107.58V113.203L69.0276 108.436V102.807L77.287 107.58Z" fill="#F9F9F9"/>
<path d="M77.2697 99.2733V106.219L69.0969 101.499V94.5527L77.2697 99.2733Z" fill="#F9F9F9"/>
<path d="M71.7056 63.9054C75.077 67.2223 76.8508 71.2163 76.4608 76.0034C76.2614 78.4607 75.2243 80.4895 72.9363 81.6907C72.8429 81.737 72.7464 81.7766 72.6474 81.8093C72.6474 81.8093 72.6098 81.7891 72.5492 81.7514C74.0774 77.6271 73.4649 73.6475 71.434 69.885C69.4031 66.1224 66.5518 63.3584 62.0566 62.5943C63.6831 61.3701 65.3789 60.9012 67.3116 61.4106C68.9709 61.8378 70.4872 62.6987 71.7056 63.9054Z" fill="#F9F9F9"/>
<path d="M72.2921 77.2219C72.3303 78.6439 72.0427 80.0558 71.4514 81.3491C70.189 84.006 67.6236 85.1956 64.8069 84.4083C61.9902 83.6211 59.8958 81.7514 58.3126 79.3491C56.2268 76.2002 55.1897 72.7589 55.8773 68.9616C56.4146 65.9863 58.1075 64.2585 60.8375 63.7809C62.2676 63.5291 63.6109 63.9401 64.8474 64.6029C68.7069 66.6694 70.8332 70.0499 71.9281 74.18C72.1718 75.1755 72.294 76.1969 72.2921 77.2219ZM68.9525 76.6691C68.9447 75.8269 68.8281 74.9893 68.6058 74.1771C67.8114 71.4391 66.4478 69.0803 63.8073 67.7547C61.4269 66.5594 59.1706 67.6679 58.5206 70.2496C57.654 73.7372 59.5549 78.4924 62.6633 80.5589C63.1219 80.8655 63.6246 81.0997 64.154 81.2536C66.0318 81.8006 67.7074 81.0076 68.4643 79.2073C68.7801 78.3981 68.9455 77.5379 68.9525 76.6691Z" fill="#F9F9F9"/>
<path d="M72.058 144.646V177.731C71.7518 177.977 71.3213 178.061 71.2896 178.446C70.8273 178.645 70.5413 178.446 70.2438 178.275L40.8144 161.271C40.6173 161.183 40.4448 161.048 40.3118 160.877V157.115C40.3118 147.707 40.3118 138.297 40.3118 128.887C40.3118 128.731 40.3118 128.572 40.3118 128.415C40.358 127.353 40.9589 127.015 41.8747 127.547L48.2794 131.246C52.0465 133.424 55.8137 135.606 59.5808 137.79C63.1399 139.851 66.7029 141.907 70.2698 143.96C70.7782 144.267 71.2838 144.612 72.058 144.646ZM70.9573 166.087C71.0222 165.654 71.0046 165.212 70.9053 164.785L62.9319 169.401L64.0875 170.067L70.9573 166.087ZM70.9573 177.375V175.392L43.4549 159.474C42.8771 159.807 42.2993 160.053 41.7938 160.495L70.9573 177.375ZM70.9429 173.922C70.9776 173.757 71.0411 173.586 70.8851 173.439C70.7859 173.456 70.6922 173.497 70.6118 173.558C70.5315 173.619 70.4667 173.698 70.4229 173.789C70.6453 173.78 70.7233 174.032 70.9516 173.91L70.9429 173.922ZM70.9429 169.248V167.392L65.1824 170.729L66.8262 171.673L70.9429 169.248ZM70.9256 158.377V156.001L55.3254 165.019L57.3477 166.177L70.9256 158.377ZM67.8315 143.905L62.7528 140.968L43.9518 151.844V157.714L67.8315 143.905ZM61.6319 140.322L60.3117 139.561L43.9547 149.025V150.556L61.6319 140.322ZM53.7336 135.741L52.2661 134.899L43.9836 139.674V141.376L53.7336 135.741ZM51.1336 134.242L43.9691 130.097V138.389L51.1336 134.242ZM42.7558 158.519V129.394L41.502 128.685V159.248L42.7558 158.519Z" fill="#99A5B6"/>
<path d="M70.9055 164.785C71.0047 165.212 71.0224 165.654 70.9575 166.087L64.0848 170.067L62.9292 169.401L70.9055 164.785Z" fill="#F9F9F9"/>
<path d="M70.9661 175.392V177.369L41.7881 160.507C42.2965 160.053 42.8656 159.818 43.4492 159.485L70.9661 175.392Z" fill="#F9F9F9"/>
<path d="M70.9575 167.381V169.236L66.8408 171.661L65.197 170.718L70.9575 167.381Z" fill="#F9F9F9"/>
<path d="M70.94 156.001V158.371L57.3621 166.186L55.3398 165.028L70.94 156.001Z" fill="#F9F9F9"/>
<path d="M68.6058 74.1771C68.8281 74.9893 68.9446 75.8269 68.9525 76.669C68.9455 77.5379 68.78 78.3981 68.4643 79.2073C67.7074 81.0075 66.0318 81.8121 64.154 81.2535C63.6246 81.0997 63.1218 80.8654 62.6633 80.5589C59.5548 78.4924 57.6395 73.7371 58.5206 70.2495C59.1706 67.6679 61.4269 66.5594 63.8073 67.7547C66.4449 69.0803 67.8114 71.4391 68.6058 74.1771Z" fill="#99A5B6"/>
<path d="M67.9242 102.167V107.756C65.902 106.694 64.0386 105.51 62.1724 104.344V98.8447L67.9242 102.167Z" fill="#F9F9F9"/>
<path d="M67.9156 93.8724V100.819L62.1926 97.5366V90.5903L67.9156 93.8724Z" fill="#F9F9F9"/>
<path d="M62.7673 140.965L67.846 143.903L43.9663 157.711V151.842L62.7673 140.965Z" fill="#F9F9F9"/>
<path d="M60.3263 139.558L61.6465 140.32L43.9548 150.557V149.026L60.3263 139.558Z" fill="#F9F9F9"/>
<path d="M52.2546 134.899L53.7337 135.741L43.9836 141.376V139.674L52.2546 134.899Z" fill="#F9F9F9"/>
<path d="M48.7619 55.0054V56.4525L43.1199 53.1965C43.3741 52.8492 43.611 52.5279 43.8739 52.1748L48.7619 55.0054Z" fill="#F9F9F9"/>
<path d="M43.9779 130.097L51.1337 134.242L43.9692 138.389L43.9779 130.097Z" fill="#F9F9F9"/>
<path d="M43.5416 49.2025C43.5461 50.1207 43.2781 51.0196 42.7716 51.7848C42.2651 52.5501 41.5429 53.1472 40.6968 53.5003C39.8508 53.8534 38.9191 53.9465 38.0201 53.7679C37.121 53.5892 36.2953 53.1468 35.6479 52.4969C35.0004 51.8471 34.5604 51.019 34.3838 50.118C34.2071 49.217 34.3019 48.2837 34.6559 47.4367C35.0099 46.5898 35.6073 45.8674 36.3721 45.3614C37.1369 44.8553 38.0346 44.5885 38.9511 44.5948C40.1694 44.5971 41.3369 45.0836 42.1976 45.9475C43.0582 46.8113 43.5416 47.982 43.5416 49.2025Z" fill="#F9F9F9"/>
<path d="M42.756 129.394V158.519L41.5022 159.248V128.685L42.756 129.394Z" fill="#F9F9F9"/>
</svg>