<svg width="20" height="20" viewBox="0 0 20 20" fill="none" xmlns="http://www.w3.org/2000/svg">
<path d="M10.3545 1.75129C10.1587 1.63824 9.84128 1.63824 9.64548 1.75129L3.26392 5.43568C3.06811 5.54873 3.06811 5.73202 3.26392 5.84506L5.74563 7.27788C5.84353 7.33441 6.00226 7.33441 6.10016 7.27788L12.8363 3.3888C12.9342 3.33227 12.9342 3.24063 12.8363 3.18411L10.3545 1.75129Z" fill="#6A6A6A"/>
<path d="M14.2544 4.00286C14.1565 3.94634 13.9978 3.94634 13.8998 4.00286L7.16376 7.89195C7.06586 7.94847 7.06586 8.04011 7.16376 8.09664L9.64548 9.52946C9.84128 9.6425 10.1587 9.6425 10.3545 9.52946L16.7361 5.84506C16.9319 5.73202 16.9319 5.54873 16.7361 5.43568L14.2544 4.00286Z" fill="#6A6A6A"/>
<path d="M10.4094 10.8804C10.4094 10.6543 10.5681 10.3794 10.7639 10.2663L17.1455 6.58194C17.3413 6.46889 17.5 6.56054 17.5 6.78663V14.1554C17.5 14.3815 17.3413 14.6564 17.1455 14.7695L10.7639 18.4539C10.5681 18.5669 10.4094 18.4753 10.4094 18.2492V10.8804Z" fill="#6A6A6A"/>
<path d="M2.5 6.78663C2.5 6.56054 2.65873 6.46889 2.85453 6.58194L5.33625 8.01476C5.43415 8.07129 5.51351 8.20875 5.51351 8.32179V9.9593C5.51351 10.0724 5.59288 10.2098 5.69078 10.2663L6.39984 10.6757C6.49774 10.7322 6.57711 10.6864 6.57711 10.5734V8.93586C6.57711 8.82281 6.65647 8.77699 6.75437 8.83352L9.23609 10.2663C9.43189 10.3794 9.59062 10.6543 9.59062 10.8804V18.2492C9.59062 18.4753 9.43189 18.5669 9.23609 18.4539L2.85453 14.7695C2.65873 14.6564 2.5 14.3815 2.5 14.1554L2.5 6.78663Z" fill="#6A6A6A"/>
</svg>
