<svg width="16" height="16" viewBox="0 0 16 16" fill="none" xmlns="http://www.w3.org/2000/svg">
<path d="M8.15066 4.93919L2.33008 10.7598V13.6701L5.24037 13.67L11.0609 7.84947M8.15066 4.93919L10.2378 2.85204L10.2391 2.8508C10.5264 2.5635 10.6703 2.41959 10.8362 2.36569C10.9823 2.31821 11.1397 2.31821 11.2858 2.36569C11.4516 2.41955 11.5953 2.56329 11.8822 2.85019L13.1481 4.11602C13.4362 4.40415 13.5803 4.54828 13.6343 4.71441C13.6818 4.86054 13.6818 5.01794 13.6343 5.16407C13.5804 5.33008 13.4364 5.47399 13.1487 5.76171L13.1481 5.76233L11.0609 7.84947M8.15066 4.93919L11.0609 7.84947" stroke="#1E242E" stroke-width="1.3" stroke-linecap="round" stroke-linejoin="round"/>
</svg>
