<svg width="16" height="16" viewBox="0 0 16 16" fill="none" xmlns="http://www.w3.org/2000/svg">
    <path d="M10.1509 2.2666L10.1509 13.7333M10.1509 2.2666H4.56105C3.75831 2.2666 3.35664 2.2666 3.05003 2.42283C2.78033 2.56024 2.56122 2.77936 2.4238 3.04906C2.26758 3.35566 2.26758 3.75733 2.26758 4.56008V11.4401C2.26758 12.2428 2.26758 12.6436 2.4238 12.9502C2.56122 13.2199 2.78033 13.4398 3.05003 13.5772C3.35634 13.7333 3.75753 13.7333 4.55872 13.7333L10.1509 13.7333M10.1509 2.2666H11.4411C12.2438 2.2666 12.6446 2.2666 12.9512 2.42283C13.2209 2.56024 13.4408 2.77936 13.5782 3.04906C13.7342 3.35536 13.7342 3.75655 13.7342 4.55772L13.7342 11.4421C13.7342 12.2433 13.7342 12.6439 13.5782 12.9502C13.4408 13.2199 13.2209 13.4398 12.9512 13.5772C12.6449 13.7333 12.2443 13.7333 11.4431 13.7333H10.1509M5.26758 5.59998L7.57758 7.90998L5.26758 10.22" stroke="#1E242E" stroke-width="1.3" stroke-linecap="round" stroke-linejoin="round"/>
    </svg>
    