<svg width="12" height="14" viewBox="0 0 12 14" fill="none" xmlns="http://www.w3.org/2000/svg">
    <path d="M2.26299 3.26363V10.6116C2.26299 11.3091 2.26299 11.6576 2.39874 11.924C2.51814 12.1583 2.70853 12.3492 2.94287 12.4686C3.20901 12.6043 3.5576 12.6043 4.25374 12.6043H7.74475C8.44089 12.6043 8.78897 12.6043 9.05512 12.4686C9.28946 12.3492 9.48048 12.1583 9.59989 11.924C9.73549 11.6579 9.73549 11.3097 9.73549 10.6135V3.26363M2.26299 3.26363H3.50841M2.26299 3.26363H1.01758M3.50841 3.26363H8.49008M3.50841 3.26363C3.50841 2.68334 3.50841 2.39334 3.60321 2.16447C3.72962 1.85931 3.97191 1.61671 4.27707 1.49031C4.50594 1.39551 4.79624 1.39551 5.37654 1.39551H6.62195C7.20224 1.39551 7.49239 1.39551 7.72126 1.49031C8.02642 1.61671 8.26881 1.85931 8.39521 2.16447C8.49001 2.39334 8.49008 2.68334 8.49008 3.26363M8.49008 3.26363H9.73549M9.73549 3.26363H10.9809" stroke="#1E242E" stroke-width="1.3" stroke-linecap="round" stroke-linejoin="round"/>
    </svg>
    