<svg width="20" height="20" viewBox="0 0 20 20" fill="none" xmlns="http://www.w3.org/2000/svg">
    <path d="M3.75 17.5C3.40278 17.5 3.10764 17.3785 2.86458 17.1354C2.62153 16.8924 2.5 16.5972 2.5 16.25V3.75C2.5 3.40278 2.62153 3.10764 2.86458 2.86458C3.10764 2.62153 3.40278 2.5 3.75 2.5H16.25C16.5972 2.5 16.8924 2.62153 17.1354 2.86458C17.3785 3.10764 17.5 3.40278 17.5 3.75V16.25C17.5 16.5972 17.3785 16.8924 17.1354 17.1354C16.8924 17.3785 16.5972 17.5 16.25 17.5H3.75ZM3.75 16.25H16.25V5.41667H3.75V16.25ZM6.45833 9.79167C6.27778 9.79167 6.12847 9.73264 6.01042 9.61458C5.89236 9.49653 5.83333 9.34722 5.83333 9.16667C5.83333 8.98611 5.89236 8.8368 6.01042 8.71875C6.12847 8.60069 6.27778 8.54167 6.45833 8.54167H13.3333C13.5139 8.54167 13.6632 8.60069 13.7812 8.71875C13.8993 8.8368 13.9583 8.98611 13.9583 9.16667C13.9583 9.34722 13.8993 9.49653 13.7812 9.61458C13.6632 9.73264 13.5139 9.79167 13.3333 9.79167H6.45833ZM6.45833 13.125C6.27778 13.125 6.12847 13.066 6.01042 12.9479C5.89236 12.8299 5.83333 12.6806 5.83333 12.5C5.83333 12.3194 5.89236 12.1701 6.01042 12.0521C6.12847 11.934 6.27778 11.875 6.45833 11.875H10C10.1806 11.875 10.3299 11.934 10.4479 12.0521C10.566 12.1701 10.625 12.3194 10.625 12.5C10.625 12.6806 10.566 12.8299 10.4479 12.9479C10.3299 13.066 10.1806 13.125 10 13.125H6.45833Z" fill="#AFAFAF"/>
</svg>
