<svg width="20" height="20" viewBox="0 0 82 82" fill="none" xmlns="http://www.w3.org/2000/svg">
    <path d="M68.3398 13.6699H13.6732C9.91484 13.6699 6.87401 16.7449 6.87401 20.5033L6.83984 61.5033C6.83984 65.2616 9.91484 68.3366 13.6732 68.3366H68.3398C72.0982 68.3366 75.1732 65.2616 75.1732 61.5033V20.5033C75.1732 16.7449 72.0982 13.6699 68.3398 13.6699ZM66.9732 28.1908L42.8173 43.2924C41.724 43.9758 40.289 43.9758 39.1957 43.2924L15.0398 28.1908C14.1857 27.6441 13.6732 26.7216 13.6732 25.7308C13.6732 23.4416 16.1673 22.0749 18.1148 23.2708L41.0065 37.5866L63.8982 23.2708C65.8457 22.0749 68.3398 23.4416 68.3398 25.7308C68.3398 26.7216 67.8273 27.6441 66.9732 28.1908Z" fill="#AFAFAF"/>
</svg>
