<svg width="20" height="20" viewBox="0 0 20 20" fill="none" xmlns="http://www.w3.org/2000/svg">
    <path d="M15.8333 2.5H4.16667C3.25 2.5 2.5 3.25 2.5 4.16667V15.8333C2.5 16.75 3.25 17.5 4.16667 17.5H15.8333C16.75 17.5 17.5 16.75 17.5 15.8333V4.16667C17.5 3.25 16.75 2.5 15.8333 2.5ZM10.8333 14.1667H6.66667C6.20833 14.1667 5.83333 13.7917 5.83333 13.3333C5.83333 12.875 6.20833 12.5 6.66667 12.5H10.8333C11.2917 12.5 11.6667 12.875 11.6667 13.3333C11.6667 13.7917 11.2917 14.1667 10.8333 14.1667ZM13.3333 10.8333H6.66667C6.20833 10.8333 5.83333 10.4583 5.83333 10C5.83333 9.54167 6.20833 9.16667 6.66667 9.16667H13.3333C13.7917 9.16667 14.1667 9.54167 14.1667 10C14.1667 10.4583 13.7917 10.8333 13.3333 10.8333ZM13.3333 7.5H6.66667C6.20833 7.5 5.83333 7.125 5.83333 6.66667C5.83333 6.20833 6.20833 5.83333 6.66667 5.83333H13.3333C13.7917 5.83333 14.1667 6.20833 14.1667 6.66667C14.1667 7.125 13.7917 7.5 13.3333 7.5Z" fill="#AFAFAF"/>
</svg>
