<svg width="20" height="20" viewBox="0 0 82 82" fill="none" xmlns="http://www.w3.org/2000/svg">
    <path d="M65.7102 52.1354L57.0319 51.1446C54.9477 50.9054 52.8977 51.6229 51.4285 53.0921L45.1419 59.3787C35.4727 54.4587 27.546 46.5662 22.626 36.8629L28.9469 30.5421C30.416 29.0729 31.1335 27.0229 30.8944 24.9387L29.9035 16.3288C29.4935 12.8779 26.5894 10.2812 23.1044 10.2812H17.1935C13.3327 10.2812 10.121 13.4929 10.3602 17.3537C12.171 46.5321 35.5069 69.8337 64.651 71.6446C68.5119 71.8837 71.7235 68.6721 71.7235 64.8112V58.9004C71.7577 55.4496 69.161 52.5454 65.7102 52.1354Z" fill="#AFAFAF"/>
</svg>
