<svg width="20" height="20" viewBox="0 0 82 82" fill="none" xmlns="http://www.w3.org/2000/svg">
    <path fill-rule="evenodd" clip-rule="evenodd" d="M64.9394 16.7602C61.8022 13.6028 58.0696 11.0992 53.9579 9.39468C49.8462 7.69013 45.4372 6.81847 40.9862 6.83019C22.3145 6.83019 7.1321 22.0191 7.12398 40.6891C7.11647 46.631 8.67557 52.4698 11.6441 57.617L6.83984 75.1634L24.7906 70.4549C29.7548 73.1584 35.3173 74.5751 40.9699 74.5757H40.9845C59.6464 74.5757 74.8386 59.3851 74.8451 40.7151C74.8592 36.2657 73.9909 31.8576 72.2907 27.7459C70.5904 23.6341 68.0918 19.9003 64.9394 16.7602ZM40.9862 68.8573H40.9699C35.9295 68.858 30.9817 67.5031 26.6447 64.9346L25.617 64.3241L14.9644 67.1184L17.809 56.7272L17.1385 55.6621C14.3241 51.178 12.8342 45.9898 12.8407 40.6956C12.8407 25.1787 25.4725 12.5534 40.9975 12.5534C48.4622 12.5578 55.6194 15.5269 60.8952 20.8078C66.1709 26.0887 69.133 33.2488 69.13 40.7135C69.1235 56.232 56.4982 68.8573 40.9862 68.8573ZM56.4235 47.7795C55.5776 47.3557 51.4179 45.3083 50.6418 45.0193C49.8657 44.7303 49.3023 44.5972 48.7389 45.4431C48.1755 46.289 46.5535 48.2032 46.06 48.7601C45.5664 49.317 45.0728 49.3966 44.2269 48.9728C43.381 48.5491 40.6549 47.6561 37.4223 44.7725C34.9073 42.5303 33.209 39.7588 32.7138 38.9113C32.2186 38.0637 32.6619 37.6124 33.0856 37.1854C33.4656 36.8054 33.9315 36.1966 34.3537 35.703C34.7758 35.2094 34.9187 34.8555 35.1996 34.2921C35.4805 33.7287 35.3408 33.2335 35.1298 32.8097C34.9187 32.3859 33.2269 28.2214 32.5206 26.5263C31.8338 24.8767 31.1373 25.1008 30.6177 25.0748C30.1306 25.0504 29.5591 25.0439 28.9941 25.0439C28.5652 25.0556 28.1433 25.1557 27.7549 25.3382C27.3665 25.5206 27.0201 25.7814 26.7373 26.1042C25.9628 26.9501 23.7774 28.9975 23.7774 33.162C23.7774 37.3266 26.8087 41.3499 27.2309 41.915C27.653 42.48 33.1977 51.0251 41.6811 54.6896C43.2564 55.3696 44.8665 55.9658 46.5048 56.4756C48.5327 57.125 50.3772 57.0276 51.8335 56.81C53.4572 56.5681 56.8408 54.7643 57.5454 52.7883C58.2501 50.8124 58.2501 49.1173 58.0325 48.7634C57.815 48.4094 57.2694 48.2032 56.4235 47.7795Z" fill="#AFAFAF"/>
</svg>
