<svg width="199" height="52" viewBox="0 0 199 52" fill="none" xmlns="http://www.w3.org/2000/svg">
<path d="M79.0669 40.7059C77.0601 40.7059 75.2938 40.1758 73.7682 39.1156C72.2426 38.0451 71.0497 36.5835 70.1896 34.7307C69.3398 32.8779 68.9149 30.7781 68.9149 28.4312C68.9149 26.0843 69.3449 23.9845 70.205 22.1317C71.0651 20.2789 72.2579 18.8173 73.7836 17.7468C75.3092 16.6763 77.0652 16.141 79.0516 16.141C80.5465 16.141 81.9083 16.4498 83.137 17.0674C84.3759 17.685 85.3998 18.5445 86.2087 19.6459C87.0278 20.7473 87.55 22.0236 87.7753 23.475H85.8708C85.5636 21.8692 84.7957 20.5414 83.567 19.4915C82.3486 18.4313 80.8485 17.9012 79.0669 17.9012C77.4696 17.9012 76.0464 18.3541 74.7972 19.2599C73.5481 20.1554 72.5651 21.3957 71.8484 22.9809C71.1316 24.5558 70.7733 26.3622 70.7733 28.4003C70.7733 30.4075 71.1214 32.2088 71.8176 33.8043C72.5139 35.3895 73.4866 36.6452 74.7358 37.5716C75.985 38.498 77.4287 38.9612 79.0669 38.9612C80.224 38.9612 81.2786 38.7296 82.2308 38.2664C83.1933 37.8032 83.9971 37.1445 84.6421 36.2901C85.2872 35.4358 85.7121 34.4373 85.9169 33.2948H87.8214C87.5961 34.7564 87.0842 36.0431 86.2855 37.1547C85.4869 38.2664 84.4681 39.1362 83.2291 39.7641C81.9902 40.392 80.6028 40.7059 79.0669 40.7059Z" fill="#222222"/>
<path d="M99.9529 40.7059C98.0074 40.7059 96.277 40.181 94.7616 39.1311C93.2463 38.0708 92.0534 36.6144 91.1831 34.7616C90.3128 32.9088 89.8776 30.7986 89.8776 28.4312C89.8776 26.0534 90.3128 23.9433 91.1831 22.1008C92.0534 20.248 93.2463 18.7915 94.7616 17.7313C96.277 16.6711 98.0074 16.141 99.9529 16.141C101.898 16.141 103.629 16.6711 105.144 17.7313C106.659 18.7915 107.852 20.248 108.723 22.1008C109.593 23.9536 110.028 26.0637 110.028 28.4312C110.028 30.7986 109.593 32.9088 108.723 34.7616C107.852 36.6144 106.659 38.0708 105.144 39.1311C103.629 40.181 101.898 40.7059 99.9529 40.7059ZM99.9529 38.9612C101.601 38.9612 103.04 38.4929 104.269 37.5562C105.508 36.6195 106.465 35.3534 107.141 33.758C107.827 32.1625 108.17 30.3869 108.17 28.4312C108.17 26.4755 107.827 24.705 107.141 23.1199C106.455 21.5244 105.497 20.2583 104.269 19.3216C103.04 18.3747 101.601 17.9012 99.9529 17.9012C98.3044 17.9012 96.8658 18.3747 95.6371 19.3216C94.4084 20.2583 93.451 21.5244 92.765 23.1199C92.079 24.705 91.736 26.4755 91.736 28.4312C91.736 30.3869 92.0739 32.1625 92.7497 33.758C93.4357 35.3534 94.393 36.6195 95.6217 37.5562C96.8607 38.4929 98.3044 38.9612 99.9529 38.9612Z" fill="#222222"/>
<path d="M115.329 24.8337V40.2119H113.455V16.4961H115.283V20.248H115.467C116.02 19.0231 116.906 18.0401 118.124 17.299C119.343 16.5579 120.791 16.1873 122.471 16.1873C124.058 16.1873 125.45 16.527 126.648 17.2064C127.856 17.8857 128.798 18.8533 129.474 20.1091C130.16 21.3546 130.503 22.8419 130.503 24.5712V40.2119H128.63V24.6484C128.63 22.6309 128.031 21.0097 126.833 19.7848C125.645 18.5496 124.073 17.932 122.117 17.932C120.807 17.932 119.64 18.2203 118.616 18.7967C117.592 19.3731 116.788 20.1811 116.204 21.2207C115.621 22.2501 115.329 23.4544 115.329 24.8337Z" fill="#222222"/>
<path d="M151.666 16.4961L143.142 40.2119H141.022L132.498 16.4961H134.51L142.005 37.7878H142.159L149.654 16.4961H151.666Z" fill="#222222"/>
<path d="M162.849 40.7059C160.719 40.7059 158.866 40.1758 157.289 39.1156C155.712 38.0554 154.494 36.6041 153.634 34.7616C152.773 32.9191 152.343 30.8192 152.343 28.4621C152.343 26.0946 152.773 23.9845 153.634 22.1317C154.504 20.2789 155.697 18.8173 157.212 17.7468C158.728 16.6763 160.458 16.141 162.403 16.141C163.724 16.141 164.973 16.4086 166.151 16.9439C167.339 17.4688 168.383 18.2305 169.284 19.229C170.195 20.2274 170.907 21.4318 171.419 22.8419C171.941 24.2521 172.202 25.8373 172.202 27.5974V28.7709H153.526V27.057H170.328C170.328 25.3381 169.98 23.7889 169.284 22.4096C168.588 21.0303 167.641 19.9341 166.443 19.1209C165.245 18.3077 163.898 17.9012 162.403 17.9012C160.837 17.9012 159.439 18.3438 158.21 19.229C156.992 20.1039 156.024 21.2877 155.308 22.7802C154.601 24.2727 154.233 25.9402 154.202 27.7827V28.5547C154.202 30.531 154.545 32.3066 155.231 33.8815C155.927 35.4461 156.92 36.6864 158.21 37.6025C159.501 38.5083 161.047 38.9612 162.849 38.9612C164.139 38.9612 165.24 38.7451 166.151 38.3127C167.072 37.8701 167.825 37.3349 168.409 36.707C168.992 36.0791 169.432 35.4718 169.729 34.8851L171.434 35.5799C171.076 36.3725 170.518 37.165 169.76 37.9576C169.013 38.7399 168.06 39.3935 166.903 39.9185C165.757 40.4435 164.405 40.7059 162.849 40.7059Z" fill="#222222"/>
<path d="M175.625 40.2119V16.4961H177.453V20.2017H177.622C178.134 18.9871 178.999 18.0144 180.218 17.2836C181.436 16.5424 182.823 16.1719 184.38 16.1719C184.544 16.1719 184.707 16.1719 184.871 16.1719C185.035 16.1719 185.189 16.177 185.332 16.1873V18.0864C185.209 18.0761 185.061 18.0607 184.887 18.0401C184.723 18.0092 184.518 17.9938 184.272 17.9938C182.962 17.9938 181.794 18.2769 180.77 18.843C179.757 19.4091 178.958 20.1914 178.375 21.1899C177.791 22.178 177.499 23.3103 177.499 24.5866V40.2119H175.625Z" fill="#222222"/>
<path d="M197.156 16.4961V18.1791H186.851V16.4961H197.156ZM190.337 10.8142H192.195V34.6072C192.195 35.5747 192.38 36.3673 192.748 36.9849C193.127 37.5922 193.619 38.0451 194.223 38.3436C194.837 38.6318 195.492 38.7759 196.189 38.7759C196.527 38.7759 196.818 38.7502 197.064 38.6987C197.32 38.6473 197.561 38.5804 197.786 38.498L198.247 40.2119C197.96 40.3148 197.643 40.4023 197.295 40.4743C196.946 40.5567 196.537 40.5979 196.066 40.5979C195.083 40.5979 194.151 40.3765 193.271 39.9339C192.4 39.4913 191.694 38.848 191.151 38.0039C190.608 37.1599 190.337 36.1409 190.337 34.9468V10.8142Z" fill="#222222"/>
<path d="M43.1199 11.8651H35.4122V4.11663C35.4122 1.84235 33.5796 0 31.3173 0H4.09496C1.83265 0 0 1.84235 0 4.11663V43.348C0 45.6223 1.83265 47.4647 4.09496 47.4647H39.345L43.1593 51.2992C43.6065 51.7488 44.2072 52 44.8385 52C46.1495 52 47.2149 50.9334 47.2149 49.6111V15.9817C47.2149 13.7074 45.3822 11.8651 43.1199 11.8651ZM43.2821 43.5067H3.93274V3.95355H31.4751V11.8651H15.8976C13.6353 11.8651 11.8026 13.7074 11.8026 15.9817V31.483C11.8026 33.7572 13.6353 35.5996 15.8976 35.5996H31.3173C33.5796 35.5996 35.4122 33.7572 35.4122 31.483V15.823H43.2821V43.5111V43.5067ZM31.4795 15.8186V31.6416H15.7397V15.8186H31.4795Z" fill="#222222"/>
</svg>
