<svg width="21" height="10" viewBox="0 0 21 10" fill="none" xmlns="http://www.w3.org/2000/svg">
  <path opacity="0.35" fill-rule="evenodd" clip-rule="evenodd" d="M15.4026 0.710831H2.5074C1.51826 0.710831 0.716401 1.50646 0.716401 2.48791V7.46373C0.716401 8.44518 1.51826 9.24081 2.5074 9.24081H15.4026C16.3918 9.24081 17.1936 8.44518 17.1936 7.46373V2.48791C17.1936 1.50646 16.3918 0.710831 15.4026 0.710831ZM2.5074 0C1.1226 0 0 1.11388 0 2.48791V7.46373C0 8.83776 1.1226 9.95164 2.5074 9.95164H15.4026C16.7874 9.95164 17.91 8.83776 17.91 7.46373V2.48791C17.91 1.11388 16.7874 0 15.4026 0H2.5074Z" fill="#1E242E"/>
  <path d="M1.43311 3.55339C1.43311 2.37565 2.39534 1.4209 3.58231 1.4209H14.3283C15.5153 1.4209 16.4775 2.37565 16.4775 3.55339V6.39672C16.4775 7.57446 15.5153 8.52921 14.3283 8.52921H3.58231C2.39534 8.52921 1.43311 7.57446 1.43311 6.39672V3.55339Z" fill="#1E242E"/>
  <path opacity="0.35" d="M18.6265 3.55615C18.6265 3.55615 20.0593 3.84048 20.0593 4.97782C20.0593 6.11515 18.6265 6.39948 18.6265 6.39948V3.55615Z" fill="#1E242E"/>
</svg>
