<svg width="16" height="11" viewBox="0 0 16 11" fill="none" xmlns="http://www.w3.org/2000/svg">
  <path fill-rule="evenodd" clip-rule="evenodd" d="M7.52197 7.10843C8.50112 7.10843 9.38758 7.50625 10.0293 8.14942L7.52197 10.6626L5.01469 8.14942C5.65635 7.50625 6.54281 7.10843 7.52197 7.10843ZM7.52197 3.55618C9.48028 3.55618 11.2532 4.3518 12.5365 5.63815L11.0322 7.14605C10.1338 6.24561 8.89279 5.68867 7.52197 5.68867C6.15115 5.68867 4.91011 6.24561 4.01177 7.14605L2.5074 5.63815C3.79074 4.3518 5.56366 3.55618 7.52197 3.55618ZM7.25875 0.00319747L7.52185 0L7.84368 0.00478672L8.12602 0.0169091L8.36938 0.0333484L8.67912 0.0623699L8.93682 0.0935024L9.21619 0.134514L9.50537 0.185031L9.79202 0.243343L10.0411 0.300783L10.332 0.37601L10.6298 0.462285L10.834 0.527003L11.0574 0.60307L11.2979 0.691315L11.5645 0.796974L11.8272 0.909396L12.0705 1.02121L12.3074 1.13733L12.5407 1.259L12.7674 1.38438L12.9846 1.51149L13.2179 1.65584L13.4472 1.80602L13.6604 1.95339L13.8537 2.09383L14.1096 2.29017L14.2986 2.44336L14.4882 2.60431L14.7007 2.79406L14.9241 3.00498L15.0444 3.12368L13.5393 4.63087C11.9993 3.08724 9.87182 2.13249 7.52185 2.13249C5.17206 2.13249 3.0447 3.0871 1.50472 4.63051L0 3.12297L0.0170525 3.10591C0.0804413 3.04266 0.144621 2.9802 0.209577 2.91856C0.337871 2.7968 0.469194 2.67821 0.603418 2.56292L0.751554 2.43798L0.933896 2.29034L1.09647 2.16417L1.27588 2.03061L1.45823 1.90072L1.56362 1.82824L1.85682 1.63615L2.07685 1.50082L2.27639 1.38434L2.56995 1.22332L2.80565 1.10257L3.04506 0.987401L3.26882 0.886348L3.53103 0.775765L3.79658 0.672122L4.0321 0.587023L4.33583 0.486487L4.545 0.423129L4.81877 0.347289L5.08932 0.280065L5.32468 0.227709L5.596 0.174296L5.86988 0.127804L6.13399 0.0899265L6.40813 0.0577385L6.68858 0.032231L6.99792 0.012707L7.25875 0.00319747Z" fill="#1E242E"/>
</svg>
