<svg width="13" height="14" viewBox="0 0 13 14" fill="none" xmlns="http://www.w3.org/2000/svg">
<path opacity="0.32" fill-rule="evenodd" clip-rule="evenodd" d="M6.50033 13.3327C9.99813 13.3327 12.8337 10.4972 12.8337 6.99935C12.8337 3.50155 9.99813 0.666016 6.50033 0.666016C3.00252 0.666016 0.166992 3.50155 0.166992 6.99935C0.166992 10.4972 3.00252 13.3327 6.50033 13.3327ZM10.967 6.99935C10.967 9.46622 8.9672 11.466 6.50033 11.466C4.03345 11.466 2.03366 9.46622 2.03366 6.99935C2.03366 4.53248 4.03345 2.53268 6.50033 2.53268C8.9672 2.53268 10.967 4.53248 10.967 6.99935Z" fill="#0EAA77"/>
<path fill-rule="evenodd" clip-rule="evenodd" d="M7.05797 2.56775C9.0787 2.81922 10.6811 4.4216 10.9326 6.44233C10.991 6.91195 11.3757 7.33331 11.9003 7.33331C12.4059 7.33331 12.8568 6.91589 12.8025 6.36793C12.5057 3.37452 10.1258 0.994594 7.13237 0.697813C6.58442 0.643487 6.16699 1.09438 6.16699 1.59998C6.16699 2.12458 6.58836 2.50931 7.05797 2.56775ZM6.50033 1.59998C6.50033 1.59998 6.50033 1.59998 6.50033 1.59998V1.59998ZM12.4708 6.40083C12.4749 6.44204 12.4742 6.48232 12.4693 6.52124L12.4708 6.40083Z" fill="#0EAA77"/>
</svg>
