<svg xmlns="http://www.w3.org/2000/svg" width="12" height="12" viewBox="0 0 12 12" fill="none">
  <path d="M7.90008 10.7666L8.86008 9.80665L6.94008 7.88665L7.88675 6.93998L9.80675 8.85998L10.7667 7.89998C10.9734 7.69331 11.3334 7.83998 11.3334 8.13998V11C11.3334 11.1866 11.1867 11.3333 11.0001 11.3333H8.14008C7.84008 11.3333 7.69341 10.9733 7.90008 10.7666ZM3.86008 11.3333H1.00008C0.813415 11.3333 0.666748 11.1866 0.666748 11V8.13998C0.666748 7.83998 1.02675 7.69331 1.23341 7.90665L2.19341 8.86665L5.33341 5.73331V1.33331C5.33341 0.966647 5.63341 0.666647 6.00008 0.666647C6.36675 0.666647 6.66675 0.966647 6.66675 1.33331V5.99998C6.66675 6.17331 6.59341 6.34665 6.47341 6.47331L3.14008 9.81331L4.10008 10.7733C4.30675 10.9733 4.16008 11.3333 3.86008 11.3333Z" fill="#810B2E"/>
</svg>

