<svg xmlns="http://www.w3.org/2000/svg" width="13" height="15" viewBox="0 0 13 15" fill="none">
    <path d="M6.80727 0.0709234C6.63757 -0.0236412 6.36244 -0.0236411 6.19275 0.0709235L0.66206 3.15296C0.492365 3.24753 0.492365 3.40085 0.66206 3.49541L2.81288 4.69398C2.89773 4.74126 3.0353 4.74126 3.12014 4.69398L8.95809 1.44072C9.04294 1.39344 9.04294 1.31678 8.95809 1.26949L6.80727 0.0709234Z" fill="#004D79"/>
    <path d="M10.1871 1.95439C10.1023 1.90711 9.96472 1.90711 9.87987 1.95439L4.04192 5.20765C3.95708 5.25494 3.95708 5.3316 4.04192 5.37888L6.19275 6.57745C6.36244 6.67201 6.63757 6.67201 6.80727 6.57745L12.338 3.49541C12.5076 3.40085 12.5076 3.24753 12.338 3.15296L10.1871 1.95439Z" fill="#004D79"/>
    <path d="M6.85479 7.70753C6.85479 7.5184 6.99236 7.28842 7.16205 7.19386L12.6927 4.11182C12.8624 4.01725 13 4.09391 13 4.28304V10.4471C13 10.6362 12.8624 10.8662 12.6927 10.9608L7.16205 14.0428C6.99236 14.1374 6.85479 14.0607 6.85479 13.8716V7.70753Z" fill="#004D79"/>
    <path d="M1.40693e-07 4.28304C1.4501e-07 4.09391 0.137565 4.01725 0.30726 4.11182L2.45808 5.31039C2.54293 5.35767 2.61171 5.47266 2.61171 5.56722V6.93702C2.61171 7.03158 2.6805 7.14657 2.76534 7.19386L3.37986 7.5363C3.46471 7.58359 3.53349 7.54526 3.53349 7.45069V6.0809C3.53349 5.98633 3.60228 5.948 3.68712 5.99529L5.83795 7.19386C6.00764 7.28842 6.14521 7.5184 6.14521 7.70753V13.8716C6.14521 14.0607 6.00764 14.1374 5.83795 14.0428L0.30726 10.9608C0.137565 10.8662 0 10.6362 0 10.4471L1.40693e-07 4.28304Z" fill="#004D79"/>
</svg>
