<svg xmlns="http://www.w3.org/2000/svg" width="16" height="16" viewBox="0 0 16 16" fill="none">
    <path d="M7.95406 2.05707C7.82225 1.98098 7.60855 1.98098 7.47674 2.05707L3.18087 4.53729C3.04906 4.61339 3.04906 4.73678 3.18087 4.81287L4.85149 5.7774C4.91739 5.81545 5.02424 5.81545 5.09014 5.7774L9.62467 3.15939C9.69057 3.12134 9.69057 3.05965 9.62467 3.0216L7.95406 2.05707Z" fill="#004D79"/>
    <path d="M10.5793 3.57276C10.5134 3.53471 10.4066 3.53471 10.3406 3.57276L5.80612 6.19077C5.74022 6.22882 5.74022 6.29051 5.80612 6.32856L7.47674 7.29309C7.60854 7.36919 7.82225 7.36919 7.95406 7.29309L12.2499 4.81287C12.3817 4.73677 12.3817 4.61339 12.2499 4.53729L10.5793 3.57276Z" fill="#004D79"/>
    <path d="M7.99097 8.20251C7.99097 8.05031 8.09782 7.86524 8.22963 7.78914L12.5255 5.30892C12.6573 5.23282 12.7642 5.29451 12.7642 5.44671V10.4071C12.7642 10.5593 12.6573 10.7444 12.5255 10.8205L8.22963 13.3007C8.09782 13.3768 7.99097 13.3151 7.99097 13.1629V8.20251Z" fill="#004D79"/>
    <path d="M2.66663 5.44671C2.66663 5.29451 2.77348 5.23282 2.90529 5.30892L4.5759 6.27345C4.6418 6.3115 4.69523 6.40403 4.69523 6.48013V7.58245C4.69523 7.65855 4.74866 7.75109 4.81456 7.78914L5.29188 8.06472C5.35778 8.10277 5.41121 8.07192 5.41121 7.99582V6.8935C5.41121 6.8174 5.46463 6.78656 5.53054 6.82461L7.20115 7.78914C7.33296 7.86524 7.43981 8.05031 7.43981 8.20251V13.1629C7.43981 13.3151 7.33296 13.3768 7.20115 13.3007L2.90529 10.8205C2.77348 10.7444 2.66663 10.5593 2.66663 10.4071L2.66663 5.44671Z" fill="#004D79"/>
</svg>
