<svg width="20" height="21" viewBox="0 0 20 21" fill="none" xmlns="http://www.w3.org/2000/svg">
<path d="M16.2169 6.84531L16.8752 5.38698L18.3335 4.72865C18.6585 4.57865 18.6585 4.12031 18.3335 3.97031L16.8752 3.31198L16.2169 1.84531C16.0669 1.52031 15.6085 1.52031 15.4585 1.84531L14.8002 3.30365L13.3335 3.96198C13.0085 4.11198 13.0085 4.57031 13.3335 4.72031L14.7919 5.37865L15.4502 6.84531C15.6002 7.17031 16.0669 7.17031 16.2169 6.84531ZM9.58353 8.09531L8.25853 5.17865C7.96686 4.52865 7.03353 4.52865 6.74186 5.17865L5.41686 8.09531L2.5002 9.42031C1.8502 9.72031 1.8502 10.6453 2.5002 10.937L5.41686 12.262L6.74186 15.1786C7.04186 15.8286 7.96686 15.8286 8.25853 15.1786L9.58353 12.262L12.5002 10.937C13.1502 10.637 13.1502 9.71198 12.5002 9.42031L9.58353 8.09531ZM15.4502 13.512L14.7919 14.9703L13.3335 15.6286C13.0085 15.7786 13.0085 16.237 13.3335 16.387L14.7919 17.0453L15.4502 18.512C15.6002 18.837 16.0585 18.837 16.2085 18.512L16.8669 17.0536L18.3335 16.3953C18.6585 16.2453 18.6585 15.787 18.3335 15.637L16.8752 14.9786L16.2169 13.512C16.0669 13.187 15.6002 13.187 15.4502 13.512Z" fill="#6F0C86"/>
</svg>
