<svg width="23" height="24" viewBox="0 0 23 24" fill="none" xmlns="http://www.w3.org/2000/svg">
<path d="M9.05445 0.5C8.84734 0.5 8.67945 0.667893 8.67945 0.875C8.67945 1.08211 8.84734 1.25 9.05445 1.25H13.3941C13.6012 1.25 13.7691 1.08211 13.7691 0.875C13.7691 0.667893 13.6012 0.5 13.3941 0.5H9.05445Z" fill="white"/>
<path fill-rule="evenodd" clip-rule="evenodd" d="M4.76224 3.97169C2.898 3.97169 1.10963 4.98776 0.680112 6.90859C0.24054 8.87439 0 11.2388 0 12.592C0 18.7908 5.02518 23.816 11.2241 23.816C17.4229 23.816 22.4481 18.7908 22.4481 12.592C22.4481 11.2388 22.2076 8.87439 21.768 6.90859C21.3385 4.98775 19.5501 3.97169 17.6859 3.97169H4.76224ZM1.41204 7.07226C1.74338 5.59048 3.13984 4.72169 4.76224 4.72169H17.6859C19.3083 4.72169 20.7047 5.59048 21.0361 7.07226C21.4645 8.98823 21.6981 11.2977 21.6981 12.592C21.6981 18.3766 17.0087 23.066 11.2241 23.066C5.4394 23.066 0.75 18.3766 0.75 12.592C0.75 11.2977 0.983605 8.98824 1.41204 7.07226Z" fill="white"/>
<path d="M5.58399 12.1582C4.62531 12.1582 3.84814 11.3811 3.84814 10.4224C3.84814 9.46369 4.62531 8.68652 5.58399 8.68652H16.867C17.8257 8.68652 18.6029 9.46369 18.6029 10.4224C18.6029 11.3811 17.8257 12.1582 16.867 12.1582H5.58399Z" fill="white"/>
<path d="M7.56811 17.0852C7.41332 16.9476 7.17629 16.9616 7.03869 17.1164C6.9011 17.2712 6.91504 17.5082 7.06984 17.6458C7.59973 18.1168 8.30875 18.4865 8.96768 18.7632C10.41 19.3688 12.0392 19.3688 13.4816 18.7632C14.1405 18.4865 14.8495 18.1168 15.3794 17.6458C15.5342 17.5082 15.5482 17.2712 15.4106 17.1164C15.273 16.9616 15.0359 16.9476 14.8812 17.0852C14.4417 17.4759 13.8204 17.8075 13.1912 18.0717C11.9346 18.5993 10.5147 18.5993 9.25805 18.0717C8.62888 17.8075 8.0076 17.4759 7.56811 17.0852Z" fill="white"/>
</svg>
