<svg width="15" height="18" viewBox="0 0 15 18" fill="none" xmlns="http://www.w3.org/2000/svg">
<path d="M10.5 15.6665H2.16667V4.83317C2.16667 4.37484 1.79167 3.99984 1.33333 3.99984C0.875 3.99984 0.5 4.37484 0.5 4.83317V15.6665C0.5 16.5832 1.25 17.3332 2.16667 17.3332H10.5C10.9583 17.3332 11.3333 16.9582 11.3333 16.4998C11.3333 16.0415 10.9583 15.6665 10.5 15.6665ZM14.6667 12.3332V2.33317C14.6667 1.4165 13.9167 0.666504 13 0.666504H5.5C4.58333 0.666504 3.83333 1.4165 3.83333 2.33317V12.3332C3.83333 13.2498 4.58333 13.9998 5.5 13.9998H13C13.9167 13.9998 14.6667 13.2498 14.6667 12.3332ZM13 12.3332H5.5V2.33317H13V12.3332Z" fill="#1D365C"/>
</svg>
