<svg width="18" height="18" viewBox="0 0 18 18" fill="none" xmlns="http://www.w3.org/2000/svg">
<path d="M9.00008 0.666687C4.40008 0.666687 0.666748 4.40002 0.666748 9.00002C0.666748 13.6 4.40008 17.3334 9.00008 17.3334C13.6001 17.3334 17.3334 13.6 17.3334 9.00002C17.3334 4.40002 13.6001 0.666687 9.00008 0.666687ZM9.00008 9.83335C8.54175 9.83335 8.16675 9.45835 8.16675 9.00002V5.66669C8.16675 5.20835 8.54175 4.83335 9.00008 4.83335C9.45842 4.83335 9.83342 5.20835 9.83342 5.66669V9.00002C9.83342 9.45835 9.45842 9.83335 9.00008 9.83335ZM9.83342 13.1667H8.16675V11.5H9.83342V13.1667Z" fill="#F24F66"/>
</svg>
