<svg width="15" height="15" viewBox="0 0 15 15" fill="none" xmlns="http://www.w3.org/2000/svg">
    <g clip-path="url(#clip0_6137_11609)">
    <g clip-path="url(#clip1_6137_11609)">
    <path d="M6.89954 6.59967C6.31931 7.57507 5.76341 8.51964 5.19592 9.45709C5.05017 9.69777 4.97804 9.89382 5.09447 10.1997C5.41592 11.0449 4.96246 11.8673 4.11021 12.0906C3.30646 12.3012 2.52339 11.7729 2.36392 10.9124C2.22261 10.1508 2.81367 9.40415 3.65346 9.2851C3.72378 9.27504 3.79564 9.27389 3.91388 9.26503L5.19127 7.12303C4.38785 6.32415 3.90967 5.39036 4.01549 4.23318C4.0903 3.41522 4.41197 2.70832 4.99986 2.12897C6.12588 1.01947 7.84372 0.839817 9.16956 1.69141C10.4429 2.50943 11.0261 4.1028 10.529 5.46654C10.1542 5.36493 9.77671 5.26245 9.36179 5.1499C9.51787 4.39166 9.40242 3.7108 8.89104 3.1275C8.55318 2.7424 8.11962 2.54054 7.62667 2.46617C6.63835 2.31687 5.66803 2.95179 5.3801 3.92184C5.05329 5.0227 5.54794 5.92204 6.89954 6.59972V6.59967Z" fill="#DDDDDD"/>
    <path d="M8.55685 5.4461C8.96564 6.16726 9.38072 6.89931 9.79208 7.62463C11.8713 6.98134 13.439 8.13235 14.0014 9.36462C14.6807 10.8532 14.2163 12.6162 12.8822 13.5345C11.5128 14.4772 9.78103 14.3162 8.56779 13.1052C8.87699 12.8464 9.18773 12.5864 9.51973 12.3086C10.718 13.0847 11.7661 13.0482 12.5442 12.1291C13.2077 11.3451 13.1934 10.176 12.5106 9.40842C11.7227 8.52265 10.6672 8.49563 9.39149 9.34592C8.86228 8.40704 8.32388 7.47566 7.81141 6.53C7.63859 6.21128 7.44784 6.02633 7.05836 5.9589C6.40796 5.84614 5.98807 5.28761 5.96286 4.66188C5.93808 4.04303 6.30269 3.48364 6.87253 3.26571C7.43701 3.04974 8.09944 3.22403 8.47914 3.70397C8.78944 4.09608 8.88804 4.53741 8.72474 5.02101C8.67935 5.15587 8.62056 5.28635 8.55685 5.44615V5.4461Z" fill="#DDDDDD"/>
    <path d="M9.53372 11.3414H7.03068C6.79076 12.3282 6.27254 13.1249 5.37966 13.6315C4.68551 14.0253 3.93739 14.1588 3.14114 14.0302C1.67508 13.7938 0.476326 12.474 0.370779 10.9879C0.251342 9.30445 1.40847 7.80803 2.95083 7.47192C3.0573 7.85862 3.16493 8.24903 3.2714 8.6348C1.85631 9.35678 1.36653 10.2665 1.76258 11.404C2.11121 12.405 3.10154 12.9536 4.17687 12.7414C5.27499 12.5248 5.82865 11.6122 5.76105 10.1475C6.80208 10.1475 7.84399 10.1367 8.88513 10.1528C9.29168 10.1592 9.60553 10.117 9.91178 9.75863C10.416 9.16888 11.3441 9.22209 11.8871 9.77908C12.4421 10.3483 12.4155 11.2642 11.8282 11.8095C11.2616 12.3356 10.3665 12.3074 9.83631 11.7406C9.72737 11.6237 9.64151 11.485 9.53372 11.3414Z" fill="#DDDDDD"/>
    </g>
    </g>
    <defs>
    <clipPath id="clip0_6137_11609">
    <rect width="14" height="14" fill="white" transform="translate(0.398438 0.532227)"/>
    </clipPath>
    <clipPath id="clip1_6137_11609">
    <rect width="14" height="13.0703" fill="white" transform="translate(0.362305 1.10339)"/>
    </clipPath>
    </defs>
    </svg>
    