<svg width="15" height="14" viewBox="0 0 15 14" fill="none" xmlns="http://www.w3.org/2000/svg">
<g clip-path="url(#clip0_6125_9523)">
<path d="M7.39979 5.89721C6.81955 6.87262 6.26365 7.81718 5.69616 8.75464C5.55042 8.99532 5.47829 9.19137 5.59471 9.49729C5.91617 10.3424 5.4627 11.1649 4.61045 11.3881C3.80671 11.5987 3.02364 11.0705 2.86417 10.21C2.72286 9.44835 3.31392 8.7017 4.1537 8.58264C4.22403 8.57258 4.29589 8.57143 4.41412 8.56257L5.69151 6.42057C4.8881 5.6217 4.40991 4.68791 4.51573 3.53072C4.59054 2.71276 4.91221 2.00587 5.50011 1.42651C6.62612 0.317012 8.34397 0.137363 9.66981 0.988957C10.9432 1.80697 11.5263 3.40035 11.0292 4.76409C10.6544 4.66248 10.2769 4.56 9.86204 4.44745C10.0181 3.68921 9.90267 3.00835 9.39129 2.42505C9.05343 2.03994 8.61986 1.83809 8.12691 1.76371C7.1386 1.61442 6.16828 2.24934 5.88035 3.21939C5.55354 4.32025 6.04818 5.21958 7.39979 5.89727V5.89721Z" fill="#222222"/>
<path d="M9.05661 4.7437C9.4654 5.46487 9.88047 6.19691 10.2918 6.92224C12.3711 6.27895 13.9387 7.42995 14.5011 8.66223C15.1805 10.1508 14.7161 11.9138 13.3819 12.8321C12.0126 13.7749 10.2808 13.6138 9.06754 12.4028C9.37675 12.144 9.68748 11.884 10.0195 11.6062C11.2178 12.3823 12.2659 12.3458 13.044 11.4267C13.7075 10.6427 13.6931 9.47363 13.0103 8.70603C12.2224 7.82026 11.167 7.79324 9.89125 8.64352C9.36204 7.70465 8.82364 6.77327 8.31116 5.82761C8.13835 5.50889 7.9476 5.32394 7.55811 5.25651C6.90772 5.14374 6.48782 4.58522 6.46261 3.95948C6.43784 3.34064 6.80244 2.78124 7.37229 2.56331C7.93677 2.34735 8.5992 2.52164 8.9789 3.00158C9.28919 3.39369 9.38779 3.83502 9.2245 4.31862C9.17911 4.45348 9.12032 4.58396 9.05661 4.74376V4.7437Z" fill="#4B4B4B"/>
<path d="M10.0337 10.639H7.53068C7.29076 11.6258 6.77254 12.4225 5.87966 12.9291C5.18551 13.3229 4.43739 13.4564 3.64114 13.3278C2.17508 13.0914 0.976326 11.7716 0.870779 10.2855C0.751342 8.60202 1.90847 7.10561 3.45083 6.7695C3.5573 7.1562 3.66493 7.54661 3.7714 7.93238C2.35631 8.65436 1.86653 9.56403 2.26258 10.7015C2.61121 11.7025 3.60154 12.2512 4.67687 12.039C5.77499 11.8224 6.32865 10.9097 6.26105 9.44509C7.30208 9.44509 8.34399 9.43431 9.38513 9.45039C9.79168 9.45679 10.1055 9.41463 10.4118 9.0562C10.916 8.46645 11.8441 8.51966 12.3871 9.07666C12.9421 9.6459 12.9155 10.5618 12.3282 11.107C11.7616 11.6331 10.8665 11.605 10.3363 11.0381C10.2274 10.9213 10.1415 10.7826 10.0337 10.639Z" fill="#4A4A4A"/>
</g>
<defs>
<clipPath id="clip0_6125_9523">
<rect width="14" height="13.0703" fill="white" transform="translate(0.862305 0.40097)"/>
</clipPath>
</defs>
</svg>
