<svg width="109" height="81" viewBox="0 0 109 81" fill="none" xmlns="http://www.w3.org/2000/svg">
<path d="M104.375 8.375H27.375C25.1659 8.375 23.375 10.1659 23.375 12.375V76.375C23.375 78.5841 25.1659 80.375 27.375 80.375H101.375C105.241 80.375 108.375 77.241 108.375 73.375V12.375C108.375 10.1659 106.584 8.375 104.375 8.375Z" fill="#9FA9B9"/>
<path d="M99.625 3.375H22.625C20.4159 3.375 18.625 5.16586 18.625 7.375V20.375V71.375C18.625 73.5841 20.4159 75.375 22.625 75.375H97.625C100.939 75.375 103.625 72.6887 103.625 69.375V7.375C103.625 5.16586 101.834 3.375 99.625 3.375Z" fill="white"/>
<path d="M16.125 26.5V69C16.125 71.2091 17.9159 73 20.125 73H97.125C99.3341 73 101.125 71.2091 101.125 69V5C101.125 2.79086 99.3341 1 97.125 1H20.125C17.9159 1 16.125 2.79086 16.125 5V18" stroke="#152065" stroke-width="1.5" stroke-linecap="round" stroke-linejoin="round"/>
<circle cx="91.625" cy="5.5" r="1.5" fill="#152065"/>
<circle cx="96.625" cy="5.5" r="1.5" fill="#152065"/>
<circle cx="86.625" cy="5.5" r="1.5" fill="#152065"/>
<path d="M41.125 24H54.125" stroke="#152065" stroke-width="1.5" stroke-linecap="round"/>
<path d="M41.125 30H63.125" stroke="#152065" stroke-width="1.5" stroke-linecap="round"/>
<path d="M41.125 36H53.125" stroke="#152065" stroke-width="1.5" stroke-linecap="round"/>
<path d="M41.125 42H72.125" stroke="#152065" stroke-width="1.5" stroke-linecap="round"/>
<path d="M41.125 48H64.125" stroke="#152065" stroke-width="1.5" stroke-linecap="round"/>
<path d="M41.125 54H53.125" stroke="#152065" stroke-width="1.5" stroke-linecap="round"/>
<path d="M41.125 60H72.125" stroke="#152065" stroke-width="1.5" stroke-linecap="round"/>
<path fill-rule="evenodd" clip-rule="evenodd" d="M86.0822 32.2929C86.2698 32.1054 86.3752 31.851 86.3752 31.5858V27.5L92.6591 21.2165C93.114 20.7613 93.2501 20.0771 93.0038 19.4826C92.7576 18.888 92.1776 18.5003 91.5341 18.5H76.7159C76.0724 18.5003 75.4924 18.888 75.2462 19.4826C74.9999 20.0771 75.136 20.7613 75.5909 21.2165L81.8748 27.5V34.0859C81.8748 34.9768 82.9519 35.423 83.5819 34.793L86.0822 32.2929Z" fill="#4A8DF9"/>
<path d="M16.125 10L100.125 10" stroke="#152065" stroke-width="1.5" stroke-linecap="round" stroke-linejoin="round"/>
<path d="M1.625 22.0625L10.375 22.0625" stroke="#152065" stroke-width="1.5" stroke-linecap="round" stroke-linejoin="round"/>
<path d="M7.25 14.5625L10.375 17.6875" stroke="#152065" stroke-width="1.5" stroke-linecap="round" stroke-linejoin="round"/>
<path d="M10.375 25.8125L7.25 28.9375" stroke="#152065" stroke-width="1.5" stroke-linecap="round" stroke-linejoin="round"/>
<path fill-rule="evenodd" clip-rule="evenodd" d="M29.125 31C32.991 31 36.125 27.866 36.125 24C36.125 20.134 32.991 17 29.125 17C25.259 17 22.125 20.134 22.125 24C22.125 27.866 25.259 31 29.125 31ZM27.1553 20.9697C26.8624 20.6768 26.3876 20.6768 26.0947 20.9697C25.8018 21.2626 25.8018 21.7374 26.0947 22.0303L28.0643 24L26.0947 25.9697C25.8018 26.2626 25.8018 26.7374 26.0947 27.0303C26.3876 27.3232 26.8624 27.3232 27.1553 27.0303L29.125 25.0607L31.0947 27.0303C31.3876 27.3232 31.8624 27.3232 32.1553 27.0303C32.4482 26.7374 32.4482 26.2626 32.1553 25.9697L30.1857 24L32.1553 22.0303C32.4482 21.7374 32.4482 21.2626 32.1553 20.9697C31.8624 20.6768 31.3876 20.6768 31.0947 20.9697L29.125 22.9393L27.1553 20.9697Z" fill="#EA559C"/>
</svg>
