<svg width="20" height="20" viewBox="0 0 20 20" fill="none" xmlns="http://www.w3.org/2000/svg">
<path opacity="0.32" fill-rule="evenodd" clip-rule="evenodd" d="M10 17.9166C14.3723 17.9166 17.9167 14.3722 17.9167 9.99998C17.9167 5.62773 14.3723 2.08331 10 2.08331C5.62779 2.08331 2.08337 5.62773 2.08337 9.99998C2.08337 14.3722 5.62779 17.9166 10 17.9166ZM15.5834 9.99998C15.5834 13.0836 13.0836 15.5833 10 15.5833C6.91645 15.5833 4.41671 13.0836 4.41671 9.99998C4.41671 6.91639 6.91645 4.41665 10 4.41665C13.0836 4.41665 15.5834 6.91639 15.5834 9.99998Z" fill="#99A5B6"/>
    <path fill-rule="evenodd" clip-rule="evenodd" d="M10.6971 4.45969C13.223 4.77402 15.226 6.77701 15.5403 9.30292C15.6134 9.88994 16.0943 10.4166 16.75 10.4166C17.382 10.4166 17.9457 9.89486 17.8777 9.20992C17.5068 5.46815 14.5319 2.49324 10.7901 2.12227C10.1052 2.05436 9.58337 2.61798 9.58337 3.24997C9.58337 3.90572 10.1101 4.38663 10.6971 4.45969ZM10 3.24998C10 3.24998 10 3.24998 10 3.24998V3.24998ZM17.4631 9.25103C17.4682 9.30256 17.4674 9.3529 17.4612 9.40155L17.4631 9.25103Z" fill="#99A5B6">
        <animateTransform
                attributeType="xml"
                attributeName="transform"
                type="rotate"
                from="0 10 10"
                to="360 10 10"
                dur="1s"
                repeatCount="indefinite"
        />
    </path>
</svg>
