<svg xmlns="http://www.w3.org/2000/svg" width="20" height="21" viewBox="0 0 20 21" fill="none">
<g clip-path="url(#clip0_25_1584)">
<path d="M10.4254 0.601742C10.1905 0.466086 9.80954 0.466086 9.57457 0.601742L1.9167 5.02302C1.68174 5.15867 1.68174 5.37861 1.9167 5.51427L4.89476 7.23365C5.01224 7.30148 5.20272 7.30148 5.3202 7.23365L13.4035 2.56675C13.521 2.49892 13.521 2.38895 13.4035 2.32113L10.4254 0.601742Z" fill="#6A6A6A"/>
<path d="M15.1053 3.30363C14.9878 3.2358 14.7973 3.2358 14.6798 3.30363L6.59651 7.97053C6.47903 8.03836 6.47903 8.14833 6.59651 8.21616L9.57457 9.93554C9.80953 10.0712 10.1905 10.0712 10.4254 9.93554L18.0833 5.51427C18.3183 5.37861 18.3183 5.15867 18.0833 5.02302L15.1053 3.30363Z" fill="#6A6A6A"/>
<path d="M10.4913 11.5567C10.4913 11.2854 10.6817 10.9555 10.9167 10.8198L18.5746 6.39852C18.8095 6.26287 19 6.37284 19 6.64415V15.4867C19 15.758 18.8095 16.0879 18.5746 16.2236L10.9167 20.6449C10.6817 20.7805 10.4913 20.6705 10.4913 20.3992V11.5567Z" fill="#6A6A6A"/>
<path d="M1 6.64415C1 6.37284 1.19048 6.26287 1.42544 6.39852L4.4035 8.11791C4.52098 8.18574 4.61622 8.35069 4.61622 8.48635V10.4514C4.61622 10.587 4.71146 10.752 4.82894 10.8198L5.67981 11.3111C5.79729 11.3789 5.89253 11.3239 5.89253 11.1882V9.22323C5.89253 9.08757 5.98777 9.03259 6.10525 9.10042L9.08331 10.8198C9.31827 10.9555 9.50875 11.2854 9.50875 11.5567V20.3992C9.50875 20.6705 9.31827 20.7805 9.08331 20.6449L1.42544 16.2236C1.19047 16.0879 1 15.758 1 15.4867L1 6.64415Z" fill="#6A6A6A"/>
</g>
<defs>
<clipPath id="clip0_25_1584">
<rect width="20" height="20" fill="white" />
</clipPath>
</defs>
</svg>