<svg width="24" height="24" viewBox="0 0 24 24" fill="none" xmlns="http://www.w3.org/2000/svg">
<path d="M12.4254 2.10174C12.1905 1.96609 11.8095 1.96609 11.5746 2.10174L3.9167 6.52302C3.68174 6.65867 3.68174 6.87861 3.9167 7.01427L6.89476 8.73365C7.01224 8.80148 7.20272 8.80148 7.3202 8.73365L15.4035 4.06675C15.521 3.99892 15.521 3.88895 15.4035 3.82113L12.4254 2.10174Z" fill="#222222"/>
<path d="M17.1053 4.80363C16.9878 4.7358 16.7973 4.7358 16.6798 4.80363L8.59651 9.47053C8.47903 9.53836 8.47903 9.64833 8.59651 9.71616L11.5746 11.4355C11.8095 11.5712 12.1905 11.5712 12.4254 11.4355L20.0833 7.01427C20.3183 6.87861 20.3183 6.65867 20.0833 6.52302L17.1053 4.80363Z" fill="#222222"/>
<path d="M12.4913 13.0567C12.4913 12.7854 12.6817 12.4555 12.9167 12.3198L20.5746 7.89852C20.8095 7.76287 21 7.87284 21 8.14415V16.9867C21 17.258 20.8095 17.5879 20.5746 17.7236L12.9167 22.1449C12.6817 22.2805 12.4913 22.1705 12.4913 21.8992V13.0567Z" fill="#222222"/>
<path d="M3 8.14415C3 7.87284 3.19048 7.76287 3.42544 7.89852L6.4035 9.61791C6.52098 9.68574 6.61622 9.85069 6.61622 9.98635V11.9514C6.61622 12.087 6.71146 12.252 6.82894 12.3198L7.67981 12.8111C7.79729 12.8789 7.89253 12.8239 7.89253 12.6882V10.7232C7.89253 10.5876 7.98777 10.5326 8.10525 10.6004L11.0833 12.3198C11.3183 12.4555 11.5087 12.7854 11.5087 13.0567V21.8992C11.5087 22.1705 11.3183 22.2805 11.0833 22.1449L3.42544 17.7236C3.19047 17.5879 3 17.258 3 16.9867L3 8.14415Z" fill="#222222"/>
</svg>
