<svg width="32" height="32" viewBox="0 0 32 32" fill="none" xmlns="http://www.w3.org/2000/svg">
<path d="M16 0.5C19.7854 0.5 22.5745 0.500713 24.7119 0.788086C26.8348 1.07354 28.2406 1.63315 29.3037 2.69629C30.3668 3.75943 30.9265 5.16519 31.2119 7.28809C31.4993 9.42554 31.5 12.2146 31.5 16C31.5 19.7854 31.4993 22.5745 31.2119 24.7119C30.9265 26.8348 30.3668 28.2406 29.3037 29.3037C28.2406 30.3668 26.8348 30.9265 24.7119 31.2119C22.5745 31.4993 19.7854 31.5 16 31.5C12.2146 31.5 9.42554 31.4993 7.28809 31.2119C5.16519 30.9265 3.75943 30.3668 2.69629 29.3037C1.63315 28.2406 1.07354 26.8348 0.788086 24.7119C0.500713 22.5745 0.5 19.7854 0.5 16C0.5 12.2146 0.500713 9.42554 0.788086 7.28809C1.07354 5.16519 1.63315 3.75943 2.69629 2.69629C3.75943 1.63315 5.16519 1.07354 7.28809 0.788086C9.42554 0.500713 12.2146 0.5 16 0.5Z" fill="#4A4A4A"/>
<path d="M16 0.5C19.7854 0.5 22.5745 0.500713 24.7119 0.788086C26.8348 1.07354 28.2406 1.63315 29.3037 2.69629C30.3668 3.75943 30.9265 5.16519 31.2119 7.28809C31.4993 9.42554 31.5 12.2146 31.5 16C31.5 19.7854 31.4993 22.5745 31.2119 24.7119C30.9265 26.8348 30.3668 28.2406 29.3037 29.3037C28.2406 30.3668 26.8348 30.9265 24.7119 31.2119C22.5745 31.4993 19.7854 31.5 16 31.5C12.2146 31.5 9.42554 31.4993 7.28809 31.2119C5.16519 30.9265 3.75943 30.3668 2.69629 29.3037C1.63315 28.2406 1.07354 26.8348 0.788086 24.7119C0.500713 22.5745 0.5 19.7854 0.5 16C0.5 12.2146 0.500713 9.42554 0.788086 7.28809C1.07354 5.16519 1.63315 3.75943 2.69629 2.69629C3.75943 1.63315 5.16519 1.07354 7.28809 0.788086C9.42554 0.500713 12.2146 0.5 16 0.5Z" stroke="#5C5C5C"/>
<g clip-path="url(#clip0_13488_20758)">
<path d="M17.0001 12.57C16.2101 12.57 15.5701 13.21 15.5701 14C15.5701 14.79 16.2101 15.43 17.0001 15.43C17.7901 15.43 18.4301 14.79 18.4301 14C18.4301 13.21 17.7901 12.57 17.0001 12.57Z" fill="white"/>
<path d="M17.0001 7C13.2501 7 10.2001 9.94 10.0201 13.64L8.10007 16.2C7.85007 16.53 8.09007 17 8.50007 17H10.0001V20C10.0001 21.1 10.9001 22 12.0001 22H13.0001V25H20.0001V20.32C22.3601 19.2 24.0001 16.79 24.0001 14C24.0001 10.13 20.8701 7 17.0001 7Z" fill="white"/>
<path d="M15.4286 17.6C15.4286 17.8 15.5714 18 15.7857 18H17.2143C17.4286 18 17.5714 17.8 17.5714 17.6V17.2H15.4286V17.6ZM16.5 10C15.1071 10 14 11.24 14 12.8C14 13.76 14.4286 14.6 15.0714 15.08V16C15.0714 16.2 15.2143 16.4 15.4286 16.4H17.5714C17.7857 16.4 17.9286 16.2 17.9286 16V15.08C18.5714 14.56 19 13.72 19 12.8C19 11.24 17.8929 10 16.5 10Z" fill="#4A4A4A"/>
</g>
<defs>
<clipPath id="clip0_13488_20758">
<rect width="24" height="24" fill="white" transform="translate(4 4)"/>
</clipPath>
</defs>
</svg>
