<svg width="12" height="11" viewBox="0 0 12 11" fill="none"
    xmlns="http://www.w3.org/2000/svg">
    <path d="M5.44007 9.97L8.20507 7.2C8.39007 7.015 8.49507 6.76 8.49507 6.495V1.5C8.49507 0.95 8.04507 0.5 7.49507 0.5H3.00007C2.60007 0.5 2.24007 0.74 2.08507 1.105L0.455072 4.91C0.0300719 5.9 0.755072 7 1.83007 7H4.65507L4.18007 9.29C4.13007 9.54 4.20507 9.795 4.38507 9.975C4.68007 10.265 5.15007 10.265 5.44007 9.97ZM10.5001 0.5C9.95007 0.5 9.50007 0.95 9.50007 1.5V5.5C9.50007 6.05 9.95007 6.5 10.5001 6.5C11.0501 6.5 11.5001 6.05 11.5001 5.5V1.5C11.5001 0.95 11.0501 0.5 10.5001 0.5Z" fill="white"/>
</svg>
