<svg width="15" height="13" viewBox="0 0 15 13" fill="none"
    xmlns="http://www.w3.org/2000/svg">
    <path d="M8.08 0.372987L4.38667 4.06632C4.14 4.31299 4 4.65299 4 5.00632V11.6663C4 12.3997 4.6 12.9997 5.33333 12.9997H11.3333C11.8667 12.9997 12.3467 12.6797 12.56 12.193L14.7333 7.11965C15.2933 5.79965 14.3267 4.33299 12.8933 4.33299H9.12667L9.76 1.27965C9.82667 0.94632 9.72667 0.60632 9.48667 0.36632C9.09333 -0.0203462 8.46667 -0.0203462 8.08 0.372987ZM1.33333 12.9997C2.06667 12.9997 2.66667 12.3997 2.66667 11.6663V6.33299C2.66667 5.59965 2.06667 4.99965 1.33333 4.99965C0.6 4.99965 0 5.59965 0 6.33299V11.6663C0 12.3997 0.6 12.9997 1.33333 12.9997Z" fill="#556885"/>
</svg>
