<svg width="20" height="20" viewBox="0 0 20 20" fill="none" xmlns="http://www.w3.org/2000/svg">
<path d="M16.5082 3.89037C16.4939 3.79032 16.4081 3.73315 16.3367 3.73315C16.2652 3.73315 14.8503 3.70457 14.8503 3.70457C14.8503 3.70457 13.664 2.56118 13.5497 2.43255C13.4353 2.31821 13.2066 2.34679 13.1209 2.37538C13.1209 2.37538 12.8922 2.44684 12.5206 2.56118C12.4634 2.36109 12.3634 2.11812 12.2348 1.86085C11.8203 1.06048 11.1914 0.631713 10.4482 0.631713C10.3911 0.631713 10.3482 0.631713 10.291 0.646005C10.2624 0.617421 10.2481 0.588836 10.2195 0.574544C9.89082 0.231527 9.47634 0.0600194 8.97611 0.0743117C8.01853 0.102896 7.06094 0.803221 6.27486 2.03236C5.73175 2.9042 5.31727 3.99041 5.18864 4.83366C4.08813 5.17668 3.31635 5.41965 3.28776 5.41965C2.73036 5.59116 2.71607 5.60545 2.64461 6.13426C2.61602 6.53445 1.1582 17.8111 1.1582 17.8111L13.3924 19.9264L18.6949 18.6115C18.6806 18.6115 16.5225 3.99041 16.5082 3.89037ZM11.906 2.76127C11.6202 2.84703 11.3058 2.94707 10.9627 3.06141C10.9627 2.57547 10.8913 1.88944 10.6769 1.31775C11.4058 1.43208 11.7631 2.26104 11.906 2.76127ZM10.3196 3.24721C9.67644 3.4473 8.97611 3.66169 8.27579 3.87607C8.47588 3.11858 8.84748 2.37538 9.30484 1.87515C9.47634 1.68935 9.71931 1.48925 9.99087 1.37491C10.2767 1.93232 10.3339 2.71839 10.3196 3.24721ZM9.0047 0.717467C9.23337 0.717467 9.41918 0.760344 9.57639 0.874683C9.31913 1.00331 9.06187 1.20341 8.83319 1.46067C8.21862 2.11812 7.74697 3.13287 7.56117 4.11904C6.97518 4.30484 6.40349 4.47635 5.88897 4.63357C6.23198 3.0757 7.53259 0.760344 9.0047 0.717467Z" fill="#95BF47"/>
<path d="M16.3373 3.73315C16.2658 3.73315 14.8509 3.70456 14.8509 3.70456C14.8509 3.70456 13.6646 2.56118 13.5503 2.43255C13.5074 2.38967 13.4502 2.36108 13.3931 2.36108V19.9264L18.6955 18.6115C18.6955 18.6115 16.5374 3.99041 16.5231 3.89036C16.4945 3.79032 16.4088 3.73315 16.3373 3.73315Z" fill="#5E8E3E"/>
<path d="M10.4484 6.46305L9.83379 8.76412C9.83379 8.76412 9.14776 8.44969 8.33309 8.50686C7.13254 8.57832 7.13254 9.33581 7.13254 9.52161C7.204 10.5507 9.90525 10.7793 10.0625 13.1947C10.1768 15.0956 9.062 16.3962 7.43268 16.4963C5.48892 16.5963 4.41699 15.4529 4.41699 15.4529L4.83147 13.695C4.83147 13.695 5.91769 14.5096 6.77523 14.4525C7.33263 14.4239 7.54702 13.9522 7.51843 13.6378C7.43268 12.2943 5.23166 12.3801 5.08873 10.1648C4.97439 8.30676 6.18924 6.43447 8.8762 6.26296C9.91955 6.1915 10.4484 6.46305 10.4484 6.46305Z" fill="white"/>
</svg>
