<svg width="20" height="20" viewBox="0 0 20 20" fill="none" xmlns="http://www.w3.org/2000/svg">
<g id="store">
<path id="Vector" d="M4.16673 4.99967H15.8334C16.2917 4.99967 16.6667 4.62467 16.6667 4.16634C16.6667 3.70801 16.2917 3.33301 15.8334 3.33301H4.16673C3.70839 3.33301 3.33339 3.70801 3.33339 4.16634C3.33339 4.62467 3.70839 4.99967 4.16673 4.99967ZM16.8001 6.49967C16.7251 6.11634 16.3834 5.83301 15.9834 5.83301H4.01673C3.61673 5.83301 3.27506 6.11634 3.20006 6.49967L2.36673 10.6663C2.26673 11.183 2.65839 11.6663 3.18339 11.6663H3.33339V15.833C3.33339 16.2913 3.70839 16.6663 4.16673 16.6663H10.8334C11.2917 16.6663 11.6667 16.2913 11.6667 15.833V11.6663H15.0001V15.833C15.0001 16.2913 15.3751 16.6663 15.8334 16.6663C16.2917 16.6663 16.6667 16.2913 16.6667 15.833V11.6663H16.8167C17.3417 11.6663 17.7334 11.183 17.6334 10.6663L16.8001 6.49967ZM10.0001 14.9997H5.00006V11.6663H10.0001V14.9997Z" fill="#AFAFAF"/>
</g>
</svg>
