<svg width="18" height="18" viewBox="0 0 18 18" fill="none" xmlns="http://www.w3.org/2000/svg">
<path d="M8.99996 0.666687C4.39996 0.666687 0.666626 4.40002 0.666626 9.00002C0.666626 13.6 4.39996 17.3334 8.99996 17.3334C13.6 17.3334 17.3333 13.6 17.3333 9.00002C17.3333 4.40002 13.6 0.666687 8.99996 0.666687ZM6.74163 12.575L3.74996 9.58335C3.42496 9.25835 3.42496 8.73335 3.74996 8.40835C4.07496 8.08335 4.59996 8.08335 4.92496 8.40835L7.33329 10.8084L13.0666 5.07502C13.3916 4.75002 13.9166 4.75002 14.2416 5.07502C14.5666 5.40002 14.5666 5.92502 14.2416 6.25002L7.91663 12.575C7.59996 12.9 7.06663 12.9 6.74163 12.575Z" fill="#24D69D"/>
</svg>
