<svg width="16" height="16" viewBox="0 0 16 16" fill="none" xmlns="http://www.w3.org/2000/svg">
<g id="team_circle">
<path id="Exclude" fill-rule="evenodd" clip-rule="evenodd" d="M1.33301 8.0026C1.33301 4.3226 4.31967 1.33594 7.99967 1.33594C11.6797 1.33594 14.6663 4.3226 14.6663 8.0026C14.6663 11.6826 11.6797 14.6693 7.99967 14.6693C4.31967 14.6693 1.33301 11.6826 1.33301 8.0026ZM3.99967 10.6559C4.85967 11.9493 6.33301 12.8026 7.99967 12.8026C9.66634 12.8026 11.1397 11.9493 11.9997 10.6559C11.9797 9.32927 9.32634 8.6026 7.99967 8.6026C6.66634 8.6026 4.01967 9.32927 3.99967 10.6559ZM8.00488 3.33594C9.04238 3.33594 9.87988 4.17344 9.87988 5.21094C9.87988 6.24844 9.04238 7.08594 8.00488 7.08594C6.96738 7.08594 6.12988 6.24844 6.12988 5.21094C6.12988 4.17344 6.96738 3.33594 8.00488 3.33594ZM4.375 5C4.60637 5 4.82644 5.04835 5.02567 5.13551L5.02539 5.17578C5.02539 5.97865 5.35449 6.70465 5.88514 7.22625C5.64612 7.82608 5.06007 8.25 4.375 8.25C3.47754 8.25 2.75 7.52246 2.75 6.625C2.75 5.72754 3.47754 5 4.375 5ZM10.126 7.25339C10.673 6.72999 11.0137 5.99267 11.0137 5.17578C11.0137 5.15685 11.0135 5.13797 11.0132 5.11912C11.202 5.04232 11.4086 5 11.625 5C12.5225 5 13.25 5.72754 13.25 6.625C13.25 7.52246 12.5225 8.25 11.625 8.25C10.9503 8.25 10.3717 7.83883 10.126 7.25339Z" fill="currentColor"/>
</g>
</svg>
