<svg width="20" height="20" viewBox="0 0 20 20" fill="none" xmlns="http://www.w3.org/2000/svg">
    <path fill-rule="evenodd" clip-rule="evenodd" d="M8.14817 4.22309C8.14817 1.72229 11.7422 1.77817 11.7422 4.22309H8.14817ZM3.45654 6.91917C3.68343 4.88451 3.75648 4.22944 6.41577 4.22309C6.41577 -0.279052 13.4711 -0.31398 13.4746 4.22309C16.1466 4.22309 16.2241 4.85175 16.4567 6.73949C16.4905 7.01335 16.5275 7.31371 16.5762 7.64249C16.7259 8.6582 16.8427 9.69242 16.9595 10.7267L16.9595 10.7268L16.9595 10.7268L16.9595 10.7268C17.058 11.5989 17.1565 12.471 17.2747 13.3322C17.2972 13.4984 17.3225 13.6677 17.348 13.8389C17.5844 15.4221 17.8438 17.1599 16.1291 18.0613C15.3668 18.4607 12.7359 18.3934 11.0529 18.3504H11.0529L11.0527 18.3503L11.0517 18.3503C10.6301 18.3395 10.268 18.3303 10.0098 18.3303C9.27109 18.3303 8.59012 18.3435 7.96548 18.3556C3.51316 18.4421 1.9224 18.4729 2.68203 13.2658C2.86433 12.0107 3.01223 10.729 3.15921 9.45529L3.15921 9.45529L3.15921 9.45527L3.15922 9.45522L3.15923 9.45509C3.23189 8.82544 3.30432 8.19773 3.38058 7.57613C3.40932 7.34267 3.43371 7.12393 3.45654 6.91917ZM8.03289 5.64813C8.03289 5.27441 7.72902 4.97054 7.3553 4.97054C6.97808 4.97054 6.67422 5.27441 6.67771 5.64813C6.67771 6.02186 6.98158 6.32573 7.3553 6.32573C7.72902 6.32573 8.03289 6.02186 8.03289 5.64813ZM12.6643 4.97054C13.038 4.97054 13.3419 5.27441 13.3419 5.64813C13.3419 6.02186 13.038 6.32573 12.6643 6.32573C12.2906 6.32573 11.9867 6.02186 11.9867 5.64813C11.9867 5.27441 12.2906 4.97054 12.6643 4.97054ZM11.8365 7.54467C11.8365 8.71125 12.783 9.66127 13.9531 9.66127H13.9496V11.1911C13.1463 11.1911 12.4093 10.9082 11.833 10.4367V13.6919C11.833 15.2811 10.5442 16.5734 8.95151 16.5734C7.36231 16.5734 6.07 15.2846 6.07 13.6919C6.07 12.1027 7.35882 10.8104 8.95151 10.8104C9.09122 10.8104 9.22744 10.8209 9.36016 10.8383V12.4555C9.23792 12.4171 9.08423 12.3961 8.95151 12.3961C8.2355 12.3961 7.6557 12.9759 7.6557 13.6919C7.6557 14.4079 8.2355 14.9877 8.95151 14.9877C9.66752 14.9877 10.2473 14.4079 10.2473 13.6919V7.54467H11.8365Z" fill="#AFAFAF"/>
</svg>
