<svg width="14" height="14" viewBox="0 0 14 14" fill="none" xmlns="http://www.w3.org/2000/svg">
<g id="timer">
<path id="Vector" d="M8.16672 0.583336H5.83339C5.51256 0.583336 5.25006 0.845836 5.25006 1.16667C5.25006 1.4875 5.51256 1.75 5.83339 1.75H8.16672C8.48756 1.75 8.75006 1.4875 8.75006 1.16667C8.75006 0.845836 8.48756 0.583336 8.16672 0.583336ZM7.00006 8.16667C7.32089 8.16667 7.58339 7.90417 7.58339 7.58334V5.25C7.58339 4.92917 7.32089 4.66667 7.00006 4.66667C6.67922 4.66667 6.41672 4.92917 6.41672 5.25V7.58334C6.41672 7.90417 6.67922 8.16667 7.00006 8.16667ZM11.1009 4.31084L11.5384 3.87334C11.7601 3.65167 11.7659 3.28417 11.5384 3.05667L11.5326 3.05084C11.3051 2.82334 10.9434 2.82917 10.7159 3.05084L10.2784 3.48834C9.37423 2.765 8.23672 2.33334 7.00006 2.33334C4.20006 2.33334 1.82006 4.64334 1.75006 7.44334C1.67423 10.4067 4.04839 12.8333 7.00006 12.8333C9.90506 12.8333 12.2501 10.4825 12.2501 7.58334C12.2501 6.34667 11.8184 5.20917 11.1009 4.31084ZM7.00006 11.6667C4.74256 11.6667 2.91673 9.84084 2.91673 7.58334C2.91673 5.32584 4.74256 3.5 7.00006 3.5C9.25756 3.5 11.0834 5.32584 11.0834 7.58334C11.0834 9.84084 9.25756 11.6667 7.00006 11.6667Z" fill="white"/>
</g>
</svg>
