<svg width="18" height="16" viewBox="0 0 18 16" fill="none" xmlns="http://www.w3.org/2000/svg">
<path d="M1.27494 15.5H16.7166C17.3583 15.5 17.7583 14.8083 17.4416 14.25L9.7166 0.916675C9.3916 0.358341 8.5916 0.358341 8.27494 0.916675L0.549935 14.25C0.233269 14.8083 0.633269 15.5 1.27494 15.5ZM9.83327 13H8.1666V11.3333H9.83327V13ZM8.99994 9.66667C8.5416 9.66667 8.1666 9.29167 8.1666 8.83334V7.16667C8.1666 6.70834 8.5416 6.33334 8.99994 6.33334C9.45827 6.33334 9.83327 6.70834 9.83327 7.16667V8.83334C9.83327 9.29167 9.45827 9.66667 8.99994 9.66667Z" fill="#FD9B5A"/>
</svg>
