<svg width="14" height="12" viewBox="0 0 14 12" fill="none" xmlns="http://www.w3.org/2000/svg">
<path d="M1.97976 12H12.0198C13.0464 12 13.6864 10.8866 13.1731 9.99996L8.15309 1.32662C7.63976 0.439954 6.35976 0.439954 5.84642 1.32662L0.826422 9.99996C0.313089 10.8866 0.953088 12 1.97976 12ZM6.99976 7.33329C6.63309 7.33329 6.33309 7.03329 6.33309 6.66662V5.33329C6.33309 4.96662 6.63309 4.66662 6.99976 4.66662C7.36642 4.66662 7.66642 4.96662 7.66642 5.33329V6.66662C7.66642 7.03329 7.36642 7.33329 6.99976 7.33329ZM7.66642 9.99996H6.33309V8.66662H7.66642V9.99996Z" fill="#FD9B5A"/>
</svg>
