<svg width="20" height="20" viewBox="0 0 20 20" fill="none" xmlns="http://www.w3.org/2000/svg">
<g id="webhooks 1" clip-path="url(#clip0_2880_6500)">
<path id="Vector" d="M9.28764 8.66776C8.45873 10.0612 7.66459 11.4106 6.85389 12.7498C6.64569 13.0936 6.54264 13.3737 6.70897 13.8107C7.16819 15.0181 6.52037 16.193 5.30287 16.5119C4.15467 16.8128 3.036 16.0581 2.80819 14.8289C2.60631 13.7408 3.45069 12.6742 4.65037 12.5041C4.75084 12.4897 4.8535 12.4881 5.02241 12.4754L6.84725 9.41541C5.69951 8.27416 5.01639 6.94018 5.16756 5.28705C5.27444 4.11854 5.73397 3.10869 6.57381 2.28104C8.18241 0.696038 10.6365 0.439397 12.5305 1.65596C14.3496 2.82455 15.1827 5.1008 14.4726 7.04901C13.9371 6.90385 13.3979 6.75744 12.8051 6.59666C13.0281 5.51346 12.8632 4.5408 12.1326 3.70752C11.65 3.15737 11.0306 2.86901 10.3264 2.76276C8.91451 2.54948 7.52834 3.45651 7.11701 4.84229C6.65014 6.41494 7.35678 7.69971 9.28764 8.66784V8.66776Z" fill="#C73A63"/>
<path id="Vector_2" d="M11.6549 7.01987C12.2389 8.0501 12.8319 9.09588 13.4195 10.1321C16.3898 9.21307 18.6294 10.8574 19.4328 12.6178C20.4033 14.7442 19.7398 17.2628 17.834 18.5748C15.8777 19.9215 13.4037 19.6914 11.6705 17.9614C12.1123 17.5917 12.5562 17.2203 13.0305 16.8235C14.7423 17.9322 16.2396 17.88 17.3512 16.5671C18.2991 15.447 18.2785 13.7769 17.3031 12.6803C16.1775 11.4149 14.6698 11.3763 12.8473 12.591C12.0912 11.2498 11.3221 9.91924 10.59 8.5683C10.3431 8.11299 10.0706 7.84877 9.51421 7.75244C8.58507 7.59135 7.98522 6.79346 7.94921 5.89955C7.91382 5.01549 8.43468 4.21635 9.24874 3.90502C10.0551 3.59651 11.0015 3.84549 11.5439 4.53112C11.9872 5.09127 12.128 5.72174 11.8948 6.4126C11.8299 6.60526 11.7459 6.79166 11.6549 7.01994V7.01987Z" fill="#4B4B4B"/>
<path id="Vector_3" d="M13.0505 15.4417H9.47473C9.132 16.8514 8.39169 17.9895 7.11614 18.7133C6.1245 19.2758 5.05575 19.4665 3.91825 19.2828C1.82387 18.9451 0.111374 17.0597 -0.0394071 14.9367C-0.210032 12.5317 1.44301 10.394 3.64637 9.91382C3.79848 10.4662 3.95223 11.024 4.10434 11.5751C2.08278 12.6065 1.38309 13.906 1.94887 15.531C2.44692 16.961 3.86169 17.7448 5.39786 17.4417C6.96661 17.1322 7.75755 15.8284 7.66098 13.7361C9.14817 13.7361 10.6366 13.7207 12.124 13.7437C12.7047 13.7528 13.1531 13.6926 13.5906 13.1805C14.3109 12.338 15.6368 12.4141 16.4125 13.2098C17.2054 14.023 17.1674 15.3314 16.3284 16.1103C15.519 16.8619 14.2401 16.8217 13.4828 16.0119C13.3272 15.845 13.2045 15.6468 13.0505 15.4417Z" fill="#4A4A4A"/>
</g>
<defs>
<clipPath id="clip0_2880_6500">
<rect width="20" height="18.6719" fill="white" transform="translate(-0.0515137 0.815918)"/>
</clipPath>
</defs>
</svg>
