<svg width="16" height="16" viewBox="0 0 16 16" fill="none" xmlns="http://www.w3.org/2000/svg">
<path fill-rule="evenodd" clip-rule="evenodd" d="M12.6667 5.33331C13.7712 5.33331 14.6667 4.43788 14.6667 3.33331C14.6667 2.22874 13.7712 1.33331 12.6667 1.33331C11.5621 1.33331 10.6667 2.22874 10.6667 3.33331C10.6667 4.43788 11.5621 5.33331 12.6667 5.33331ZM3.33333 1.99998H10.3568C10.1299 2.39221 10 2.8476 10 3.33331H4C3.63333 3.33331 3.33333 3.63331 3.33333 3.99998V12C3.33333 12.3666 3.63333 12.6666 4 12.6666H12C12.3667 12.6666 12.6667 12.3666 12.6667 12V5.99998C13.1524 5.99998 13.6078 5.87012 14 5.64323V12.6666C14 13.4 13.4 14 12.6667 14H3.33333C2.6 14 2 13.4 2 12.6666V3.33331C2 2.59998 2.6 1.99998 3.33333 1.99998Z" fill="currentColor"/>
</svg>
