<svg width="20" height="20" viewBox="0 0 82 82" fill="none" xmlns="http://www.w3.org/2000/svg">
    <path d="M40.9987 6.83008C59.8684 6.83008 75.1654 22.127 75.1654 40.9968C75.1654 58.0504 62.6712 72.1853 46.3374 74.7485V50.8732L54.2983 50.8732L55.8133 40.9968H46.3374V34.5877C46.3374 32.2235 47.3507 29.9116 50.4474 29.3705C50.8898 29.2932 51.3747 29.252 51.9052 29.252H56.2135L56.2137 20.8438C56.2137 20.8438 52.3037 20.1765 48.5655 20.1765C48.5655 20.1765 48.5656 20.1765 48.5655 20.1765C45.9011 20.1765 43.5516 20.7278 41.6128 21.7947C37.8726 23.8529 35.6602 27.8299 35.6602 33.4695V40.9968H26.985V50.8732H35.6602V74.7485C19.3263 72.1853 6.83203 58.0505 6.83203 40.9968C6.83203 22.127 22.129 6.83008 40.9987 6.83008Z" fill="#AFAFAF"/>
</svg>
