<svg width="64" height="64" viewBox="0 0 64 64" fill="none" xmlns="http://www.w3.org/2000/svg">
<path d="M6.18994 46.1884V18.4079C6.18994 17.999 6.43888 17.6313 6.81853 17.4795L30.0997 8.16641C30.3382 8.07103 30.6042 8.07104 30.8426 8.16644L52.4282 16.8032C53.2664 17.1386 53.2662 18.3251 52.4279 18.6602L31.1019 27.1848C30.7221 27.3367 30.473 27.7044 30.473 28.1134V55.1053C30.473 55.8128 29.7584 56.2966 29.1015 56.0337L6.81842 47.1168C6.43883 46.9649 6.18994 46.5973 6.18994 46.1884Z" fill="#EEEEEE"/>
<path fill-rule="evenodd" clip-rule="evenodd" d="M30.2569 7.48224C30.3946 7.42714 30.5483 7.42714 30.686 7.48224L54.9674 17.1948C55.1868 17.2825 55.3306 17.495 55.3306 17.7312L55.3306 25.825C55.3306 26.1441 55.0719 26.4028 54.7528 26.4028C54.4337 26.4028 54.175 26.1441 54.175 25.825L54.175 18.5846L31.0492 27.835L31.0492 55.728L36.7319 53.455C37.0281 53.3364 37.3644 53.4805 37.4829 53.7768C37.6014 54.0731 37.4573 54.4093 37.161 54.5279L30.686 57.1179C30.5483 57.173 30.3946 57.173 30.2569 57.1179L5.9755 47.4053C5.75614 47.3176 5.6123 47.1051 5.6123 46.8689V17.7312C5.6123 17.495 5.75614 17.2825 5.9755 17.1948L19.3149 11.859C19.3244 11.8549 19.3341 11.8511 19.3438 11.8475L30.2569 7.48224ZM19.5441 13.0119L7.7458 17.7312L30.4714 26.8215L42.2697 22.1022L19.5441 13.0119ZM43.8254 21.4799L21.0998 12.3897L30.4714 8.64098L53.1971 17.7312L43.8254 21.4799ZM29.8937 27.835L6.76786 18.5846V46.4777L29.8937 55.728L29.8937 27.835ZM10.5099 39.6395C10.6284 39.3432 10.9647 39.1991 11.2609 39.3176L15.3078 40.9364C15.6041 41.0549 15.7482 41.3912 15.6297 41.6874C15.5112 41.9837 15.1749 42.1278 14.8787 42.0093L10.8318 40.3906C10.5355 40.272 10.3914 39.9358 10.5099 39.6395Z" fill="#AFAFAF"/>
<path fill-rule="evenodd" clip-rule="evenodd" d="M39.9784 32.6643C42.1437 30.499 45.0804 29.2826 48.1426 29.2826C51.2048 29.2826 54.1416 30.499 56.3068 32.6643C58.4721 34.8296 59.6886 37.7664 59.6886 40.8285C59.6886 43.8907 58.4721 46.8275 56.3068 48.9928C54.1416 51.158 51.2048 52.3745 48.1426 52.3745C45.0804 52.3745 42.1437 51.158 39.9784 48.9928C37.8131 46.8275 36.5967 43.8907 36.5967 40.8285C36.5967 37.7664 37.8131 34.8296 39.9784 32.6643ZM42.9433 35.629C42.7177 35.8546 42.7177 36.2205 42.9433 36.4461L47.3255 40.8283L42.9433 45.2105C42.7177 45.4361 42.7177 45.802 42.9433 46.0276C43.1689 46.2532 43.5348 46.2532 43.7604 46.0276L48.1426 41.6454L52.5248 46.0276C52.7504 46.2532 53.1162 46.2532 53.3419 46.0276C53.5675 45.802 53.5675 45.4361 53.3419 45.2105L48.9597 40.8283L53.3419 36.4461C53.5675 36.2205 53.5675 35.8546 53.3419 35.629C53.1163 35.4034 52.7504 35.4034 52.5248 35.629L48.1426 40.0112L43.7604 35.629C43.5348 35.4034 43.1689 35.4034 42.9433 35.629Z" fill="#161616"/>
</svg>
