<svg width="62" height="62" viewBox="0 0 62 62" fill="none" xmlns="http://www.w3.org/2000/svg">
<path d="M5.99658 44.8179V17.7598C5.99658 17.4077 6.21095 17.0911 6.53787 16.9603L29.1992 7.89521C29.4045 7.81308 29.6336 7.81309 29.8389 7.89524L51.0398 16.3781C51.7616 16.6669 51.7614 17.6886 51.0395 17.9772L30.0623 26.3624C29.7353 26.4931 29.5208 26.8098 29.5208 27.162V53.5422C29.5208 54.1515 28.9054 54.5681 28.3398 54.3417L6.53777 45.6174C6.2109 45.4866 5.99658 45.17 5.99658 44.8179Z" fill="#EEEEEE"/>
<path fill-rule="evenodd" clip-rule="evenodd" d="M29.3114 7.24841C29.4449 7.19503 29.5937 7.19503 29.7272 7.24841L53.2498 16.6574C53.4623 16.7424 53.6016 16.9483 53.6016 17.1771L53.6016 25.018C53.6016 25.3271 53.351 25.5777 53.0418 25.5777C52.7327 25.5777 52.4821 25.3271 52.4821 25.018L52.4822 18.0039L30.079 26.9651V53.9865L35.5841 51.7845C35.8711 51.6697 36.1968 51.8093 36.3116 52.0963C36.4265 52.3833 36.2868 52.709 35.9998 52.8239L29.7272 55.3329C29.5937 55.3863 29.4449 55.3863 29.3114 55.3329L5.78886 45.9239C5.57636 45.8389 5.43701 45.6331 5.43701 45.4042V17.1771C5.43701 16.9483 5.57636 16.7424 5.78886 16.6574L18.7114 11.4884C18.7206 11.4844 18.73 11.4807 18.7394 11.4772L29.3114 7.24841ZM18.9334 12.6053L7.50383 17.1771L29.5193 25.9833L40.9489 21.4115L18.9334 12.6053ZM42.456 20.8087L20.4405 12.0025L29.5193 8.37094L51.5348 17.1771L42.456 20.8087ZM28.9596 26.9651L6.55646 18.0039V45.0253L28.9596 53.9865V26.9651ZM10.1815 38.4008C10.2964 38.1138 10.6221 37.9742 10.9091 38.089L14.8295 39.6571C15.1166 39.7719 15.2562 40.0977 15.1414 40.3847C15.0265 40.6717 14.7008 40.8113 14.4138 40.6965L10.4934 39.1283C10.2063 39.0135 10.0667 38.6878 10.1815 38.4008Z" fill="#AFAFAF"/>
<path fill-rule="evenodd" clip-rule="evenodd" d="M48.3721 29.2285C49.056 29.2285 49.6804 29.5879 49.9819 30.1551L59.3891 47.8631C59.6193 48.2959 59.5915 48.8077 59.3155 49.217C59.0395 49.6262 58.5545 49.8748 58.0326 49.8745H38.7116C38.1898 49.8748 37.7047 49.6262 37.4287 49.217C37.1527 48.8077 37.1249 48.2959 37.3551 47.8631L46.7624 30.1551C47.0639 29.5879 47.6882 29.2285 48.3721 29.2285ZM48.3719 35.8298C48.681 35.8298 48.9316 36.0804 48.9316 36.3895V42.3305C48.9316 42.6397 48.681 42.8903 48.3719 42.8903C48.0628 42.8903 47.8122 42.6397 47.8122 42.3305V36.3895C47.8122 36.0804 48.0628 35.8298 48.3719 35.8298ZM48.3721 44.6712C47.705 44.6712 47.1642 45.212 47.1642 45.8791C47.1642 46.5462 47.705 47.087 48.3721 47.087C49.0393 47.087 49.5801 46.5462 49.5801 45.8791C49.5801 45.212 49.0393 44.6712 48.3721 44.6712Z" fill="#161616"/>
</svg>
