<svg width="64" height="64" viewBox="0 0 64 64" fill="none" xmlns="http://www.w3.org/2000/svg">
<path d="M6.19043 46.1884V18.4079C6.19043 17.999 6.43937 17.6313 6.81902 17.4794L30.1002 8.16638C30.3387 8.07099 30.6047 8.07101 30.8431 8.16641L52.4287 16.8032C53.2669 17.1386 53.2667 18.3251 52.4284 18.6602L31.1023 27.1848C30.7226 27.3366 30.4735 27.7044 30.4735 28.1134V55.1052C30.4735 55.8128 29.7589 56.2965 29.102 56.0337L6.81891 47.1168C6.43932 46.9649 6.19043 46.5972 6.19043 46.1884Z" fill="#EEEEEE"/>
<path fill-rule="evenodd" clip-rule="evenodd" d="M30.2506 7.46694C30.3923 7.41027 30.5504 7.41027 30.6921 7.46694L54.9734 17.1795C55.1991 17.2697 55.347 17.4883 55.347 17.7313L55.347 25.825C55.347 26.1533 55.0809 26.4193 54.7527 26.4193C54.4245 26.4193 54.1584 26.1533 54.1584 25.825L54.1584 18.6091L31.0656 27.8462L31.0656 55.7037L36.7256 53.4397C37.0304 53.3178 37.3762 53.466 37.4981 53.7707C37.62 54.0755 37.4718 54.4213 37.1671 54.5432L30.6921 57.1332C30.5504 57.1899 30.3923 57.1899 30.2506 57.1332L5.96928 47.4207C5.74365 47.3304 5.5957 47.1119 5.5957 46.8689V17.7313C5.5957 17.4883 5.74365 17.2697 5.96928 17.1795L19.3085 11.8438C19.3181 11.8396 19.3279 11.8357 19.3378 11.8321L30.2506 7.46694ZM19.544 13.0297L7.79015 17.7313L30.4714 26.8038L42.2252 22.1022L19.544 13.0297ZM43.8253 21.4622L21.1441 12.3897L30.4714 8.65879L53.1526 17.7313L43.8253 21.4622ZM29.8771 27.8462L6.78427 18.6091V46.4665L29.8771 55.7037V27.8462ZM10.4945 39.6334C10.6164 39.3287 10.9622 39.1805 11.267 39.3024L15.3139 40.9211C15.6186 41.043 15.7668 41.3889 15.6449 41.6936C15.523 41.9983 15.1772 42.1466 14.8724 42.0247L10.8255 40.4059C10.5208 40.284 10.3726 39.9382 10.4945 39.6334Z" fill="#AFAFAF"/>
<path fill-rule="evenodd" clip-rule="evenodd" d="M39.9605 32.6464C42.1305 30.4763 45.0737 29.2572 48.1426 29.2572C51.2115 29.2572 54.1547 30.4763 56.3248 32.6464C58.4948 34.8164 59.714 37.7596 59.714 40.8285C59.714 43.8974 58.4948 46.8407 56.3248 49.0107C54.1547 51.1808 51.2115 52.3999 48.1426 52.3999C45.0737 52.3999 42.1305 51.1808 39.9605 49.0107C37.7904 46.8407 36.5713 43.8974 36.5713 40.8285C36.5713 37.7596 37.7904 34.8164 39.9605 32.6464ZM53.3108 36.859C53.6698 36.859 53.9608 37.15 53.9608 37.509C53.9608 40.0966 51.8631 42.1942 49.2756 42.1942H44.1223L46.3725 44.4444C46.6263 44.6982 46.6263 45.1098 46.3725 45.3636C46.1187 45.6175 45.7071 45.6175 45.4533 45.3636L42.1286 42.039C41.9888 41.9197 41.9002 41.7423 41.9002 41.5442L41.9002 41.5428C41.8998 41.3759 41.9633 41.209 42.0906 41.0817L45.4533 37.719C45.7071 37.4652 46.1187 37.4652 46.3725 37.719C46.6263 37.9728 46.6263 38.3844 46.3725 38.6382L44.1165 40.8942H49.2756C51.1452 40.8942 52.6608 39.3786 52.6608 37.509C52.6608 37.15 52.9518 36.859 53.3108 36.859Z" fill="#161616"/>
</svg>
