<svg width="14" height="6" viewBox="0 0 14 6" fill="none" xmlns="http://www.w3.org/2000/svg">
<path d="M7 1.25C6.05208 1.25 5.15885 1.38672 4.32031 1.66016V3.46484C4.32031 3.73828 4.21094 3.92057 3.99219 4.01172C3.40885 4.28516 2.88932 4.64062 2.43359 5.07812C2.32422 5.1875 2.1875 5.24219 2.02344 5.24219C1.85938 5.24219 1.72266 5.1875 1.61328 5.07812L0.164062 3.62891C0.0546875 3.51953 0 3.38281 0 3.21875C0 3.05469 0.0546875 2.91797 0.164062 2.80859C2.07812 0.985677 4.35677 0.0742188 7 0.0742188C9.64323 0.0742188 11.9219 0.985677 13.8359 2.80859C13.9453 2.91797 14 3.05469 14 3.21875C14 3.38281 13.9453 3.51953 13.8359 3.62891L12.3867 5.07812C12.2773 5.1875 12.1406 5.24219 11.9766 5.24219C11.8125 5.24219 11.6758 5.1875 11.5664 5.07812C11.1654 4.69531 10.6458 4.33984 10.0078 4.01172C9.78906 3.92057 9.67969 3.7474 9.67969 3.49219V1.6875C8.76823 1.39583 7.875 1.25 7 1.25Z" fill="#F8F9FA"/>
</svg>
