<svg width="16" height="16" viewBox="0 0 16 16" fill="none" xmlns="http://www.w3.org/2000/svg">
<path d="M15.1 3.76667L12.5734 1.24C12.36 1.02667 12 1.17333 12 1.47333V2.66667H9.66669C9.48003 2.66667 9.33336 2.81333 9.33336 3V5C9.33336 5.18667 9.48003 5.33333 9.66669 5.33333H12V6.52667C12 6.82667 12.36 6.97333 12.5667 6.76L15.0934 4.23333C15.2267 4.10667 15.2267 3.89333 15.1 3.76667V3.76667ZM12.82 10.1733L11.1267 9.98C10.72 9.93333 10.32 10.0733 10.0334 10.36L8.80669 11.5867C6.92003 10.6267 5.37336 9.08667 4.41336 7.19333L5.64669 5.96C5.93336 5.67333 6.07336 5.27333 6.02669 4.86667L5.83336 3.18667C5.75336 2.51333 5.18669 2.00667 4.50669 2.00667H3.35336C2.60003 2.00667 1.97336 2.63333 2.02003 3.38667C2.37336 9.08 6.92669 13.6267 12.6134 13.98C13.3667 14.0267 13.9934 13.4 13.9934 12.6467V11.4933C14 10.82 13.4934 10.2533 12.82 10.1733V10.1733Z" fill="white"/>
</svg>
