<svg width="20" height="20" viewBox="0 0 20 20" fill="none" xmlns="http://www.w3.org/2000/svg">
<circle cx="10" cy="10" r="10" fill="#152065"/>
<path d="M12.3516 11.1484C12.7526 11.5495 13.2357 11.75 13.8008 11.75C14.3659 11.75 14.8398 11.5495 15.2227 11.1484C15.6237 10.7474 15.8242 10.2643 15.8242 9.69922C15.8242 9.13411 15.6237 8.66016 15.2227 8.27734C14.8398 7.8763 14.3659 7.67578 13.8008 7.67578C13.2357 7.67578 12.7526 7.8763 12.3516 8.27734C11.9505 8.66016 11.75 9.13411 11.75 9.69922C11.75 10.2643 11.9505 10.7474 12.3516 11.1484ZM4.75 11.1484C5.15104 11.5495 5.63411 11.75 6.19922 11.75C6.76432 11.75 7.2474 11.5495 7.64844 11.1484C8.04948 10.7474 8.25 10.2643 8.25 9.69922C8.25 9.13411 8.04948 8.66016 7.64844 8.27734C7.2474 7.8763 6.76432 7.67578 6.19922 7.67578C5.63411 7.67578 5.15104 7.8763 4.75 8.27734C4.36719 8.66016 4.17578 9.13411 4.17578 9.69922C4.17578 10.2643 4.36719 10.7474 4.75 11.1484ZM11.5039 7.42969C12.1419 6.8099 12.9076 6.5 13.8008 6.5C14.694 6.5 15.4505 6.8099 16.0703 7.42969C16.6901 8.04948 17 8.80599 17 9.69922C17 10.5924 16.6901 11.3581 16.0703 11.9961C15.4505 12.6159 14.694 12.9258 13.8008 12.9258H6.19922C5.30599 12.9258 4.54948 12.6159 3.92969 11.9961C3.3099 11.3581 3 10.5924 3 9.69922C3 8.80599 3.3099 8.04948 3.92969 7.42969C4.54948 6.8099 5.30599 6.5 6.19922 6.5C7.09245 6.5 7.84896 6.8099 8.46875 7.42969C9.10677 8.04948 9.42578 8.80599 9.42578 9.69922C9.42578 10.4831 9.17969 11.1667 8.6875 11.75H11.3125C10.8203 11.1667 10.5742 10.4831 10.5742 9.69922C10.5742 8.80599 10.8841 8.04948 11.5039 7.42969Z" fill="#F8F9FA"/>
</svg>
