<svg width="20" height="20" viewBox="0 0 20 20" fill="none" xmlns="http://www.w3.org/2000/svg">
<path d="M10 0C15.5229 0 20 4.47716 20 10C20 14.9913 16.3432 19.1284 11.5625 19.8786V12.8907L13.8926 12.8907L14.336 10H11.5625V8.12418C11.5625 7.43222 11.8591 6.75555 12.7655 6.59719C12.8949 6.57456 13.0369 6.56252 13.1921 6.56252H14.4531L14.4532 4.10157C14.4532 4.10157 13.3088 3.90626 12.2147 3.90626C12.2147 3.90626 12.2147 3.90626 12.2147 3.90626C11.4348 3.90626 10.7472 4.06762 10.1797 4.3799C9.08505 4.9823 8.4375 6.14629 8.4375 7.7969V10H5.89844V12.8907H8.4375V19.8786C3.65686 19.1284 0 14.9913 0 10C0 4.47716 4.47715 0 10 0Z" fill="#1D365C"/>
</svg>
