<svg width="18" height="18" viewBox="0 0 18 18" fill="none" xmlns="http://www.w3.org/2000/svg">
<path d="M9.00082 3.05176e-05C6.55658 3.05176e-05 6.24983 0.0107201 5.28981 0.054404C4.33167 0.0982863 3.67767 0.249968 3.10542 0.472531C2.51347 0.702412 2.01133 1.00991 1.51108 1.51034C1.01045 2.0106 0.702943 2.51273 0.472313 3.10448C0.249188 3.67692 0.097308 4.33111 0.0541862 5.28886C0.0112516 6.24886 0 6.5558 0 9.00009C0 11.4444 0.0108769 11.7502 0.0543735 12.7101C0.0984321 13.6682 0.250124 14.3223 0.4725 14.8945C0.702568 15.4864 1.01008 15.9885 1.51051 16.4888C2.01058 16.9895 2.51272 17.2977 3.10429 17.5276C3.67692 17.7501 4.33111 17.9018 5.28906 17.9457C6.24908 17.9893 6.55564 18 8.99971 18C11.4442 18 11.75 17.9893 12.71 17.9457C13.6682 17.9018 14.3229 17.7501 14.8956 17.5276C15.4873 17.2977 15.9887 16.9895 16.4888 16.4888C16.9894 15.9885 17.2969 15.4864 17.5276 14.8947C17.7487 14.3223 17.9007 13.6681 17.9457 12.7104C17.9888 11.7503 18 11.4444 18 9.00009C18 6.5558 17.9888 6.24905 17.9457 5.28905C17.9007 4.33092 17.7487 3.67692 17.5276 3.10466C17.2969 2.51273 16.9894 2.0106 16.4888 1.51034C15.9882 1.00972 15.4875 0.702224 14.895 0.472531C14.3212 0.249968 13.6669 0.0982863 12.7088 0.054404C11.7487 0.0107201 11.4431 3.05176e-05 8.99806 3.05176e-05H9.00082ZM8.19348 1.62191C8.43306 1.62154 8.70052 1.62191 9.00082 1.62191C11.4039 1.62191 11.6887 1.63054 12.6377 1.67366C13.5151 1.71379 13.9914 1.86041 14.3087 1.9836C14.7287 2.14672 15.0281 2.34173 15.3429 2.65673C15.658 2.97173 15.8529 3.27173 16.0165 3.69173C16.1397 4.0086 16.2865 4.48485 16.3264 5.36235C16.3696 6.31111 16.3789 6.59611 16.3789 8.99799C16.3789 11.3998 16.3696 11.6849 16.3264 12.6337C16.2862 13.5111 16.1397 13.9874 16.0165 14.3042C15.8534 14.7243 15.658 15.0233 15.3429 15.3381C15.028 15.6532 14.7289 15.8481 14.3087 16.0112C13.9918 16.135 13.5151 16.2812 12.6377 16.3213C11.6889 16.3645 11.4039 16.3739 9.00082 16.3739C6.59764 16.3739 6.31283 16.3645 5.36406 16.3213C4.48655 16.2809 4.0103 16.1342 3.69286 16.0111C3.27286 15.8479 2.97284 15.653 2.65784 15.3379C2.34284 15.0229 2.14784 14.7237 1.98433 14.3035C1.86115 13.9866 1.71433 13.5104 1.67439 12.6329C1.63127 11.6842 1.62264 11.3992 1.62264 8.99579C1.62264 6.59236 1.63127 6.30886 1.67439 5.3601C1.71452 4.4826 1.86115 4.00635 1.98433 3.68911C2.14747 3.26911 2.34284 2.9691 2.65784 2.6541C2.97284 2.3391 3.27286 2.1441 3.69286 1.9806C4.01012 1.85685 4.48655 1.7106 5.36406 1.67029C6.19432 1.63279 6.51608 1.62154 8.19348 1.61966V1.62191ZM13.8051 3.11629C13.2088 3.11629 12.7251 3.59948 12.7251 4.19591C12.7251 4.79217 13.2088 5.27592 13.8051 5.27592C14.4014 5.27592 14.885 4.79217 14.885 4.19591C14.885 3.59967 14.4014 3.11592 13.8051 3.11592V3.11629ZM9.00082 4.37816C6.44839 4.37816 4.37893 6.44761 4.37893 9.00009C4.37893 11.5525 6.44839 13.6209 9.00082 13.6209C11.5533 13.6209 13.622 11.5525 13.622 9.00009C13.622 6.44761 11.5532 4.37816 9.00071 4.37816H9.00082ZM9.00082 6.00005C10.6576 6.00005 12.0009 7.34309 12.0009 9.00009C12.0009 10.6569 10.6576 12.0001 9.00082 12.0001C7.34394 12.0001 6.00082 10.6569 6.00082 9.00009C6.00082 7.34309 7.34394 6.00005 9.00082 6.00005Z" fill="#1D365C"/>
</svg>
