<svg width="22" height="18" viewBox="0 0 22 18" fill="none" xmlns="http://www.w3.org/2000/svg">
<path d="M7.16623 17.34C14.9422 17.34 19.1812 10.887 19.1812 5.32501C19.1812 5.13601 19.1812 4.94701 19.1812 4.78501C20.0182 4.19101 20.7202 3.43501 21.2872 2.59801C20.5312 2.92201 19.7212 3.16501 18.8572 3.27301C19.7212 2.76001 20.3962 1.92301 20.7202 0.924006C19.9102 1.41001 18.9922 1.76101 18.0472 1.95001C17.2642 1.11301 16.1842 0.600006 14.9692 0.600006C12.6202 0.600006 10.7302 2.49001 10.7302 4.83901C10.7302 5.16301 10.7572 5.48701 10.8382 5.81101C7.32823 5.62201 4.22323 3.94801 2.11723 1.38301C1.76623 2.00401 1.55023 2.73301 1.55023 3.48901C1.55023 4.94701 2.30623 6.24301 3.44023 6.99901C2.73823 6.97201 2.09023 6.78301 1.52323 6.45901C1.52323 6.48601 1.52323 6.48601 1.52323 6.51301C1.52323 8.56501 2.98123 10.266 4.92523 10.644C4.57423 10.752 4.19623 10.806 3.81823 10.806C3.54823 10.806 3.27823 10.779 3.03523 10.725C3.57523 12.399 5.14123 13.614 6.97723 13.668C5.51923 14.802 3.71023 15.477 1.73923 15.477C1.38823 15.477 1.06423 15.45 0.740234 15.423C2.57623 16.638 4.79023 17.34 7.16623 17.34Z" fill="#1D365C"/>
</svg>
