<svg xmlns="http://www.w3.org/2000/svg" width="524" height="260" fill="none"><path fill="#F58D86" d="M74.667 8h-1.334v10.667c0 .733-.6 1.333-1.333 1.333H56v1.333C56 22.8 57.2 24 58.667 24H72l5.333 5.333V10.667C77.333 9.2 76.133 8 74.667 8m-4 6.667V5.333c0-1.466-1.2-2.666-2.667-2.666H53.333a2.675 2.675 0 0 0-2.666 2.666v17.334L56 17.333h12c1.467 0 2.667-1.2 2.667-2.666"/><path fill="#0075FF" d="M130.667 5.333h-21.334A2.663 2.663 0 0 0 106.68 8l-.013 16c0 1.467 1.2 2.667 2.666 2.667h21.334c1.466 0 2.666-1.2 2.666-2.667V8c0-1.467-1.2-2.667-2.666-2.667M130.133 11l-9.426 5.893a1.35 1.35 0 0 1-1.414 0L109.867 11a1.14 1.14 0 0 1-.534-.96c0-.893.974-1.427 1.734-.96L120 14.667l8.933-5.587c.76-.467 1.734.067 1.734.96 0 .387-.2.747-.534.96"/><g clip-path="url(#a)"><path fill="url(#b)" d="M176 0c-9.012 0-16 6.604-16 15.52 0 4.664 1.912 8.696 5.024 11.48.26.232.42.56.428.912l.088 2.848a1.276 1.276 0 0 0 1.185 1.237c.21.016.419-.02.611-.105l3.176-1.4c.268-.12.572-.14.856-.064 1.46.4 3.012.616 4.632.616 9.012 0 16-6.604 16-15.52S185.012 0 176 0"/><path fill="#fff" d="m166.392 20.06 4.7-7.456a2.4 2.4 0 0 1 3.472-.64l3.74 2.804a.96.96 0 0 0 1.156-.004l5.048-3.832c.672-.512 1.552.296 1.104 1.012l-4.704 7.452a2.4 2.4 0 0 1-3.472.64l-3.74-2.804a.96.96 0 0 0-1.156.004l-5.048 3.832c-.672.512-1.552-.292-1.1-1.008"/></g><path fill="url(#c)" d="M232.005 1.333c-6.123 0-7.914.007-8.262.035-1.257.105-2.039.303-2.891.727a5.9 5.9 0 0 0-1.685 1.234q-1.393 1.449-1.699 3.568c-.099.686-.128.826-.134 4.33-.002 1.168 0 2.706 0 4.768 0 6.12.007 7.91.036 8.257.102 1.223.294 1.992.7 2.834a6.18 6.18 0 0 0 4.004 3.272c.605.156 1.273.242 2.13.282.363.016 4.065.027 7.77.027s7.409-.004 7.763-.022c.993-.047 1.569-.124 2.206-.29a6.14 6.14 0 0 0 4.005-3.278c.398-.822.6-1.62.691-2.78.02-.252.028-4.282.028-8.306 0-4.025-.009-8.048-.028-8.3-.093-1.178-.295-1.97-.706-2.808a5.8 5.8 0 0 0-1.255-1.72c-.971-.927-2.157-1.491-3.571-1.695-.686-.1-.822-.129-4.328-.135z"/><path fill="url(#d)" d="M232.005 1.333c-6.123 0-7.914.007-8.262.035-1.257.105-2.039.303-2.891.727a5.9 5.9 0 0 0-1.685 1.234q-1.393 1.449-1.699 3.568c-.099.686-.128.826-.134 4.33-.002 1.168 0 2.706 0 4.768 0 6.12.007 7.91.036 8.257.102 1.223.294 1.992.7 2.834a6.18 6.18 0 0 0 4.004 3.272c.605.156 1.273.242 2.13.282.363.016 4.065.027 7.77.027s7.409-.004 7.763-.022c.993-.047 1.569-.124 2.206-.29a6.14 6.14 0 0 0 4.005-3.278c.398-.822.6-1.62.691-2.78.02-.252.028-4.282.028-8.306 0-4.025-.009-8.048-.028-8.3-.093-1.178-.295-1.97-.706-2.808a5.8 5.8 0 0 0-1.255-1.72c-.971-.927-2.157-1.491-3.571-1.695-.686-.1-.822-.129-4.328-.135z"/><path fill="#fff" d="M232.001 5.11c-2.957 0-3.329.013-4.49.066-1.159.053-1.951.237-2.643.506a5.3 5.3 0 0 0-1.929 1.256 5.34 5.34 0 0 0-1.257 1.928c-.27.693-.454 1.485-.506 2.643-.052 1.162-.065 1.533-.065 4.49s.013 3.328.066 4.49c.053 1.159.236 1.95.505 2.642a5.35 5.35 0 0 0 1.256 1.93 5.3 5.3 0 0 0 1.929 1.256c.692.27 1.484.453 2.643.506 1.162.053 1.532.066 4.49.066 2.957 0 3.327-.013 4.489-.066 1.159-.053 1.951-.237 2.644-.506a5.3 5.3 0 0 0 1.928-1.257 5.35 5.35 0 0 0 1.256-1.929c.268-.692.452-1.484.506-2.642.052-1.162.066-1.532.066-4.49 0-2.957-.014-3.328-.066-4.49-.054-1.159-.238-1.95-.506-2.642a5.35 5.35 0 0 0-1.256-1.93 5.3 5.3 0 0 0-1.929-1.255c-.694-.27-1.486-.453-2.645-.506-1.161-.053-1.531-.066-4.489-.066zm-.977 1.963h.977c2.907 0 3.252.01 4.4.062 1.062.049 1.638.226 2.022.375.508.198.87.434 1.251.815s.617.744.815 1.252c.149.383.327.96.375 2.021.052 1.148.064 1.493.064 4.399s-.012 3.251-.064 4.399c-.048 1.061-.226 1.638-.375 2.021-.197.508-.434.87-.815 1.251a3.4 3.4 0 0 1-1.251.814c-.383.15-.96.327-2.022.376-1.148.052-1.493.063-4.4.063s-3.252-.011-4.4-.063c-1.062-.05-1.638-.227-2.022-.376a3.4 3.4 0 0 1-1.253-.814 3.4 3.4 0 0 1-.814-1.252c-.149-.383-.327-.96-.375-2.021-.053-1.148-.063-1.493-.063-4.4 0-2.909.01-3.252.063-4.4.048-1.061.226-1.637.375-2.021.197-.508.433-.871.814-1.252a3.4 3.4 0 0 1 1.253-.815c.384-.15.96-.327 2.022-.376 1.004-.045 1.394-.059 3.423-.061zm6.79 1.808a1.306 1.306 0 1 0-.001 2.613 1.306 1.306 0 0 0 .001-2.614m-5.813 1.527a5.592 5.592 0 1 0 0 11.184 5.592 5.592 0 0 0 0-11.184m0 1.962a3.63 3.63 0 1 1 0 7.26 3.63 3.63 0 0 1 0-7.26"/><path fill="#25D366" fill-rule="evenodd" d="M299.208 4.65A15.76 15.76 0 0 0 287.99 0c-8.743 0-15.853 7.113-15.857 15.856a15.83 15.83 0 0 0 2.117 7.927L272 32l8.406-2.205a15.85 15.85 0 0 0 7.577 1.93h.007c8.739 0 15.853-7.114 15.856-15.857a15.76 15.76 0 0 0-4.638-11.218M287.99 29.047h-.007c-2.361 0-4.678-.634-6.709-1.837l-.481-.286-4.988 1.309 1.332-4.867-.314-.498a13.15 13.15 0 0 1-2.013-7.009c0-7.266 5.916-13.179 13.186-13.179a13.184 13.184 0 0 1 13.174 13.187c-.003 7.268-5.915 13.18-13.18 13.18m7.23-9.87c-.396-.2-2.344-1.158-2.708-1.293-.363-.136-.627-.198-.891.198s-1.023 1.293-1.255 1.553c-.231.261-.462.299-.858.1s-1.673-.616-3.186-1.967c-1.178-1.05-1.974-2.348-2.205-2.745-.232-.396-.025-.608.174-.808.178-.178.396-.463.594-.694s.264-.397.396-.66c.131-.265.066-.497-.033-.695s-.891-2.149-1.222-2.942c-.322-.773-.648-.668-.891-.68a16 16 0 0 0-.76-.015 1.46 1.46 0 0 0-1.057.497c-.363.396-1.386 1.355-1.386 3.305s1.419 3.834 1.617 4.099 2.794 4.266 6.767 5.982q1.108.478 2.259.837c.949.304 1.813.258 2.495.156.761-.113 2.345-.958 2.675-1.883s.33-1.72.228-1.885-.357-.262-.753-.46" clip-rule="evenodd"/><g filter="url(#e)"><rect width="328" height="92" x="12" y="48" fill="#fff" rx="10"/><path fill="#222" d="M29.004 79V68.818h6.523v1.546h-4.678v2.765h4.23v1.546h-4.23V79zm7.984 0v-7.636h1.8V79zm.905-8.72a1.05 1.05 0 0 1-.736-.284.91.91 0 0 1-.308-.69q0-.408.308-.692a1.04 1.04 0 0 1 .736-.288q.432 0 .736.288.308.285.308.691a.91.91 0 0 1-.308.691 1.04 1.04 0 0 1-.736.284M40.498 79v-7.636h1.745v1.272h.08q.209-.66.716-1.019a1.97 1.97 0 0 1 1.168-.363q.15 0 .333.015.189.01.313.035v1.656a2 2 0 0 0-.363-.07 3 3 0 0 0-.472-.035 1.8 1.8 0 0 0-.885.214q-.387.21-.611.582t-.224.86V79zm11.447-5.618-1.641.18a1.3 1.3 0 0 0-.244-.468 1.2 1.2 0 0 0-.457-.353 1.7 1.7 0 0 0-.706-.135q-.562 0-.945.244-.378.244-.372.632a.66.66 0 0 0 .243.541q.254.21.835.344l1.303.278q1.084.234 1.61.74.532.508.538 1.328-.006.72-.423 1.273-.413.547-1.148.855-.736.308-1.69.308-1.403 0-2.258-.587-.855-.59-1.02-1.645l1.756-.17q.12.519.507.781.388.264 1.01.264.64 0 1.028-.264.393-.263.393-.65 0-.33-.253-.543-.25-.213-.776-.328l-1.303-.273q-1.098-.23-1.625-.77-.528-.547-.522-1.383-.006-.705.383-1.223.392-.522 1.088-.805.702-.29 1.616-.289 1.343 0 2.113.572.776.572.96 1.546m5.32-2.018v1.392h-4.39v-1.392zm-3.305-1.83h1.8v7.17q0 .362.109.556a.6.6 0 0 0 .298.258q.184.07.408.07.168 0 .308-.025.144-.024.219-.044l.303 1.406q-.144.05-.413.11-.262.06-.646.07a2.9 2.9 0 0 1-1.218-.204 1.9 1.9 0 0 1-.86-.706q-.314-.478-.308-1.194zM61.964 79v-7.636h1.745v1.272h.08q.207-.66.715-1.019a1.97 1.97 0 0 1 1.168-.363q.149 0 .334.015.189.01.313.035v1.656a2 2 0 0 0-.363-.07 3 3 0 0 0-.472-.035 1.8 1.8 0 0 0-.885.214q-.388.21-.612.582t-.224.86V79zm8.791.15q-1.148 0-1.984-.478a3.23 3.23 0 0 1-1.277-1.362q-.448-.885-.448-2.083 0-1.178.448-2.069a3.4 3.4 0 0 1 1.263-1.392q.81-.501 1.904-.502.705 0 1.332.229.63.224 1.114.696.487.472.765 1.203.279.725.279 1.73v.552h-6.26v-1.213h4.534a1.94 1.94 0 0 0-.223-.92 1.63 1.63 0 0 0-.612-.641 1.7 1.7 0 0 0-.904-.234q-.552 0-.97.269a1.85 1.85 0 0 0-.651.696q-.229.427-.234.94v1.058q0 .666.244 1.144.244.472.68.726.439.248 1.025.248.393 0 .71-.11.32-.113.553-.332t.353-.542l1.68.189a2.6 2.6 0 0 1-.606 1.163 2.96 2.96 0 0 1-1.134.766q-.691.268-1.58.268m10.814-5.768-1.64.18a1.3 1.3 0 0 0-.245-.468 1.2 1.2 0 0 0-.457-.353 1.7 1.7 0 0 0-.706-.135q-.562 0-.944.244-.378.244-.373.632a.66.66 0 0 0 .243.541q.255.21.835.344l1.303.278q1.085.234 1.61.74.534.508.538 1.328-.005.72-.423 1.273-.413.547-1.148.855-.736.308-1.69.308-1.403 0-2.258-.587-.855-.59-1.019-1.645l1.755-.17q.12.519.507.781.388.264 1.01.264.64 0 1.029-.264.392-.263.392-.65 0-.33-.253-.543-.248-.213-.776-.328l-1.302-.273q-1.1-.23-1.626-.77-.526-.547-.522-1.383-.005-.705.383-1.223.392-.522 1.088-.805.702-.29 1.616-.289 1.343 0 2.113.572.776.572.96 1.546m1.508 8.482v-10.5h1.77v1.262h.104q.14-.277.393-.591.254-.318.686-.542.432-.23 1.104-.229.885 0 1.596.453.716.447 1.133 1.327.423.875.423 2.148 0 1.256-.413 2.138-.413.88-1.124 1.342a2.9 2.9 0 0 1-1.61.462q-.656 0-1.09-.219a2.2 2.2 0 0 1-.695-.527 3.4 3.4 0 0 1-.403-.591h-.075v4.067zm1.765-6.682q0 .74.209 1.297.213.558.611.87.402.309.974.309.597 0 1-.319.402-.322.606-.88.21-.561.21-1.277a3.6 3.6 0 0 0-.205-1.263 1.9 1.9 0 0 0-.606-.865q-.403-.313-1.005-.313-.576 0-.979.303-.402.304-.611.85-.204.547-.204 1.288m10.176 3.967q-1.118 0-1.94-.492a3.34 3.34 0 0 1-1.272-1.377q-.447-.886-.447-2.068 0-1.184.447-2.074a3.34 3.34 0 0 1 1.273-1.382q.82-.492 1.939-.492 1.118 0 1.939.492.82.494 1.268 1.382.452.89.452 2.074t-.453 2.068a3.3 3.3 0 0 1-1.267 1.377q-.82.492-1.94.492m.01-1.442q.606 0 1.014-.333.408-.338.606-.904a3.7 3.7 0 0 0 .204-1.263q0-.702-.204-1.268a2 2 0 0 0-.606-.91q-.408-.338-1.014-.338-.623 0-1.034.338a2.04 2.04 0 0 0-.612.91q-.198.566-.199 1.268 0 .696.2 1.263.203.566.61.904.413.333 1.035.333m6.836-3.181V79h-1.8v-7.636h1.721v1.297h.089q.264-.64.84-1.019.582-.378 1.437-.378.79 0 1.377.338.592.338.915.98.328.64.323 1.556V79h-1.8v-4.584q0-.766-.397-1.198-.393-.433-1.089-.433-.472 0-.84.21a1.45 1.45 0 0 0-.572.59q-.204.39-.204.94m12.627-1.144-1.64.18a1.3 1.3 0 0 0-.244-.468 1.2 1.2 0 0 0-.457-.353 1.7 1.7 0 0 0-.706-.135q-.563 0-.945.244-.378.244-.373.632a.66.66 0 0 0 .244.541q.253.21.835.344l1.302.278q1.085.234 1.611.74.532.508.537 1.328-.005.72-.422 1.273-.412.547-1.149.855-.735.308-1.69.308-1.402 0-2.257-.587-.855-.59-1.019-1.645l1.755-.17q.119.519.507.781.387.264 1.009.264.64 0 1.029-.264.393-.263.393-.65 0-.33-.254-.543-.249-.213-.775-.328l-1.303-.273q-1.098-.23-1.626-.77-.527-.547-.522-1.383-.004-.705.383-1.223.393-.522 1.089-.805.7-.29 1.616-.289 1.342 0 2.113.572.776.572.959 1.546m4.889 5.767q-1.149 0-1.984-.477a3.23 3.23 0 0 1-1.277-1.362q-.448-.885-.448-2.083 0-1.178.448-2.069a3.4 3.4 0 0 1 1.262-1.392q.811-.501 1.904-.502.706 0 1.333.229.632.224 1.113.696.488.472.766 1.203.279.725.279 1.73v.552h-6.26v-1.213h4.534a1.94 1.94 0 0 0-.223-.92 1.63 1.63 0 0 0-.612-.641 1.7 1.7 0 0 0-.905-.234q-.552 0-.969.269a1.84 1.84 0 0 0-.651.696 2 2 0 0 0-.234.94v1.058q0 .666.244 1.144.243.472.681.726.437.248 1.024.248.393 0 .711-.11.318-.113.552-.332.233-.22.353-.542l1.68.189a2.6 2.6 0 0 1-.607 1.163 2.95 2.95 0 0 1-1.133.766q-.692.268-1.581.268m11.924-7.785v1.392h-4.39v-1.392zm-3.306-1.83h1.8v7.17q0 .362.109.556a.6.6 0 0 0 .298.258q.184.07.408.07.169 0 .308-.025.144-.024.219-.044l.303 1.406a4 4 0 0 1-.412.11q-.264.06-.647.07a2.9 2.9 0 0 1-1.218-.204 1.9 1.9 0 0 1-.86-.706q-.313-.478-.308-1.194zM132.669 79v-7.636h1.8V79zm.905-8.72a1.05 1.05 0 0 1-.736-.284.92.92 0 0 1-.308-.69q0-.408.308-.692.309-.288.736-.288.433 0 .736.288.308.285.308.691a.92.92 0 0 1-.308.691 1.04 1.04 0 0 1-.736.284m2.605 8.72v-7.636h1.721v1.297h.089q.239-.656.791-1.024.552-.373 1.317-.373.775 0 1.308.378.537.373.755 1.02h.08q.254-.637.855-1.015.606-.383 1.437-.383 1.054 0 1.72.666t.666 1.944V79h-1.805v-4.847q0-.71-.377-1.04a1.35 1.35 0 0 0-.925-.332q-.651 0-1.019.407-.363.403-.363 1.05V79h-1.765v-4.922q0-.592-.358-.945-.353-.352-.925-.352-.388 0-.706.198-.318.195-.507.552-.189.353-.189.825V79zm15.806.15q-1.149 0-1.984-.478a3.23 3.23 0 0 1-1.278-1.362q-.447-.885-.447-2.083 0-1.178.447-2.069a3.4 3.4 0 0 1 1.263-1.392q.81-.501 1.904-.502.706 0 1.333.229.63.224 1.113.696.487.472.766 1.203.278.725.278 1.73v.552h-6.259v-1.213h4.534a1.9 1.9 0 0 0-.224-.92 1.6 1.6 0 0 0-.611-.641 1.7 1.7 0 0 0-.905-.234q-.552 0-.969.269a1.85 1.85 0 0 0-.652.696q-.228.427-.233.94v1.058q0 .666.243 1.144.245.472.681.726.438.248 1.024.248.393 0 .711-.11.319-.113.552-.332t.353-.542l1.681.189a2.6 2.6 0 0 1-.607 1.163 2.96 2.96 0 0 1-1.133.766q-.692.268-1.581.268"/><path fill="#AFAFAF" d="M167.333 70.667h1.334V72h-1.334zm0 2.666h1.334v4h-1.334zm.667-6A6.67 6.67 0 0 0 161.333 74 6.67 6.67 0 0 0 168 80.667 6.67 6.67 0 0 0 174.667 74 6.67 6.67 0 0 0 168 67.333m0 12A5.34 5.34 0 0 1 162.667 74 5.34 5.34 0 0 1 168 68.667 5.34 5.34 0 0 1 173.333 74 5.34 5.34 0 0 1 168 79.333"/><rect width="180" height="31" x="28.5" y="92.5" fill="#fff" rx="3.5"/><rect width="180" height="31" x="28.5" y="92.5" stroke="#DDD" rx="3.5"/><path fill="#222" d="M37.332 105.94q0-.944.413-1.68a3.07 3.07 0 0 1 1.139-1.158q.725-.423 1.65-.423.935 0 1.66.437.726.434 1.14 1.194.411.755.402 1.73a4.2 4.2 0 0 1-.144.989q-.134.513-.453 1.139a14 14 0 0 1-.875 1.451L39.977 113h-1.352l2.685-3.918q-.18.06-.373.1a2 2 0 0 1-.383.04 3.2 3.2 0 0 1-1.656-.428 3.13 3.13 0 0 1-1.148-1.168q-.417-.741-.418-1.686m1.174 0q0 .647.258 1.139.259.492.716.77.457.279 1.054.279.598 0 1.054-.274.458-.277.716-.765.258-.492.258-1.129a2.44 2.44 0 0 0-.258-1.143 1.96 1.96 0 0 0-.716-.781 1.96 1.96 0 0 0-1.054-.283q-.597 0-1.054.283a1.93 1.93 0 0 0-.716.776 2.4 2.4 0 0 0-.258 1.128m10.953 7.199q-1.125 0-1.915-.611-.79-.617-1.208-1.785-.417-1.173-.417-2.834 0-1.65.417-2.819.423-1.173 1.214-1.79.795-.621 1.909-.621t1.904.621q.795.617 1.213 1.79.422 1.169.422 2.819 0 1.66-.417 2.834-.418 1.168-1.208 1.785-.79.61-1.914.611m0-1.094q1.113 0 1.73-1.073.615-1.074.616-3.063 0-1.323-.283-2.252-.279-.93-.806-1.417a1.78 1.78 0 0 0-1.258-.487q-1.103 0-1.725 1.089-.621 1.084-.621 3.067 0 1.323.278 2.247.28.925.8 1.407a1.8 1.8 0 0 0 1.269.482"/><rect width="106" height="31" x="217.5" y="92.5" fill="#EEE" rx="3.5"/><rect width="106" height="31" x="217.5" y="92.5" stroke="#DDD" rx="3.5"/><path fill="#222" d="M236.051 105.493a1.45 1.45 0 0 0-.656-1.094q-.577-.393-1.452-.393-.627 0-1.084.199-.458.194-.711.537a1.27 1.27 0 0 0-.248.771q0 .363.169.626.174.263.452.443.283.174.606.293.324.114.622.189l.994.258q.487.12 1 .324.511.203.949.537.438.333.706.825.273.492.274 1.178 0 .865-.448 1.536-.442.672-1.288 1.059-.84.388-2.033.388-1.143 0-1.979-.363-.834-.363-1.307-1.029-.472-.671-.522-1.591h1.541q.045.552.358.92.318.362.81.542.498.174 1.089.174.651 0 1.158-.204.512-.209.806-.577.293-.372.293-.87 0-.451-.258-.741a1.9 1.9 0 0 0-.691-.477 7 7 0 0 0-.98-.333l-1.203-.328q-1.223-.333-1.939-.98-.711-.645-.711-1.71 0-.879.478-1.536a3.14 3.14 0 0 1 1.292-1.019q.816-.368 1.84-.368 1.034 0 1.824.363.796.363 1.253.999.457.632.477 1.452zm6.628 7.661q-1.128 0-1.944-.482a3.3 3.3 0 0 1-1.253-1.367q-.437-.885-.437-2.073 0-1.174.437-2.069a3.4 3.4 0 0 1 1.233-1.397q.796-.502 1.86-.502.646 0 1.253.214t1.088.671q.482.457.761 1.188.278.727.278 1.765v.527h-6.07v-1.113h4.614q0-.587-.239-1.039a1.8 1.8 0 0 0-.671-.721 1.87 1.87 0 0 0-1.004-.264q-.627 0-1.094.308a2.1 2.1 0 0 0-.716.796 2.3 2.3 0 0 0-.249 1.059v.87q0 .765.269 1.302.273.537.761.821.487.278 1.138.278.423 0 .771-.119a1.589 1.589 0 0 0 .989-.97l1.407.254a2.55 2.55 0 0 1-.607 1.089 2.95 2.95 0 0 1-1.088.721q-.652.253-1.487.253m8.142 0q-1.108 0-1.909-.502a3.33 3.33 0 0 1-1.223-1.397q-.427-.89-.427-2.038 0-1.163.437-2.054a3.36 3.36 0 0 1 1.233-1.397q.795-.502 1.874-.502.87 0 1.552.323.681.319 1.098.895.423.577.502 1.348h-1.446a1.74 1.74 0 0 0-.547-.925q-.423-.388-1.134-.388-.621 0-1.088.328-.463.324-.721.925-.26.596-.259 1.412 0 .835.254 1.442.253.606.716.939a1.84 1.84 0 0 0 1.098.333q.423 0 .766-.154a1.6 1.6 0 0 0 .582-.452q.239-.294.333-.706h1.446a2.8 2.8 0 0 1-.482 1.322 2.77 2.77 0 0 1-1.079.915q-.67.333-1.576.333m7.944 0q-1.074 0-1.875-.492a3.3 3.3 0 0 1-1.242-1.377q-.443-.886-.443-2.068 0-1.189.443-2.079a3.3 3.3 0 0 1 1.242-1.382q.801-.492 1.875-.492t1.874.492 1.243 1.382.442 2.079q0 1.182-.442 2.068a3.3 3.3 0 0 1-1.243 1.377q-.8.492-1.874.492m.005-1.248q.696 0 1.153-.368.457-.367.676-.979a3.9 3.9 0 0 0 .224-1.347q0-.731-.224-1.343a2.2 2.2 0 0 0-.676-.989q-.457-.373-1.153-.373-.701 0-1.164.373a2.2 2.2 0 0 0-.681.989 4 4 0 0 0-.219 1.343q0 .735.219 1.347.224.612.681.979.463.368 1.164.368m6.7-3.44V113h-1.486v-7.636h1.427v1.243h.094q.264-.608.825-.975.567-.368 1.427-.368.78 0 1.367.328.587.323.91.965.323.64.323 1.586V113h-1.486v-4.678q0-.83-.433-1.298-.432-.472-1.188-.472-.517 0-.92.224a1.6 1.6 0 0 0-.631.656q-.23.428-.229 1.034m9.74 4.683a2.96 2.96 0 0 1-1.651-.472q-.72-.478-1.134-1.357-.407-.885-.407-2.123t.412-2.118q.418-.88 1.144-1.347a2.97 2.97 0 0 1 1.645-.468q.711 0 1.144.239.438.234.676.547.243.313.378.552h.089v-3.784h1.487V113h-1.452v-1.188h-.124a4 4 0 0 1-.388.557 2.15 2.15 0 0 1-.686.546q-.437.234-1.133.234m.328-1.268q.64 0 1.083-.338.448-.342.677-.949.233-.607.233-1.412 0-.796-.228-1.392-.23-.597-.672-.93t-1.093-.333q-.672 0-1.119.348a2.13 2.13 0 0 0-.676.95 3.9 3.9 0 0 0-.224 1.357q0 .765.229 1.377.228.612.676.969.453.354 1.114.353m11.299-4.653-1.347.239a1.6 1.6 0 0 0-.269-.493 1.3 1.3 0 0 0-.487-.382q-.309-.15-.771-.15-.631 0-1.054.284-.422.278-.422.721 0 .382.283.616.284.234.915.383l1.213.278q1.054.244 1.571.751t.517 1.318q0 .686-.398 1.223-.393.531-1.098.835-.702.303-1.626.303-1.283 0-2.093-.547-.81-.552-.995-1.566l1.437-.219q.135.562.552.851.418.283 1.089.283.731 0 1.168-.303.438-.309.438-.751a.78.78 0 0 0-.269-.602q-.263-.243-.81-.367l-1.293-.284q-1.068-.244-1.581-.775-.507-.532-.507-1.348 0-.676.378-1.183t1.044-.79q.666-.29 1.526-.289 1.239 0 1.949.537.71.532.94 1.427M299.258 107.758l2.159 2.159a.83.83 0 0 0 1.175 0l2.158-2.159c.525-.525.15-1.425-.592-1.425h-4.316c-.742 0-1.109.9-.584 1.425"/></g><g filter="url(#f)"><rect width="328" height="92" x="176" y="148" fill="#fff" rx="10"/><path fill="#222" d="M201.371 168.818V179h-1.64l-4.798-6.935h-.084V179h-1.845v-10.182h1.651l4.792 6.941h.09v-6.941zm5.171 10.331q-1.147 0-1.983-.477a3.23 3.23 0 0 1-1.278-1.362q-.447-.885-.447-2.083 0-1.178.447-2.069a3.4 3.4 0 0 1 1.263-1.392q.81-.502 1.904-.502.707 0 1.332.229.631.224 1.114.696.487.472.766 1.203.278.726.278 1.73v.552h-6.259v-1.213h4.534a1.94 1.94 0 0 0-.224-.92 1.63 1.63 0 0 0-.611-.641 1.7 1.7 0 0 0-.905-.234q-.552 0-.97.269a1.84 1.84 0 0 0-.651.696q-.228.428-.234.939v1.059q0 .666.244 1.144.243.472.681.726.438.248 1.024.248.393 0 .711-.109.318-.114.552-.333.233-.22.353-.542l1.68.189a2.6 2.6 0 0 1-.606 1.163 3 3 0 0 1-1.134.766q-.69.268-1.581.268m6.25-7.785 1.541 2.819 1.566-2.819h1.904l-2.301 3.818 2.341 3.818h-1.894l-1.616-2.749-1.601 2.749h-1.909l2.327-3.818-2.267-3.818zm10.077 0v1.392h-4.39v-1.392zm-3.306-1.83h1.799v7.169q0 .363.11.557a.6.6 0 0 0 .298.258q.184.07.408.07.168 0 .308-.025.144-.024.219-.045l.303 1.407q-.144.05-.413.11-.263.06-.646.069a2.9 2.9 0 0 1-1.218-.203 1.9 1.9 0 0 1-.86-.706q-.314-.478-.308-1.194zm8.004 9.466v-7.636h1.745v1.272h.079q.209-.66.716-1.019a1.97 1.97 0 0 1 1.168-.363q.15 0 .333.015.19.01.314.035v1.656a2 2 0 0 0-.363-.07 3.4 3.4 0 0 0-.473-.035q-.492 0-.885.214a1.56 1.56 0 0 0-.611.582 1.64 1.64 0 0 0-.224.86V179zm8.791.149q-1.149 0-1.984-.477a3.24 3.24 0 0 1-1.277-1.362q-.448-.885-.448-2.083 0-1.178.448-2.069a3.4 3.4 0 0 1 1.262-1.392q.81-.502 1.905-.502.705 0 1.332.229.631.224 1.114.696.487.472.765 1.203.279.726.279 1.73v.552h-6.26v-1.213h4.534a1.93 1.93 0 0 0-.223-.92 1.63 1.63 0 0 0-.612-.641 1.7 1.7 0 0 0-.905-.234q-.552 0-.969.269a1.84 1.84 0 0 0-.651.696 2 2 0 0 0-.234.939v1.059q0 .666.244 1.144.243.472.681.726.437.248 1.024.248.393 0 .711-.109.318-.114.552-.333.233-.22.353-.542l1.68.189a2.6 2.6 0 0 1-.607 1.163 2.96 2.96 0 0 1-1.133.766q-.691.268-1.581.268m10.814-5.767-1.641.179a1.3 1.3 0 0 0-.244-.467 1.2 1.2 0 0 0-.457-.353 1.7 1.7 0 0 0-.706-.134q-.561 0-.945.243-.377.244-.372.632a.66.66 0 0 0 .243.541q.254.21.835.343l1.303.279q1.084.234 1.611.741.531.507.537 1.327a2.08 2.08 0 0 1-.423 1.273q-.413.546-1.148.855-.736.308-1.691.308-1.401 0-2.257-.587-.855-.59-1.019-1.645l1.755-.169q.12.517.507.78.388.264 1.009.264.642 0 1.029-.264.393-.262.393-.651a.68.68 0 0 0-.253-.542q-.25-.213-.776-.328l-1.302-.273q-1.1-.23-1.626-.771-.526-.547-.522-1.382-.005-.706.383-1.223.392-.522 1.088-.805.701-.29 1.616-.289 1.342 0 2.113.572.775.571.96 1.546m1.508 8.482v-10.5h1.77v1.262h.104q.14-.278.393-.591.253-.318.686-.542.432-.23 1.104-.229.884 0 1.595.453.717.447 1.134 1.327.423.875.423 2.148 0 1.257-.413 2.138-.413.88-1.124 1.342a2.9 2.9 0 0 1-1.61.462q-.657 0-1.089-.219a2.2 2.2 0 0 1-.696-.527 3.4 3.4 0 0 1-.403-.591h-.075v4.067zm1.765-6.682q0 .74.208 1.297.214.558.612.87.402.309.974.309.597 0 1-.319a1.96 1.96 0 0 0 .606-.879 3.7 3.7 0 0 0 .209-1.278 3.6 3.6 0 0 0-.204-1.263 1.9 1.9 0 0 0-.606-.865q-.404-.313-1.005-.313-.577 0-.979.303-.402.304-.612.85-.203.547-.203 1.288m10.176 3.967q-1.119 0-1.939-.492a3.34 3.34 0 0 1-1.273-1.377q-.447-.886-.447-2.068 0-1.183.447-2.074a3.34 3.34 0 0 1 1.273-1.382q.82-.492 1.939-.492 1.118 0 1.939.492.82.493 1.267 1.382.453.89.453 2.074t-.453 2.068a3.3 3.3 0 0 1-1.267 1.377q-.821.492-1.939.492m.01-1.442q.606 0 1.014-.333.408-.338.606-.905a3.7 3.7 0 0 0 .204-1.262q0-.701-.204-1.268a2 2 0 0 0-.606-.91q-.408-.338-1.014-.338-.622 0-1.034.338a2.04 2.04 0 0 0-.612.91 3.8 3.8 0 0 0-.199 1.268q0 .696.199 1.262.204.567.612.905.412.333 1.034.333m6.836-3.181V179h-1.8v-7.636h1.72v1.297h.09a2.2 2.2 0 0 1 .84-1.019q.582-.378 1.437-.378.79 0 1.377.338.591.339.915.98.328.64.323 1.556V179h-1.8v-4.584q0-.765-.397-1.198-.393-.432-1.089-.432-.473 0-.84.208a1.45 1.45 0 0 0-.572.592q-.204.387-.204.94m12.627-1.144-1.641.179a1.3 1.3 0 0 0-.243-.467 1.2 1.2 0 0 0-.458-.353 1.66 1.66 0 0 0-.706-.134q-.561 0-.944.243-.378.244-.373.632a.66.66 0 0 0 .244.541q.253.21.835.343l1.302.279q1.084.234 1.611.741.533.507.537 1.327a2.08 2.08 0 0 1-.422 1.273q-.413.546-1.149.855t-1.69.308q-1.402 0-2.257-.587-.855-.59-1.02-1.645l1.755-.169q.12.517.508.78.387.264 1.009.264.64 0 1.029-.264.393-.262.393-.651a.68.68 0 0 0-.254-.542q-.249-.213-.775-.328l-1.303-.273q-1.099-.23-1.626-.771-.526-.547-.522-1.382a1.96 1.96 0 0 1 .383-1.223q.393-.522 1.089-.805.7-.29 1.616-.289 1.342 0 2.113.572.775.571.959 1.546m4.889 5.767q-1.149 0-1.984-.477a3.25 3.25 0 0 1-1.278-1.362q-.447-.885-.447-2.083 0-1.178.447-2.069a3.4 3.4 0 0 1 1.263-1.392q.81-.502 1.904-.502.706 0 1.333.229a3 3 0 0 1 1.113.696q.487.472.766 1.203.279.726.278 1.73v.552h-6.259v-1.213h4.534a1.94 1.94 0 0 0-.223-.92 1.63 1.63 0 0 0-.612-.641 1.7 1.7 0 0 0-.905-.234q-.552 0-.969.269a1.84 1.84 0 0 0-.652.696q-.228.428-.233.939v1.059q0 .666.243 1.144.244.472.682.726.437.248 1.024.248.392 0 .711-.109.318-.114.551-.333t.353-.542l1.681.189a2.6 2.6 0 0 1-.607 1.163 3 3 0 0 1-1.133.766q-.692.268-1.581.268m11.924-7.785v1.392h-4.39v-1.392zm-3.306-1.83h1.799v7.169q0 .363.11.557a.6.6 0 0 0 .298.258q.184.07.408.07.168 0 .308-.025.144-.024.219-.045l.303 1.407q-.144.05-.413.11-.263.06-.646.069a2.9 2.9 0 0 1-1.218-.203 1.9 1.9 0 0 1-.86-.706q-.314-.478-.308-1.194zm4.671 9.466v-7.636h1.8V179zm.905-8.72q-.427 0-.736-.284a.91.91 0 0 1-.308-.691q0-.407.308-.691.309-.288.736-.288.432 0 .736.288.308.284.308.691a.91.91 0 0 1-.308.691 1.04 1.04 0 0 1-.736.284m2.605 8.72v-7.636h1.721v1.297h.089q.239-.656.791-1.024.551-.373 1.317-.373.775 0 1.308.378.536.373.755 1.019h.08q.253-.636.855-1.014.606-.383 1.437-.383 1.053 0 1.72.666.666.667.666 1.944V179h-1.805v-4.847q0-.712-.378-1.039a1.35 1.35 0 0 0-.924-.333q-.651 0-1.019.407-.363.403-.363 1.049V179h-1.765v-4.922q0-.591-.358-.944-.354-.353-.925-.353a1.3 1.3 0 0 0-.706.198q-.318.195-.507.552a1.7 1.7 0 0 0-.189.826V179zm15.806.149q-1.149 0-1.984-.477a3.23 3.23 0 0 1-1.278-1.362q-.447-.885-.447-2.083 0-1.178.447-2.069a3.4 3.4 0 0 1 1.263-1.392q.81-.502 1.904-.502.707 0 1.332.229.632.224 1.114.696.487.472.766 1.203.278.726.278 1.73v.552h-6.259v-1.213h4.534a1.93 1.93 0 0 0-.224-.92 1.6 1.6 0 0 0-.611-.641 1.7 1.7 0 0 0-.905-.234q-.552 0-.97.269a1.84 1.84 0 0 0-.651.696q-.228.428-.233.939v1.059q0 .666.243 1.144.245.472.681.726.438.248 1.024.248.393 0 .711-.109.318-.114.552-.333t.353-.542l1.681.189a2.6 2.6 0 0 1-.607 1.163 3 3 0 0 1-1.134.766q-.69.268-1.58.268"/><path fill="#AFAFAF" d="M333.333 170.667h1.334V172h-1.334zm0 2.666h1.334v4h-1.334zm.667-6a6.67 6.67 0 0 0-6.667 6.667 6.67 6.67 0 0 0 6.667 6.667 6.67 6.67 0 0 0 6.667-6.667 6.67 6.67 0 0 0-6.667-6.667m0 12a5.34 5.34 0 0 1-5.333-5.333 5.34 5.34 0 0 1 5.333-5.333 5.34 5.34 0 0 1 5.333 5.333 5.34 5.34 0 0 1-5.333 5.333"/><rect width="180" height="31" x="192.5" y="192.5" fill="#fff" rx="3.5"/><rect width="180" height="31" x="192.5" y="192.5" stroke="#DDD" rx="3.5"/><path fill="#222" d="M201.332 209.778a4.2 4.2 0 0 1 .145-.989q.134-.512.452-1.138.318-.627.875-1.452l2.287-3.381h1.352l-2.684 3.918q.178-.06.367-.1.195-.039.388-.039.925 0 1.651.427.73.428 1.148 1.168.423.741.423 1.686t-.418 1.68a3.03 3.03 0 0 1-1.138 1.159q-.721.422-1.646.422-.935 0-1.66-.432a3.1 3.1 0 0 1-1.139-1.194q-.412-.76-.403-1.735m1.174.08q0 .647.258 1.143.259.498.716.781t1.054.283 1.054-.278q.458-.284.716-.776.258-.497.258-1.133 0-.647-.258-1.139a1.93 1.93 0 0 0-.716-.77 2 2 0 0 0-1.054-.279q-.597 0-1.054.279a1.9 1.9 0 0 0-.716.765q-.258.488-.258 1.124m10.953 3.281q-1.125 0-1.915-.611-.79-.617-1.208-1.785-.417-1.173-.417-2.834 0-1.65.417-2.819.423-1.173 1.213-1.79.796-.621 1.91-.621t1.904.621q.795.617 1.213 1.79.422 1.169.422 2.819 0 1.66-.417 2.834-.418 1.168-1.208 1.785-.79.61-1.914.611m0-1.094q1.113 0 1.73-1.073.616-1.074.616-3.063 0-1.323-.283-2.252-.279-.93-.806-1.417a1.78 1.78 0 0 0-1.257-.487q-1.104 0-1.726 1.089-.621 1.084-.621 3.067 0 1.323.278 2.247.279.925.801 1.407a1.8 1.8 0 0 0 1.268.482"/><rect width="106" height="31" x="381.5" y="192.5" fill="#EEE" rx="3.5"/><rect width="106" height="31" x="381.5" y="192.5" stroke="#DDD" rx="3.5"/><path fill="#222" d="M400.051 205.493a1.45 1.45 0 0 0-.656-1.094q-.577-.393-1.452-.393-.627 0-1.084.199-.457.194-.711.537a1.27 1.27 0 0 0-.248.771q0 .363.169.626.174.263.452.443.284.174.606.293.324.114.622.189l.994.258q.487.12 1 .324.511.202.949.537.438.333.706.825.274.492.274 1.178 0 .865-.448 1.536-.442.672-1.288 1.059-.84.388-2.033.388-1.143 0-1.979-.363-.834-.363-1.307-1.029-.473-.671-.522-1.591h1.541q.045.552.358.92.318.362.81.542.498.174 1.089.174.651 0 1.158-.204.512-.209.806-.577.293-.372.293-.87 0-.452-.258-.741a1.9 1.9 0 0 0-.691-.477 7 7 0 0 0-.98-.333l-1.203-.328q-1.223-.333-1.939-.98-.711-.645-.711-1.71 0-.879.478-1.536a3.14 3.14 0 0 1 1.292-1.019q.816-.368 1.84-.368 1.034 0 1.824.363.796.363 1.253.999.457.631.477 1.452zm6.628 7.661q-1.128 0-1.944-.482a3.3 3.3 0 0 1-1.253-1.367q-.437-.885-.437-2.073 0-1.174.437-2.069a3.4 3.4 0 0 1 1.233-1.397q.796-.502 1.86-.502.646 0 1.253.214t1.088.671q.483.458.761 1.188.279.727.278 1.765v.527h-6.07v-1.113h4.614q0-.587-.239-1.039a1.8 1.8 0 0 0-.671-.721 1.87 1.87 0 0 0-1.004-.264q-.627 0-1.094.308a2.1 2.1 0 0 0-.716.796 2.3 2.3 0 0 0-.249 1.059v.87q0 .765.269 1.302.273.537.761.821.486.278 1.138.278.423 0 .771-.119a1.589 1.589 0 0 0 .989-.97l1.407.254a2.55 2.55 0 0 1-.607 1.089 2.95 2.95 0 0 1-1.088.721q-.652.253-1.487.253m8.142 0q-1.108 0-1.909-.502a3.33 3.33 0 0 1-1.223-1.397q-.427-.89-.427-2.038 0-1.164.437-2.054a3.36 3.36 0 0 1 1.233-1.397q.795-.502 1.874-.502.87 0 1.552.323.681.319 1.098.895.423.577.502 1.348h-1.446a1.74 1.74 0 0 0-.547-.925q-.423-.388-1.134-.388-.621 0-1.088.328-.463.324-.721.925-.26.596-.259 1.412 0 .835.254 1.442.253.606.716.939a1.84 1.84 0 0 0 1.098.333q.423 0 .766-.154a1.6 1.6 0 0 0 .582-.452q.238-.294.333-.706h1.446a2.8 2.8 0 0 1-.482 1.322 2.77 2.77 0 0 1-1.079.915q-.67.333-1.576.333m7.944 0q-1.074 0-1.875-.492a3.3 3.3 0 0 1-1.242-1.377q-.443-.885-.443-2.068 0-1.189.443-2.079a3.3 3.3 0 0 1 1.242-1.382q.801-.492 1.875-.492t1.874.492q.8.493 1.243 1.382.442.89.442 2.079 0 1.183-.442 2.068a3.3 3.3 0 0 1-1.243 1.377q-.8.492-1.874.492m.005-1.248q.696 0 1.153-.368.457-.367.676-.979a3.9 3.9 0 0 0 .224-1.347q0-.732-.224-1.343a2.2 2.2 0 0 0-.676-.989q-.457-.373-1.153-.373-.701 0-1.164.373a2.2 2.2 0 0 0-.681.989 4 4 0 0 0-.219 1.343q0 .735.219 1.347.224.612.681.979.463.369 1.164.368m6.7-3.44V213h-1.486v-7.636h1.427v1.243h.094q.264-.607.825-.975.567-.368 1.427-.368.78 0 1.367.328.587.324.91.965.323.64.323 1.586V213h-1.486v-4.678q0-.83-.433-1.298-.432-.472-1.188-.472-.517 0-.92.224a1.6 1.6 0 0 0-.631.656q-.23.428-.229 1.034m9.74 4.683a2.96 2.96 0 0 1-1.651-.472q-.72-.477-1.134-1.357-.407-.885-.407-2.123t.412-2.118q.418-.88 1.144-1.347a2.97 2.97 0 0 1 1.645-.468q.711 0 1.144.239.438.234.676.547.243.313.378.552h.089v-3.784h1.487V213h-1.452v-1.188h-.124a4 4 0 0 1-.388.557 2.15 2.15 0 0 1-.686.546q-.437.234-1.133.234m.328-1.268q.64 0 1.083-.338.448-.343.677-.949.233-.607.233-1.412 0-.796-.228-1.392-.23-.597-.672-.93t-1.093-.333q-.672 0-1.119.348a2.13 2.13 0 0 0-.676.95 3.9 3.9 0 0 0-.224 1.357q0 .765.229 1.377.228.612.676.969.453.353 1.114.353m11.299-4.653-1.347.239a1.6 1.6 0 0 0-.269-.493 1.3 1.3 0 0 0-.487-.382q-.309-.15-.771-.15-.631 0-1.054.284-.422.278-.422.721 0 .382.283.616.284.234.915.383l1.213.278q1.054.244 1.571.751t.517 1.318q0 .686-.398 1.223-.393.532-1.098.835-.702.303-1.626.303-1.283 0-2.093-.547-.81-.552-.995-1.566l1.437-.219q.135.562.552.851.418.283 1.089.283.731 0 1.168-.303.438-.309.438-.751a.78.78 0 0 0-.269-.602q-.263-.243-.81-.367l-1.293-.284q-1.068-.244-1.581-.775-.507-.532-.507-1.348 0-.675.378-1.183.378-.507 1.044-.79.666-.29 1.526-.289 1.239 0 1.949.537.71.532.94 1.427M463.258 207.758l2.159 2.159a.83.83 0 0 0 1.175 0l2.158-2.159c.525-.525.15-1.425-.592-1.425h-4.316c-.742 0-1.109.9-.584 1.425"/></g><defs><radialGradient id="b" cx="0" cy="0" r="1" gradientTransform="translate(165.36 32)scale(35.2)" gradientUnits="userSpaceOnUse"><stop stop-color="#09F"/><stop offset=".6" stop-color="#A033FF"/><stop offset=".9" stop-color="#FF5280"/><stop offset="1" stop-color="#FF7061"/></radialGradient><radialGradient id="c" cx="0" cy="0" r="1" gradientTransform="matrix(0 -29.0723 27.0395 0 225.125 32.927)" gradientUnits="userSpaceOnUse"><stop stop-color="#FD5"/><stop offset=".1" stop-color="#FD5"/><stop offset=".5" stop-color="#FF543E"/><stop offset="1" stop-color="#C837AB"/></radialGradient><radialGradient id="d" cx="0" cy="0" r="1" gradientTransform="rotate(78.681 104.108 131.3)scale(12.9954 53.5676)" gradientUnits="userSpaceOnUse"><stop stop-color="#3771C8"/><stop offset=".128" stop-color="#3771C8"/><stop offset="1" stop-color="#60F" stop-opacity="0"/></radialGradient><filter id="e" width="360" height="124" x="0" y="36" color-interpolation-filters="sRGB" filterUnits="userSpaceOnUse"><feFlood flood-opacity="0" result="BackgroundImageFix"/><feColorMatrix in="SourceAlpha" result="hardAlpha" values="0 0 0 0 0 0 0 0 0 0 0 0 0 0 0 0 0 0 127 0"/><feOffset dx="4" dy="4"/><feGaussianBlur stdDeviation="8"/><feColorMatrix values="0 0 0 0 0.0862745 0 0 0 0 0.0862745 0 0 0 0 0.0862745 0 0 0 0.1 0"/><feBlend in2="BackgroundImageFix" result="effect1_dropShadow_318_12101"/><feBlend in="SourceGraphic" in2="effect1_dropShadow_318_12101" result="shape"/></filter><filter id="f" width="360" height="124" x="164" y="136" color-interpolation-filters="sRGB" filterUnits="userSpaceOnUse"><feFlood flood-opacity="0" result="BackgroundImageFix"/><feColorMatrix in="SourceAlpha" result="hardAlpha" values="0 0 0 0 0 0 0 0 0 0 0 0 0 0 0 0 0 0 127 0"/><feOffset dx="4" dy="4"/><feGaussianBlur stdDeviation="8"/><feColorMatrix values="0 0 0 0 0.0862745 0 0 0 0 0.0862745 0 0 0 0 0.0862745 0 0 0 0.1 0"/><feBlend in2="BackgroundImageFix" result="effect1_dropShadow_318_12101"/><feBlend in="SourceGraphic" in2="effect1_dropShadow_318_12101" result="shape"/></filter><clipPath id="a"><path fill="#fff" d="M160 0h32v32h-32z"/></clipPath></defs></svg>