<svg width="12" height="12" viewBox="0 0 12 12" fill="none" xmlns="http://www.w3.org/2000/svg">
<path d="M10.6758 7.96875C10.8398 7.96875 10.9766 8.02344 11.0859 8.13281C11.1953 8.24219 11.25 8.37891 11.25 8.54297V10.5664C11.25 11.0221 11.0586 11.25 10.6758 11.25C7.95964 11.25 5.6263 10.2747 3.67578 8.32422C1.72526 6.3737 0.75 4.04036 0.75 1.32422C0.75 0.941406 0.977865 0.75 1.43359 0.75H3.45703C3.62109 0.75 3.75781 0.804688 3.86719 0.914062C3.97656 1.02344 4.03125 1.16016 4.03125 1.32422C4.03125 2.03516 4.14062 2.71875 4.35938 3.375C4.43229 3.61198 4.38672 3.8125 4.22266 3.97656L3.10156 4.96094C3.9401 6.71094 5.27995 8.03255 7.12109 8.92578L8.02344 7.77734C8.13281 7.66797 8.26953 7.61328 8.43359 7.61328C8.52474 7.61328 8.58854 7.6224 8.625 7.64062C9.28125 7.85938 9.96484 7.96875 10.6758 7.96875Z" fill="#F8F9FA"/>
</svg>
