<svg xmlns="http://www.w3.org/2000/svg" width="24" height="25" viewBox="0 0 24 25" fill="none">
  <mask id="mask0_2268_1730" style="mask-type:alpha" maskUnits="userSpaceOnUse" x="0" y="0" width="24" height="25">
    <rect x="24" y="0.0867615" width="24" height="24" transform="rotate(90 24 0.0867615)" fill="#D9D9D9"/>
  </mask>
  <g mask="url(#mask0_2268_1730)">
    <path d="M12.0001 13.1368L16.1001 9.03678C16.2835 8.85345 16.496 8.76178 16.7376 8.76178C16.9793 8.76178 17.1918 8.85345 17.3751 9.03678C17.5585 9.22011 17.6501 9.43261 17.6501 9.67428C17.6501 9.91595 17.5556 10.1313 17.3666 10.3203L12.6251 15.0618C12.5351 15.1451 12.4376 15.2076 12.3326 15.2493C12.2276 15.2909 12.1151 15.3118 11.9951 15.3118C11.8751 15.3118 11.7626 15.2909 11.6576 15.2493C11.5526 15.2076 11.4585 15.1451 11.3751 15.0618L6.63365 10.3203C6.44465 10.1313 6.35431 9.92011 6.36265 9.68678C6.37098 9.45345 6.46681 9.24511 6.65015 9.06178C6.83348 8.87845 7.04598 8.78678 7.28765 8.78678C7.52931 8.78678 7.74181 8.87845 7.92515 9.06178L12.0001 13.1368Z" fill="#C334DD"/>
  </g>
</svg>