<svg width="121" height="120" viewBox="0 0 121 120" fill="none" xmlns="http://www.w3.org/2000/svg">
<path d="M41.6963 21.0602C42.4336 21.7904 43.2104 22.4776 44.0744 23.0522C48.4816 25.9835 61.5944 33.0368 82.3917 30.1542C108.377 26.5525 104.565 52.6794 100.826 59.6426C97.0865 66.6059 83.3349 79.3706 82.1799 85.7662C81.0249 92.1618 85.9674 109.63 74.3869 104.388C62.8064 99.1465 56.1165 86.8694 40.9162 88.2963C25.7159 89.7232 14.975 82.9875 21.7036 70.9533C28.4322 58.919 36.4768 51.1532 26.2088 37.7485C16.226 24.7166 33.0411 12.4883 41.6963 21.0602Z" fill="#FCEDFF"/>
<path d="M68.0637 34.5616C67.871 34.3675 67.7608 34.1065 67.756 33.8331C67.7513 33.5597 67.8524 33.295 68.0382 33.0944L74.8947 25.694C74.9918 25.5892 75.1091 25.5051 75.2396 25.4468C75.37 25.3885 75.5109 25.3571 75.6538 25.3547C75.7967 25.3522 75.9386 25.3786 76.071 25.4324C76.2034 25.4861 76.3235 25.5661 76.4242 25.6675L77.0161 26.2636C77.1168 26.365 77.1959 26.4857 77.2488 26.6185C77.3016 26.7512 77.327 26.8933 77.3236 27.0362C77.3201 27.179 77.2878 27.3197 77.2285 27.4498C77.1693 27.5798 77.0843 27.6965 76.9788 27.7929L69.5307 34.5973C69.3288 34.7817 69.0634 34.881 68.79 34.8744C68.5166 34.8677 68.2564 34.7556 68.0637 34.5616Z" fill="#C334DD"/>
<path d="M63.7239 32.0388C63.56 31.9662 63.4305 31.833 63.3625 31.6671C63.2945 31.5012 63.2932 31.3154 63.359 31.1486L65.7855 24.9947C65.8198 24.9075 65.8715 24.8282 65.9373 24.7615C66.0031 24.6948 66.0817 24.6421 66.1684 24.6066C66.2551 24.5711 66.3481 24.5534 66.4418 24.5548C66.5355 24.5561 66.6279 24.5763 66.7136 24.6143L67.2171 24.8375C67.3028 24.8755 67.3799 24.9304 67.4438 24.9989C67.5077 25.0674 67.5571 25.1482 67.589 25.2363C67.6209 25.3244 67.6346 25.418 67.6294 25.5116C67.6242 25.6051 67.6001 25.6966 67.5586 25.7806L64.6288 31.7113C64.5494 31.8721 64.4108 31.996 64.2422 32.057C64.0736 32.1181 63.8878 32.1115 63.7239 32.0388Z" fill="#C334DD"/>
<path d="M59.308 33.0444C58.7488 33.1451 58.1878 32.6653 58.036 31.9567L55.3449 19.3757C55.1844 18.6238 55.5443 17.9087 56.1376 17.8018L56.9642 17.653C57.5574 17.5462 58.1446 18.091 58.256 18.8515L60.1207 31.5813C60.2257 32.2985 59.8672 32.9437 59.308 33.0444Z" fill="#C334DD"/>
<path d="M102.806 44.8842L90.937 43.3542C90.7372 43.3329 90.5356 43.373 90.3591 43.4691C90.1826 43.5653 90.0397 43.713 89.9493 43.8926L86.7933 50.1241L73.5824 76.5457C73.442 76.8248 73.2067 77.0447 72.9188 77.1661C72.6309 77.2874 72.3092 77.3022 72.0114 77.2077L36.1527 65.7618C36.0538 65.7303 35.9488 65.7226 35.8464 65.7396C35.7439 65.7565 35.647 65.7975 35.5635 65.8592C35.48 65.9209 35.4123 66.0015 35.3661 66.0945C35.3199 66.1875 35.2963 66.2901 35.2975 66.3939L35.3139 67.883C35.3159 68.09 35.3832 68.2911 35.5062 68.4577C35.6292 68.6242 35.8016 68.7477 35.9988 68.8106L73.9383 80.9203C74.3612 81.0553 74.741 81.2997 75.039 81.6287C75.3371 81.9578 75.5429 82.3597 75.6356 82.7939L75.6482 82.8532C75.9782 84.6659 74.1919 86.1541 72.4314 85.6197L30.8295 72.3237C30.6161 72.2559 30.4323 72.1172 30.3085 71.9306C30.1847 71.744 30.1283 71.5207 30.1486 71.2977L33.4044 35.7437C33.4208 35.5604 33.4755 35.3825 33.5651 35.2217C33.6546 35.061 33.777 34.9208 33.9243 34.8104C34.0715 34.6999 34.2403 34.6217 34.4197 34.5808C34.5992 34.5398 34.7852 34.537 34.9658 34.5727L84.804 44.3222L88.014 37.9428C88.1067 37.7625 88.2525 37.615 88.4317 37.5202C88.6109 37.4253 88.8148 37.3878 89.016 37.4125L103.55 39.2737C103.679 39.2899 103.803 39.3315 103.916 39.3961C104.029 39.4608 104.128 39.5471 104.207 39.6501C104.286 39.7532 104.344 39.8709 104.377 39.9965C104.411 40.1221 104.419 40.253 104.401 40.3818L103.906 44.0375C103.871 44.2952 103.736 44.5289 103.53 44.6876C103.324 44.8462 103.064 44.9169 102.806 44.8842Z" fill="#EA97F9"/>
<path d="M35.4141 59.6744L39.4751 60.9706L43.3706 41.2171L37.1361 40.2598L35.4141 59.6744Z" fill="#FCEDFF"/>
<path d="M67.2773 69.8454L71.3384 71.1416L81.8407 49.022L77.3676 47.9385L67.2773 69.8454Z" fill="#FCEDFF"/>
<path d="M51.6582 64.86L55.4069 66.0565L63.4366 45.213L57.3019 43.9434L51.6582 64.86Z" fill="#FCEDFF"/>
<path d="M46.9066 42.002L53.0413 43.2716L47.5971 63.5635L43.5361 62.2673L46.9066 42.002Z" fill="#FCEDFF"/>
<path d="M73.5194 47.0539L67.3847 45.7842L59.7803 67.4518L63.529 68.6484L73.5194 47.0539Z" fill="#FCEDFF"/>
<path d="M36.1981 85.1599C38.8241 85.1599 40.9529 83.0311 40.9529 80.4051C40.9529 77.7792 38.8241 75.6504 36.1981 75.6504C33.5721 75.6504 31.4434 77.7792 31.4434 80.4051C31.4434 83.0311 33.5721 85.1599 36.1981 85.1599Z" fill="#E477FF"/>
<path d="M65.8749 94.6326C68.5009 94.6326 70.6296 92.5038 70.6296 89.8778C70.6296 87.2518 68.5009 85.123 65.8749 85.123C63.2489 85.123 61.1201 87.2518 61.1201 89.8778C61.1201 92.5038 63.2489 94.6326 65.8749 94.6326Z" fill="#E477FF"/>
<path d="M104.941 39.0771L92.4148 37.5089C92.3454 37.5002 92.282 37.5495 92.2733 37.6189L91.5141 43.6834C91.5054 43.7528 91.5546 43.8162 91.6241 43.8249L104.15 45.3931C104.22 45.4018 104.283 45.3525 104.292 45.2831L105.051 39.2186C105.06 39.1491 105.01 39.0858 104.941 39.0771Z" fill="#E477FF"/>
</svg>
