<svg
    xmlns="http://www.w3.org/2000/svg"
    width="24"
    height="25"
    viewBox="0 0 24 25"
    fill="none"
>
    <rect
        y="0.0867615"
        width="24"
        height="24"
        rx="12"
        fill="url(#paint0_linear_2268_1725)"
        fill-opacity="0.2"
    />
    <g filter="url(#filter0_d_2268_1725)">
        <rect
            x="2"
            y="2.08676"
            width="20"
            height="20"
            rx="10"
            fill="url(#paint1_linear_2268_1725)"
        />
    </g>
    <path
        d="M10.3148 14.6785L15.8519 9.04405C15.9865 8.90586 16.1436 8.83676 16.3231 8.83676C16.5028 8.83676 16.6605 8.90586 16.7963 9.04405C16.9321 9.18224 17 9.34292 17 9.52608C17 9.70925 16.9345 9.86748 16.8035 10.0008L10.7963 16.1295C10.6616 16.2677 10.5045 16.3368 10.325 16.3368C10.1454 16.3368 9.98765 16.2677 9.85185 16.1295L7.2037 13.4348C7.0679 13.2966 7 13.1364 7 12.9542C7 12.7721 7.0679 12.6119 7.2037 12.4737C7.33951 12.3355 7.49796 12.2664 7.67907 12.2664C7.86006 12.2664 8.01642 12.3355 8.14815 12.4737L10.3148 14.6785Z"
        fill="url(#paint2_linear_2268_1725)"
    />
    <defs>
        <filter
            id="filter0_d_2268_1725"
            x="0"
            y="0.920095"
            width="24"
            height="24"
            filterUnits="userSpaceOnUse"
            color-interpolation-filters="sRGB"
        >
            <feFlood flood-opacity="0" result="BackgroundImageFix" />
            <feColorMatrix
                in="SourceAlpha"
                type="matrix"
                values="0 0 0 0 0 0 0 0 0 0 0 0 0 0 0 0 0 0 127 0"
                result="hardAlpha"
            />
            <feOffset dy="0.833333" />
            <feGaussianBlur stdDeviation="1" />
            <feComposite in2="hardAlpha" operator="out" />
            <feColorMatrix
                type="matrix"
                values="0 0 0 0 0 0 0 0 0 0 0 0 0 0 0 0 0 0 0.32 0"
            />
            <feBlend
                mode="normal"
                in2="BackgroundImageFix"
                result="effect1_dropShadow_2268_1725"
            />
            <feBlend
                mode="normal"
                in="SourceGraphic"
                in2="effect1_dropShadow_2268_1725"
                result="shape"
            />
        </filter>
        <linearGradient
            id="paint0_linear_2268_1725"
            x1="-35.5"
            y1="-146.913"
            x2="19"
            y2="16.0868"
            gradientUnits="userSpaceOnUse"
        >
            <stop stop-color="#C537DF" />
            <stop offset="1" stop-color="#E789FC" />
        </linearGradient>
        <linearGradient
            id="paint1_linear_2268_1725"
            x1="12"
            y1="2.08676"
            x2="12"
            y2="29.5868"
            gradientUnits="userSpaceOnUse"
        >
            <stop stop-color="#E790FB" />
            <stop offset="1" stop-color="#C63BE0" />
        </linearGradient>
        <linearGradient
            id="paint2_linear_2268_1725"
            x1="7"
            y1="9.08676"
            x2="7"
            y2="27.5868"
            gradientUnits="userSpaceOnUse"
        >
            <stop stop-color="white" />
            <stop offset="1" stop-color="white" stop-opacity="0" />
        </linearGradient>
    </defs>
</svg>
