<svg width="24" height="24" viewBox="0 0 24 24" fill="none" xmlns="http://www.w3.org/2000/svg">
<circle cx="12" cy="12" r="12" fill="#87E8C9"/>
<path d="M10.3245 14.2207H7.99456C7.73567 14.2207 7.54459 14.1066 7.42131 13.8786C7.29803 13.6505 7.30419 13.4255 7.4398 13.2036L12.4511 5.38152C12.5497 5.20893 12.6915 5.09489 12.8764 5.03942C13.0614 4.98394 13.2463 4.98702 13.4312 5.04866C13.6161 5.1103 13.761 5.22434 13.8658 5.39076C13.9705 5.55719 14.0106 5.73903 13.986 5.93628L13.4312 10.6702H16.057C16.3406 10.6702 16.5409 10.7935 16.658 11.0401C16.7752 11.2866 16.7474 11.5208 16.5748 11.7427L11.1012 18.6772C10.9779 18.8252 10.8269 18.9238 10.6482 18.9731C10.4694 19.0224 10.2937 19.0039 10.1211 18.9176C9.94854 18.8313 9.81602 18.705 9.72356 18.5385C9.6311 18.3721 9.60336 18.1964 9.64034 18.0115L10.3245 14.2207Z" fill="#1A9970"/>
</svg>
