<svg width="24" height="25" viewBox="0 0 24 25" fill="none" xmlns="http://www.w3.org/2000/svg">
<circle cx="12" cy="12.1494" r="12" fill="#DDDDDD"/>
<path d="M10.3246 14.3701H7.99465C7.73576 14.3701 7.54468 14.2561 7.4214 14.028C7.29812 13.7999 7.30428 13.5749 7.43989 13.353L12.4512 5.53093C12.5498 5.35834 12.6916 5.24431 12.8765 5.18883C13.0614 5.13336 13.2464 5.13644 13.4313 5.19808C13.6162 5.25972 13.7611 5.37375 13.8658 5.54018C13.9706 5.70661 14.0107 5.88844 13.986 6.08569L13.4313 10.8196H16.0571C16.3407 10.8196 16.541 10.9429 16.6581 11.1895C16.7752 11.436 16.7475 11.6703 16.5749 11.8922L11.1013 18.8266C10.978 18.9746 10.827 19.0732 10.6482 19.1225C10.4695 19.1718 10.2938 19.1533 10.1212 19.067C9.94863 18.9807 9.81611 18.8544 9.72365 18.688C9.63119 18.5215 9.60345 18.3459 9.64043 18.1609L10.3246 14.3701Z" fill="#6A6A6A"/>
</svg>
