<svg width="152" height="148" viewBox="0 0 152 148" fill="none" xmlns="http://www.w3.org/2000/svg">
<rect x="0.333496" width="151.667" height="148" rx="8" fill="#F9F9F9"/>
<path d="M19.4388 32.1108H18.1093C18.0582 31.8267 17.963 31.5767 17.8238 31.3608C17.6846 31.1449 17.5141 30.9616 17.3124 30.8111C17.1107 30.6605 16.8849 30.5469 16.6349 30.4702C16.3877 30.3935 16.1249 30.3551 15.8465 30.3551C15.3437 30.3551 14.8934 30.4815 14.4957 30.7344C14.1008 30.9872 13.7883 31.358 13.5581 31.8466C13.3309 32.3352 13.2172 32.9318 13.2172 33.6364C13.2172 34.3466 13.3309 34.946 13.5581 35.4347C13.7883 35.9233 14.1022 36.2926 14.4999 36.5426C14.8976 36.7926 15.3451 36.9176 15.8422 36.9176C16.1178 36.9176 16.3792 36.8807 16.6263 36.8068C16.8763 36.7301 17.1022 36.6179 17.3039 36.4702C17.5056 36.3224 17.676 36.142 17.8153 35.929C17.9573 35.7131 18.0553 35.4659 18.1093 35.1875L19.4388 35.1918C19.3678 35.6207 19.23 36.0156 19.0255 36.3764C18.8238 36.7344 18.5638 37.044 18.2457 37.3054C17.9303 37.5639 17.5695 37.7642 17.1633 37.9062C16.757 38.0483 16.3138 38.1193 15.8337 38.1193C15.078 38.1193 14.4047 37.9403 13.8138 37.5824C13.2229 37.2216 12.757 36.706 12.4161 36.0355C12.078 35.3651 11.909 34.5653 11.909 33.6364C11.909 32.7045 12.0795 31.9048 12.4204 31.2372C12.7613 30.5668 13.2272 30.0526 13.8181 29.6946C14.409 29.3338 15.0809 29.1534 15.8337 29.1534C16.2968 29.1534 16.7286 29.2202 17.1292 29.3537C17.5326 29.4844 17.8948 29.6776 18.2158 29.9332C18.5368 30.1861 18.8025 30.4957 19.0127 30.8622C19.2229 31.2259 19.365 31.642 19.4388 32.1108ZM23.6693 38.1321C23.0557 38.1321 22.5202 37.9915 22.0628 37.7102C21.6054 37.429 21.2503 37.0355 20.9974 36.5298C20.7446 36.0241 20.6182 35.4332 20.6182 34.7571C20.6182 34.0781 20.7446 33.4844 20.9974 32.9759C21.2503 32.4673 21.6054 32.0724 22.0628 31.7912C22.5202 31.5099 23.0557 31.3693 23.6693 31.3693C24.2829 31.3693 24.8184 31.5099 25.2758 31.7912C25.7332 32.0724 26.0883 32.4673 26.3412 32.9759C26.594 33.4844 26.7204 34.0781 26.7204 34.7571C26.7204 35.4332 26.594 36.0241 26.3412 36.5298C26.0883 37.0355 25.7332 37.429 25.2758 37.7102C24.8184 37.9915 24.2829 38.1321 23.6693 38.1321ZM23.6736 37.0625C24.0713 37.0625 24.4008 36.9574 24.6622 36.7472C24.9236 36.5369 25.1167 36.2571 25.2417 35.9077C25.3696 35.5582 25.4335 35.1733 25.4335 34.7528C25.4335 34.3352 25.3696 33.9517 25.2417 33.6023C25.1167 33.25 24.9236 32.9673 24.6622 32.7543C24.4008 32.5412 24.0713 32.4347 23.6736 32.4347C23.273 32.4347 22.9406 32.5412 22.6764 32.7543C22.415 32.9673 22.2204 33.25 22.0926 33.6023C21.9676 33.9517 21.9051 34.3352 21.9051 34.7528C21.9051 35.1733 21.9676 35.5582 22.0926 35.9077C22.2204 36.2571 22.415 36.5369 22.6764 36.7472C22.9406 36.9574 23.273 37.0625 23.6736 37.0625ZM29.4168 34.1136V38H28.1427V31.4545H29.3657V32.5199H29.4466C29.5972 32.1733 29.833 31.8949 30.154 31.6847C30.4779 31.4744 30.8856 31.3693 31.377 31.3693C31.8231 31.3693 32.2137 31.4631 32.5489 31.6506C32.8841 31.8352 33.1441 32.1108 33.3287 32.4773C33.5134 32.8437 33.6057 33.2969 33.6057 33.8366V38H32.3316V33.9901C32.3316 33.5156 32.208 33.1449 31.9608 32.8778C31.7137 32.608 31.3742 32.473 30.9424 32.473C30.6469 32.473 30.3841 32.5369 30.154 32.6648C29.9268 32.7926 29.7464 32.9801 29.6128 33.2273C29.4822 33.4716 29.4168 33.767 29.4168 34.1136ZM40.6796 31.4545L38.306 38H36.9424L34.5645 31.4545H35.9324L37.5901 36.4915H37.6583L39.3117 31.4545H40.6796ZM44.4754 38.1321C43.8305 38.1321 43.2751 37.9943 42.8092 37.7188C42.3461 37.4403 41.9882 37.0497 41.7354 36.5469C41.4854 36.0412 41.3604 35.4489 41.3604 34.7699C41.3604 34.0994 41.4854 33.5085 41.7354 32.9972C41.9882 32.4858 42.3405 32.0866 42.7922 31.7997C43.2467 31.5128 43.778 31.3693 44.3859 31.3693C44.7552 31.3693 45.1132 31.4304 45.4598 31.5526C45.8064 31.6747 46.1175 31.8665 46.393 32.1278C46.6686 32.3892 46.8859 32.7287 47.045 33.1463C47.2041 33.5611 47.2836 34.0653 47.2836 34.6591V35.1108H42.0805V34.1562H46.0351C46.0351 33.821 45.9669 33.5241 45.8305 33.2656C45.6942 33.0043 45.5024 32.7983 45.2552 32.6477C45.0109 32.4972 44.724 32.4219 44.3944 32.4219C44.0365 32.4219 43.724 32.5099 43.4569 32.6861C43.1927 32.8594 42.9882 33.0866 42.8433 33.3679C42.7013 33.6463 42.6302 33.9489 42.6302 34.2756V35.0213C42.6302 35.4588 42.7069 35.831 42.8604 36.1378C43.0166 36.4446 43.2339 36.679 43.5123 36.8409C43.7907 37 44.116 37.0795 44.4882 37.0795C44.7297 37.0795 44.9498 37.0455 45.1487 36.9773C45.3476 36.9062 45.5194 36.8011 45.6643 36.6619C45.8092 36.5227 45.92 36.3509 45.9967 36.1463L47.2027 36.3636C47.1061 36.7187 46.9328 37.0298 46.6828 37.2969C46.4356 37.5611 46.1246 37.767 45.7496 37.9148C45.3774 38.0597 44.9527 38.1321 44.4754 38.1321ZM48.6974 38V31.4545H49.9289V32.4943H49.9971C50.1164 32.142 50.3266 31.8651 50.6278 31.6634C50.9317 31.4588 51.2755 31.3565 51.659 31.3565C51.7385 31.3565 51.8323 31.3594 51.9403 31.3651C52.051 31.3707 52.1377 31.3778 52.2002 31.3864V32.6051C52.1491 32.5909 52.0582 32.5753 51.9275 32.5582C51.7968 32.5384 51.6661 32.5284 51.5354 32.5284C51.2343 32.5284 50.9658 32.5923 50.73 32.7202C50.4971 32.8452 50.3124 33.0199 50.176 33.2443C50.0397 33.4659 49.9715 33.7187 49.9715 34.0028V38H48.6974ZM58.2077 33.0526L57.0528 33.2571C57.0045 33.1094 56.9278 32.9687 56.8227 32.8352C56.7204 32.7017 56.5812 32.5923 56.4051 32.5071C56.229 32.4219 56.0088 32.3793 55.7446 32.3793C55.3838 32.3793 55.0827 32.4602 54.8412 32.6222C54.5997 32.7812 54.479 32.9872 54.479 33.2401C54.479 33.4588 54.5599 33.6349 54.7219 33.7685C54.8838 33.902 55.1452 34.0114 55.5059 34.0966L56.5457 34.3352C57.148 34.4744 57.5969 34.6889 57.8923 34.9787C58.1878 35.2685 58.3355 35.6449 58.3355 36.108C58.3355 36.5 58.2219 36.8494 57.9946 37.1562C57.7702 37.4602 57.4562 37.6989 57.0528 37.8722C56.6523 38.0455 56.1878 38.1321 55.6594 38.1321C54.9264 38.1321 54.3284 37.9759 53.8653 37.6634C53.4023 37.348 53.1182 36.9006 53.0131 36.321L54.2446 36.1335C54.3213 36.4545 54.479 36.6974 54.7176 36.8622C54.9562 37.0241 55.2673 37.1051 55.6508 37.1051C56.0684 37.1051 56.4023 37.0185 56.6523 36.8452C56.9023 36.669 57.0273 36.4545 57.0273 36.2017C57.0273 35.9972 56.9506 35.8253 56.7971 35.6861C56.6466 35.5469 56.415 35.4418 56.1025 35.3707L54.9946 35.1278C54.3838 34.9886 53.9321 34.767 53.6395 34.4631C53.3497 34.1591 53.2048 33.7741 53.2048 33.3082C53.2048 32.9219 53.3128 32.5838 53.5287 32.294C53.7446 32.0043 54.0429 31.7784 54.4236 31.6165C54.8042 31.4517 55.2403 31.3693 55.7318 31.3693C56.4392 31.3693 56.996 31.5227 57.4023 31.8295C57.8085 32.1335 58.077 32.5412 58.2077 33.0526ZM59.7364 38V31.4545H61.0106V38H59.7364ZM60.3799 30.4446C60.1583 30.4446 59.968 30.3707 59.8089 30.223C59.6526 30.0724 59.5745 29.8935 59.5745 29.6861C59.5745 29.4759 59.6526 29.2969 59.8089 29.1491C59.968 28.9986 60.1583 28.9233 60.3799 28.9233C60.6015 28.9233 60.7904 28.9986 60.9466 29.1491C61.1057 29.2969 61.1853 29.4759 61.1853 29.6861C61.1853 29.8935 61.1057 30.0724 60.9466 30.223C60.7904 30.3707 60.6015 30.4446 60.3799 30.4446ZM65.4818 38.1321C64.8682 38.1321 64.3327 37.9915 63.8753 37.7102C63.4179 37.429 63.0628 37.0355 62.8099 36.5298C62.5571 36.0241 62.4307 35.4332 62.4307 34.7571C62.4307 34.0781 62.5571 33.4844 62.8099 32.9759C63.0628 32.4673 63.4179 32.0724 63.8753 31.7912C64.3327 31.5099 64.8682 31.3693 65.4818 31.3693C66.0954 31.3693 66.6309 31.5099 67.0883 31.7912C67.5457 32.0724 67.9008 32.4673 68.1537 32.9759C68.4065 33.4844 68.5329 34.0781 68.5329 34.7571C68.5329 35.4332 68.4065 36.0241 68.1537 36.5298C67.9008 37.0355 67.5457 37.429 67.0883 37.7102C66.6309 37.9915 66.0954 38.1321 65.4818 38.1321ZM65.4861 37.0625C65.8838 37.0625 66.2133 36.9574 66.4747 36.7472C66.7361 36.5369 66.9292 36.2571 67.0542 35.9077C67.1821 35.5582 67.246 35.1733 67.246 34.7528C67.246 34.3352 67.1821 33.9517 67.0542 33.6023C66.9292 33.25 66.7361 32.9673 66.4747 32.7543C66.2133 32.5412 65.8838 32.4347 65.4861 32.4347C65.0855 32.4347 64.7531 32.5412 64.4889 32.7543C64.2275 32.9673 64.0329 33.25 63.9051 33.6023C63.7801 33.9517 63.7176 34.3352 63.7176 34.7528C63.7176 35.1733 63.7801 35.5582 63.9051 35.9077C64.0329 36.2571 64.2275 36.5369 64.4889 36.7472C64.7531 36.9574 65.0855 37.0625 65.4861 37.0625ZM71.2293 34.1136V38H69.9552V31.4545H71.1782V32.5199H71.2591C71.4097 32.1733 71.6455 31.8949 71.9665 31.6847C72.2904 31.4744 72.6981 31.3693 73.1895 31.3693C73.6356 31.3693 74.0262 31.4631 74.3614 31.6506C74.6966 31.8352 74.9566 32.1108 75.1412 32.4773C75.3259 32.8437 75.4182 33.2969 75.4182 33.8366V38H74.1441V33.9901C74.1441 33.5156 74.0205 33.1449 73.7733 32.8778C73.5262 32.608 73.1867 32.473 72.7549 32.473C72.4594 32.473 72.1966 32.5369 71.9665 32.6648C71.7393 32.7926 71.5589 32.9801 71.4253 33.2273C71.2947 33.4716 71.2293 33.767 71.2293 34.1136ZM80.3028 38V31.4545H81.5344V32.4943H81.6025C81.7219 32.142 81.9321 31.8651 82.2332 31.6634C82.5372 31.4588 82.8809 31.3565 83.2645 31.3565C83.344 31.3565 83.4378 31.3594 83.5457 31.3651C83.6565 31.3707 83.7432 31.3778 83.8057 31.3864V32.6051C83.7545 32.5909 83.6636 32.5753 83.5329 32.5582C83.4023 32.5384 83.2716 32.5284 83.1409 32.5284C82.8398 32.5284 82.5713 32.5923 82.3355 32.7202C82.1025 32.8452 81.9179 33.0199 81.7815 33.2443C81.6452 33.4659 81.577 33.7187 81.577 34.0028V38H80.3028ZM86.7545 38.1449C86.3398 38.1449 85.9648 38.0682 85.6295 37.9148C85.2943 37.7585 85.0287 37.5327 84.8327 37.2372C84.6395 36.9418 84.5429 36.5795 84.5429 36.1506C84.5429 35.7812 84.6139 35.4773 84.7559 35.2386C84.898 35 85.0898 34.8111 85.3312 34.6719C85.5727 34.5327 85.8426 34.4276 86.1409 34.3565C86.4392 34.2855 86.7432 34.2315 87.0528 34.1946C87.4449 34.1491 87.7631 34.1122 88.0074 34.0838C88.2517 34.0526 88.4292 34.0028 88.54 33.9347C88.6508 33.8665 88.7062 33.7557 88.7062 33.6023V33.5724C88.7062 33.2003 88.6011 32.9119 88.3909 32.7074C88.1835 32.5028 87.8738 32.4006 87.4619 32.4006C87.0329 32.4006 86.6949 32.4957 86.4477 32.6861C86.2034 32.8736 86.0344 33.0824 85.9406 33.3125L84.7432 33.0398C84.8852 32.642 85.0926 32.321 85.3653 32.0767C85.6409 31.8295 85.9577 31.6506 86.3156 31.5398C86.6736 31.4261 87.05 31.3693 87.4449 31.3693C87.7062 31.3693 87.9832 31.4006 88.2758 31.4631C88.5713 31.5227 88.8469 31.6335 89.1025 31.7955C89.3611 31.9574 89.5727 32.1889 89.7375 32.4901C89.9023 32.7884 89.9846 33.1761 89.9846 33.6534V38H88.7403V37.1051H88.6892C88.6068 37.2699 88.4832 37.4318 88.3184 37.5909C88.1537 37.75 87.942 37.8821 87.6835 37.9872C87.425 38.0923 87.1153 38.1449 86.7545 38.1449ZM87.0315 37.1222C87.3838 37.1222 87.6849 37.0526 87.9349 36.9134C88.1878 36.7741 88.3795 36.5923 88.5102 36.3679C88.6437 36.1406 88.7105 35.8977 88.7105 35.6392V34.7955C88.665 34.8409 88.577 34.8835 88.4463 34.9233C88.3184 34.9602 88.1721 34.9929 88.0074 35.0213C87.8426 35.0469 87.6821 35.071 87.5258 35.0938C87.3696 35.1136 87.2389 35.1307 87.1338 35.1449C86.8866 35.1761 86.6608 35.2287 86.4562 35.3026C86.2545 35.3764 86.0926 35.483 85.9704 35.6222C85.8511 35.7585 85.7915 35.9403 85.7915 36.1676C85.7915 36.483 85.9079 36.7216 86.1409 36.8835C86.3738 37.0426 86.6707 37.1222 87.0315 37.1222ZM94.7371 31.4545V32.4773H91.1618V31.4545H94.7371ZM92.1206 29.8864H93.3948V36.0781C93.3948 36.3253 93.4317 36.5114 93.5056 36.6364C93.5795 36.7585 93.6746 36.8423 93.7911 36.8878C93.9104 36.9304 94.0397 36.9517 94.1789 36.9517C94.2812 36.9517 94.3706 36.9446 94.4474 36.9304C94.5241 36.9162 94.5837 36.9048 94.6263 36.8963L94.8564 37.9489C94.7826 37.9773 94.6775 38.0057 94.5411 38.0341C94.4047 38.0653 94.2343 38.0824 94.0297 38.0852C93.6945 38.0909 93.382 38.0312 93.0922 37.9062C92.8025 37.7812 92.5681 37.5881 92.3891 37.3267C92.2101 37.0653 92.1206 36.7372 92.1206 36.3423V29.8864ZM98.8973 38.1321C98.2524 38.1321 97.697 37.9943 97.2311 37.7188C96.768 37.4403 96.4101 37.0497 96.1572 36.5469C95.9072 36.0412 95.7822 35.4489 95.7822 34.7699C95.7822 34.0994 95.9072 33.5085 96.1572 32.9972C96.4101 32.4858 96.7623 32.0866 97.214 31.7997C97.6686 31.5128 98.1998 31.3693 98.8078 31.3693C99.1771 31.3693 99.5351 31.4304 99.8817 31.5526C100.228 31.6747 100.539 31.8665 100.815 32.1278C101.09 32.3892 101.308 32.7287 101.467 33.1463C101.626 33.5611 101.706 34.0653 101.706 34.6591V35.1108H96.5024V34.1562H100.457C100.457 33.821 100.389 33.5241 100.252 33.2656C100.116 33.0043 99.9243 32.7983 99.6771 32.6477C99.4328 32.4972 99.1459 32.4219 98.8163 32.4219C98.4584 32.4219 98.1459 32.5099 97.8788 32.6861C97.6146 32.8594 97.4101 33.0866 97.2652 33.3679C97.1231 33.6463 97.0521 33.9489 97.0521 34.2756V35.0213C97.0521 35.4588 97.1288 35.831 97.2822 36.1378C97.4385 36.4446 97.6558 36.679 97.9342 36.8409C98.2126 37 98.5379 37.0795 98.9101 37.0795C99.1515 37.0795 99.3717 37.0455 99.5706 36.9773C99.7694 36.9062 99.9413 36.8011 100.086 36.6619C100.231 36.5227 100.342 36.3509 100.419 36.1463L101.625 36.3636C101.528 36.7187 101.355 37.0298 101.105 37.2969C100.858 37.5611 100.546 37.767 100.171 37.9148C99.7993 38.0597 99.3746 38.1321 98.8973 38.1321Z" fill="#6A6A6A"/>
<g opacity="0.32">
<path d="M125.346 94.5986L111.714 89.699C110.421 89.2342 109.084 88.904 107.723 88.7135L93.4221 86.7113L76.44 83.7535L61.6356 80.7958L43.9261 78.5L30.3033 77H11.6855L11.2314 137.5H142.01V101.5L125.346 94.5986Z" fill="url(#paint0_linear_1025_8118)"/>
<path d="M11.2314 77H30.3033L45.2883 79L61.6356 80.5L76.44 83.5L93.8761 86.5L109.769 89.5L125.346 94.5L142.01 101.5" stroke="#AFAFAF" stroke-width="1.5" stroke-linecap="round"/>
</g>
<defs>
<linearGradient id="paint0_linear_1025_8118" x1="69.3552" y1="-155.5" x2="69.3552" y2="127.5" gradientUnits="userSpaceOnUse">
<stop stop-color="#222222"/>
<stop offset="1" stop-color="#222222" stop-opacity="0"/>
</linearGradient>
</defs>
</svg>
