<svg width="20" height="20" viewBox="0 0 20 20" fill="none" xmlns="http://www.w3.org/2000/svg">
<mask id="mask0_2268_1925" style="mask-type:alpha" maskUnits="userSpaceOnUse" x="0" y="0" width="20" height="20">
<rect width="20" height="20" fill="#D9D9D9"/>
</mask>
<g mask="url(#mask0_2268_1925)">
<path d="M7 14.12V5.88C7 5.65444 7.0759 5.47222 7.22771 5.33333C7.37951 5.19444 7.5566 5.125 7.75896 5.125C7.82215 5.125 7.88854 5.13542 7.95812 5.15625C8.02771 5.17708 8.095 5.20743 8.16 5.24729L14.5208 9.375C14.6319 9.44889 14.7188 9.54132 14.7812 9.65229C14.8438 9.76312 14.875 9.88014 14.875 10.0033C14.875 10.1265 14.8438 10.2436 14.7812 10.3546C14.7188 10.4654 14.6319 10.5556 14.5208 10.625L8.15979 14.7552C8.09479 14.7952 8.02646 14.8251 7.95479 14.845C7.88326 14.865 7.815 14.875 7.75 14.875C7.55 14.875 7.375 14.8056 7.225 14.6667C7.075 14.5278 7 14.3456 7 14.12Z" fill="white"/>
</g>
</svg>
