<svg width="56" height="56" viewBox="0 0 56 56" fill="none" xmlns="http://www.w3.org/2000/svg">
<path d="M5.41699 40.3303V16.1916C5.41699 15.7827 5.66593 15.415 6.04558 15.2631L26.2916 7.16422C26.5301 7.06883 26.7961 7.06884 27.0345 7.16425L45.5853 14.5867C46.4235 14.9221 46.4233 16.1087 45.585 16.4437L27.2935 23.7554C26.9137 23.9072 26.6647 24.2749 26.6647 24.6839V48.0325C26.6647 48.74 25.9501 49.2238 25.2932 48.9609L6.04547 41.2587C5.66588 41.1068 5.41699 40.7391 5.41699 40.3303Z" fill="#EEEEEE"/>
<path fill-rule="evenodd" clip-rule="evenodd" d="M26.4751 6.5469C26.5957 6.49869 26.7301 6.49869 26.8506 6.5469L48.0968 15.0454C48.2888 15.1222 48.4146 15.3081 48.4146 15.5148L48.4146 22.5968C48.4146 22.876 48.1883 23.1024 47.909 23.1024C47.6298 23.1024 47.4035 22.876 47.4035 22.5968L47.4035 16.2615L27.1684 24.3555V48.762L32.1407 46.773C32.4 46.6693 32.6942 46.7954 32.7979 47.0547C32.9016 47.3139 32.7755 47.6081 32.5163 47.7118L26.8506 49.9781C26.7301 50.0263 26.5957 50.0263 26.4751 49.9781L5.22893 41.4796C5.03699 41.4028 4.91113 41.2169 4.91113 41.0102V15.5148C4.91113 15.3081 5.03699 15.1222 5.22893 15.0454L16.9009 10.3766C16.9092 10.373 16.9177 10.3696 16.9262 10.3665L26.4751 6.5469ZM17.1014 11.3854L6.77794 15.5148L26.6629 23.4688L36.9864 19.3394L17.1014 11.3854ZM38.3476 18.7949L18.4627 10.8409L26.6629 7.5608L46.5478 15.5148L38.3476 18.7949ZM26.1573 24.3555L5.92224 16.2615V40.6679L26.1573 48.762L26.1573 24.3555ZM9.19652 34.6845C9.30022 34.4253 9.59444 34.2992 9.85368 34.4029L13.3947 35.8193C13.6539 35.923 13.78 36.2172 13.6763 36.4765C13.5726 36.7357 13.2784 36.8618 13.0192 36.7581L9.47816 35.3417C9.21892 35.238 9.09282 34.9438 9.19652 34.6845Z" fill="#AFAFAF"/>
<path fill-rule="evenodd" clip-rule="evenodd" d="M34.9815 28.5811C36.8761 26.6865 39.4458 25.6221 42.1252 25.6221C44.8046 25.6221 47.3742 26.6865 49.2688 28.5811C51.1635 30.4757 52.2279 33.0454 52.2279 35.7248C52.2279 38.4042 51.1635 40.9738 49.2688 42.8685C47.3742 44.7631 44.8046 45.8275 42.1252 45.8275C39.4458 45.8275 36.8761 44.7631 34.9815 42.8685C33.0868 40.9738 32.0225 38.4042 32.0225 35.7248C32.0225 33.0454 33.0868 30.4757 34.9815 28.5811ZM37.5757 31.1752C37.3783 31.3726 37.3783 31.6927 37.5757 31.8901L41.4102 35.7246L37.5758 39.559C37.3783 39.7564 37.3783 40.0765 37.5758 40.2739C37.7732 40.4714 38.0933 40.4714 38.2907 40.2739L42.1251 36.4395L45.9595 40.2739C46.157 40.4714 46.4771 40.4714 46.6745 40.2739C46.8719 40.0765 46.8719 39.7564 46.6745 39.559L42.8401 35.7246L46.6745 31.8901C46.872 31.6927 46.872 31.3726 46.6745 31.1752C46.4771 30.9777 46.157 30.9777 45.9596 31.1752L42.1251 35.0096L38.2907 31.1752C38.0933 30.9777 37.7732 30.9777 37.5757 31.1752Z" fill="#161616"/>
</svg>
