<svg width="300" height="138" viewBox="0 0 300 138" fill="none" xmlns="http://www.w3.org/2000/svg">
<g filter="url(#filter0_d_877_11144)">
<rect x="11.8373" y="42.0001" width="82" height="82" rx="4" transform="rotate(-20 11.8373 42.0001)" fill="white"/>
</g>
<g clip-path="url(#clip0_877_11144)">
<path d="M74.4531 46.5869C74.334 46.364 74.0837 46.3031 73.9158 46.3642C73.7479 46.4253 70.3995 47.568 70.3995 47.568C70.3995 47.568 66.635 45.8962 66.2564 45.6918C65.89 45.5209 65.3772 45.7836 65.2002 45.9241C65.2002 45.9241 64.7241 46.2875 63.9489 46.8739C63.6435 46.4527 63.2007 45.9674 62.6786 45.473C61.0205 43.9472 59.1766 43.4776 57.4306 44.1131C57.2963 44.162 57.1956 44.1986 57.0735 44.2811C56.9819 44.2384 56.9239 44.1834 56.8445 44.1743C55.779 43.6496 54.6586 43.6011 53.4957 44.0623C51.2705 44.9483 49.6197 47.4123 48.824 50.972C48.2936 53.4845 48.2487 56.3907 48.6675 58.4816C46.3754 60.2285 44.7701 61.4592 44.7029 61.4836C43.5401 62.3631 43.5188 62.4089 43.8031 63.7123C44.0781 64.6769 50.2954 92.4149 50.2954 92.4149L80.8452 86.9233L92.1776 79.3004C92.144 79.3126 74.5723 46.8097 74.4531 46.5869ZM62.6762 47.8694C62.078 48.3153 61.4249 48.8192 60.7168 49.3811C60.3013 48.2395 59.5469 46.6889 58.5544 45.5292C60.3645 45.1746 61.9127 46.8165 62.6762 47.8694ZM59.3648 50.3675C58.025 51.3875 56.5631 52.4899 55.1011 53.5924C54.9235 51.6418 55.161 49.5781 55.8077 48.0119C56.0518 47.4287 56.4515 46.7509 56.9916 46.2501C58.1398 47.3152 58.9462 49.113 59.3648 50.3675ZM54.1127 45.5488C54.65 45.3533 55.1231 45.2952 55.5902 45.4293C55.0958 45.9515 54.6626 46.6415 54.3453 47.4414C53.4637 49.5114 53.2233 52.2986 53.6301 54.7742C52.4123 55.7117 51.2159 56.6035 50.1416 57.4128C49.6154 53.4597 50.6911 46.9083 54.1127 45.5488Z" fill="#95BF47"/>
<path d="M73.9168 46.3639C73.7489 46.425 70.4005 47.5677 70.4005 47.5677C70.4005 47.5677 66.636 45.8959 66.2574 45.6915C66.12 45.6274 65.9613 45.6092 65.827 45.6581L80.8462 86.923L92.1786 79.3001C92.1786 79.3001 74.6068 46.7972 74.4877 46.5744C74.335 46.3638 74.0847 46.3028 73.9168 46.3639Z" fill="#5E8E3E"/>
<path d="M62.4169 57.812L62.9407 63.7432C62.9407 63.7432 61.0602 63.5912 59.1952 64.422C56.436 65.6164 57.0837 67.396 57.2425 67.8325C58.2903 70.1888 64.8317 68.4163 67.2663 73.9563C69.1603 78.3241 67.6534 82.3327 63.9113 83.9609C59.4305 85.858 55.9347 84.0884 55.9347 84.0884L55.4052 79.6042C55.4052 79.6042 58.6536 80.5893 60.6193 79.7217C61.9043 79.1779 62.0046 77.8866 61.6686 77.1724C60.3184 74.0896 55.2211 76.173 52.9911 71.0909C51.1338 66.8238 52.3868 61.3866 58.5525 58.6862C60.9424 57.6262 62.4169 57.812 62.4169 57.812Z" fill="white"/>
</g>
<g filter="url(#filter1_d_877_11144)">
<rect x="203.108" y="14.0001" width="82" height="82" rx="4" transform="rotate(20 203.108 14.0001)" fill="white"/>
</g>
<path fill-rule="evenodd" clip-rule="evenodd" d="M259.02 51.494L235.136 62.6048L237.993 63.6447C242.471 65.2748 244.086 69.039 242.964 72.1211C242.086 74.5333 239.804 75.7163 237.795 75.8634C237.471 75.8867 237.343 76.2703 237.586 76.4855C239.309 78.0099 239.992 80.6452 239.095 83.1077C237.822 86.6061 234.486 88.5303 229.973 86.8876L217.562 82.3703C217.367 82.2994 217.266 82.0864 217.335 81.8951L222.159 68.6412L195.946 80.8356C195.593 80.9995 195.615 81.5084 195.98 81.6413L242.239 98.4785C242.414 98.5419 242.606 98.4516 242.669 98.2773L259.527 51.9607C259.641 51.6478 259.321 51.3537 259.02 51.494ZM224.145 79.8625L230.28 82.0954C232.148 82.7755 233.629 82.2163 234.234 80.554C234.763 79.1003 234.136 77.5368 232.196 76.8307L226.061 74.5979C225.866 74.5269 225.652 74.6245 225.582 74.8162L223.918 79.3873C223.848 79.579 223.95 79.7915 224.145 79.8625ZM227.41 69.794L228.922 65.6382C228.992 65.447 229.206 65.3489 229.401 65.4199L235.325 67.5758C237.017 68.1918 237.709 69.5808 237.192 71.0011C236.65 72.4901 235.252 73.0406 233.56 72.4246L227.637 70.2687C227.442 70.1977 227.34 69.9852 227.41 69.794Z" fill="#121118"/>
<g filter="url(#filter2_d_877_11144)">
<rect x="105.062" y="12" width="82" height="82" rx="4" fill="white"/>
</g>
<path d="M148.828 42.9962V71.4768L146.051 73.1857L143.269 71.4659V43.0181L136.07 47.4873V71.8438L146.051 78L156.114 71.8V47.4709L148.828 42.9962ZM146.051 28L125.062 40.8163V65.1727L130.512 68.4097V44.0532L146.051 34.5286L161.607 44.0423L161.672 44.0806L161.667 68.3823L167.062 65.1837V40.8163L146.051 28Z" fill="#F37B20"/>
<defs>
<filter id="filter0_d_877_11144" x="0.963104" y="3.0802" width="134.849" height="134.849" filterUnits="userSpaceOnUse" color-interpolation-filters="sRGB">
<feFlood flood-opacity="0" result="BackgroundImageFix"/>
<feColorMatrix in="SourceAlpha" type="matrix" values="0 0 0 0 0 0 0 0 0 0 0 0 0 0 0 0 0 0 127 0" result="hardAlpha"/>
<feOffset dx="4" dy="4"/>
<feGaussianBlur stdDeviation="8"/>
<feColorMatrix type="matrix" values="0 0 0 0 0.0862745 0 0 0 0 0.0862745 0 0 0 0 0.0862745 0 0 0 0.1 0"/>
<feBlend mode="normal" in2="BackgroundImageFix" result="effect1_dropShadow_877_11144"/>
<feBlend mode="normal" in="SourceGraphic" in2="effect1_dropShadow_877_11144" result="shape"/>
</filter>
<filter id="filter1_d_877_11144" x="164.188" y="3.12579" width="134.849" height="134.849" filterUnits="userSpaceOnUse" color-interpolation-filters="sRGB">
<feFlood flood-opacity="0" result="BackgroundImageFix"/>
<feColorMatrix in="SourceAlpha" type="matrix" values="0 0 0 0 0 0 0 0 0 0 0 0 0 0 0 0 0 0 127 0" result="hardAlpha"/>
<feOffset dx="4" dy="4"/>
<feGaussianBlur stdDeviation="8"/>
<feColorMatrix type="matrix" values="0 0 0 0 0.0862745 0 0 0 0 0.0862745 0 0 0 0 0.0862745 0 0 0 0.1 0"/>
<feBlend mode="normal" in2="BackgroundImageFix" result="effect1_dropShadow_877_11144"/>
<feBlend mode="normal" in="SourceGraphic" in2="effect1_dropShadow_877_11144" result="shape"/>
</filter>
<filter id="filter2_d_877_11144" x="93.0621" y="0" width="114" height="114" filterUnits="userSpaceOnUse" color-interpolation-filters="sRGB">
<feFlood flood-opacity="0" result="BackgroundImageFix"/>
<feColorMatrix in="SourceAlpha" type="matrix" values="0 0 0 0 0 0 0 0 0 0 0 0 0 0 0 0 0 0 127 0" result="hardAlpha"/>
<feOffset dx="4" dy="4"/>
<feGaussianBlur stdDeviation="8"/>
<feColorMatrix type="matrix" values="0 0 0 0 0.0862745 0 0 0 0 0.0862745 0 0 0 0 0.0862745 0 0 0 0.1 0"/>
<feBlend mode="normal" in2="BackgroundImageFix" result="effect1_dropShadow_877_11144"/>
<feBlend mode="normal" in="SourceGraphic" in2="effect1_dropShadow_877_11144" result="shape"/>
</filter>
<clipPath id="clip0_877_11144">
<rect width="50" height="50" fill="white" transform="translate(32.3448 51.5628) rotate(-20)"/>
</clipPath>
</defs>
</svg>
