<svg width="56" height="56" viewBox="0 0 56 56" fill="none" xmlns="http://www.w3.org/2000/svg">
<path d="M5.41602 40.4655V16.0561C5.41602 15.729 5.61517 15.4348 5.91889 15.3133L26.3649 7.13437C26.5557 7.05807 26.7685 7.05807 26.9593 7.1344L46.0486 14.7724C46.7192 15.0407 46.719 15.9899 46.0484 16.258L27.1668 23.8055C26.863 23.9269 26.6637 24.2212 26.6637 24.5483V48.3278C26.6637 48.8938 26.092 49.2808 25.5665 49.0705L5.9188 41.2083C5.61513 41.0868 5.41602 40.7926 5.41602 40.4655Z" fill="#EEEEEE"/>
<path fill-rule="evenodd" clip-rule="evenodd" d="M26.4696 6.53329C26.5935 6.4837 26.7318 6.4837 26.8558 6.53329L48.102 15.0318C48.2994 15.1107 48.4289 15.3019 48.4289 15.5146L48.4288 22.5966C48.4288 22.8838 48.196 23.1166 47.9088 23.1166C47.6216 23.1166 47.3888 22.8838 47.3888 22.5966L47.3889 16.2826L27.1827 24.3651L27.1827 48.7404L32.1352 46.7594C32.4018 46.6527 32.7044 46.7824 32.8111 47.0491C32.9178 47.3157 32.7881 47.6184 32.5214 47.725L26.8558 49.9913C26.7318 50.0409 26.5935 50.0409 26.4696 49.9913L5.22336 41.4928C5.02594 41.4138 4.89648 41.2226 4.89648 41.01V15.5146C4.89648 15.3019 5.02594 15.1107 5.22336 15.0318L16.8951 10.3631C16.9036 10.3594 16.9122 10.356 16.9208 10.3528L26.4696 6.53329ZM17.1012 11.4007L6.81663 15.5146L26.6627 23.453L36.9473 19.3392L17.1012 11.4007ZM38.3474 18.7791L18.5013 10.8407L26.6627 7.57615L46.5087 15.5146L38.3474 18.7791ZM26.1427 24.3651L5.93648 16.2826V40.6579L26.1427 48.7404L26.1427 24.3651ZM9.1829 34.6789C9.28956 34.4123 9.59219 34.2826 9.85884 34.3893L13.3999 35.8057C13.6665 35.9123 13.7962 36.215 13.6896 36.4816C13.5829 36.7483 13.2803 36.878 13.0136 36.7713L9.47259 35.3549C9.20594 35.2482 9.07625 34.9456 9.1829 34.6789Z" fill="#AFAFAF"/>
<path d="M42.1252 25.8799C39.5142 25.8799 37.0101 26.9171 35.1638 28.7634C33.3175 30.6097 32.2803 33.1138 32.2803 35.7248C32.2803 38.3358 33.3175 40.8399 35.1638 42.6862C37.0101 44.5325 39.5142 45.5697 42.1252 45.5697C44.7362 45.5697 47.2403 44.5325 49.0866 42.6862C50.9329 40.8399 51.9701 38.3358 51.9701 35.7248C51.9701 33.1138 50.9329 30.6097 49.0866 28.7634C47.2403 26.9171 44.7362 25.8799 42.1252 25.8799Z" fill="#161616"/>
<path d="M54.9468 48.5461L48.7178 42.3171L54.9468 48.5461Z" fill="#161616"/>
<path fill-rule="evenodd" clip-rule="evenodd" d="M48.3501 41.9494C48.5531 41.7463 48.8824 41.7463 49.0855 41.9494L55.3145 48.1784C55.5176 48.3815 55.5176 48.7107 55.3145 48.9138C55.1114 49.1169 54.7822 49.1169 54.5791 48.9138L48.3501 42.6848C48.147 42.4817 48.147 42.1525 48.3501 41.9494Z" fill="#161616"/>
<path d="M37.4624 33.1006C37.7496 33.1006 37.9824 33.3334 37.9824 33.6206V34.4623C37.9824 34.7495 37.7496 34.9823 37.4624 34.9823C37.1752 34.9823 36.9424 34.7495 36.9424 34.4623V33.6206C36.9424 33.3334 37.1752 33.1006 37.4624 33.1006Z" fill="white"/>
<path d="M42.6447 33.6206C42.6447 33.3334 42.4119 33.1006 42.1247 33.1006C41.8375 33.1006 41.6047 33.3334 41.6047 33.6206V37.8293C41.6047 38.1165 41.8375 38.3493 42.1247 38.3493C42.4119 38.3493 42.6447 38.1165 42.6447 37.8293V33.6206Z" fill="white"/>
<path d="M47.3072 33.6206C47.3072 33.3334 47.0744 33.1006 46.7872 33.1006C46.5 33.1006 46.2672 33.3334 46.2672 33.6206V37.8293C46.2672 38.1165 46.5 38.3493 46.7872 38.3493C47.0744 38.3493 47.3072 38.1165 47.3072 37.8293V33.6206Z" fill="white"/>
<path d="M37.9824 36.9878C37.9824 36.7006 37.7496 36.4678 37.4624 36.4678C37.1752 36.4678 36.9424 36.7006 36.9424 36.9878V37.8295C36.9424 38.1167 37.1752 38.3495 37.4624 38.3495C37.7496 38.3495 37.9824 38.1167 37.9824 37.8295V36.9878Z" fill="white"/>
</svg>
