<svg width="20" height="20" viewBox="0 0 20 20" fill="none" xmlns="http://www.w3.org/2000/svg">
<mask id="mask0_4056_7920" style="mask-type:alpha" maskUnits="userSpaceOnUse" x="0" y="0" width="20" height="20">
<rect width="20" height="20" fill="#D9D9D9"/>
</mask>
<g mask="url(#mask0_4056_7920)">
<path d="M4.16667 18.3337C3.70833 18.3337 3.31597 18.1705 2.98958 17.8441C2.66319 17.5177 2.5 17.1253 2.5 16.667V5.00033C2.5 4.54199 2.66319 4.14963 2.98958 3.82324C3.31597 3.49685 3.70833 3.33366 4.16667 3.33366H5V2.50033C5 2.26421 5.07986 2.0663 5.23958 1.90658C5.39931 1.74685 5.59722 1.66699 5.83333 1.66699C6.06944 1.66699 6.26736 1.74685 6.42708 1.90658C6.58681 2.0663 6.66667 2.26421 6.66667 2.50033V3.33366H13.3333V2.50033C13.3333 2.26421 13.4132 2.0663 13.5729 1.90658C13.7326 1.74685 13.9306 1.66699 14.1667 1.66699C14.4028 1.66699 14.6007 1.74685 14.7604 1.90658C14.9201 2.0663 15 2.26421 15 2.50033V3.33366H15.8333C16.2917 3.33366 16.684 3.49685 17.0104 3.82324C17.3368 4.14963 17.5 4.54199 17.5 5.00033V8.89616C17.5 9.13227 17.4201 9.33019 17.2604 9.48991C17.1007 9.64963 16.9028 9.72949 16.6667 9.72949C16.4306 9.72949 16.2326 9.64963 16.0729 9.48991C15.9132 9.33019 15.8333 9.13227 15.8333 8.89616V8.33366H4.16667V16.667H9C9.23611 16.667 9.43403 16.7469 9.59375 16.9066C9.75347 17.0663 9.83333 17.2642 9.83333 17.5003C9.83333 17.7364 9.75347 17.9344 9.59375 18.0941C9.43403 18.2538 9.23611 18.3337 9 18.3337H4.16667ZM15 19.167C13.8472 19.167 12.8646 18.7607 12.0521 17.9482C11.2396 17.1357 10.8333 16.1531 10.8333 15.0003C10.8333 13.8475 11.2396 12.8649 12.0521 12.0524C12.8646 11.2399 13.8472 10.8337 15 10.8337C16.1528 10.8337 17.1354 11.2399 17.9479 12.0524C18.7604 12.8649 19.1667 13.8475 19.1667 15.0003C19.1667 16.1531 18.7604 17.1357 17.9479 17.9482C17.1354 18.7607 16.1528 19.167 15 19.167ZM15.4167 14.8337V12.917C15.4167 12.8059 15.375 12.7087 15.2917 12.6253C15.2083 12.542 15.1111 12.5003 15 12.5003C14.8889 12.5003 14.7917 12.542 14.7083 12.6253C14.625 12.7087 14.5833 12.8059 14.5833 12.917V14.8128C14.5833 14.9239 14.6042 15.0316 14.6458 15.1357C14.6875 15.2399 14.75 15.3337 14.8333 15.417L16.1042 16.6878C16.1875 16.7712 16.2847 16.8128 16.3958 16.8128C16.5069 16.8128 16.6042 16.7712 16.6875 16.6878C16.7708 16.6045 16.8125 16.5073 16.8125 16.3962C16.8125 16.285 16.7708 16.1878 16.6875 16.1045L15.4167 14.8337Z" fill="#AFAFAF"/>
</g>
</svg>
