<svg width="24" height="24" viewBox="0 0 24 24" fill="none" xmlns="http://www.w3.org/2000/svg">
<circle cx="12" cy="12" r="12" fill="#EF4C00" fill-opacity="0.2"/>
<path d="M10.3248 14.2207H7.9948C7.73592 14.2207 7.54483 14.1066 7.42155 13.8786C7.29827 13.6505 7.30444 13.4255 7.44004 13.2036L12.4514 5.38152C12.55 5.20893 12.6918 5.09489 12.8767 5.03942C13.0616 4.98394 13.2465 4.98702 13.4314 5.04866C13.6164 5.1103 13.7612 5.22434 13.866 5.39076C13.9708 5.55719 14.0109 5.73903 13.9862 5.93628L13.4314 10.6702H16.0573C16.3408 10.6702 16.5412 10.7935 16.6583 11.0401C16.7754 11.2866 16.7477 11.5208 16.5751 11.7427L11.1015 18.6772C10.9782 18.8252 10.8272 18.9238 10.6484 18.9731C10.4696 19.0224 10.294 19.0039 10.1214 18.9176C9.94879 18.8313 9.81626 18.705 9.7238 18.5385C9.63134 18.3721 9.6036 18.1964 9.64059 18.0115L10.3248 14.2207Z" fill="#EF4C00"/>
</svg>
