<svg width="153" height="148" viewBox="0 0 153 148" fill="none" xmlns="http://www.w3.org/2000/svg">
<mask id="mask0_1025_8090" style="mask-type:alpha" maskUnits="userSpaceOnUse" x="0" y="0" width="153" height="148">
<rect x="0.666504" width="151.667" height="148" rx="8" fill="#F9F9F9"/>
</mask>
<g mask="url(#mask0_1025_8090)">
<rect x="0.666504" width="151.667" height="148" rx="8" fill="#F9F9F9"/>
<g opacity="0.32">
<path d="M18.377 100C20.1324 100 21.5557 101.423 21.5557 103.179V132.821C21.5557 134.577 20.1324 136 18.377 136C16.6214 136 15.1982 134.577 15.1982 132.821V103.179C15.1982 101.423 16.6214 100 18.377 100ZM27.458 100C29.2134 100 30.6367 101.423 30.6367 103.179V132.821C30.6367 134.577 29.2134 136 27.458 136C25.7025 136 24.2793 134.577 24.2793 132.821V103.179C24.2793 101.423 25.7025 100 27.458 100ZM36.54 96C38.2956 96 39.7188 97.4232 39.7188 99.1787V132.821C39.7188 134.577 38.2956 136 36.54 136C34.7846 136 33.3613 134.577 33.3613 132.821V99.1787C33.3613 97.4233 34.7846 96.0001 36.54 96ZM45.6211 83C47.3766 83 48.7998 84.4232 48.7998 86.1787V132.821C48.7998 134.577 47.3766 136 45.6211 136C43.8657 136 42.4424 134.577 42.4424 132.821V86.1787C42.4424 84.4233 43.8657 83.0001 45.6211 83ZM54.7041 83C56.4595 83.0002 57.8828 84.4233 57.8828 86.1787V132.821C57.8828 134.577 56.4595 136 54.7041 136C52.9486 136 51.5254 134.577 51.5254 132.821V86.1787C51.5254 84.4232 52.9486 83 54.7041 83ZM63.3311 94C64.8357 94.0001 66.0557 95.22 66.0557 96.7246V133.275C66.0557 134.78 64.8357 136 63.3311 136C61.8263 136 60.6064 134.78 60.6064 133.275V96.7246C60.6064 95.2199 61.8263 94 63.3311 94ZM71.959 94C73.7144 94.0001 75.1377 95.4233 75.1377 97.1787V132.821C75.1377 134.577 73.7144 136 71.959 136C70.2035 136 68.7803 134.577 68.7803 132.821V97.1787C68.7803 95.4232 70.2035 94 71.959 94ZM81.041 106C82.7965 106 84.2197 107.423 84.2197 109.179V132.821C84.2197 134.577 82.7965 136 81.041 136C79.2856 136 77.8623 134.577 77.8623 132.821V109.179C77.8623 107.423 79.2856 106 81.041 106ZM90.1221 114C91.8776 114 93.3008 115.423 93.3008 117.179V132.821C93.3008 134.577 91.8776 136 90.1221 136C88.3667 136 86.9434 134.577 86.9434 132.821V117.179C86.9434 115.423 88.3667 114 90.1221 114ZM99.2051 104C100.96 104 102.384 105.423 102.384 107.179V132.821C102.384 134.577 100.96 136 99.2051 136C97.4496 136 96.0264 134.577 96.0264 132.821V107.179C96.0264 105.423 97.4496 104 99.2051 104ZM108.286 98C110.042 98.0001 111.465 99.4233 111.465 101.179V132.821C111.465 134.577 110.042 136 108.286 136C106.531 136 105.107 134.577 105.107 132.821V101.179C105.107 99.4232 106.531 98 108.286 98ZM117.368 88C119.124 88 120.547 89.4232 120.547 91.1787V132.821C120.547 134.577 119.124 136 117.368 136C115.613 136 114.189 134.577 114.189 132.821V91.1787C114.189 89.4233 115.613 88.0001 117.368 88ZM126.449 83C128.205 83 129.628 84.4232 129.628 86.1787V132.821C129.628 134.577 128.205 136 126.449 136C124.694 136 123.271 134.577 123.271 132.821V86.1787C123.271 84.4233 124.694 83.0001 126.449 83ZM135.532 77C137.288 77.0002 138.711 78.4233 138.711 80.1787V132.821C138.711 134.577 137.288 136 135.532 136C133.777 136 132.354 134.577 132.354 132.821V80.1787C132.354 78.4232 133.777 77 135.532 77Z" fill="url(#paint0_linear_1025_8090)" fill-opacity="0.32"/>
<path d="M11.5645 72H142.343" stroke="#222222" stroke-opacity="0.16" stroke-width="0.5" stroke-dasharray="1 4"/>
<path d="M11.5645 108H142.343" stroke="#6A6A6A" stroke-width="0.5"/>
<path d="M11.5654 106.5C12.2482 106.5 12.8818 107.125 12.8818 108C12.8818 108.875 12.2482 109.5 11.5654 109.5C10.8826 109.5 10.249 108.875 10.249 108C10.249 107.125 10.8826 106.5 11.5654 106.5Z" fill="#6A6A6A" stroke="#6A6A6A"/>
<path d="M142.343 106.5C143.026 106.5 143.659 107.125 143.659 108C143.659 108.875 143.026 109.5 142.343 109.5C141.66 109.5 141.026 108.875 141.026 108C141.026 107.125 141.66 106.5 142.343 106.5Z" fill="#6A6A6A" stroke="#6A6A6A"/>
<path d="M11.5645 88H142.343" stroke="#222222" stroke-opacity="0.16" stroke-width="0.5" stroke-dasharray="1 4"/>
<path d="M11.5645 104H142.343" stroke="#222222" stroke-opacity="0.16" stroke-width="0.5" stroke-dasharray="1 4"/>
<path d="M11.5645 120H142.343" stroke="#222222" stroke-opacity="0.16" stroke-width="0.5" stroke-dasharray="1 4"/>
</g>
<path d="M15.9153 29.2727H17.2278V35.4602C17.2278 36.0199 17.117 36.4986 16.8954 36.8963C16.6767 37.294 16.3684 37.598 15.9707 37.8082C15.573 38.0156 15.1071 38.1193 14.573 38.1193C14.0815 38.1193 13.6397 38.0298 13.2477 37.8509C12.8585 37.6719 12.5502 37.4119 12.323 37.071C12.0985 36.7273 11.9863 36.3097 11.9863 35.8182H13.2946C13.2946 36.0597 13.35 36.2685 13.4608 36.4446C13.5744 36.6207 13.7292 36.7585 13.9252 36.858C14.1241 36.9545 14.3514 37.0028 14.6071 37.0028C14.8855 37.0028 15.1213 36.9446 15.3145 36.8281C15.5105 36.7088 15.6596 36.5341 15.7619 36.304C15.8642 36.0739 15.9153 35.7926 15.9153 35.4602V29.2727ZM21.7992 38.1321C21.1855 38.1321 20.65 37.9915 20.1926 37.7102C19.7353 37.429 19.3801 37.0355 19.1273 36.5298C18.8745 36.0241 18.748 35.4332 18.748 34.7571C18.748 34.0781 18.8745 33.4844 19.1273 32.9759C19.3801 32.4673 19.7353 32.0724 20.1926 31.7912C20.65 31.5099 21.1855 31.3693 21.7992 31.3693C22.4128 31.3693 22.9483 31.5099 23.4057 31.7912C23.8631 32.0724 24.2182 32.4673 24.4711 32.9759C24.7239 33.4844 24.8503 34.0781 24.8503 34.7571C24.8503 35.4332 24.7239 36.0241 24.4711 36.5298C24.2182 37.0355 23.8631 37.429 23.4057 37.7102C22.9483 37.9915 22.4128 38.1321 21.7992 38.1321ZM21.8034 37.0625C22.2012 37.0625 22.5307 36.9574 22.7921 36.7472C23.0534 36.5369 23.2466 36.2571 23.3716 35.9077C23.4995 35.5582 23.5634 35.1733 23.5634 34.7528C23.5634 34.3352 23.4995 33.9517 23.3716 33.6023C23.2466 33.25 23.0534 32.9673 22.7921 32.7543C22.5307 32.5412 22.2012 32.4347 21.8034 32.4347C21.4029 32.4347 21.0705 32.5412 20.8063 32.7543C20.5449 32.9673 20.3503 33.25 20.2225 33.6023C20.0975 33.9517 20.035 34.3352 20.035 34.7528C20.035 35.1733 20.0975 35.5582 20.2225 35.9077C20.3503 36.2571 20.5449 36.5369 20.8063 36.7472C21.0705 36.9574 21.4029 37.0625 21.8034 37.0625ZM30.4189 35.2855V31.4545H31.6973V38H30.4444V36.8665H30.3762C30.2257 37.2159 29.9842 37.5071 29.6518 37.7401C29.3223 37.9702 28.9118 38.0852 28.4203 38.0852C27.9998 38.0852 27.6277 37.9929 27.3038 37.8082C26.9828 37.6207 26.7299 37.3438 26.5453 36.9773C26.3635 36.6108 26.2725 36.1577 26.2725 35.6179V31.4545H27.5467V35.4645C27.5467 35.9105 27.6703 36.2656 27.9174 36.5298C28.1646 36.794 28.4856 36.9261 28.8805 36.9261C29.1191 36.9261 29.3564 36.8665 29.5922 36.7472C29.8308 36.6278 30.0282 36.4474 30.1845 36.206C30.3436 35.9645 30.4217 35.6577 30.4189 35.2855ZM33.4093 38V31.4545H34.6408V32.4943H34.709C34.8283 32.142 35.0385 31.8651 35.3397 31.6634C35.6436 31.4588 35.9874 31.3565 36.3709 31.3565C36.4505 31.3565 36.5442 31.3594 36.6522 31.3651C36.763 31.3707 36.8496 31.3778 36.9121 31.3864V32.6051C36.861 32.5909 36.7701 32.5753 36.6394 32.5582C36.5087 32.5384 36.378 32.5284 36.2473 32.5284C35.9462 32.5284 35.6777 32.5923 35.4419 32.7202C35.209 32.8452 35.0243 33.0199 34.888 33.2443C34.7516 33.4659 34.6834 33.7187 34.6834 34.0028V38H33.4093ZM39.2889 34.1136V38H38.0147V31.4545H39.2377V32.5199H39.3187C39.4693 32.1733 39.7051 31.8949 40.0261 31.6847C40.35 31.4744 40.7576 31.3693 41.2491 31.3693C41.6951 31.3693 42.0858 31.4631 42.421 31.6506C42.7562 31.8352 43.0162 32.1108 43.2008 32.4773C43.3855 32.8437 43.4778 33.2969 43.4778 33.8366V38H42.2037V33.9901C42.2037 33.5156 42.0801 33.1449 41.8329 32.8778C41.5858 32.608 41.2463 32.473 40.8145 32.473C40.519 32.473 40.2562 32.5369 40.0261 32.6648C39.7988 32.7926 39.6184 32.9801 39.4849 33.2273C39.3542 33.4716 39.2889 33.767 39.2889 34.1136ZM48.0076 38.1321C47.3627 38.1321 46.8074 37.9943 46.3414 37.7188C45.8784 37.4403 45.5204 37.0497 45.2676 36.5469C45.0176 36.0412 44.8926 35.4489 44.8926 34.7699C44.8926 34.0994 45.0176 33.5085 45.2676 32.9972C45.5204 32.4858 45.8727 32.0866 46.3244 31.7997C46.7789 31.5128 47.3102 31.3693 47.9181 31.3693C48.2875 31.3693 48.6454 31.4304 48.992 31.5526C49.3386 31.6747 49.6497 31.8665 49.9252 32.1278C50.2008 32.3892 50.4181 32.7287 50.5772 33.1463C50.7363 33.5611 50.8159 34.0653 50.8159 34.6591V35.1108H45.6127V34.1562H49.5673C49.5673 33.821 49.4991 33.5241 49.3627 33.2656C49.2264 33.0043 49.0346 32.7983 48.7875 32.6477C48.5431 32.4972 48.2562 32.4219 47.9267 32.4219C47.5687 32.4219 47.2562 32.5099 46.9892 32.6861C46.725 32.8594 46.5204 33.0866 46.3755 33.3679C46.2335 33.6463 46.1625 33.9489 46.1625 34.2756V35.0213C46.1625 35.4588 46.2392 35.831 46.3926 36.1378C46.5488 36.4446 46.7662 36.679 47.0446 36.8409C47.323 37 47.6483 37.0795 48.0204 37.0795C48.2619 37.0795 48.4821 37.0455 48.6809 36.9773C48.8798 36.9062 49.0517 36.8011 49.1966 36.6619C49.3414 36.5227 49.4522 36.3509 49.5289 36.1463L50.7349 36.3636C50.6383 36.7187 50.465 37.0298 50.215 37.2969C49.9679 37.5611 49.6568 37.767 49.2818 37.9148C48.9096 38.0597 48.4849 38.1321 48.0076 38.1321ZM52.8475 40.4545C52.6571 40.4545 52.4838 40.4389 52.3276 40.4077C52.1713 40.3793 52.0549 40.348 51.9782 40.3139L52.285 39.2699C52.5179 39.3324 52.7253 39.3594 52.9071 39.3509C53.089 39.3423 53.2495 39.2741 53.3887 39.1463C53.5307 39.0185 53.6557 38.8097 53.7637 38.5199L53.9213 38.0852L51.5265 31.4545H52.8901L54.5478 36.5341H54.6159L56.2736 31.4545H57.6415L54.9441 38.8736C54.8191 39.2145 54.66 39.5028 54.4668 39.7386C54.2736 39.9773 54.0435 40.1563 53.7765 40.2756C53.5094 40.3949 53.1998 40.4545 52.8475 40.4545ZM66.877 31.5653C66.8315 31.1619 66.644 30.8494 66.3145 30.6278C65.9849 30.4034 65.5701 30.2912 65.0701 30.2912C64.7122 30.2912 64.4025 30.348 64.1412 30.4616C63.8798 30.5724 63.6767 30.7259 63.5318 30.9219C63.3897 31.1151 63.3187 31.3352 63.3187 31.5824C63.3187 31.7898 63.367 31.9687 63.4636 32.1193C63.563 32.2699 63.6923 32.3963 63.8514 32.4986C64.0133 32.598 64.1866 32.6818 64.3713 32.75C64.5559 32.8153 64.7335 32.8693 64.9039 32.9119L65.7562 33.1335C66.0346 33.2017 66.3201 33.294 66.6127 33.4105C66.9054 33.527 67.1767 33.6804 67.4267 33.8707C67.6767 34.0611 67.8784 34.2969 68.0318 34.5781C68.188 34.8594 68.2662 35.196 68.2662 35.5881C68.2662 36.0824 68.1383 36.5213 67.8826 36.9048C67.6298 37.2884 67.2619 37.5909 66.7789 37.8125C66.2988 38.0341 65.7179 38.1449 65.036 38.1449C64.3826 38.1449 63.8173 38.0412 63.34 37.8338C62.8627 37.6264 62.4892 37.3324 62.2193 36.9517C61.9494 36.5682 61.8002 36.1136 61.7718 35.5881H63.0929C63.1184 35.9034 63.2207 36.1662 63.3997 36.3764C63.5815 36.5838 63.813 36.7386 64.0943 36.8409C64.3784 36.9403 64.6895 36.9901 65.0275 36.9901C65.3997 36.9901 65.7306 36.9318 66.0204 36.8153C66.313 36.696 66.5431 36.5312 66.7108 36.321C66.8784 36.108 66.9622 35.8594 66.9622 35.5753C66.9622 35.3168 66.8883 35.1051 66.7406 34.9403C66.5957 34.7756 66.3983 34.6392 66.1483 34.5312C65.9011 34.4233 65.6213 34.3281 65.3088 34.2457L64.2775 33.9645C63.5787 33.7741 63.0247 33.4943 62.6156 33.125C62.2093 32.7557 62.0062 32.267 62.0062 31.6591C62.0062 31.1562 62.1426 30.7173 62.4153 30.3423C62.688 29.9673 63.0574 29.6761 63.5233 29.4688C63.9892 29.2585 64.5147 29.1534 65.1 29.1534C65.6909 29.1534 66.2122 29.2571 66.6639 29.4645C67.1184 29.6719 67.4764 29.9574 67.7377 30.321C67.9991 30.6818 68.1355 31.0966 68.1468 31.5653H66.877ZM72.7928 31.4545V32.4773H69.2175V31.4545H72.7928ZM70.1763 29.8864H71.4505V36.0781C71.4505 36.3253 71.4874 36.5114 71.5613 36.6364C71.6351 36.7585 71.7303 36.8423 71.8468 36.8878C71.9661 36.9304 72.0953 36.9517 72.2346 36.9517C72.3368 36.9517 72.4263 36.9446 72.503 36.9304C72.5797 36.9162 72.6394 36.9048 72.682 36.8963L72.9121 37.9489C72.8382 37.9773 72.7331 38.0057 72.5968 38.0341C72.4604 38.0653 72.29 38.0824 72.0854 38.0852C71.7502 38.0909 71.4377 38.0312 71.1479 37.9062C70.8581 37.7812 70.6238 37.5881 70.4448 37.3267C70.2658 37.0653 70.1763 36.7372 70.1763 36.3423V29.8864ZM76.1071 38.1449C75.6923 38.1449 75.3173 38.0682 74.9821 37.9148C74.6468 37.7585 74.3812 37.5327 74.1852 37.2372C73.992 36.9418 73.8954 36.5795 73.8954 36.1506C73.8954 35.7812 73.9664 35.4773 74.1085 35.2386C74.2505 35 74.4423 34.8111 74.6838 34.6719C74.9252 34.5327 75.1951 34.4276 75.4934 34.3565C75.7917 34.2855 76.0957 34.2315 76.4054 34.1946C76.7974 34.1491 77.1156 34.1122 77.3599 34.0838C77.6042 34.0526 77.7818 34.0028 77.8926 33.9347C78.0034 33.8665 78.0588 33.7557 78.0588 33.6023V33.5724C78.0588 33.2003 77.9537 32.9119 77.7434 32.7074C77.536 32.5028 77.2264 32.4006 76.8145 32.4006C76.3855 32.4006 76.0474 32.4957 75.8002 32.6861C75.5559 32.8736 75.3869 33.0824 75.2931 33.3125L74.0957 33.0398C74.2377 32.642 74.4451 32.321 74.7179 32.0767C74.9934 31.8295 75.3102 31.6506 75.6681 31.5398C76.0261 31.4261 76.4025 31.3693 76.7974 31.3693C77.0588 31.3693 77.3358 31.4006 77.6284 31.4631C77.9238 31.5227 78.1994 31.6335 78.4551 31.7955C78.7136 31.9574 78.9252 32.1889 79.09 32.4901C79.2548 32.7884 79.3372 33.1761 79.3372 33.6534V38H78.0929V37.1051H78.0417C77.9593 37.2699 77.8358 37.4318 77.671 37.5909C77.5062 37.75 77.2946 37.8821 77.036 37.9872C76.7775 38.0923 76.4679 38.1449 76.1071 38.1449ZM76.3841 37.1222C76.7363 37.1222 77.0375 37.0526 77.2875 36.9134C77.5403 36.7741 77.7321 36.5923 77.8627 36.3679C77.9963 36.1406 78.063 35.8977 78.063 35.6392V34.7955C78.0176 34.8409 77.9295 34.8835 77.7988 34.9233C77.671 34.9602 77.5247 34.9929 77.3599 35.0213C77.1951 35.0469 77.0346 35.071 76.8784 35.0938C76.7221 35.1136 76.5914 35.1307 76.4863 35.1449C76.2392 35.1761 76.0133 35.2287 75.8088 35.3026C75.6071 35.3764 75.4451 35.483 75.323 35.6222C75.2037 35.7585 75.144 35.9403 75.144 36.1676C75.144 36.483 75.2605 36.7216 75.4934 36.8835C75.7264 37.0426 76.0233 37.1222 76.3841 37.1222ZM81.0343 38V31.4545H82.2658V32.4943H82.334C82.4533 32.142 82.6635 31.8651 82.9647 31.6634C83.2686 31.4588 83.6124 31.3565 83.9959 31.3565C84.0755 31.3565 84.1692 31.3594 84.2772 31.3651C84.388 31.3707 84.4746 31.3778 84.5371 31.3864V32.6051C84.486 32.5909 84.3951 32.5753 84.2644 32.5582C84.1337 32.5384 84.003 32.5284 83.8723 32.5284C83.5712 32.5284 83.3027 32.5923 83.0669 32.7202C82.834 32.8452 82.6493 33.0199 82.513 33.2443C82.3766 33.4659 82.3084 33.7187 82.3084 34.0028V38H81.0343ZM89.0819 31.4545V32.4773H85.5066V31.4545H89.0819ZM86.4654 29.8864H87.7395V36.0781C87.7395 36.3253 87.7765 36.5114 87.8503 36.6364C87.9242 36.7585 88.0194 36.8423 88.1358 36.8878C88.2551 36.9304 88.3844 36.9517 88.5236 36.9517C88.6259 36.9517 88.7154 36.9446 88.7921 36.9304C88.8688 36.9162 88.9284 36.9048 88.9711 36.8963L89.2012 37.9489C89.1273 37.9773 89.0222 38.0057 88.8858 38.0341C88.7495 38.0653 88.579 38.0824 88.3745 38.0852C88.0392 38.0909 87.7267 38.0312 87.437 37.9062C87.1472 37.7812 86.9128 37.5881 86.7338 37.3267C86.5549 37.0653 86.4654 36.7372 86.4654 36.3423V29.8864ZM93.242 38.1321C92.5971 38.1321 92.0417 37.9943 91.5758 37.7188C91.1127 37.4403 90.7548 37.0497 90.502 36.5469C90.252 36.0412 90.127 35.4489 90.127 34.7699C90.127 34.0994 90.252 33.5085 90.502 32.9972C90.7548 32.4858 91.1071 32.0866 91.5588 31.7997C92.0133 31.5128 92.5446 31.3693 93.1525 31.3693C93.5218 31.3693 93.8798 31.4304 94.2264 31.5526C94.573 31.6747 94.8841 31.8665 95.1596 32.1278C95.4352 32.3892 95.6525 32.7287 95.8116 33.1463C95.9707 33.5611 96.0502 34.0653 96.0502 34.6591V35.1108H90.8471V34.1562H94.8017C94.8017 33.821 94.7335 33.5241 94.5971 33.2656C94.4608 33.0043 94.269 32.7983 94.0218 32.6477C93.7775 32.4972 93.4906 32.4219 93.161 32.4219C92.8031 32.4219 92.4906 32.5099 92.2235 32.6861C91.9593 32.8594 91.7548 33.0866 91.6099 33.3679C91.4679 33.6463 91.3968 33.9489 91.3968 34.2756V35.0213C91.3968 35.4588 91.4735 35.831 91.627 36.1378C91.7832 36.4446 92.0005 36.679 92.2789 36.8409C92.5574 37 92.8826 37.0795 93.2548 37.0795C93.4963 37.0795 93.7164 37.0455 93.9153 36.9773C94.1142 36.9062 94.286 36.8011 94.4309 36.6619C94.5758 36.5227 94.6866 36.3509 94.7633 36.1463L95.9693 36.3636C95.8727 36.7187 95.6994 37.0298 95.4494 37.2969C95.2022 37.5611 94.8912 37.767 94.5162 37.9148C94.144 38.0597 93.7193 38.1321 93.242 38.1321ZM99.9142 38.1278C99.3858 38.1278 98.9142 37.9929 98.4995 37.723C98.0875 37.4503 97.7637 37.0625 97.5279 36.5597C97.2949 36.054 97.1784 35.4474 97.1784 34.7401C97.1784 34.0327 97.2963 33.4276 97.5321 32.9247C97.7708 32.4219 98.0975 32.0369 98.5123 31.7699C98.927 31.5028 99.3972 31.3693 99.9228 31.3693C100.329 31.3693 100.656 31.4375 100.903 31.5739C101.153 31.7074 101.346 31.8636 101.482 32.0426C101.622 32.2216 101.73 32.3793 101.806 32.5156H101.883V29.2727H103.157V38H101.913V36.9815H101.806C101.73 37.1207 101.619 37.2798 101.474 37.4588C101.332 37.6378 101.136 37.794 100.886 37.9276C100.636 38.0611 100.312 38.1278 99.9142 38.1278ZM100.195 37.0412C100.562 37.0412 100.872 36.9446 101.124 36.7514C101.38 36.5554 101.573 36.2841 101.704 35.9375C101.838 35.5909 101.904 35.1875 101.904 34.7273C101.904 34.2727 101.839 33.875 101.708 33.5341C101.578 33.1932 101.386 32.9276 101.133 32.7372C100.88 32.5469 100.568 32.4517 100.195 32.4517C99.812 32.4517 99.4924 32.5511 99.2367 32.75C98.981 32.9489 98.7878 33.2202 98.6571 33.5639C98.5293 33.9077 98.4654 34.2955 98.4654 34.7273C98.4654 35.1648 98.5307 35.5582 98.6614 35.9077C98.7921 36.2571 98.9853 36.5341 99.2409 36.7386C99.4995 36.9403 99.8176 37.0412 100.195 37.0412Z" fill="#6A6A6A"/>
</g>
<defs>
<linearGradient id="paint0_linear_1025_8090" x1="76.9545" y1="77" x2="76.9545" y2="155.5" gradientUnits="userSpaceOnUse">
<stop offset="0.2" stop-color="#222222"/>
<stop offset="1" stop-color="#222222" stop-opacity="0"/>
</linearGradient>
</defs>
</svg>
