<svg width="152" height="148" viewBox="0 0 152 148" fill="none" xmlns="http://www.w3.org/2000/svg">
<rect width="151.667" height="148" rx="8" fill="#F9F9F9"/>
<path d="M11.8568 38V29.2727H14.9676C15.6437 29.2727 16.2048 29.3892 16.6508 29.6222C17.0997 29.8551 17.4349 30.1776 17.6565 30.5895C17.8781 30.9986 17.9889 31.4716 17.9889 32.0085C17.9889 32.5426 17.8766 33.0128 17.6522 33.419C17.4306 33.8224 17.0954 34.1364 16.6465 34.3608C16.2005 34.5852 15.6394 34.6974 14.9633 34.6974H12.6068V33.5639H14.844C15.2701 33.5639 15.6167 33.5028 15.8837 33.3807C16.1536 33.2585 16.3511 33.081 16.4761 32.848C16.6011 32.6151 16.6636 32.3352 16.6636 32.0085C16.6636 31.679 16.5997 31.3935 16.4718 31.152C16.3468 30.9105 16.1494 30.7259 15.8795 30.598C15.6124 30.4673 15.2616 30.402 14.8269 30.402H13.1735V38H11.8568ZM16.165 34.0625L18.3212 38H16.8212L14.7076 34.0625H16.165ZM22.2278 38.1321C21.583 38.1321 21.0276 37.9943 20.5617 37.7188C20.0986 37.4403 19.7406 37.0497 19.4878 36.5469C19.2378 36.0412 19.1128 35.4489 19.1128 34.7699C19.1128 34.0994 19.2378 33.5085 19.4878 32.9972C19.7406 32.4858 20.0929 32.0866 20.5446 31.7997C20.9992 31.5128 21.5304 31.3693 22.1384 31.3693C22.5077 31.3693 22.8656 31.4304 23.2122 31.5526C23.5588 31.6747 23.8699 31.8665 24.1455 32.1278C24.421 32.3892 24.6384 32.7287 24.7975 33.1463C24.9565 33.5611 25.0361 34.0653 25.0361 34.6591V35.1108H19.833V34.1562H23.7875C23.7875 33.821 23.7193 33.5241 23.583 33.2656C23.4466 33.0043 23.2548 32.7983 23.0077 32.6477C22.7634 32.4972 22.4764 32.4219 22.1469 32.4219C21.7889 32.4219 21.4764 32.5099 21.2094 32.6861C20.9452 32.8594 20.7406 33.0866 20.5957 33.3679C20.4537 33.6463 20.3827 33.9489 20.3827 34.2756V35.0213C20.3827 35.4588 20.4594 35.831 20.6128 36.1378C20.769 36.4446 20.9864 36.679 21.2648 36.8409C21.5432 37 21.8685 37.0795 22.2406 37.0795C22.4821 37.0795 22.7023 37.0455 22.9011 36.9773C23.1 36.9062 23.2719 36.8011 23.4168 36.6619C23.5617 36.5227 23.6725 36.3509 23.7492 36.1463L24.9551 36.3636C24.8585 36.7187 24.6852 37.0298 24.4352 37.2969C24.1881 37.5611 23.877 37.767 23.502 37.9148C23.1298 38.0597 22.7051 38.1321 22.2278 38.1321ZM31.8617 31.4545L29.4881 38H28.1245L25.7467 31.4545H27.1146L28.7722 36.4915H28.8404L30.4938 31.4545H31.8617ZM35.6575 38.1321C35.0127 38.1321 34.4573 37.9943 33.9913 37.7188C33.5283 37.4403 33.1703 37.0497 32.9175 36.5469C32.6675 36.0412 32.5425 35.4489 32.5425 34.7699C32.5425 34.0994 32.6675 33.5085 32.9175 32.9972C33.1703 32.4858 33.5226 32.0866 33.9743 31.7997C34.4288 31.5128 34.9601 31.3693 35.568 31.3693C35.9374 31.3693 36.2953 31.4304 36.6419 31.5526C36.9885 31.6747 37.2996 31.8665 37.5752 32.1278C37.8507 32.3892 38.068 32.7287 38.2271 33.1463C38.3862 33.5611 38.4658 34.0653 38.4658 34.6591V35.1108H33.2627V34.1562H37.2172C37.2172 33.821 37.149 33.5241 37.0127 33.2656C36.8763 33.0043 36.6845 32.7983 36.4374 32.6477C36.193 32.4972 35.9061 32.4219 35.5766 32.4219C35.2186 32.4219 34.9061 32.5099 34.6391 32.6861C34.3749 32.8594 34.1703 33.0866 34.0254 33.3679C33.8834 33.6463 33.8124 33.9489 33.8124 34.2756V35.0213C33.8124 35.4588 33.8891 35.831 34.0425 36.1378C34.1987 36.4446 34.4161 36.679 34.6945 36.8409C34.9729 37 35.2982 37.0795 35.6703 37.0795C35.9118 37.0795 36.132 37.0455 36.3308 36.9773C36.5297 36.9062 36.7016 36.8011 36.8465 36.6619C36.9913 36.5227 37.1021 36.3509 37.1788 36.1463L38.3848 36.3636C38.2882 36.7187 38.1149 37.0298 37.8649 37.2969C37.6178 37.5611 37.3067 37.767 36.9317 37.9148C36.5595 38.0597 36.1348 38.1321 35.6575 38.1321ZM41.1536 34.1136V38H39.8795V31.4545H41.1025V32.5199H41.1835C41.334 32.1733 41.5698 31.8949 41.8908 31.6847C42.2147 31.4744 42.6224 31.3693 43.1139 31.3693C43.5599 31.3693 43.9505 31.4631 44.2857 31.6506C44.621 31.8352 44.8809 32.1108 45.0656 32.4773C45.2502 32.8437 45.3426 33.2969 45.3426 33.8366V38H44.0684V33.9901C44.0684 33.5156 43.9448 33.1449 43.6977 32.8778C43.4505 32.608 43.111 32.473 42.6792 32.473C42.3837 32.473 42.121 32.5369 41.8908 32.6648C41.6636 32.7926 41.4832 32.9801 41.3497 33.2273C41.219 33.4716 41.1536 33.767 41.1536 34.1136ZM51.1977 35.2855V31.4545H52.4761V38H51.2232V36.8665H51.1551C51.0045 37.2159 50.763 37.5071 50.4306 37.7401C50.1011 37.9702 49.6906 38.0852 49.1991 38.0852C48.7786 38.0852 48.4065 37.9929 48.0826 37.8082C47.7616 37.6207 47.5087 37.3438 47.3241 36.9773C47.1423 36.6108 47.0514 36.1577 47.0514 35.6179V31.4545H48.3255V35.4645C48.3255 35.9105 48.4491 36.2656 48.6962 36.5298C48.9434 36.794 49.2644 36.9261 49.6593 36.9261C49.8979 36.9261 50.1352 36.8665 50.371 36.7472C50.6096 36.6278 50.807 36.4474 50.9633 36.206C51.1224 35.9645 51.2005 35.6577 51.1977 35.2855ZM59.0929 33.0526L57.9381 33.2571C57.8898 33.1094 57.8131 32.9687 57.708 32.8352C57.6057 32.7017 57.4665 32.5923 57.2904 32.5071C57.1142 32.4219 56.894 32.3793 56.6298 32.3793C56.269 32.3793 55.9679 32.4602 55.7264 32.6222C55.485 32.7812 55.3642 32.9872 55.3642 33.2401C55.3642 33.4588 55.4452 33.6349 55.6071 33.7685C55.769 33.902 56.0304 34.0114 56.3912 34.0966L57.431 34.3352C58.0332 34.4744 58.4821 34.6889 58.7776 34.9787C59.073 35.2685 59.2207 35.6449 59.2207 36.108C59.2207 36.5 59.1071 36.8494 58.8798 37.1562C58.6554 37.4602 58.3415 37.6989 57.9381 37.8722C57.5375 38.0455 57.073 38.1321 56.5446 38.1321C55.8117 38.1321 55.2136 37.9759 54.7506 37.6634C54.2875 37.348 54.0034 36.9006 53.8983 36.321L55.1298 36.1335C55.2065 36.4545 55.3642 36.6974 55.6028 36.8622C55.8415 37.0241 56.1526 37.1051 56.5361 37.1051C56.9537 37.1051 57.2875 37.0185 57.5375 36.8452C57.7875 36.669 57.9125 36.4545 57.9125 36.2017C57.9125 35.9972 57.8358 35.8253 57.6824 35.6861C57.5318 35.5469 57.3003 35.4418 56.9878 35.3707L55.8798 35.1278C55.269 34.9886 54.8173 34.767 54.5247 34.4631C54.235 34.1591 54.0901 33.7741 54.0901 33.3082C54.0901 32.9219 54.198 32.5838 54.4139 32.294C54.6298 32.0043 54.9281 31.7784 55.3088 31.6165C55.6895 31.4517 56.1256 31.3693 56.6171 31.3693C57.3244 31.3693 57.8813 31.5227 58.2875 31.8295C58.6938 32.1335 58.9622 32.5412 59.0929 33.0526Z" fill="#6A6A6A"/>
<g opacity="0.32">
<path d="M125.013 72.9014L111.38 77.801C110.087 78.2658 108.75 78.596 107.389 78.7865L93.0881 80.7887L76.1061 83.7465L61.3017 86.7042L43.5921 89H31.3316L11.3516 90.5V136.5C62.4237 136.5 90.6038 136 141.676 136V66L125.013 72.9014Z" fill="url(#paint0_linear_1025_8081)"/>
<path d="M10.8979 91.5L30.4239 89.5H43.4344C44.4465 89.5 45.4573 89.4232 46.4578 89.2701L61.3021 87L76.1065 84L93.5426 81L109.436 78L125.013 73L141.676 66" stroke="#AFAFAF" stroke-width="1.5" stroke-linecap="round"/>
</g>
<defs>
<linearGradient id="paint0_linear_1025_8081" x1="28.4516" y1="-151" x2="28.4516" y2="130" gradientUnits="userSpaceOnUse">
<stop stop-color="#222222"/>
<stop offset="1" stop-color="#222222" stop-opacity="0"/>
</linearGradient>
</defs>
</svg>
