<svg xmlns="http://www.w3.org/2000/svg" width="10" height="9" viewBox="0 0 10 9" fill="none">
  <path d="M3.31481 6.59171L8.85185 0.957286C8.98654 0.819095 9.14364 0.75 9.32315 0.75C9.50278 0.75 9.66049 0.819095 9.7963 0.957286C9.9321 1.09548 10 1.25616 10 1.43932C10 1.62249 9.93451 1.78072 9.80352 1.91401L3.7963 8.04271C3.6616 8.1809 3.50451 8.25 3.325 8.25C3.14537 8.25 2.98765 8.1809 2.85185 8.04271L0.203704 5.34799C0.0679012 5.2098 0 5.04962 0 4.86746C0 4.6853 0.0679012 4.52513 0.203704 4.38693C0.339506 4.24874 0.497963 4.17965 0.679074 4.17965C0.860062 4.17965 1.01642 4.24874 1.14815 4.38693L3.31481 6.59171Z" fill="#1C1B1F"/>
</svg>