<svg width="1600" height="900"
  xmlns="http://www.w3.org/2000/svg" fill="none" viewBox="7 7 680 382.5">
  <g filter="url(#filter0_d_930_17835)">
    <rect x="7" y="7" width="680" height="382.5" rx="4" fill="#F9F9F9"/>
    <rect x="7.5" y="7.5" width="679" height="381.5" rx="3.5" stroke="#D2D7DE"/>
  </g>
  <path d="M342 191V177C342 175.9 341.1 175 340 175H326C324.9 175 324 175.9 324 177V191C324 192.1 324.9 193 326 193H340C341.1 193 342 192.1 342 191ZM329.9 185.98L332 188.51L335.1 184.52C335.3 184.26 335.7 184.26 335.9 184.53L339.41 189.21C339.66 189.54 339.42 190.01 339.01 190.01H327.02C326.6 190.01 326.37 189.53 326.63 189.2L329.12 186C329.31 185.74 329.69 185.73 329.9 185.98Z" fill="#99A5B6"/>
  <path d="M253.925 211.364C253.865 210.86 253.623 210.469 253.199 210.19C252.775 209.912 252.254 209.773 251.638 209.773C251.187 209.773 250.793 209.846 250.455 209.991C250.12 210.137 249.858 210.338 249.669 210.593C249.484 210.848 249.391 211.138 249.391 211.463C249.391 211.735 249.455 211.969 249.585 212.164C249.717 212.356 249.886 212.517 250.092 212.646C250.297 212.772 250.513 212.877 250.738 212.96C250.963 213.039 251.171 213.104 251.359 213.153L252.394 213.432C252.659 213.501 252.954 213.598 253.279 213.72C253.607 213.843 253.92 214.01 254.218 214.222C254.52 214.431 254.768 214.7 254.964 215.028C255.159 215.356 255.257 215.759 255.257 216.236C255.257 216.786 255.113 217.283 254.825 217.727C254.54 218.171 254.122 218.524 253.572 218.786C253.025 219.048 252.36 219.179 251.578 219.179C250.849 219.179 250.218 219.061 249.684 218.826C249.154 218.591 248.736 218.263 248.431 217.842C248.13 217.421 247.959 216.932 247.919 216.375H249.192C249.225 216.759 249.354 217.078 249.58 217.33C249.808 217.578 250.097 217.764 250.445 217.886C250.796 218.006 251.174 218.065 251.578 218.065C252.049 218.065 252.471 217.989 252.846 217.837C253.221 217.681 253.517 217.465 253.736 217.19C253.955 216.912 254.064 216.587 254.064 216.216C254.064 215.878 253.97 215.603 253.781 215.391C253.592 215.179 253.343 215.006 253.035 214.874C252.727 214.741 252.394 214.625 252.036 214.526L250.783 214.168C249.987 213.939 249.358 213.612 248.894 213.188C248.43 212.764 248.198 212.209 248.198 211.523C248.198 210.953 248.352 210.455 248.66 210.031C248.971 209.604 249.389 209.272 249.913 209.037C250.44 208.798 251.028 208.679 251.678 208.679C252.334 208.679 252.917 208.797 253.428 209.032C253.938 209.264 254.342 209.582 254.641 209.987C254.942 210.391 255.101 210.85 255.118 211.364H253.925ZM260.088 219.159C259.372 219.159 258.755 218.99 258.238 218.652C257.721 218.314 257.323 217.848 257.045 217.255C256.767 216.662 256.627 215.984 256.627 215.222C256.627 214.446 256.77 213.762 257.055 213.168C257.343 212.572 257.744 212.106 258.258 211.771C258.775 211.433 259.378 211.264 260.068 211.264C260.605 211.264 261.088 211.364 261.519 211.562C261.95 211.761 262.303 212.04 262.578 212.398C262.853 212.756 263.024 213.173 263.09 213.651H261.917C261.828 213.303 261.629 212.994 261.32 212.726C261.016 212.454 260.605 212.318 260.088 212.318C259.63 212.318 259.229 212.437 258.884 212.676C258.543 212.911 258.276 213.245 258.084 213.675C257.895 214.103 257.801 214.605 257.801 215.182C257.801 215.772 257.893 216.286 258.079 216.723C258.268 217.161 258.533 217.5 258.874 217.742C259.219 217.984 259.624 218.105 260.088 218.105C260.392 218.105 260.669 218.052 260.918 217.946C261.166 217.84 261.377 217.688 261.549 217.489C261.722 217.29 261.844 217.051 261.917 216.773H263.09C263.024 217.223 262.86 217.629 262.598 217.991C262.34 218.349 261.997 218.634 261.569 218.846C261.145 219.055 260.651 219.159 260.088 219.159ZM264.666 219V211.364H265.799V212.517H265.879C266.018 212.139 266.27 211.833 266.634 211.597C266.999 211.362 267.41 211.244 267.867 211.244C267.953 211.244 268.061 211.246 268.19 211.249C268.32 211.253 268.417 211.258 268.484 211.264V212.457C268.444 212.447 268.353 212.433 268.21 212.413C268.071 212.389 267.924 212.378 267.768 212.378C267.397 212.378 267.065 212.456 266.774 212.612C266.485 212.764 266.256 212.976 266.087 213.248C265.922 213.516 265.839 213.823 265.839 214.168V219H264.666ZM272.704 219.159C271.968 219.159 271.333 218.997 270.8 218.672C270.269 218.344 269.86 217.886 269.572 217.3C269.287 216.71 269.144 216.024 269.144 215.241C269.144 214.459 269.287 213.77 269.572 213.173C269.86 212.573 270.261 212.106 270.775 211.771C271.292 211.433 271.895 211.264 272.585 211.264C272.982 211.264 273.375 211.33 273.763 211.463C274.151 211.596 274.504 211.811 274.822 212.109C275.14 212.404 275.393 212.795 275.582 213.283C275.771 213.77 275.866 214.37 275.866 215.082V215.58H269.979V214.565H274.673C274.673 214.134 274.586 213.75 274.414 213.412C274.245 213.074 274.003 212.807 273.688 212.612C273.377 212.416 273.009 212.318 272.585 212.318C272.117 212.318 271.713 212.434 271.371 212.666C271.033 212.895 270.773 213.193 270.591 213.561C270.409 213.929 270.317 214.323 270.317 214.744V215.42C270.317 215.997 270.417 216.486 270.616 216.887C270.818 217.285 271.098 217.588 271.456 217.797C271.814 218.002 272.23 218.105 272.704 218.105C273.012 218.105 273.29 218.062 273.539 217.976C273.791 217.886 274.008 217.754 274.19 217.578C274.373 217.399 274.514 217.177 274.613 216.912L275.746 217.23C275.627 217.615 275.427 217.953 275.145 218.244C274.863 218.533 274.515 218.758 274.101 218.92C273.687 219.08 273.221 219.159 272.704 219.159ZM280.712 219.159C279.976 219.159 279.342 218.997 278.808 218.672C278.278 218.344 277.869 217.886 277.58 217.3C277.295 216.71 277.153 216.024 277.153 215.241C277.153 214.459 277.295 213.77 277.58 213.173C277.869 212.573 278.27 212.106 278.783 211.771C279.3 211.433 279.904 211.264 280.593 211.264C280.991 211.264 281.383 211.33 281.771 211.463C282.159 211.596 282.512 211.811 282.83 212.109C283.148 212.404 283.402 212.795 283.591 213.283C283.78 213.77 283.874 214.37 283.874 215.082V215.58H277.988V214.565H282.681C282.681 214.134 282.595 213.75 282.423 213.412C282.253 213.074 282.012 212.807 281.697 212.612C281.385 212.416 281.017 212.318 280.593 212.318C280.126 212.318 279.721 212.434 279.38 212.666C279.042 212.895 278.782 213.193 278.599 213.561C278.417 213.929 278.326 214.323 278.326 214.744V215.42C278.326 215.997 278.425 216.486 278.624 216.887C278.826 217.285 279.106 217.588 279.464 217.797C279.822 218.002 280.238 218.105 280.712 218.105C281.021 218.105 281.299 218.062 281.548 217.976C281.799 217.886 282.017 217.754 282.199 217.578C282.381 217.399 282.522 217.177 282.621 216.912L283.755 217.23C283.636 217.615 283.435 217.953 283.153 218.244C282.872 218.533 282.524 218.758 282.109 218.92C281.695 219.08 281.229 219.159 280.712 219.159ZM286.692 214.406V219H285.519V211.364H286.653V212.557H286.752C286.931 212.169 287.203 211.857 287.567 211.622C287.932 211.384 288.403 211.264 288.979 211.264C289.496 211.264 289.949 211.37 290.336 211.582C290.724 211.791 291.026 212.109 291.241 212.537C291.457 212.961 291.564 213.498 291.564 214.148V219H290.391V214.227C290.391 213.627 290.235 213.16 289.924 212.825C289.612 212.487 289.185 212.318 288.641 212.318C288.267 212.318 287.932 212.399 287.637 212.562C287.345 212.724 287.115 212.961 286.946 213.273C286.777 213.584 286.692 213.962 286.692 214.406ZM298.978 213.074L297.924 213.372C297.857 213.196 297.76 213.026 297.63 212.86C297.504 212.691 297.332 212.552 297.113 212.442C296.894 212.333 296.614 212.278 296.273 212.278C295.806 212.278 295.416 212.386 295.105 212.602C294.796 212.814 294.642 213.084 294.642 213.412C294.642 213.704 294.748 213.934 294.961 214.103C295.173 214.272 295.504 214.413 295.955 214.526L297.088 214.804C297.771 214.97 298.28 215.223 298.615 215.565C298.949 215.903 299.117 216.339 299.117 216.872C299.117 217.31 298.991 217.701 298.739 218.045C298.49 218.39 298.142 218.662 297.695 218.861C297.247 219.06 296.727 219.159 296.134 219.159C295.355 219.159 294.71 218.99 294.2 218.652C293.689 218.314 293.366 217.82 293.23 217.17L294.344 216.892C294.45 217.303 294.651 217.611 294.946 217.817C295.244 218.022 295.633 218.125 296.114 218.125C296.661 218.125 297.095 218.009 297.416 217.777C297.741 217.542 297.904 217.26 297.904 216.932C297.904 216.667 297.811 216.445 297.625 216.266C297.44 216.083 297.155 215.947 296.77 215.858L295.497 215.56C294.798 215.394 294.284 215.137 293.956 214.789C293.631 214.438 293.469 213.999 293.469 213.472C293.469 213.041 293.59 212.66 293.832 212.328C294.077 211.997 294.41 211.737 294.831 211.548C295.256 211.359 295.736 211.264 296.273 211.264C297.029 211.264 297.622 211.43 298.053 211.761C298.487 212.093 298.795 212.53 298.978 213.074ZM301.916 214.406V219H300.743V208.818H301.916V212.557H302.016C302.195 212.162 302.463 211.849 302.821 211.617C303.182 211.382 303.663 211.264 304.263 211.264C304.783 211.264 305.239 211.369 305.63 211.577C306.021 211.783 306.324 212.099 306.54 212.527C306.759 212.951 306.868 213.491 306.868 214.148V219H305.695V214.227C305.695 213.621 305.537 213.152 305.222 212.82C304.911 212.486 304.478 212.318 303.925 212.318C303.54 212.318 303.196 212.399 302.891 212.562C302.589 212.724 302.35 212.961 302.175 213.273C302.002 213.584 301.916 213.962 301.916 214.406ZM311.977 219.159C311.287 219.159 310.682 218.995 310.162 218.667C309.645 218.339 309.241 217.88 308.949 217.29C308.661 216.7 308.516 216.01 308.516 215.222C308.516 214.426 308.661 213.732 308.949 213.138C309.241 212.545 309.645 212.085 310.162 211.756C310.682 211.428 311.287 211.264 311.977 211.264C312.666 211.264 313.269 211.428 313.786 211.756C314.307 212.085 314.711 212.545 314.999 213.138C315.291 213.732 315.437 214.426 315.437 215.222C315.437 216.01 315.291 216.7 314.999 217.29C314.711 217.88 314.307 218.339 313.786 218.667C313.269 218.995 312.666 219.159 311.977 219.159ZM311.977 218.105C312.5 218.105 312.931 217.971 313.269 217.702C313.607 217.434 313.858 217.081 314.02 216.643C314.182 216.206 314.264 215.732 314.264 215.222C314.264 214.711 314.182 214.236 314.02 213.795C313.858 213.354 313.607 212.998 313.269 212.726C312.931 212.454 312.5 212.318 311.977 212.318C311.453 212.318 311.022 212.454 310.684 212.726C310.346 212.998 310.096 213.354 309.933 213.795C309.771 214.236 309.69 214.711 309.69 215.222C309.69 215.732 309.771 216.206 309.933 216.643C310.096 217.081 310.346 217.434 310.684 217.702C311.022 217.971 311.453 218.105 311.977 218.105ZM320.409 211.364V212.358H316.452V211.364H320.409ZM317.605 209.534H318.778V216.812C318.778 217.144 318.826 217.393 318.922 217.558C319.022 217.721 319.148 217.83 319.3 217.886C319.456 217.939 319.62 217.966 319.792 217.966C319.922 217.966 320.028 217.959 320.111 217.946C320.194 217.929 320.26 217.916 320.31 217.906L320.548 218.96C320.469 218.99 320.358 219.02 320.215 219.05C320.073 219.083 319.892 219.099 319.673 219.099C319.342 219.099 319.017 219.028 318.699 218.886C318.384 218.743 318.122 218.526 317.913 218.234C317.708 217.943 317.605 217.575 317.605 217.131V209.534ZM329.391 208.818V219H328.158V210.111H328.098L325.613 211.761V210.509L328.158 208.818H329.391ZM335.56 219.139C335.142 219.133 334.725 219.053 334.307 218.901C333.89 218.748 333.508 218.491 333.164 218.13C332.819 217.765 332.542 217.273 332.333 216.653C332.125 216.03 332.02 215.248 332.02 214.307C332.02 213.405 332.105 212.607 332.274 211.911C332.443 211.211 332.688 210.623 333.01 210.146C333.331 209.665 333.719 209.3 334.173 209.052C334.63 208.803 335.146 208.679 335.719 208.679C336.289 208.679 336.796 208.793 337.24 209.022C337.688 209.247 338.052 209.562 338.334 209.967C338.616 210.371 338.798 210.837 338.881 211.364H337.668C337.555 210.906 337.336 210.527 337.012 210.225C336.687 209.924 336.256 209.773 335.719 209.773C334.93 209.773 334.309 210.116 333.855 210.802C333.404 211.488 333.177 212.451 333.174 213.69H333.253C333.439 213.409 333.659 213.168 333.914 212.969C334.173 212.767 334.458 212.612 334.769 212.502C335.081 212.393 335.411 212.338 335.759 212.338C336.342 212.338 336.876 212.484 337.36 212.776C337.844 213.064 338.231 213.463 338.523 213.974C338.815 214.481 338.961 215.062 338.961 215.719C338.961 216.348 338.82 216.925 338.538 217.449C338.256 217.969 337.86 218.384 337.35 218.692C336.843 218.997 336.246 219.146 335.56 219.139ZM335.56 218.045C335.978 218.045 336.352 217.941 336.684 217.732C337.018 217.523 337.282 217.243 337.474 216.892C337.67 216.541 337.767 216.15 337.767 215.719C337.767 215.298 337.673 214.915 337.484 214.57C337.298 214.222 337.042 213.946 336.713 213.74C336.389 213.535 336.017 213.432 335.6 213.432C335.285 213.432 334.992 213.495 334.72 213.621C334.448 213.743 334.209 213.912 334.004 214.128C333.802 214.343 333.643 214.59 333.527 214.869C333.411 215.144 333.353 215.434 333.353 215.739C333.353 216.143 333.447 216.521 333.636 216.872C333.828 217.223 334.09 217.507 334.421 217.722C334.756 217.938 335.136 218.045 335.56 218.045ZM344.097 219.139C343.348 219.139 342.71 218.935 342.183 218.528C341.656 218.117 341.253 217.522 340.974 216.743C340.696 215.961 340.557 215.016 340.557 213.909C340.557 212.809 340.696 211.869 340.974 211.09C341.256 210.308 341.661 209.711 342.188 209.3C342.718 208.886 343.354 208.679 344.097 208.679C344.839 208.679 345.474 208.886 346.001 209.3C346.531 209.711 346.935 210.308 347.214 211.09C347.496 211.869 347.636 212.809 347.636 213.909C347.636 215.016 347.497 215.961 347.219 216.743C346.94 217.522 346.538 218.117 346.011 218.528C345.484 218.935 344.846 219.139 344.097 219.139ZM344.097 218.045C344.839 218.045 345.416 217.687 345.827 216.972C346.238 216.256 346.443 215.235 346.443 213.909C346.443 213.027 346.349 212.277 346.16 211.657C345.974 211.037 345.706 210.565 345.354 210.24C345.006 209.915 344.587 209.753 344.097 209.753C343.361 209.753 342.786 210.116 342.371 210.842C341.957 211.564 341.75 212.587 341.75 213.909C341.75 214.791 341.843 215.54 342.028 216.156C342.214 216.773 342.481 217.242 342.829 217.563C343.18 217.885 343.603 218.045 344.097 218.045ZM352.707 219.139C351.958 219.139 351.32 218.935 350.793 218.528C350.266 218.117 349.863 217.522 349.584 216.743C349.306 215.961 349.167 215.016 349.167 213.909C349.167 212.809 349.306 211.869 349.584 211.09C349.866 210.308 350.271 209.711 350.798 209.3C351.328 208.886 351.964 208.679 352.707 208.679C353.449 208.679 354.084 208.886 354.611 209.3C355.141 209.711 355.545 210.308 355.824 211.09C356.106 211.869 356.246 212.809 356.246 213.909C356.246 215.016 356.107 215.961 355.829 216.743C355.55 217.522 355.148 218.117 354.621 218.528C354.094 218.935 353.456 219.139 352.707 219.139ZM352.707 218.045C353.449 218.045 354.026 217.687 354.437 216.972C354.848 216.256 355.053 215.235 355.053 213.909C355.053 213.027 354.959 212.277 354.77 211.657C354.584 211.037 354.316 210.565 353.964 210.24C353.616 209.915 353.197 209.753 352.707 209.753C351.971 209.753 351.396 210.116 350.982 210.842C350.567 211.564 350.36 212.587 350.36 213.909C350.36 214.791 350.453 215.54 350.638 216.156C350.824 216.773 351.091 217.242 351.439 217.563C351.79 217.885 352.213 218.045 352.707 218.045ZM367.779 217.17L362.171 211.562L362.927 210.807L368.535 216.415L367.779 217.17ZM362.927 217.17L362.171 216.415L367.779 210.807L368.535 211.562L362.927 217.17ZM377.921 208.679C378.338 208.682 378.756 208.762 379.173 208.918C379.591 209.073 379.972 209.332 380.317 209.693C380.662 210.051 380.938 210.54 381.147 211.16C381.356 211.78 381.46 212.557 381.46 213.491C381.46 214.396 381.374 215.2 381.202 215.903C381.033 216.602 380.788 217.192 380.466 217.673C380.148 218.153 379.76 218.518 379.303 218.766C378.849 219.015 378.335 219.139 377.762 219.139C377.191 219.139 376.683 219.027 376.235 218.801C375.791 218.572 375.427 218.256 375.141 217.852C374.86 217.444 374.679 216.972 374.6 216.435H375.813C375.922 216.902 376.139 217.288 376.464 217.593C376.792 217.895 377.225 218.045 377.762 218.045C378.547 218.045 379.167 217.702 379.621 217.016C380.078 216.33 380.307 215.361 380.307 214.108H380.227C380.042 214.386 379.821 214.627 379.566 214.829C379.311 215.031 379.028 215.187 378.716 215.296C378.405 215.406 378.073 215.46 377.722 215.46C377.138 215.46 376.603 215.316 376.116 215.028C375.632 214.736 375.244 214.337 374.953 213.83C374.664 213.319 374.52 212.736 374.52 212.08C374.52 211.456 374.659 210.886 374.938 210.369C375.219 209.849 375.614 209.435 376.121 209.126C376.631 208.818 377.231 208.669 377.921 208.679ZM377.921 209.773C377.503 209.773 377.127 209.877 376.792 210.086C376.461 210.291 376.197 210.57 376.002 210.921C375.809 211.269 375.713 211.655 375.713 212.08C375.713 212.504 375.806 212.89 375.992 213.238C376.181 213.583 376.437 213.858 376.762 214.063C377.09 214.265 377.463 214.366 377.881 214.366C378.196 214.366 378.489 214.305 378.761 214.183C379.033 214.057 379.27 213.886 379.472 213.67C379.677 213.452 379.838 213.205 379.954 212.93C380.07 212.651 380.128 212.361 380.128 212.06C380.128 211.662 380.032 211.289 379.84 210.941C379.651 210.593 379.389 210.311 379.054 210.096C378.723 209.88 378.345 209.773 377.921 209.773ZM386.596 219.139C385.847 219.139 385.209 218.935 384.682 218.528C384.155 218.117 383.753 217.522 383.474 216.743C383.196 215.961 383.057 215.016 383.057 213.909C383.057 212.809 383.196 211.869 383.474 211.09C383.756 210.308 384.16 209.711 384.687 209.3C385.218 208.886 385.854 208.679 386.596 208.679C387.339 208.679 387.974 208.886 388.501 209.3C389.031 209.711 389.435 210.308 389.714 211.09C389.995 211.869 390.136 212.809 390.136 213.909C390.136 215.016 389.997 215.961 389.719 216.743C389.44 217.522 389.038 218.117 388.511 218.528C387.984 218.935 387.346 219.139 386.596 219.139ZM386.596 218.045C387.339 218.045 387.916 217.687 388.327 216.972C388.738 216.256 388.943 215.235 388.943 213.909C388.943 213.027 388.849 212.277 388.66 211.657C388.474 211.037 388.206 210.565 387.854 210.24C387.506 209.915 387.087 209.753 386.596 209.753C385.861 209.753 385.286 210.116 384.871 210.842C384.457 211.564 384.25 212.587 384.25 213.909C384.25 214.791 384.343 215.54 384.528 216.156C384.714 216.773 384.981 217.242 385.329 217.563C385.68 217.885 386.103 218.045 386.596 218.045ZM395.206 219.139C394.457 219.139 393.819 218.935 393.292 218.528C392.765 218.117 392.363 217.522 392.084 216.743C391.806 215.961 391.667 215.016 391.667 213.909C391.667 212.809 391.806 211.869 392.084 211.09C392.366 210.308 392.77 209.711 393.297 209.3C393.828 208.886 394.464 208.679 395.206 208.679C395.949 208.679 396.584 208.886 397.111 209.3C397.641 209.711 398.045 210.308 398.324 211.09C398.605 211.869 398.746 212.809 398.746 213.909C398.746 215.016 398.607 215.961 398.329 216.743C398.05 217.522 397.648 218.117 397.121 218.528C396.594 218.935 395.956 219.139 395.206 219.139ZM395.206 218.045C395.949 218.045 396.526 217.687 396.937 216.972C397.348 216.256 397.553 215.235 397.553 213.909C397.553 213.027 397.459 212.277 397.27 211.657C397.084 211.037 396.816 210.565 396.464 210.24C396.116 209.915 395.697 209.753 395.206 209.753C394.471 209.753 393.896 210.116 393.481 210.842C393.067 211.564 392.86 212.587 392.86 213.909C392.86 214.791 392.953 215.54 393.138 216.156C393.324 216.773 393.591 217.242 393.939 217.563C394.29 217.885 394.713 218.045 395.206 218.045ZM404.313 221.864V211.364H405.446V212.577H405.586C405.672 212.444 405.791 212.275 405.944 212.07C406.099 211.861 406.321 211.675 406.61 211.513C406.901 211.347 407.296 211.264 407.793 211.264C408.436 211.264 409.003 211.425 409.493 211.746C409.984 212.068 410.367 212.524 410.642 213.114C410.917 213.704 411.054 214.4 411.054 215.202C411.054 216.01 410.917 216.711 410.642 217.305C410.367 217.895 409.985 218.352 409.498 218.677C409.011 218.998 408.449 219.159 407.813 219.159C407.322 219.159 406.93 219.078 406.635 218.915C406.34 218.75 406.113 218.562 405.953 218.354C405.794 218.142 405.672 217.966 405.586 217.827H405.486V221.864H404.313ZM405.466 215.182C405.466 215.759 405.551 216.267 405.72 216.708C405.889 217.146 406.136 217.489 406.461 217.737C406.785 217.982 407.183 218.105 407.654 218.105C408.144 218.105 408.554 217.976 408.882 217.717C409.213 217.455 409.462 217.104 409.627 216.663C409.797 216.219 409.881 215.725 409.881 215.182C409.881 214.645 409.798 214.161 409.632 213.73C409.47 213.296 409.223 212.953 408.892 212.701C408.564 212.446 408.151 212.318 407.654 212.318C407.176 212.318 406.775 212.439 406.451 212.681C406.126 212.92 405.881 213.254 405.715 213.685C405.549 214.113 405.466 214.612 405.466 215.182ZM413.265 211.364L415.094 214.486L416.924 211.364H418.276L415.81 215.182L418.276 219H416.924L415.094 216.037L413.265 219H411.912L414.339 215.182L411.912 211.364H413.265Z" fill="#99A5B6"/>
</svg>
