<svg xmlns="http://www.w3.org/2000/svg" fill="none" viewBox="0.5 0.5 81 81">
<rect x="1" y="1" width="80" height="80" rx="2" fill="#F9F9F9" stroke="#D2D7DE"/>
<path d="M50.6004 48.4666V33.5332C50.6004 32.3599 49.6404 31.3999 48.4671 31.3999H33.5337C32.3604 31.3999 31.4004 32.3599 31.4004 33.5332V48.4666C31.4004 49.6399 32.3604 50.5999 33.5337 50.5999H48.4671C49.6404 50.5999 50.6004 49.6399 50.6004 48.4666ZM37.6937 43.1119L39.9337 45.8106L43.2404 41.5546C43.4537 41.2772 43.8804 41.2772 44.0937 41.5652L47.8377 46.5572C48.1044 46.9092 47.8484 47.4106 47.4111 47.4106H34.6217C34.1737 47.4106 33.9284 46.8986 34.2057 46.5466L36.8617 43.1332C37.0644 42.8559 37.4697 42.8452 37.6937 43.1119Z" fill="#99A5B6"/>
</svg>