<svg width="16" height="16" viewBox="0 0 16 16" fill="none" xmlns="http://www.w3.org/2000/svg">
<path d="M7.99325 1.33325C4.31325 1.33325 1.33325 4.31992 1.33325 7.99992C1.33325 11.6799 4.31325 14.6666 7.99325 14.6666C11.6799 14.6666 14.6666 11.6799 14.6666 7.99992C14.6666 4.31992 11.6799 1.33325 7.99325 1.33325ZM7.99992 13.3333C5.05325 13.3333 2.66659 10.9466 2.66659 7.99992C2.66659 5.05325 5.05325 2.66659 7.99992 2.66659C10.9466 2.66659 13.3333 5.05325 13.3333 7.99992C13.3333 10.9466 10.9466 13.3333 7.99992 13.3333ZM7.85325 4.66659H7.81325C7.54659 4.66659 7.33325 4.87992 7.33325 5.14659V8.29325C7.33325 8.52659 7.45325 8.74659 7.65992 8.86659L10.4266 10.5266C10.6533 10.6599 10.9466 10.5933 11.0799 10.3666C11.2199 10.1399 11.1466 9.83992 10.9133 9.70659L8.33325 8.17325V5.14659C8.33325 4.87992 8.11992 4.66659 7.85325 4.66659Z" fill="white"/>
</svg>
