<svg width="20" height="20" viewBox="0 0 20 20" fill="none" xmlns="http://www.w3.org/2000/svg">
<path d="M10 1.66669C5.40002 1.66669 1.66669 5.40002 1.66669 10C1.66669 14.6 5.40002 18.3334 10 18.3334C14.6 18.3334 18.3334 14.6 18.3334 10C18.3334 5.40002 14.6 1.66669 10 1.66669ZM10 10.8334C9.54169 10.8334 9.16669 10.4584 9.16669 10V6.66669C9.16669 6.20835 9.54169 5.83335 10 5.83335C10.4584 5.83335 10.8334 6.20835 10.8334 6.66669V10C10.8334 10.4584 10.4584 10.8334 10 10.8334ZM10.8334 14.1667H9.16669V12.5H10.8334V14.1667Z" fill="#F24F66"/>
</svg>
