<svg width="18" height="18" viewBox="0 0 18 18" fill="none" xmlns="http://www.w3.org/2000/svg">
<path d="M15.1918 9.81663C15.2251 9.54996 15.2501 9.28329 15.2501 8.99996C15.2501 8.71663 15.2251 8.44996 15.1918 8.18329L16.9501 6.80829C17.1084 6.68329 17.1501 6.45829 17.0501 6.27496L15.3834 3.39163C15.2834 3.20829 15.0584 3.14163 14.8751 3.20829L12.8001 4.04163C12.3668 3.70829 11.9001 3.43329 11.3918 3.22496L11.0751 1.01663C11.0501 0.816626 10.8751 0.666626 10.6668 0.666626H7.33344C7.12511 0.666626 6.95011 0.816626 6.92511 1.01663L6.60844 3.22496C6.10011 3.43329 5.63344 3.71663 5.20011 4.04163L3.12511 3.20829C2.93344 3.13329 2.71678 3.20829 2.61678 3.39163L0.95011 6.27496C0.841777 6.45829 0.891777 6.68329 1.05011 6.80829L2.80844 8.18329C2.77511 8.44996 2.75011 8.72496 2.75011 8.99996C2.75011 9.27496 2.77511 9.54996 2.80844 9.81663L1.05011 11.1916C0.891777 11.3166 0.85011 11.5416 0.95011 11.725L2.61678 14.6083C2.71678 14.7916 2.94178 14.8583 3.12511 14.7916L5.20011 13.9583C5.63344 14.2916 6.10011 14.5666 6.60844 14.775L6.92511 16.9833C6.95011 17.1833 7.12511 17.3333 7.33344 17.3333H10.6668C10.8751 17.3333 11.0501 17.1833 11.0751 16.9833L11.3918 14.775C11.9001 14.5666 12.3668 14.2833 12.8001 13.9583L14.8751 14.7916C15.0668 14.8666 15.2834 14.7916 15.3834 14.6083L17.0501 11.725C17.1501 11.5416 17.1084 11.3166 16.9501 11.1916L15.1918 9.81663ZM9.00011 11.9166C7.39178 11.9166 6.08344 10.6083 6.08344 8.99996C6.08344 7.39163 7.39178 6.08329 9.00011 6.08329C10.6084 6.08329 11.9168 7.39163 11.9168 8.99996C11.9168 10.6083 10.6084 11.9166 9.00011 11.9166Z" fill="#1D365C"/>
</svg>
