<svg width="82" height="82" viewBox="0 0 82 82" fill="none" xmlns="http://www.w3.org/2000/svg">
    <rect width="82" height="82" fill="#EEEEEE"/>
    <g filter="url(#filter0_d_1036_89657)">
        <rect width="82" height="82" rx="4" fill="#F9F9F9"/>
    </g>
    <path d="M61.6249 34.5208L59.4374 25.4167C58.9791 23.5417 57.3541 22.25 55.4582 22.25H50.8541H46.6666H43.0832H38.9166H35.3332H31.1249H26.5207C24.6457 22.25 22.9999 23.5625 22.5624 25.4167L20.3749 34.5208C19.8749 36.6458 20.3332 38.8125 21.6666 40.5208C21.8332 40.75 22.0624 40.9167 22.2499 41.125V55.5833C22.2499 57.875 24.1249 59.75 26.4166 59.75H55.5832C57.8749 59.75 59.7499 57.875 59.7499 55.5833V41.125C59.9374 40.9375 60.1666 40.75 60.3332 40.5417C61.6666 38.8333 62.1457 36.6458 61.6249 34.5208ZM30.6249 26.4167L29.4166 36.5417C29.2499 37.8958 28.1666 38.9167 26.8957 38.9167C25.8749 38.9167 25.2291 38.3125 24.9582 37.9375C24.4166 37.25 24.2291 36.3542 24.4374 35.5L26.5207 26.4167H30.6249ZM55.3957 26.3958L57.5832 35.5C57.7916 36.375 57.6041 37.25 57.0624 37.9375C56.7707 38.3125 56.1457 38.9167 55.1041 38.9167C53.8332 38.9167 52.7291 37.8958 52.5832 36.5417L51.3749 26.4167L55.3957 26.3958ZM48.3124 35.8333C48.4166 36.6458 48.1666 37.4583 47.6249 38.0625C47.1457 38.6042 46.4791 38.9167 45.6249 38.9167C44.2291 38.9167 43.0832 37.6875 43.0832 36.1875V26.4167H47.1666L48.3124 35.8333ZM38.9166 36.1875C38.9166 37.6875 37.7707 38.9167 36.2291 38.9167C35.5207 38.9167 34.8749 38.6042 34.3749 38.0625C33.8541 37.4583 33.6041 36.6458 33.6874 35.8333L34.8332 26.4167H38.9166V36.1875ZM53.4999 55.5833H28.4999C27.3541 55.5833 26.4166 54.6458 26.4166 53.5V43.0208C26.5832 43.0417 26.7291 43.0833 26.8957 43.0833C28.7082 43.0833 30.3541 42.3333 31.5624 41.1042C32.8124 42.3542 34.4791 43.0833 36.3749 43.0833C38.1874 43.0833 39.8124 42.3333 41.0207 41.1458C42.2499 42.3333 43.9166 43.0833 45.7916 43.0833C47.5416 43.0833 49.2082 42.3542 50.4582 41.1042C51.6666 42.3333 53.3124 43.0833 55.1249 43.0833C55.2916 43.0833 55.4374 43.0417 55.6041 43.0208V53.5C55.5832 54.6458 54.6457 55.5833 53.4999 55.5833Z" fill="#AFAFAF"/>
    <defs>
        <filter id="filter0_d_1036_89657" x="-12" y="-12" width="114" height="114" filterUnits="userSpaceOnUse" color-interpolation-filters="sRGB">
            <feFlood flood-opacity="0" result="BackgroundImageFix"/>
            <feColorMatrix in="SourceAlpha" type="matrix" values="0 0 0 0 0 0 0 0 0 0 0 0 0 0 0 0 0 0 127 0" result="hardAlpha"/>
            <feOffset dx="4" dy="4"/>
            <feGaussianBlur stdDeviation="8"/>
            <feColorMatrix type="matrix" values="0 0 0 0 0.0862745 0 0 0 0 0.0862745 0 0 0 0 0.0862745 0 0 0 0.1 0"/>
            <feBlend mode="normal" in2="BackgroundImageFix" result="effect1_dropShadow_1036_89657"/>
            <feBlend mode="normal" in="SourceGraphic" in2="effect1_dropShadow_1036_89657" result="shape"/>
        </filter>
    </defs>
</svg>
