<svg xmlns="http://www.w3.org/2000/svg" width="20" height="20" viewBox="0 0 20 20" fill="none">
  <path d="M2.5013 10.8333H11.8096L7.74297 14.9C7.41797 15.225 7.41797 15.7583 7.74297 16.0833C8.06797 16.4083 8.59297 16.4083 8.91797 16.0833L14.4096 10.5916C14.7346 10.2666 14.7346 9.74163 14.4096 9.41663L8.9263 3.91663C8.6013 3.59163 8.0763 3.59163 7.7513 3.91663C7.4263 4.24163 7.4263 4.76663 7.7513 5.09163L11.8096 9.16663H2.5013C2.04297 9.16663 1.66797 9.54163 1.66797 9.99996C1.66797 10.4583 2.04297 10.8333 2.5013 10.8333Z" fill="#6A6A6A"/>
  <path d="M17.5013 1.66663C17.9615 1.66663 18.3346 2.03972 18.3346 2.49996V17.5C18.3346 17.9602 17.9615 18.3333 17.5013 18.3333C17.0411 18.3333 16.668 17.9602 16.668 17.5V2.49996C16.668 2.03972 17.0411 1.66663 17.5013 1.66663Z" fill="#6A6A6A"/>
</svg>
