<svg viewBox="0 0 344 180" fill="none" xmlns="http://www.w3.org/2000/svg">
    <rect x="0.5" y="0.5" width="343" height="179" rx="3.5" fill="#F9F9F9" stroke="#D2D7DE" />
    <rect x="103.5" y="14.5" width="137" height="151" rx="3.5" fill="white" />
    <rect x="111" y="22" width="122" height="7" rx="2" fill="#D2D7DE" />
    <rect x="111" y="33" width="122" height="35" rx="2" fill="#8088D6" />
    <rect x="111" y="72" width="60" height="25" rx="2" fill="#D2D7DE" />
    <rect x="175" y="72" width="58" height="1" fill="#D2D7DE" />
    <rect x="175" y="74" width="58" height="1" fill="#D2D7DE" />
    <rect x="175" y="76" width="58" height="1" fill="#D2D7DE" />
    <rect x="175" y="78" width="58" height="1" fill="#D2D7DE" />
    <rect x="175" y="80" width="58" height="1" fill="#D2D7DE" />
    <rect x="175" y="82" width="58" height="1" fill="#D2D7DE" />
    <rect x="175" y="84" width="58" height="1" fill="#D2D7DE" />
    <rect x="175" y="86" width="58" height="1" fill="#D2D7DE" />
    <rect x="175" y="88" width="58" height="1" fill="#D2D7DE" />
    <rect x="175" y="90" width="58" height="1" fill="#D2D7DE" />
    <rect x="175" y="92" width="58" height="1" fill="#D2D7DE" />
    <rect x="175" y="94" width="58" height="1" fill="#D2D7DE" />
    <rect x="175" y="96" width="58" height="1" fill="#D2D7DE" />
    <rect x="111" y="101" width="76" height="40" rx="2" fill="#D2D7DE" />
    <rect x="191" y="101" width="42" height="40" rx="2" fill="#D2D7DE" />
    <rect x="111" y="145" width="104" height="13" rx="2" fill="#D2D7DE" />
    <rect x="219" y="145" width="14" height="13" rx="2" fill="#D2D7DE" />
    <rect x="103.5" y="14.5" width="137" height="151" rx="3.5" stroke="#99A5B6" />
</svg>