<svg viewBox="0 0 344 180" fill="none" xmlns="http://www.w3.org/2000/svg">
    <rect x="0.5" y="0.5" width="343" height="179" rx="3.5" fill="#F9F9F9" stroke="#D2D7DE" />
    <rect x="103.5" y="14.5" width="137" height="151" rx="3.5" fill="white" />
    <rect x="111" y="22" width="122" height="7" rx="2" fill="#D2D7DE" />
    <rect x="111" y="33" width="60" height="25" rx="2" fill="#D2D7DE" />
    <rect x="175" y="33" width="58" height="1" fill="#D2D7DE" />
    <rect x="175" y="35" width="58" height="1" fill="#D2D7DE" />
    <rect x="175" y="37" width="58" height="1" fill="#D2D7DE" />
    <rect x="175" y="39" width="58" height="1" fill="#D2D7DE" />
    <rect x="175" y="41" width="58" height="1" fill="#D2D7DE" />
    <rect x="175" y="43" width="58" height="1" fill="#D2D7DE" />
    <rect x="175" y="45" width="58" height="1" fill="#D2D7DE" />
    <rect x="175" y="47" width="58" height="1" fill="#D2D7DE" />
    <rect x="175" y="49" width="58" height="1" fill="#D2D7DE" />
    <rect x="175" y="51" width="58" height="1" fill="#D2D7DE" />
    <rect x="175" y="53" width="58" height="1" fill="#D2D7DE" />
    <rect x="175" y="55" width="58" height="1" fill="#D2D7DE" />
    <rect x="175" y="57" width="58" height="1" fill="#D2D7DE" />
    <rect x="111" y="62" width="76" height="40" rx="2" fill="#D2D7DE" />
    <rect x="191" y="62" width="42" height="40" rx="2" fill="#D2D7DE" />
    <rect x="111" y="106" width="122" height="35" rx="2" fill="#8088D6" />
    <rect x="111" y="145" width="104" height="13" rx="2" fill="#D2D7DE" />
    <rect x="219" y="145" width="14" height="13" rx="2" fill="#D2D7DE" />
    <rect x="103.5" y="14.5" width="137" height="151" rx="3.5" stroke="#99A5B6" />
</svg>