<svg width="16" height="16" viewBox="0 0 16 16" fill="none" xmlns="http://www.w3.org/2000/svg">
<path d="M16 8C16 12.4183 12.4183 16 8 16C3.58172 16 0 12.4183 0 8C0 3.58172 3.58172 0 8 0C12.4183 0 16 3.58172 16 8ZM2.2763 8C2.2763 11.1611 4.83889 13.7237 8 13.7237C11.1611 13.7237 13.7237 11.1611 13.7237 8C13.7237 4.83889 11.1611 2.2763 8 2.2763C4.83889 2.2763 2.2763 4.83889 2.2763 8Z" fill="#EBECEF"/>
<path d="M16 8C16 12.4183 12.4183 16 8 16C3.58172 16 0 12.4183 0 8C0 3.58172 3.58172 0 8 0C12.4183 0 16 3.58172 16 8ZM2.26951 8C2.26951 11.1649 4.83514 13.7305 8 13.7305C11.1649 13.7305 13.7305 11.1649 13.7305 8C13.7305 4.83514 11.1649 2.26951 8 2.26951C4.83514 2.26951 2.26951 4.83514 2.26951 8Z" fill="#0D6CF2"/>
</svg>
