<svg width="16" height="16" viewBox="0 0 16 16" fill="none" xmlns="http://www.w3.org/2000/svg">
<path d="M16 8C16 12.4183 12.4183 16 8 16C3.58172 16 0 12.4183 0 8C0 3.58172 3.58172 0 8 0C12.4183 0 16 3.58172 16 8ZM2.2763 8C2.2763 11.1611 4.83889 13.7237 8 13.7237C11.1611 13.7237 13.7237 11.1611 13.7237 8C13.7237 4.83889 11.1611 2.2763 8 2.2763C4.83889 2.2763 2.2763 4.83889 2.2763 8Z" fill="#EBECEF"/>
<path d="M8 1.13476C8 0.508047 8.51056 -0.00825567 9.13097 0.0803447C10.1373 0.224053 11.1105 0.558763 11.9971 1.0701C13.2125 1.77116 14.2222 2.77957 14.9248 3.99413C15.6274 5.2087 15.9982 6.58669 16 7.98984C16.0018 9.39298 15.6345 10.7719 14.935 11.9883C14.2355 13.2046 13.2283 14.2156 12.0147 14.9197C10.801 15.6239 9.42346 15.9964 8.02032 16C6.61718 16.0035 5.23778 15.638 4.02055 14.94C3.13272 14.4309 2.35394 13.7581 1.72363 12.9606C1.33503 12.4689 1.5245 11.7679 2.06619 11.4527C2.60787 11.1376 3.29517 11.331 3.71077 11.8001C4.1219 12.2642 4.6073 12.6603 5.14948 12.9712C6.02139 13.4712 7.00947 13.733 8.01456 13.7305C9.01964 13.7279 10.0064 13.4611 10.8757 12.9567C11.7451 12.4523 12.4665 11.7281 12.9676 10.8568C13.4687 9.98555 13.7318 8.99781 13.7305 7.99272C13.7292 6.98763 13.4636 6.00056 12.9603 5.13055C12.457 4.26055 11.7338 3.53821 10.8631 3.03604C10.3218 2.72377 9.73522 2.50347 9.12737 2.3815C8.51291 2.2582 8 1.76146 8 1.13476Z" fill="#0D6CF2"/>
</svg>
