<svg width="16" height="16" viewBox="0 0 16 16" fill="none" xmlns="http://www.w3.org/2000/svg">
<path d="M16 8C16 12.4183 12.4183 16 8 16C3.58172 16 0 12.4183 0 8C0 3.58172 3.58172 0 8 0C12.4183 0 16 3.58172 16 8ZM2.2763 8C2.2763 11.1611 4.83889 13.7237 8 13.7237C11.1611 13.7237 13.7237 11.1611 13.7237 8C13.7237 4.83889 11.1611 2.2763 8 2.2763C4.83889 2.2763 2.2763 4.83889 2.2763 8Z" fill="#EBECEF"/>
<path d="M8 1.13476C8 0.508047 8.51056 -0.00825567 9.13097 0.0803447C10.1376 0.224093 11.1111 0.55895 11.9978 1.07053C13.2134 1.77186 14.2232 2.78064 14.9257 3.99561C15.6282 5.21057 15.9987 6.58896 16 7.99239C16.001 9.01611 15.8055 10.0269 15.4279 10.971C15.1951 11.5528 14.493 11.7377 13.9498 11.4251C13.4067 11.1124 13.2321 10.4201 13.4318 9.82604C13.6294 9.23819 13.7311 8.61974 13.7305 7.99455C13.7295 6.98926 13.4641 6.0019 12.9609 5.13161C12.4577 4.26132 11.7344 3.53871 10.8637 3.03634C10.3221 2.72392 9.73542 2.50351 9.12737 2.3815C8.51291 2.2582 8 1.76146 8 1.13476Z" fill="#0D6CF2"/>
</svg>
