<svg width="16" height="16" viewBox="0 0 16 16" fill="none" xmlns="http://www.w3.org/2000/svg">
<path d="M7.99999 14.6665C8.73332 14.6665 9.33332 14.0665 9.33332 13.3332H6.66666C6.66666 14.0665 7.26666 14.6665 7.99999 14.6665ZM12 10.6665V7.33317C12 5.2865 10.9133 3.57317 8.99999 3.11984V2.6665C8.99999 2.11317 8.55332 1.6665 7.99999 1.6665C7.44666 1.6665 6.99999 2.11317 6.99999 2.6665V3.11984C5.09332 3.57317 3.99999 5.27984 3.99999 7.33317V10.6665L2.66666 11.9998V12.6665H13.3333V11.9998L12 10.6665ZM10.6667 11.3332H5.33332V7.33317C5.33332 5.67984 6.33999 4.33317 7.99999 4.33317C9.65999 4.33317 10.6667 5.67984 10.6667 7.33317V11.3332Z" fill="#222222"/>
</svg>
