<svg width="50" height="8" viewBox="0 0 50 8" fill="none" xmlns="http://www.w3.org/2000/svg">
<path d="M0.646447 3.64645C0.451184 3.84171 0.451184 4.15829 0.646447 4.35355L3.82843 7.53553C4.02369 7.7308 4.34027 7.7308 4.53553 7.53553C4.7308 7.34027 4.7308 7.02369 4.53553 6.82843L1.70711 4L4.53553 1.17157C4.7308 0.97631 4.7308 0.659728 4.53553 0.464466C4.34027 0.269204 4.02369 0.269204 3.82843 0.464466L0.646447 3.64645ZM49.3536 4.35355C49.5488 4.15829 49.5488 3.8417 49.3536 3.64644L46.1716 0.464462C45.9763 0.2692 45.6597 0.2692 45.4645 0.464462C45.2692 0.659724 45.2692 0.976307 45.4645 1.17157L48.2929 4L45.4645 6.82842C45.2692 7.02369 45.2692 7.34027 45.4645 7.53553C45.6597 7.73079 45.9763 7.73079 46.1716 7.53553L49.3536 4.35355ZM1 4.5L49 4.5L49 3.5L1 3.5L1 4.5Z" fill="#99A5B6"/>
</svg>
