<svg width="14" height="14" viewBox="0 0 14 14" fill="none" xmlns="http://www.w3.org/2000/svg">
<g id="person_add">
<path id="Vector" d="M8.74992 7C10.0391 7 11.0833 5.95583 11.0833 4.66666C11.0833 3.37749 10.0391 2.33333 8.74992 2.33333C7.46075 2.33333 6.41659 3.37749 6.41659 4.66666C6.41659 5.95583 7.46075 7 8.74992 7ZM3.49992 5.83333V4.66666C3.49992 4.34583 3.23742 4.08333 2.91659 4.08333C2.59575 4.08333 2.33325 4.34583 2.33325 4.66666V5.83333H1.16659C0.845752 5.83333 0.583252 6.09583 0.583252 6.41666C0.583252 6.7375 0.845752 7 1.16659 7H2.33325V8.16666C2.33325 8.4875 2.59575 8.75 2.91659 8.75C3.23742 8.75 3.49992 8.4875 3.49992 8.16666V7H4.66659C4.98742 7 5.24992 6.7375 5.24992 6.41666C5.24992 6.09583 4.98742 5.83333 4.66659 5.83333H3.49992ZM8.74992 8.16666C7.19242 8.16666 4.08325 8.94833 4.08325 10.5V11.0833C4.08325 11.4042 4.34575 11.6667 4.66659 11.6667H12.8333C13.1541 11.6667 13.4166 11.4042 13.4166 11.0833V10.5C13.4166 8.94833 10.3074 8.16666 8.74992 8.16666Z" fill="white"/>
</g>
</svg>
