<svg width="16" height="13" viewBox="0 0 16 13" fill="none"
    xmlns="http://www.w3.org/2000/svg">
    <path d="M7.58666 12.6267L11.2733 8.93333C11.52 8.68667 11.66 8.34667 11.66 7.99333V1.33333C11.66 0.6 11.06 0 10.3267 0H4.33333C3.79999 0 3.31999 0.32 3.11333 0.806667L0.939994 5.88C0.373327 7.2 1.33999 8.66667 2.77333 8.66667H6.53999L5.90666 11.72C5.83999 12.0533 5.93999 12.3933 6.17999 12.6333C6.57333 13.02 7.19999 13.02 7.58666 12.6267ZM14.3333 0C13.6 0 13 0.6 13 1.33333V6.66667C13 7.4 13.6 8 14.3333 8C15.0667 8 15.6667 7.4 15.6667 6.66667V1.33333C15.6667 0.6 15.0667 0 14.3333 0Z" fill="#556885"/>
</svg>
