<svg width="12" height="11" viewBox="0 0 12 11" fill="none"
    xmlns="http://www.w3.org/2000/svg">
    <path d="M6.56 1.03047L3.79 3.80047C3.605 3.98547 3.5 4.24047 3.5 4.50547V9.50047C3.5 10.0505 3.95 10.5005 4.5 10.5005H9C9.4 10.5005 9.76 10.2605 9.92 9.89547L11.55 6.09047C11.97 5.10047 11.245 4.00047 10.17 4.00047H7.345L7.82 1.71047C7.87 1.46047 7.795 1.20547 7.615 1.02547C7.32 0.735473 6.85 0.735473 6.56 1.03047ZM1.5 10.5005C2.05 10.5005 2.5 10.0505 2.5 9.50047V5.50047C2.5 4.95047 2.05 4.50047 1.5 4.50047C0.95 4.50047 0.5 4.95047 0.5 5.50047V9.50047C0.5 10.0505 0.95 10.5005 1.5 10.5005Z" fill="white"/>
</svg>
