<svg width="14" height="14" viewBox="0 0 14 14" fill="none"
    xmlns="http://www.w3.org/2000/svg">
    <path d="M6.99337 0.333008C3.31337 0.333008 0.333374 3.31967 0.333374 6.99967C0.333374 10.6797 3.31337 13.6663 6.99337 13.6663C10.68 13.6663 13.6667 10.6797 13.6667 6.99967C13.6667 3.31967 10.68 0.333008 6.99337 0.333008ZM9.14671 10.593L7.00004 9.29967L4.85337 10.593C4.60004 10.7463 4.28671 10.5197 4.35337 10.233L4.92004 7.79301L3.03337 6.15967C2.81337 5.96634 2.93337 5.59967 3.22671 5.57301L5.72004 5.35967L6.69337 3.05967C6.80671 2.78634 7.19337 2.78634 7.30671 3.05967L8.28004 5.35301L10.7734 5.56634C11.0667 5.59301 11.1867 5.95967 10.96 6.15301L9.07337 7.78634L9.64004 10.233C9.70671 10.5197 9.40004 10.7463 9.14671 10.593V10.593Z" fill="#556885" />
</svg>