<svg width="11" height="12" viewBox="0 0 11 12" fill="none" xmlns="http://www.w3.org/2000/svg">
<path d="M9.2666 2.23333C8.17993 1.14667 6.63993 0.52 4.9466 0.693333C2.49993 0.94 0.4866 2.92667 0.213266 5.37333C-0.153401 8.60667 2.3466 11.3333 5.49993 11.3333C7.6266 11.3333 9.45327 10.0867 10.3066 8.29333C10.5199 7.84667 10.1999 7.33333 9.7066 7.33333C9.45993 7.33333 9.2266 7.46667 9.11993 7.68667C8.3666 9.30667 6.55993 10.3333 4.5866 9.89333C3.1066 9.56667 1.91327 8.36 1.59993 6.88C1.03993 4.29333 3.0066 2 5.49993 2C6.6066 2 7.59327 2.46 8.31327 3.18667L7.3066 4.19333C6.8866 4.61333 7.17993 5.33333 7.77327 5.33333H10.1666C10.5333 5.33333 10.8333 5.03333 10.8333 4.66667V2.27333C10.8333 1.68 10.1133 1.38 9.69327 1.8L9.2666 2.23333Z" fill="#4A8DF9"/>
</svg>
