<svg width="24" height="22" viewBox="0 0 24 22" fill="none" xmlns="http://www.w3.org/2000/svg">
<path fill-rule="evenodd" clip-rule="evenodd" d="M3.67907 1.84998C3.64647 1.84998 3.61476 1.86059 3.58874 1.88022C3.56271 1.89985 3.54379 1.92743 3.53484 1.95877L2.19449 6.64998H21.8059L20.4656 1.95877C20.4566 1.92742 20.4377 1.89985 20.4117 1.88022C20.3856 1.86059 20.3539 1.84998 20.3213 1.84998H3.67907ZM22.0502 8.14998H16.3502V9.19998C16.3502 9.95584 16.6505 10.6808 17.1849 11.2152C17.7194 11.7497 18.4443 12.05 19.2002 12.05C19.6665 12.05 20.121 11.9357 20.5263 11.7227C20.5875 11.6727 20.6568 11.6322 20.7318 11.6034C20.9053 11.4929 21.0677 11.363 21.2155 11.2152C21.7499 10.6808 22.0502 9.95584 22.0502 9.19998V8.14998ZM21.7502 12.7242C21.936 12.5898 22.1119 12.4401 22.2761 12.2759C23.0919 11.4601 23.5502 10.3537 23.5502 9.19998V7.39998C23.5502 7.33029 23.5405 7.26094 23.5213 7.19393L21.9078 1.54669C21.8093 1.20192 21.6012 0.898627 21.3149 0.682701C21.0287 0.466777 20.6799 0.349976 20.3213 0.349976H3.67907C3.3205 0.349976 2.9717 0.466777 2.68544 0.682701C2.39919 0.898625 2.19106 1.20192 2.09255 1.54669L0.479052 7.19393C0.459908 7.26094 0.450195 7.33029 0.450195 7.39998V9.19998C0.450195 10.3537 0.908498 11.4601 1.72428 12.2759C1.88847 12.4401 2.06444 12.5898 2.2502 12.7242V20.0002C2.2502 20.4378 2.42403 20.8574 2.73347 21.1669C3.04291 21.4763 3.46259 21.6502 3.9002 21.6502H20.1002C20.5378 21.6502 20.9575 21.4763 21.2669 21.1669C21.5764 20.8574 21.7502 20.4378 21.7502 20.0002V12.7242ZM20.2502 13.4214C19.9095 13.5061 19.5571 13.55 19.2002 13.55C18.0465 13.55 16.9401 13.0917 16.1243 12.2759C15.9285 12.0801 15.7534 11.8677 15.6002 11.6418C15.447 11.8677 15.2719 12.0801 15.0761 12.2759C14.2603 13.0917 13.1539 13.55 12.0002 13.55C10.8465 13.55 9.74006 13.0917 8.92428 12.2759C8.72854 12.0801 8.55338 11.8677 8.4002 11.6418C8.24701 11.8677 8.07185 12.0801 7.87611 12.2759C7.06033 13.0917 5.95389 13.55 4.8002 13.55C4.44327 13.55 4.09087 13.5061 3.7502 13.4214V20.0002C3.7502 20.0399 3.766 20.0781 3.79413 20.1062C3.82226 20.1343 3.86041 20.1502 3.9002 20.1502H20.1002C20.14 20.1502 20.1781 20.1343 20.2063 20.1062C20.2344 20.0781 20.2502 20.0399 20.2502 20.0002V13.4214ZM3.47473 11.723C3.87986 11.9358 4.33414 12.05 4.8002 12.05C5.55606 12.05 6.28097 11.7497 6.81545 11.2152C7.34993 10.6808 7.6502 9.95584 7.6502 9.19998V8.14998H1.9502V9.19998C1.9502 9.95584 2.25046 10.6808 2.78494 11.2152C2.93252 11.3628 3.09461 11.4925 3.26787 11.603C3.34345 11.6319 3.41317 11.6726 3.47473 11.723ZM9.1502 8.14998V9.19998C9.1502 9.95584 9.45046 10.6808 9.98494 11.2152C10.5194 11.7497 11.2443 12.05 12.0002 12.05C12.7561 12.05 13.481 11.7497 14.0155 11.2152C14.5499 10.6808 14.8502 9.95584 14.8502 9.19998V8.14998H9.1502Z" fill="#4A8DF9"/>
</svg>
