<svg width="20" height="20" viewBox="0 0 20 20" fill="none" xmlns="http://www.w3.org/2000/svg">
<path d="M10 1.66669C5.40001 1.66669 1.66667 5.40002 1.66667 10C1.66667 14.6 5.40001 18.3334 10 18.3334C14.6 18.3334 18.3333 14.6 18.3333 10C18.3333 5.40002 14.6 1.66669 10 1.66669ZM7.74167 13.575L4.75001 10.5834C4.425 10.2584 4.425 9.73335 4.75001 9.40835C5.07501 9.08335 5.60001 9.08335 5.92501 9.40835L8.33334 11.8084L14.0667 6.07502C14.3917 5.75002 14.9167 5.75002 15.2417 6.07502C15.5667 6.40002 15.5667 6.92502 15.2417 7.25002L8.91667 13.575C8.60001 13.9 8.06667 13.9 7.74167 13.575Z" fill="#24D69D"/>
</svg>
