<svg width="20" height="20" viewBox="0 0 20 20" fill="none" xmlns="http://www.w3.org/2000/svg">
<path d="M2.27494 17.5H17.7166C18.3583 17.5 18.7583 16.8083 18.4416 16.25L10.7166 2.91667C10.3916 2.35834 9.5916 2.35834 9.27494 2.91667L1.54994 16.25C1.23327 16.8083 1.63327 17.5 2.27494 17.5ZM10.8333 15H9.1666V13.3333H10.8333V15ZM9.99994 11.6667C9.5416 11.6667 9.1666 11.2917 9.1666 10.8333V9.16667C9.1666 8.70834 9.5416 8.33334 9.99994 8.33334C10.4583 8.33334 10.8333 8.70834 10.8333 9.16667V10.8333C10.8333 11.2917 10.4583 11.6667 9.99994 11.6667Z" fill="#FD9B5A"/>
</svg>
