<svg width="24" height="24" viewBox="0 0 24 24" fill="none" xmlns="http://www.w3.org/2000/svg">
<path fill-rule="evenodd" clip-rule="evenodd" d="M16.904 1.91067C15.9836 1.70408 15.0242 1.70079 14.094 1.90704C12.7838 2.19755 11.5968 2.88929 10.6983 3.886C9.79966 4.8827 9.23418 6.13477 9.0805 7.46791C8.92745 8.7957 9.1905 10.1381 9.83309 11.3098C10.013 11.6193 9.94909 12.0167 9.67461 12.2537L2.3924 18.5439C2.03819 18.9078 1.8397 19.3959 1.83984 19.9044C1.83999 20.4214 2.04543 20.9172 2.41099 21.2827C2.77655 21.6483 3.27231 21.8537 3.78929 21.8539C4.29781 21.854 4.78592 21.6555 5.14986 21.3013L11.4401 14.019C11.6786 13.7428 12.0785 13.6806 12.3877 13.8627C13.5585 14.5038 14.8995 14.7661 16.2258 14.6132C17.559 14.4595 18.811 13.8941 19.8077 12.9955C20.8044 12.0969 21.4962 10.9099 21.7867 9.59974C21.9929 8.66957 21.9897 7.71017 21.7831 6.7897L17.9283 10.6445C17.751 10.8218 17.4968 10.8988 17.2509 10.8496L14.0689 10.2132C13.772 10.1538 13.5399 9.92174 13.4805 9.62485L12.8441 6.44287C12.795 6.19697 12.8719 5.94277 13.0492 5.76545L16.904 1.91067ZM12.1934 15.4416C13.5051 16.0385 14.9583 16.2693 16.3976 16.1034C18.0406 15.914 19.5838 15.217 20.8121 14.1095C22.0405 13.0021 22.8931 11.5392 23.2511 9.92446C23.6092 8.30976 23.4549 6.6236 22.8097 5.1007C22.7321 4.91752 22.5849 4.77268 22.4005 4.69804C22.2161 4.6234 22.0096 4.62508 21.8265 4.7027L21.826 4.7029C21.7372 4.74053 21.6565 4.79493 21.5883 4.86312L17.1514 9.3L14.8533 8.84038L14.3937 6.54229L18.8306 2.1054C18.8978 2.03819 18.9516 1.95882 18.9892 1.87152L18.9894 1.87106C19.0683 1.68767 19.0709 1.48039 18.9965 1.29512C18.9221 1.10986 18.7769 0.9619 18.593 0.884023C17.0701 0.238872 15.384 0.0845752 13.7693 0.442609C12.1546 0.800644 10.6917 1.65319 9.58418 2.88159C8.47671 4.10998 7.77976 5.6531 7.59037 7.29614C7.42447 8.73542 7.65526 10.1886 8.25209 11.5004L1.38931 17.4282C1.3754 17.4402 1.36193 17.4527 1.34894 17.4657C0.702546 18.1129 0.339584 18.9902 0.339844 19.9049C0.340104 20.8195 0.703566 21.6966 1.35033 22.3434C1.99709 22.9902 2.87421 23.3536 3.78886 23.3539C4.70352 23.3541 5.58085 22.9912 6.22797 22.3448C6.24098 22.3318 6.25351 22.3183 6.26553 22.3044L12.1934 15.4416Z" fill="#4A8DF9"/>
</svg>
