<svg
  width="80"
  height="80"
  viewBox="0 0 80 80"
  fill="none"
  xmlns="http://www.w3.org/2000/svg"
>
  <path
    fill-rule="evenodd"
    clip-rule="evenodd"
    d="M49.2271 29.9431L79.0711 0.17592C79.4536 -0.206783 80.1221 0.0794403 79.9807 0.606863V79.4726C79.9807 79.762 79.7396 80 79.4536 80H0.684706C0.0612144 80 -0.224821 79.2346 0.205839 78.8036L32.9681 46.1614V68.7022C32.9681 68.9917 33.2541 69.2779 33.5884 69.2779H54.726C62.4265 69.2779 66.3956 64.5407 66.3956 58.6072C66.3956 54.3975 63.9563 50.8085 60.5142 49.4674C59.9871 49.2776 59.9871 48.6087 60.466 48.4158C63.4324 47.0747 66.206 44.0613 66.206 39.9448C66.206 34.7285 61.7098 29.9431 54.1058 29.9431H49.2271ZM52.2475 45.5428H42.1561C41.8187 45.5428 41.5809 45.3016 41.5359 44.9671V37.8858C41.5359 37.5964 41.8219 37.3102 42.1561 37.3102H52.2475C55.1174 37.3102 56.9332 39.0339 56.9332 41.4265C56.9332 43.9638 55.1174 45.5428 52.2475 45.5428ZM52.5817 61.8601H42.1561C41.8187 61.8601 41.5809 61.6221 41.5359 61.2394V53.4377C41.5359 53.1483 41.8219 52.8621 42.1561 52.8621H52.5817C55.8823 52.8621 57.6981 54.872 57.6981 57.3611C57.6981 60.2328 55.7859 61.8601 52.5817 61.8601Z"
    fill="#161616"
  />
</svg>
