<svg width="20" height="20" viewBox="0 0 20 20" fill="none" xmlns="http://www.w3.org/2000/svg">
<path fill-rule="evenodd" clip-rule="evenodd" d="M0 9.62373C0 4.0942 4.33613 0 9.93113 0C15.5261 0 19.8623 4.0942 19.8623 9.62368C19.8623 15.1532 15.5261 19.2474 9.93113 19.2474C8.92605 19.2474 7.96089 19.1156 7.05572 18.8661C6.87987 18.8182 6.69287 18.8323 6.52619 18.906L4.55595 19.7744C4.04038 20 3.45891 19.6346 3.44094 19.0717L3.38696 17.3071C3.37897 17.0895 3.2811 16.8879 3.11922 16.7422C1.18692 15.0154 0 12.5162 0 9.62373ZM6.88636 7.81519L3.96899 12.4384C3.68719 12.8816 4.23475 13.3826 4.65235 13.0652L7.78756 10.6877C7.89076 10.6097 8.01653 10.5673 8.14591 10.567C8.2753 10.5666 8.40129 10.6083 8.50493 10.6857L10.8248 12.4244C11.5202 12.9455 12.5153 12.7618 12.9789 12.0272L15.8943 7.40598C16.1761 6.96285 15.6285 6.46178 15.2109 6.77913L12.0777 9.15465C11.9745 9.23268 11.8487 9.27506 11.7193 9.27542C11.59 9.27578 11.464 9.23409 11.3603 9.15664L9.04042 7.41795C8.34504 6.89691 7.34994 7.08059 6.88636 7.81519Z" fill="#1D365C"/>
</svg>
