<svg enable-background="new 0 0 48 48" height="48" viewBox="0 0 48 48" width="48" xmlns="http://www.w3.org/2000/svg" xmlns:xlink="http://www.w3.org/1999/xlink"><linearGradient id="a" gradientUnits="userSpaceOnUse" x1="36.7041" x2="43.0308" y1="36.0708" y2="42.3975"><stop offset="0" stop-color="#263238" stop-opacity=".16"/><stop offset="1" stop-color="#263238" stop-opacity="0"/></linearGradient><path d="m38.708 25.384c2.208 0 4.001-1.795 4.001-4.008s-1.793-4.008-4.001-4.008c-2.206 0-3.999 1.795-3.999 4.008s1.793 4.008 3.999 4.008zm-29.333 0c2.208 0 4-1.795 4-4.008s-1.792-4.008-4-4.008c-2.207 0-4 1.795-4 4.008s1.793 4.008 4 4.008zm0 2.673c-4.421 0-9.333 2.243-9.333 5.196v3.489h18.667v-3.489c0-2.954-4.912-5.196-9.334-5.196zm29.334 0c-4.422 0-9.334 2.243-9.334 5.196v3.489h18.667v-3.489c0-2.954-4.912-5.196-9.333-5.196z" fill="#a0c1f9"/><path d="m44.24 36.742-8.64-8.032-5.091 8.032z" fill="url(#a)"/><path d="m24.043 21.375c3.68 0 6.666-2.995 6.666-6.681 0-3.688-2.986-6.681-6.666-6.681-3.681 0-6.668 2.993-6.668 6.681 0 3.687 2.987 6.681 6.668 6.681zm0 4.009c-6.948 0-14.667 3.524-14.667 8.165v3.192h29.333v-3.192c0-4.641-7.72-8.165-14.666-8.165z" fill="#4184f3"/><path d="m24.043 8.349c3.624 0 6.568 2.904 6.657 6.513.001-.056.009-.11.009-.167 0-3.688-2.986-6.681-6.666-6.681-3.681 0-6.668 2.993-6.668 6.681 0 .057.008.111.01.167.089-3.61 3.033-6.513 6.658-6.513zm0 17.035c-6.948 0-14.667 3.524-14.667 8.165v.335c0-4.642 7.719-8.166 14.667-8.166 6.946 0 14.666 3.524 14.666 8.166v-.335c0-4.641-7.72-8.165-14.666-8.165z" fill="#fff" fill-opacity=".4"/><path d="m24.043 21.71c3.68 0 6.666-2.995 6.666-6.681 0-.057-.008-.111-.009-.167-.089 3.608-3.033 6.514-6.657 6.514-3.625 0-6.569-2.905-6.658-6.514-.002.056-.01.11-.01.167 0 3.686 2.987 6.681 6.668 6.681zm-14.667 15.032v.334h29.333v-.334z" fill="#263238" opacity=".16"/><path d="m.043 0h47.999v48h-47.999z" fill="none"/></svg>