<svg viewBox="0 0 24 24" fill="none" xmlns="http://www.w3.org/2000/svg">
<path d="M19.5 4.5H5L3.5 17.5L10 21H16.5L17.5 22L21 17V13.5V12L19.5 4.5Z" fill="white"/>
<path d="M8.28981 3.05437C9.24983 3.01069 9.55658 3 12.0008 3H11.9981C14.4431 3 14.7487 3.01069 15.7088 3.05437C16.6669 3.09826 17.3212 3.24994 17.895 3.4725C18.4875 3.70219 18.9882 4.00969 19.4888 4.51031C19.9894 5.01057 20.2969 5.5127 20.5276 6.10463C20.7487 6.67689 20.9007 7.33089 20.9457 8.28902C20.9888 9.24902 21 9.55577 21 12.0001C21 12.0023 21 12.0045 21 12.0068C20.5386 12.0051 19.9812 12.0037 19.3789 12.0026V11.998C19.3789 9.59608 19.3696 9.31108 19.3264 8.36232C19.2865 7.48482 19.1397 7.00857 19.0165 6.6917C18.8529 6.2717 18.658 5.9717 18.3429 5.6567C18.0281 5.3417 17.7287 5.14669 17.3087 4.98357C16.9914 4.86038 16.5151 4.71376 15.6377 4.67363C14.6887 4.63051 14.4039 4.62188 12.0008 4.62188C11.897 4.62188 11.7971 4.62184 11.7009 4.62179C11.5189 4.62171 11.3502 4.62164 11.1935 4.62188V4.61963C9.51608 4.62151 9.19432 4.63276 8.36406 4.67026C7.48655 4.71057 7.01012 4.85682 6.69286 4.98057C6.27286 5.14407 5.97284 5.33907 5.65784 5.65407C5.34284 5.96907 5.14747 6.26908 4.98433 6.68908C4.86115 7.00632 4.71452 7.48257 4.67439 8.36007C4.63127 9.30883 4.62264 9.59233 4.62264 11.9958C4.62264 14.3991 4.63127 14.6841 4.67439 15.6329C4.71433 16.5104 4.86115 16.9866 4.98433 17.3035C5.14784 17.7237 5.34284 18.0229 5.65784 18.3379C5.97284 18.6529 6.27286 18.8479 6.69286 19.0111C7.0103 19.1342 7.48655 19.2809 8.36406 19.3213C9.31283 19.3645 9.59764 19.3739 12.0008 19.3739C13.6478 19.3739 14.2998 19.3695 14.8525 19.3528C15.0251 20.0144 15.0881 20.256 15.2725 20.9648C14.5892 20.9926 14.0378 21 11.9997 21C9.55564 21 9.24908 20.9893 8.28906 20.9457C7.33111 20.9018 6.67692 20.7501 6.10429 20.5276C5.51272 20.2977 5.01058 19.9895 4.51051 19.4888C4.01008 18.9885 3.70257 18.4864 3.4725 17.8945C3.25012 17.3222 3.09843 16.6682 3.05437 15.7101C3.01088 14.7501 3 14.4443 3 12.0001C3 9.55577 3.01125 9.24883 3.05419 8.28883C3.09731 7.33108 3.24919 6.67689 3.47231 6.10445C3.70294 5.5127 4.01045 5.01057 4.51108 4.51031C5.01133 4.00988 5.51347 3.70238 6.10542 3.4725C6.67767 3.24994 7.33167 3.09826 8.28981 3.05437Z" fill="#1D365C"/>
<path d="M16.622 12C16.622 9.44753 14.5532 7.37813 12.0007 7.37813C9.44833 7.37819 7.37893 9.44761 7.37893 12.0001C7.37893 14.5524 9.44839 16.6209 12.0008 16.6209C12.3095 16.6209 12.6112 16.5907 12.903 16.5329C12.8832 16.5126 12.8672 16.4963 12.8557 16.4845C12.1836 15.7956 11.6348 15.2184 11.3828 14.9363C10.0224 14.6515 9.00082 13.445 9.00082 12.0001C9.00082 10.3431 10.3439 9.00001 12.0008 9.00001C13.6576 9.00001 15.0009 10.3431 15.0009 12.0001C15.4885 11.9994 16.0425 11.9999 16.622 12Z" fill="#1D365C"/>
<path d="M15.7251 7.19588C15.7251 6.59945 16.2088 6.11626 16.8051 6.11626C17.4014 6.11626 17.885 6.59964 17.885 7.19588C17.885 7.79214 17.4014 8.27589 16.8051 8.27589C16.2088 8.27589 15.7251 7.79214 15.7251 7.19588Z" fill="#1D365C"/>
<path fill-rule="evenodd" clip-rule="evenodd" d="M12.2702 13.0978C11.9957 13.2283 11.872 13.5468 11.9856 13.8303C12.0161 13.9065 12.571 14.4983 13.813 15.7791L15.5966 17.6185L16.2121 19.9875C16.5506 21.2905 16.8466 22.4261 16.87 22.511C16.952 22.8087 17.1915 22.9821 17.481 22.9534C17.724 22.9293 17.8083 22.8459 18.0866 22.3531C18.2226 22.1123 18.6348 21.3855 19.0025 20.738C20.2538 18.5347 21.1574 16.9441 22.0299 15.4089C22.5089 14.5659 22.9167 13.8266 22.9362 13.7659C23.0141 13.5225 22.8759 13.2086 22.6425 13.0994C22.5264 13.0451 22.3744 13.0434 17.4537 13.0434C12.5855 13.0434 12.3799 13.0456 12.2702 13.0978ZM20.2382 14.2253C19.3107 14.7714 16.3179 16.5576 16.2984 16.5766C16.2835 16.5912 16.2513 16.6031 16.2269 16.6031C16.2025 16.6031 15.6557 16.0602 15.0119 15.3965L13.8412 14.1899L17.0683 14.1908C19.5031 14.1915 20.2813 14.1999 20.2382 14.2253ZM20.8275 15.242C20.799 15.2967 20.5309 15.7693 18.7388 18.9239C17.8181 20.5446 17.6094 20.8936 17.5945 20.8369C17.096 18.93 16.7631 17.6289 16.7716 17.6208C16.7819 17.611 17.6265 17.1075 19.0958 16.2352C19.4571 16.0207 19.9969 15.6986 20.2953 15.5195C20.5938 15.3403 20.8416 15.193 20.8461 15.1921C20.8506 15.1912 20.8422 15.2137 20.8275 15.242Z" fill="#1D365C"/>
</svg>
