<svg width="24" height="24" viewBox="0 0 24 24" fill="none" xmlns="http://www.w3.org/2000/svg">
<path d="M19.23 15.2617L16.69 14.9717C16.08 14.9017 15.48 15.1117 15.05 15.5417L13.21 17.3817C10.38 15.9417 8.06004 13.6317 6.62004 10.7917L8.47004 8.94172C8.90004 8.51172 9.11004 7.91172 9.04004 7.30172L8.75004 4.78172C8.63004 3.77172 7.78004 3.01172 6.76004 3.01172H5.03004C3.90004 3.01172 2.96004 3.95172 3.03004 5.08172C3.56004 13.6217 10.39 20.4417 18.92 20.9717C20.05 21.0417 20.99 20.1017 20.99 18.9717V17.2417C21 16.2317 20.24 15.3817 19.23 15.2617V15.2617Z" fill="#1D365C"/>
</svg>
