<svg xmlns="http://www.w3.org/2000/svg" width="20" height="21" fill="none"  xmlns:v="https://vecta.io/nano"><path fill-rule="evenodd" d="M3.765 1.5C2.239 1.5 1 2.738 1 4.265v12.47C1 18.261 2.238 19.5 3.765 19.5h12.47c1.526 0 2.765-1.238 2.765-2.765V4.265C19 2.739 17.762 1.5 16.235 1.5H3.765zm8.779 7.2h.541a.38.38 0 0 1 .278.117.34.34 0 0 1 .117.264l-.029.674c-.088.996-.431 1.789-1.031 2.38-.594.585-1.397.88-2.408.886h-.024c-1.011-.005-1.814-.3-2.408-.886-.6-.591-.944-1.384-1.031-2.38L6.52 9.08a.34.34 0 0 1 .117-.264.38.38 0 0 1 .278-.117h.541c.108 0 .2.039.278.117.071.071.115.154.117.25l.029.615c.058.625.266 1.128.622 1.508s.853.568 1.499.571c.646-.003 1.145-.193 1.498-.571s.563-.883.622-1.508l.029-.604v-.011c.003-.095.047-.179.117-.25.078-.078.17-.117.278-.117z" fill="#4889ec"/></svg>