<svg width="80" height="80" viewBox="0 0 80 80" fill="none" xmlns="http://www.w3.org/2000/svg">
<g clip-path="url(#clip0_9137_425398)">
<path d="M75.2 0H4.8C2.14903 0 0 2.14903 0 4.8V75.2C0 77.851 2.14903 80 4.8 80H75.2C77.851 80 80 77.851 80 75.2V4.8C80 2.14903 77.851 0 75.2 0Z" fill="#4A8DF9"/>
<path d="M47.4668 16.5334H30.4001C27.4561 16.5334 25.0668 18.9227 25.0668 21.8667V58.1334C25.0668 61.0774 27.4561 63.4667 30.4001 63.4667H47.4668C50.4108 63.4667 52.8001 61.0774 52.8001 58.1334V21.8667C52.8001 18.9227 50.4108 16.5334 47.4668 16.5334ZM38.9335 61.3334C37.1628 61.3334 35.7335 59.904 35.7335 58.1334C35.7335 56.3627 37.1628 54.9334 38.9335 54.9334C40.7041 54.9334 42.1335 56.3627 42.1335 58.1334C42.1335 59.904 40.7041 61.3334 38.9335 61.3334ZM48.5335 52.8H29.3335V22.9334H48.5335V52.8Z" fill="white"/>
</g>
<defs>
<clipPath id="clip0_9137_425398">
<rect width="80" height="80" fill="white"/>
</clipPath>
</defs>
</svg>
