<svg width="80" height="80" viewBox="0 0 80 80" fill="none" xmlns="http://www.w3.org/2000/svg">
<g clip-path="url(#clip0_9099_416315)">
<path d="M75.2 0H4.8C2.14903 0 0 2.14903 0 4.8V75.2C0 77.851 2.14903 80 4.8 80H75.2C77.851 80 80 77.851 80 75.2V4.8C80 2.14903 77.851 0 75.2 0Z" fill="#4A8DF9"/>
<path d="M28.352 25.0667C28.48 26.9653 28.8 28.8213 29.312 30.592L26.752 33.152C25.8773 30.592 25.3228 27.8827 25.1308 25.0667H28.352ZM49.3868 50.7093C51.2 51.2213 53.0561 51.5413 54.9333 51.6693V54.848C52.1173 54.656 49.4081 54.1013 46.8268 53.248L49.3868 50.7093ZM30.4 20.8H22.9333C21.76 20.8 20.8 21.76 20.8 22.9333C20.8 42.9653 37.0348 59.2 57.0668 59.2C58.24 59.2 59.2001 58.24 59.2001 57.0667V49.6213C59.2001 48.448 58.24 47.488 57.0668 47.488C54.4213 47.488 51.84 47.0613 49.4508 46.272C49.2373 46.1867 49.0028 46.1653 48.7893 46.1653C48.2348 46.1653 47.7013 46.3787 47.2748 46.784L42.5813 51.4773C36.544 48.384 31.5948 43.456 28.5228 37.4187L33.216 32.7253C33.8133 32.128 33.984 31.296 33.7493 30.5493C32.96 28.16 32.5333 25.6 32.5333 22.9333C32.5333 21.76 31.5733 20.8 30.4 20.8Z" fill="white"/>
</g>
<defs>
<clipPath id="clip0_9099_416315">
<rect width="80" height="80" fill="white"/>
</clipPath>
</defs>
</svg>
