<svg width="20" height="20" viewBox="0 0 20 20" fill="none" xmlns="http://www.w3.org/2000/svg">
<circle cx="10" cy="10" r="10" fill="#152065"/>
<path fill-rule="evenodd" clip-rule="evenodd" d="M4 9.77424C4 6.45652 6.60168 4 9.95868 4C13.3157 4 15.9174 6.45652 15.9174 9.77421C15.9174 13.0919 13.3157 15.5484 9.95868 15.5484C9.35563 15.5484 8.77654 15.4694 8.23343 15.3197C8.12792 15.2909 8.01572 15.2994 7.91571 15.3436L6.73357 15.8646C6.42423 16 6.07535 15.7808 6.06456 15.443L6.03218 14.3842C6.02738 14.2537 5.96866 14.1327 5.87153 14.0453C4.71215 13.0093 4 11.5097 4 9.77424ZM8.13181 8.68911L6.38139 11.463C6.21232 11.7289 6.54085 12.0296 6.79141 11.8391L8.67253 10.4126C8.73446 10.3658 8.80992 10.3404 8.88755 10.3402C8.96518 10.34 9.04078 10.365 9.10296 10.4114L10.4949 11.4547C10.9121 11.7673 11.5092 11.6571 11.7873 11.2163L13.5366 8.44359C13.7056 8.17771 13.3771 7.87707 13.1266 8.06748L11.2466 9.49279C11.1847 9.53961 11.1092 9.56504 11.0316 9.56525C10.954 9.56547 10.8784 9.54046 10.8162 9.49398L9.42425 8.45077C9.00702 8.13814 8.40997 8.24835 8.13181 8.68911Z" fill="white"/>
</svg>
