<svg viewBox="0 0 24 24" fill="none" xmlns="http://www.w3.org/2000/svg">
<circle cx="12" cy="12" r="10" fill="white"/>
<path d="M12 2C17.5229 2 22 6.47716 22 12C22 16.9913 18.3432 21.1284 13.5625 21.8786V14.8907L15.8926 14.8907L16.336 12H13.5625V10.1242C13.5625 9.43222 13.8591 8.75555 14.7655 8.59719C14.8949 8.57456 15.0369 8.56252 15.1921 8.56252H16.4531L16.4532 6.10157C16.4532 6.10157 15.3088 5.90626 14.2147 5.90626C14.2147 5.90626 14.2147 5.90626 14.2147 5.90626C13.4348 5.90626 12.7472 6.06762 12.1797 6.3799C11.0851 6.9823 10.4375 8.14629 10.4375 9.7969V12H7.89844V14.8907H10.4375V21.8786C5.65686 21.1284 2 16.9913 2 12C2 6.47716 6.47715 2 12 2Z" fill="#1D365C"/>
</svg>
