<svg width="26" height="26" viewBox="0 0 26 26" fill="none" xmlns="http://www.w3.org/2000/svg">
<rect x="0.5" y="0.5" width="25" height="25" rx="2.5" fill="#F4F5F7"/>
<path fill-rule="evenodd" clip-rule="evenodd" d="M20.6188 13.248C20.7271 13.4174 20.7271 13.6342 20.6188 13.8036C19.041 16.294 16.2982 17.8033 13.35 17.8033C10.4019 17.8033 7.65901 16.294 6.08123 13.8036C5.97292 13.6342 5.97292 13.4174 6.08123 13.248C7.65824 10.7565 10.4014 9.24634 13.35 9.24634C16.2986 9.24634 19.0418 10.7565 20.6188 13.248Z" fill="#F4F5F7" stroke="#8390A5" stroke-width="1.3" stroke-linecap="round" stroke-linejoin="round"/>
<path fill-rule="evenodd" clip-rule="evenodd" d="M13.3501 15.7236C14.5643 15.7236 15.5485 14.7393 15.5485 13.5251C15.5485 12.3109 14.5643 11.3267 13.3501 11.3267C12.1359 11.3267 11.1516 12.3109 11.1516 13.5251C11.1516 14.7393 12.1359 15.7236 13.3501 15.7236Z" fill="#8390A5" stroke="#8390A5" stroke-width="1.3" stroke-linecap="round" stroke-linejoin="round"/>
<path d="M16.4887 19.5588L9.6084 6.23941" stroke="#8390A5" stroke-width="1.3" stroke-linecap="round"/>
<path d="M18.0497 19.7603L11.1694 6.44083" stroke="#F4F5F7" stroke-width="1.3" stroke-linecap="round"/>
<rect x="0.5" y="0.5" width="25" height="25" rx="2.5" stroke="#DDE1E7"/>
</svg>
