<svg width="18" height="18" viewBox="0 0 18 18" fill="none" xmlns="http://www.w3.org/2000/svg">
<path d="M9.00033 0.666626C13.6027 0.666626 17.3337 4.39759 17.3337 8.99998C17.3337 13.1594 14.2863 16.6069 10.3024 17.2321V11.4088L12.2441 11.4088L12.6136 8.99998H10.3024V7.43677C10.3024 6.86014 10.5496 6.29625 11.3049 6.16428C11.4128 6.14543 11.531 6.13539 11.6604 6.13539H12.7113L12.7113 4.0846C12.7113 4.0846 11.7576 3.92184 10.8459 3.92184C10.8459 3.92184 10.8459 3.92184 10.8459 3.92184C10.196 3.92184 9.62298 4.05631 9.1501 4.31654C8.23787 4.81854 7.69824 5.78854 7.69824 7.16404V8.99998H5.58236V11.4088H7.69824V17.2321C3.71437 16.6069 0.666992 13.1594 0.666992 8.99998C0.666992 4.39759 4.39795 0.666626 9.00033 0.666626Z" fill="white"/>
</svg>
