<svg width="17" height="11" viewBox="0 0 17 11" fill="none" xmlns="http://www.w3.org/2000/svg">
<path fill-rule="evenodd" clip-rule="evenodd" d="M15.4323 5.53339C15.5406 5.70276 15.5406 5.91964 15.4323 6.08902C13.8545 8.5794 11.1116 10.0887 8.16351 10.0887C5.21539 10.0887 2.47249 8.5794 0.894705 6.08902C0.7864 5.91964 0.7864 5.70276 0.894705 5.53339C2.47171 3.04192 5.21489 1.53174 8.16351 1.53174C11.1121 1.53174 13.8553 3.04192 15.4323 5.53339V5.53339Z" stroke="#BBC3CE" stroke-width="1.3" stroke-linecap="round" stroke-linejoin="round"/>
<path fill-rule="evenodd" clip-rule="evenodd" d="M8.16331 8.00899C9.37749 8.00899 10.3618 7.02471 10.3618 5.81053C10.3618 4.59635 9.37749 3.61206 8.16331 3.61206C6.94913 3.61206 5.96484 4.59635 5.96484 5.81053C5.96484 7.02471 6.94913 8.00899 8.16331 8.00899Z" fill="#BBC3CE" stroke="#BBC3CE" stroke-width="1.3" stroke-linecap="round" stroke-linejoin="round"/>
</svg>
