<svg width="22" height="22" viewBox="0 0 22 22" fill="none" xmlns="http://www.w3.org/2000/svg">
<rect width="22" height="22" rx="11" fill="#BBC3CE"/>
<path d="M4.39999 9.3814C4.39999 8.99954 4.72206 8.68998 5.11935 8.68998H6.91774C7.31503 8.68998 7.63709 8.99954 7.63709 9.3814V15.2585C7.63709 15.6404 7.31503 15.95 6.91774 15.95H5.11935C4.72206 15.95 4.39999 15.6404 4.39999 15.2585V9.3814Z" fill="#1D365C"/>
<path d="M10.6944 6.78855L10.9793 4.46062C11.0219 4.1124 11.3289 3.84998 11.6937 3.84998H11.7734C12.3693 3.84998 12.8524 4.31432 12.8524 4.88712V7.13426L12.6237 7.90357C12.5581 8.12442 12.7306 8.34426 12.9696 8.34426H16.1604C17.1163 8.34426 17.8064 9.22363 17.5438 10.107L16.2078 14.6013C16.0313 15.195 15.4668 15.6043 14.8245 15.6043H10.5145C9.52129 15.6043 8.71613 14.8304 8.71613 13.8757V10.0911C8.71613 9.74146 8.82646 9.4 9.03257 9.11185L10.6944 6.78855Z" fill="#1D365C"/>
</svg>
