<svg viewBox="0 0 32 32" fill="none" xmlns="http://www.w3.org/2000/svg">
<g clip-path="url(#clip0_2533_16803)">
<path d="M0 10.0359L7.28511 15.4827V27.8742H2.17872C0.975448 27.8742 0 26.8987 0 25.6955V10.0359Z" fill="#4285F4"/>
<path d="M32 10.0359L24.7148 15.4827V27.8742H29.8212C31.0245 27.8742 32 26.8987 32 25.6955V10.0359Z" fill="#34A853"/>
<path d="M7.28516 6.08691L16 12.6231L24.7149 6.08691V15.4827L16 22.0188L7.28516 15.4827V6.08691Z" fill="#EA4335"/>
<path fill-rule="evenodd" clip-rule="evenodd" d="M5.39332 4.58651L7.28511 6.0869V15.4826L0 10.0358V7.17626L0.000170898 7.17617C5.71393e-05 7.16487 0 7.15355 0 7.14222C0 5.3185 1.47841 3.84009 3.30213 3.84009C4.05778 3.84009 4.75416 4.0939 5.31064 4.52094M5.31104 4.52126C5.33882 4.54258 5.36625 4.56434 5.39332 4.58651L5.31104 4.52126Z" fill="#C5221F"/>
<path fill-rule="evenodd" clip-rule="evenodd" d="M26.6066 4.58651L24.7148 6.0869V15.4826L32 10.0358V7.17626L31.9998 7.17617C31.9999 7.16487 32 7.15355 32 7.14222C32 5.3185 30.5215 3.84009 28.6978 3.84009C27.9422 3.84009 27.2458 4.0939 26.6893 4.52094M26.6889 4.52126C26.6611 4.54258 26.6337 4.56434 26.6066 4.58651L26.6889 4.52126Z" fill="#FBBC04"/>
</g>
<defs>
<clipPath id="clip0_2533_16803">
<rect width="32" height="32" fill="white"/>
</clipPath>
</defs>
</svg>
