<svg xmlns="http://www.w3.org/2000/svg" width="67" height="16" fill="none"><path fill-rule="evenodd" d="M13.245 16h.922c.214 0 .393-.188.405-.411V5.098c0-1.034-.798-1.868-1.788-1.868h-1.181c-.214 0-.394-.188-.394-.411v-.952C11.21.834 10.412 0 9.422 0H1.788C.798 0 0 .834 0 1.868v10.537c0 1.022.798 1.856 1.788 1.868h8.849c.079 0 .157.024.225.071l2.159 1.586c.067.047.146.07.225.07zm-2.148-3.219H1.81c-.225 0-.394-.176-.394-.411V1.891c0-.223.18-.411.394-.411H9.4c.214 0 .394.188.394.411v.928c0 .223-.18.411-.394.411H3.744c-.214 0-.394.188-.394.411v6.99c0 .223.18.411.394.411h7.061c.214 0 .393-.188.393-.411v-5.51c0-.223.18-.411.393-.411h1.158c.214 0 .393.188.393.411v8.576c0 .212-.225.329-.382.212l-1.439-1.057c-.067-.047-.146-.07-.225-.07zM9.591 9.551H4.959c-.101 0-.191-.082-.191-.2V4.91c0-.106.079-.2.191-.2h4.633c.101 0 .191.082.191.2v4.441c0 .106-.079.2-.191.2zm40.796-7.317c.59 0 1.069-.5 1.069-1.117S50.977 0 50.387 0s-1.069.5-1.069 1.117.479 1.117 1.069 1.117zM38.192 3.866v-.62H36.47v7.735h1.722V5.697l2.009-.869v-1.81h-.02l-1.989.848zm-6.673-.627c-1.119 0-2.029.383-2.722 1.158a3.95 3.95 0 0 0-.742 1.262c-.168.476-.257.982-.257 1.51 0 1.086.297 1.986.901 2.678.663.765 1.574 1.138 2.732 1.138 1.128 0 2.029-.383 2.712-1.158.643-.734.97-1.655.97-2.771s-.317-2.017-.94-2.72c-.663-.734-1.544-1.096-2.653-1.096zm1.346 5.502c-.327.424-.782.641-1.356.641-.614 0-1.119-.217-1.495-.652-.178-.196-.317-.445-.416-.724s-.148-.569-.148-.879c0-.62.158-1.138.485-1.572.356-.465.841-.703 1.465-.703.614 0 1.099.217 1.445.662.327.414.495.951.495 1.624.01.652-.148 1.189-.475 1.603zm16.649-5.493h1.712v7.746h-1.712V3.247zm-26.13-.008c-.98 0-1.782.3-2.405.9-.584.569-.881 1.282-.881 2.141 0 .765.257 1.396.772 1.903-.445.372-.663.817-.663 1.344 0 .321.04.6.109.838.069.248.208.455.426.641-.772.445-1.148 1.168-1.118 2.161.02.858.376 1.541 1.069 2.058s1.613.776 2.742.776 1.97-.227 2.544-.682.861-1.107.861-1.965c0-.848-.228-1.51-.683-1.975-.247-.248-.564-.445-.95-.62-.396-.165-.931-.31-1.623-.424s-1.188-.238-1.485-.393c-.139-.062-.228-.134-.267-.207s-.059-.176-.059-.31.089-.321.257-.558c.386.134.812.207 1.267.207.93 0 1.693-.29 2.296-.879.267-.269.475-.589.624-.951s.218-.765.218-1.21-.099-.869-.297-1.262l.713-.01v-1.52h-3.464zm-1.198 8.366l.356.062c1 .155 1.712.362 2.118.641.366.238.544.558.544.951 0 .827-.564 1.231-1.693 1.231-.663 0-1.198-.145-1.613-.424a1.34 1.34 0 0 1-.436-.455c-.109-.176-.158-.372-.158-.61s.069-.486.208-.744c.148-.269.376-.476.673-.652zm2.158-4.436c-.277.259-.604.393-.97.393-.495 0-.891-.145-1.198-.434-.139-.124-.238-.279-.317-.434-.069-.165-.109-.331-.109-.507a1.42 1.42 0 0 1 .099-.527c.218-.589.703-.879 1.465-.879.455 0 .822.124 1.079.372s.396.579.396.982c-.01.393-.158.745-.445 1.034zm34.444-2.244a3.55 3.55 0 0 1 .198 1.21v4.829h-1.683v-.362c-.505.238-.97.362-1.396.362-.534 0-.98-.052-1.356-.155s-.693-.258-.95-.455c-.525-.414-.792-1.003-.792-1.768 0-.683.317-1.262.97-1.717.703-.496 1.663-.745 2.871-.745l.277.01c.029 0 .057.002.087.005l.101.005.094.01.094.011c-.04-.765-.356-1.22-.95-1.344-.188-.041-.406-.062-.623-.062a3.34 3.34 0 0 0-.653.062c-.218.041-.426.103-.624.165-.435.145-.762.321-.95.507l-.02-.01-.208-1.582c.802-.445 1.693-.662 2.653-.662 1.495 0 2.445.558 2.861 1.686zm-1.485 4.209v-.993-.672a2.43 2.43 0 0 0-.386-.031h-.277c-1.01 0-1.653.238-1.93.703a.84.84 0 0 0-.119.434c0 .155.03.29.079.403.059.114.148.217.267.29.238.145.594.217 1.059.217a2.64 2.64 0 0 0 1.307-.352zm8.009-2.472c.287.145.525.321.703.527.327.372.495.869.495 1.51a2.03 2.03 0 0 1-.772 1.644c-.534.445-1.287.662-2.257.662-1.168 0-2.079-.207-2.722-.61V8.492c0-.01.04.031.109.114s.208.176.396.3a3.37 3.37 0 0 0 .663.321 4.96 4.96 0 0 0 1.703.29c.792 0 1.188-.279 1.188-.827 0-.176-.079-.31-.228-.393-.267-.145-.663-.259-1.188-.331-.525-.083-.95-.186-1.287-.331s-.614-.321-.822-.517c-.386-.383-.584-.879-.584-1.489 0-.745.277-1.334.822-1.758s1.297-.631 2.257-.631c.95 0 1.762.279 2.435.848l-.099.362-.238.683-.158.424c-.01.041-.02.062-.02.062-.01 0-.049-.052-.109-.155-.287-.352-.742-.579-1.346-.693-.188-.041-.376-.062-.574-.062-.831 0-1.247.259-1.247.786a.44.44 0 0 0 .257.414c.327.186.772.321 1.336.403.564.093.99.207 1.287.352zM44.476 3.239c-.98 0-1.782.3-2.405.9-.584.569-.881 1.282-.881 2.141 0 .765.257 1.396.772 1.903-.445.372-.663.817-.663 1.344 0 .321.04.6.109.838.069.248.208.455.426.641-.772.445-1.148 1.168-1.118 2.161.02.858.376 1.541 1.069 2.058s1.613.776 2.742.776 1.97-.227 2.544-.682.861-1.107.861-1.965c0-.848-.228-1.51-.683-1.975-.247-.248-.564-.445-.95-.62-.396-.165-.93-.31-1.623-.424s-1.188-.238-1.485-.393c-.139-.062-.228-.134-.267-.207s-.059-.176-.059-.31.089-.321.257-.558c.386.134.812.207 1.267.207.93 0 1.693-.29 2.296-.879.267-.269.475-.589.624-.951s.218-.765.218-1.21-.099-.869-.297-1.262l.713-.01v-1.52h-3.464zm-1.198 8.366l.356.062c1 .155 1.712.362 2.118.641.366.238.544.558.544.951 0 .827-.564 1.231-1.693 1.231-.663 0-1.198-.145-1.613-.424a1.34 1.34 0 0 1-.435-.455c-.109-.176-.158-.372-.158-.61s.069-.486.208-.744c.148-.269.376-.476.673-.652zm2.158-4.436c-.277.259-.604.393-.97.393-.495 0-.891-.145-1.198-.434-.139-.124-.238-.279-.317-.434-.069-.165-.109-.331-.109-.507s.03-.352.099-.527c.218-.589.703-.879 1.465-.879.455 0 .822.124 1.079.372s.396.579.396.982c-.01.393-.158.745-.445 1.034z" fill="#d2d7de"/></svg>