<svg width="18" height="18" viewBox="0 0 18 18" fill="none" xmlns="http://www.w3.org/2000/svg">
<path d="M9.00001 2.35951C11.1628 2.35951 11.419 2.36774 12.2731 2.40671C13.0628 2.44276 13.4917 2.57471 13.7772 2.68561C14.1552 2.83255 14.4251 3.0081 14.7085 3.29153C14.9919 3.57496 15.1675 3.84482 15.3144 4.22288C15.4253 4.50833 15.5573 4.93722 15.5933 5.72693C15.6323 6.58107 15.6405 6.83724 15.6405 9.00004C15.6405 11.1628 15.6323 11.419 15.5933 12.2731C15.5573 13.0629 15.4253 13.4918 15.3144 13.7772C15.1675 14.1553 14.9919 14.4251 14.7085 14.7085C14.4251 14.992 14.1552 15.1675 13.7772 15.3144C13.4917 15.4254 13.0628 15.5573 12.2731 15.5934C11.4191 15.6323 11.1629 15.6406 9.00001 15.6406C6.83708 15.6406 6.58091 15.6323 5.72693 15.5934C4.93719 15.5573 4.5083 15.4254 4.22288 15.3144C3.84479 15.1675 3.57493 14.992 3.2915 14.7085C3.00807 14.4251 2.83252 14.1553 2.68561 13.7772C2.57468 13.4918 2.44273 13.0629 2.40668 12.2732C2.36771 11.419 2.35948 11.1628 2.35948 9.00004C2.35948 6.83724 2.36771 6.58107 2.40668 5.72696C2.44273 4.93722 2.57468 4.50833 2.68561 4.22288C2.83252 3.84482 3.00807 3.57496 3.2915 3.29153C3.57493 3.0081 3.84479 2.83255 4.22288 2.68561C4.5083 2.57471 4.93719 2.44276 5.7269 2.40671C6.58104 2.36774 6.8372 2.35951 9.00001 2.35951ZM9.00001 0.900024C6.80016 0.900024 6.52436 0.909349 5.6604 0.948768C4.79822 0.988124 4.20944 1.12503 3.69418 1.32528C3.16154 1.53228 2.70982 1.80925 2.25952 2.25955C1.80921 2.70985 1.53225 3.16157 1.32525 3.69422C1.125 4.20947 0.988091 4.79825 0.948736 5.66044C0.909317 6.52436 0.900024 6.8002 0.900024 9.00004C0.900024 11.1999 0.909317 11.4757 0.948736 12.3396C0.988091 13.2018 1.125 13.7906 1.32525 14.3059C1.53225 14.8385 1.80921 15.2902 2.25952 15.7405C2.70982 16.1908 3.16154 16.4678 3.69418 16.6748C4.20944 16.8751 4.79822 17.012 5.6604 17.0513C6.52436 17.0907 6.80016 17.1 9.00001 17.1C11.1999 17.1 11.4757 17.0907 12.3396 17.0513C13.2018 17.012 13.7906 16.8751 14.3058 16.6748C14.8385 16.4678 15.2902 16.1908 15.7405 15.7405C16.1908 15.2902 16.4678 14.8385 16.6748 14.3059C16.875 13.7906 17.0119 13.2018 17.0513 12.3396C17.0907 11.4757 17.1 11.1999 17.1 9.00004C17.1 6.8002 17.0907 6.52436 17.0513 5.66044C17.0119 4.79825 16.875 4.20947 16.6748 3.69422C16.4678 3.16157 16.1908 2.70985 15.7405 2.25955C15.2902 1.80925 14.8385 1.53228 14.3058 1.32528C13.7906 1.12503 13.2018 0.988124 12.3396 0.948768C11.4757 0.909349 11.1999 0.900024 9.00001 0.900024ZM9.00001 4.84057C6.70281 4.84057 4.84054 6.70284 4.84054 9.00004C4.84054 11.2972 6.70281 13.1595 9.00001 13.1595C11.2972 13.1595 13.1595 11.2972 13.1595 9.00004C13.1595 6.70284 11.2972 4.84057 9.00001 4.84057ZM9.00001 11.7001C7.50885 11.7001 6.29999 10.4912 6.29999 9.00004C6.29999 7.50888 7.50885 6.30002 9.00001 6.30002C10.4912 6.30002 11.7 7.50888 11.7 9.00004C11.7 10.4912 10.4912 11.7001 9.00001 11.7001ZM14.2958 4.67623C14.2958 5.21306 13.8606 5.64825 13.3238 5.64825C12.787 5.64825 12.3518 5.21306 12.3518 4.67623C12.3518 4.13941 12.787 3.70425 13.3238 3.70425C13.8606 3.70425 14.2958 4.13941 14.2958 4.67623Z" fill="#B0B4CC"/>
</svg>
