<svg xmlns="http://www.w3.org/2000/svg" width="20" height="21" fill="none"  xmlns:v="https://vecta.io/nano"><path fill-rule="evenodd" d="M16.535.879l.511 1.23C14.672.635 12.133.149 9.422.754S4.595 2.87 3.119 5.223C.346 9.643 1.467 15.454 5.677 18.551c4.137 3.043 9.606 2.342 12.846-.845l-.598-.622c-3.957 3.779-10.118 3.206-13.39-.811-3.16-3.879-2.649-9.651 1.342-12.865 2.025-1.631 4.354-2.26 6.93-1.945a8.56 8.56 0 0 1 3.887 1.496l-1.407.119.072.87 3.283-.275L17.341.543l-.806.336zm-9.207 6.62l4.288-2.238 1.078.565-4.065 2.409-1.3-.737zm6.672-.989l1.882.985-4.27 2.432-1.727-.979 4.115-2.439zM9.489 9.62l1.727.979v5.096l-4.3-2.416V8.161l1.322.75v1.769l1.25.708V9.62zm6.82-1.472v5.113l-4.306 2.468V10.6l4.306-2.452zm-4.694-3.764L6.139 7.242v6.491l5.509 3.096 5.438-3.118V7.249l-5.47-2.865z" fill="#4889ec"/></svg>