<svg enable-background="new 0 0 218.9 259.9" viewBox="0 0 218.9 259.9" xmlns="http://www.w3.org/2000/svg"><g fill="#53bad3"><path d="m195.7 90.8-65.7-37.9c-.4-.2-.8-.3-1.2-.3s-.8.1-1.2.3l-65.4 37.8c-.1.1-.2.1-.2.1h-.1l-.4.1c-.7.5-1.4 1.3-1.4 2.1v76.1c0 .8.6 1.7 1.4 2.1l66.1 38.1c.4.2.8.3 1.2.3s1.2-.1 1.6-.3l66.2-38.1c.8-.4 1.9-1.3 1.9-2.1v-76.1c0-.9-1.2-1.6-1.9-2.1zm-66.9-33 21.5 12.4-60.8 35.1-21.5-12.4zm-1.1 145.3-61.2-35.3v-70.9l19.2 12.7v24.6l3.4-1.4 5.9 6h5l1.9 2.8v-23.8l25.8 14.5zm1.1-75-26.2-15.2 60.8-35.1 26.2 15.2zm63.3 39.6-61.2 35.3v-70.8l61.2-35.3z"/><path d="m210.4 213.9c-45.3 45.3-119.1 45.3-164.4 0s-45.3-119.1 0-164.4c36.6-36.6 92.1-44.2 136.7-20.4l-11.2 18.4c-.2.3-.2.7 0 1 .2.2.5.4.8.4h.1l44.8-5.8c.3 0 .6-.2.7-.4.2-.2.2-.5.1-.8l-16.2-41.3c-.1-.3-.4-.6-.8-.6-.3-.1-.7.1-.9.4l-11.2 18.4c-49.3-26.6-110.9-18.2-151.4 22.3-50 50-50 131.3 0 181.3 25 25 57.8 37.5 90.6 37.5 32.9 0 65.7-12.5 90.8-37.6z"/></g></svg>