<svg width="200" height="200" viewBox="0 0 200 200" fill="none" xmlns="http://www.w3.org/2000/svg">
<path d="M99.9902 199.98C155.213 199.98 199.98 155.213 199.98 99.9902C199.98 44.7671 155.213 0 99.9902 0C44.7671 0 0 44.7671 0 99.9902C0 155.213 44.7671 199.98 99.9902 199.98Z" fill="#3901F1"/>
<path d="M109.535 139.598H59.9707C59.8161 139.601 59.6629 139.569 59.5221 139.505C59.3814 139.441 59.2567 139.347 59.1572 139.228C59.0577 139.11 58.9858 138.971 58.9468 138.821C58.9079 138.672 58.9028 138.515 58.932 138.364L68.594 88.7409C68.6333 88.5614 68.7232 88.397 68.8532 88.2671C68.9831 88.1373 69.1476 88.0474 69.3271 88.0082C69.5066 87.969 69.6936 87.9821 69.8658 88.046C70.0381 88.1098 70.1884 88.2218 70.299 88.3685L110.299 137.991C110.392 138.142 110.446 138.313 110.456 138.49C110.466 138.667 110.431 138.843 110.355 139.003C110.279 139.163 110.164 139.301 110.021 139.405C109.877 139.509 109.71 139.576 109.535 139.598Z" fill="#FFFBF6"/>
<path d="M59.0494 64.6743H108.613C108.768 64.6715 108.921 64.7032 109.062 64.7672C109.203 64.8312 109.327 64.9258 109.427 65.0441C109.526 65.1624 109.598 65.3015 109.637 65.4511C109.676 65.6007 109.681 65.7571 109.652 65.909L100.049 115.63C100.006 115.806 99.9141 115.966 99.7849 116.094C99.6557 116.221 99.4937 116.31 99.317 116.35C99.1402 116.391 98.9557 116.382 98.7839 116.324C98.6121 116.266 98.4598 116.161 98.3438 116.022L58.2851 66.2225C58.1561 66.0858 58.0721 65.9129 58.0442 65.7271C58.0164 65.5412 58.046 65.3513 58.1292 65.1828C58.2124 65.0143 58.3451 64.8753 58.5096 64.7844C58.6741 64.6935 58.8624 64.655 59.0494 64.6743Z" fill="#FFFBF6"/>
<path d="M114.61 64.6741C114.392 64.6787 114.18 64.7535 114.007 64.8877C113.834 65.0218 113.709 65.208 113.65 65.4188C113.128 69.5578 113.486 73.7605 114.702 77.7514C115.917 81.7422 117.962 85.4313 120.702 88.5769C123.442 91.7224 126.816 94.2535 130.603 96.0042C134.39 97.7549 138.504 98.6858 142.675 98.7358H143.714C143.938 98.7481 144.158 98.6767 144.332 98.5354C144.506 98.394 144.621 98.193 144.654 97.9715L151.318 65.7324C151.329 65.5886 151.31 65.4441 151.263 65.3079C151.216 65.1716 151.141 65.0464 151.044 64.94C150.946 64.8335 150.828 64.7481 150.697 64.6889C150.566 64.6297 150.423 64.598 150.279 64.5957L114.61 64.6741Z" fill="#FFFBF6"/>
</svg>
