<?xml version="1.0" encoding="utf-8"?>
<!-- Generator: Adobe Illustrator 26.0.1, SVG Export Plug-In . SVG Version: 6.00 Build 0)  -->
<svg version="1.1" id="Layer_1"
  xmlns="http://www.w3.org/2000/svg"
  xmlns:xlink="http://www.w3.org/1999/xlink" x="0px" y="0px" viewBox="0 0 113.4 61.8" style="enable-background:new 0 0 113.4 61.8;" xml:space="preserve">
  <style type="text/css">
	.st0{fill:#3B3A8F;}
  </style>
  <polygon class="st0" points="55,53.2 37.2,53.2 27.2,53.2 27.3,42.3 27.3,27.3 "/>
  <path class="st0" d="M48.8,12.8L48.8,12.8C48.7,5.7,42.9,0,35.8,0h-8.7v25.8h8.7c7.1,0,12.9-5.7,12.9-12.8l0,0V12.8"/>
  <g>
    <path class="st0" d="M67.9,35.7c0-3.2-0.1-3.8-1.5-4l-1.1-0.1c-0.2-0.2-0.3-0.6-0.1-0.8c0,0,0,0,0.1-0.1c1.9-0.2,4.3-0.3,7.6-0.3
		c1.9-0.1,3.9,0.2,5.7,1c1.8,0.9,2.9,2.8,2.8,4.8c0,3.2-2.6,5-4.3,5.7c-0.2,0.2,0,0.6,0.2,0.8c2.7,4.4,4.5,7.1,6.8,9.1
		c0.7,0.6,1.5,0.9,2.3,0.9c0.1,0.1,0.2,0.3,0.1,0.4c0,0,0,0.1-0.1,0.1c-0.5,0.1-1,0.2-1.5,0.2c-2.9,0-4.6-0.9-7-4.3
		c-0.9-1.3-2.3-3.6-3.3-5.1c-0.5-0.8-1.5-1.2-2.4-1.1c-1.5,0-1.6,0-1.6,0.8v4.3c0,3.6,0.1,4,2,4.3l0.7,0.1c0.2,0.3,0.2,0.6-0.1,0.9
		c-1.5-0.1-2.7-0.1-4-0.1s-2.7,0-4.3,0.1c-0.2-0.2-0.3-0.6-0.1-0.9l0.8-0.1c2-0.2,2-0.7,2-4.3L67.9,35.7z M70.7,40.5
		c0,0.4,0,0.8,0.1,1.1c0.1,0.1,0.6,0.2,2.3,0.2c1.2,0.1,2.5-0.2,3.5-0.9c0.9-0.7,1.7-1.9,1.7-4.2c0-2.7-1.7-5.2-5.4-5.2
		c-2.1,0-2.2,0.1-2.2,1.1L70.7,40.5z"/>
    <path class="st0" d="M89.3,44.3c-0.9,0-0.9,0.1-0.9,0.9c0,3.4,2,6.4,5.7,6.4c1.3,0,2.4-0.6,3.1-1.7c0.2-0.1,0.5,0,0.6,0.2
		c0,0.1,0,0.1,0,0.2c-1,2-3.1,3.2-5.3,3.2c-1.9,0.1-3.7-0.8-4.9-2.3c-1-1.3-1.5-2.8-1.4-4.4c0-4.2,2.8-7.7,6.8-7.7
		c2.9,0,4.8,2,4.8,4c0,0.3,0,0.6-0.1,0.9c-0.1,0.2-0.6,0.2-2,0.2L89.3,44.3z M91.4,43.3c2.5,0,3.3-0.1,3.5-0.3
		c0.1-0.1,0.2-0.2,0.2-0.6c0-1-0.6-2.1-2.6-2.1s-3.7,1.8-3.8,3c0,0.1,0,0.2,0.2,0.2L91.4,43.3z"/>
    <path class="st0" d="M100.3,43.2c0-1.3,0-1.5-0.9-2.1L99,40.9c-0.2-0.2-0.2-0.4,0-0.6c1.2-0.5,2.3-1.1,3.4-1.8
		c0.2,0,0.3,0.1,0.4,0.2c-0.1,0.5-0.1,1-0.1,1.6c0,0.2,0.1,0.4,0.3,0.4c1.4-0.9,3.1-1.4,4.8-1.6c3.4,0,5.6,2.8,5.6,6.2
		c0.1,4.4-3.3,8-7.7,8.1c-0.2,0-0.4,0-0.6,0c-0.6,0-1.3,0-1.9-0.1c-0.3,0.1-0.5,0.2-0.5,0.9v3.6c0,2.4,0.1,2.7,1.3,2.9l1.3,0.2
		c0.2,0.2,0.2,0.6,0,0.8c0,0,0,0,0,0c-1.6-0.1-2.6-0.1-3.8-0.1s-2.2,0-3.2,0.1c-0.3-0.2-0.3-0.6-0.1-0.8c0,0,0,0,0,0l0.7-0.1
		c1.3-0.2,1.3-0.5,1.3-3L100.3,43.2z M102.8,49.6c-0.1,0.8,0.3,1.6,1,2c0.7,0.5,1.6,0.7,2.4,0.7c2.8,0,4.4-2.6,4.4-6.1
		c0-2.7-1.5-5.5-4.6-5.5c-1-0.1-2.1,0.3-2.9,0.9c-0.3,0.4-0.4,0.9-0.4,2L102.8,49.6z"/>
  </g>
  <rect class="st0" width="25.9" height="25.9"/>
  <rect y="27.3" class="st0" width="25.9" height="25.9"/>
</svg>
