<svg xmlns="http://www.w3.org/2000/svg" width="20" height="21" fill="none"  xmlns:v="https://vecta.io/nano"><path fill-rule="evenodd" d="M15.826 4.888c.066.006.146.056.159.147l1.982 13.408-5.611 1.214L2 17.717l1.379-10.64c.067-.479.083-.495.591-.654l1.639-.508C5.96 4.427 7.078 1.5 9.42 1.5c.306 0 .66.164.946.542l.085-.003c1.005 0 1.577.856 1.9 1.788l.543-.167c.081-.024.288-.056.395.05l1.076 1.069 1.462.109zm-4.923-.612l.876-.271c-.222-.678-.567-1.268-1.085-1.333.129.37.209.836.209 1.415v.189zm-.614.089c0-.699-.094-1.217-.238-1.578-.571.245-1.224.895-1.573 2.239l1.81-.56v-.001-.1zm-.633-2.135a.53.53 0 0 0-.3-.101c-1.682 0-2.627 2.208-3.025 3.563l1.43-.443c.34-1.776 1.144-2.666 1.895-3.019zm.103 7.817l.692-2.058s-.468-.271-1.414-.271c-2.457 0-3.674 1.641-3.674 3.337 0 1.132.634 1.645 1.19 2.095.434.351.82.663.82 1.201 0 .296-.21.702-.725.702-.789 0-1.723-.802-1.723-.802l-.476 1.573s.909 1.106 2.687 1.106c1.481 0 2.58-1.116 2.58-2.848 0-1.332-.896-1.99-1.605-2.51-.463-.34-.846-.621-.846-.992 0-.172.055-.856 1.144-.856.743 0 1.349.324 1.349.324z" fill="#4889ec"/></svg>