<svg height="150" viewBox="0 0 150 150" width="150" xmlns="http://www.w3.org/2000/svg"><g fill="none" fill-rule="evenodd"><path d="m0 23.04156c0-12.7243267 10.32375-23.04156 23.04156-23.04156h103.91688c12.724325 0 23.04156 10.32375 23.04156 23.04156v103.91688c0 12.724325-10.32375 23.04156-23.04156 23.04156h-103.91688c-12.7243267 0-23.04156-10.32375-23.04156-23.04156z" fill="#fcc419" fill-rule="nonzero"/><path d="m100.709046 60.0001146h-4.5059691c-.8971041 0-1.6679882.3208291-2.3160946.9708587-.5884995.5903842-.9571716 1.2859519-.9783054 2.0806246-.0129775.4857739-.0813148 3.3298708-.2419917 5.125684-.4874296 5.2086157-2.215026 9.3969354-5.1800319 12.5672521-2.9413456 3.1504735-7.1005775 4.7325926-12.4809101 4.7594328-5.3859609-.0246607-9.5489822-1.6068944-12.4923965-4.7594328-2.9650059-3.1704313-4.6926023-7.3587511-5.1800319-12.5673667-.1606769-1.7956986-.229129-4.6399102-.2419917-5.1256841-.0211326-.7946726-.3898059-1.4901257-.9783054-2.0805099-.6481064-.6500296-1.4189893-.9709733-2.3160946-.9709733h-4.5059681c-.8972201 0-1.6679881.3209437-2.318852.9709733-.5858568.5903842-.972103 1.174574-.972103 2.1985409 0 0 .1588402 4.679599.2437148 5.6134081.730226 8.3025391 3.5932438 14.9120398 8.5928438 19.8341245 4.950329 4.8775784 11.6383609 7.3369565 20.0630615 7.381003.134032.001033.1671089.0019502.2007598.0019502 8.424587-.045882 15.1127337-2.5052602 20.0629467-7.3829532 4.9997144-4.9220847 7.8626174-11.5314707 8.5929584-19.8340098.084876-.9339238.243715-5.6134081.243715-5.6134081 0-1.0240816-.386245-1.6082714-.972103-2.1986556-.650863-.6500296-1.421632-.9708587-2.318851-.9708587z" fill="#fff"/></g></svg>