<svg width="18" height="14" viewBox="0 0 18 14" fill="none" xmlns="http://www.w3.org/2000/svg">
<path d="M5.80422 13.95C12.2842 13.95 15.8167 8.5725 15.8167 3.9375C15.8167 3.78 15.8167 3.6225 15.8167 3.4875C16.5142 2.9925 17.0992 2.3625 17.5717 1.665C16.9417 1.935 16.2667 2.1375 15.5467 2.2275C16.2667 1.8 16.8292 1.1025 17.0992 0.27C16.4242 0.675 15.6592 0.9675 14.8717 1.125C14.2192 0.4275 13.3192 0 12.3067 0C10.3492 0 8.77422 1.575 8.77422 3.5325C8.77422 3.8025 8.79672 4.0725 8.86422 4.3425C5.93922 4.185 3.35172 2.79 1.59672 0.6525C1.30422 1.17 1.12422 1.7775 1.12422 2.4075C1.12422 3.6225 1.75422 4.7025 2.69922 5.3325C2.11422 5.31 1.57422 5.1525 1.10172 4.8825C1.10172 4.905 1.10172 4.905 1.10172 4.9275C1.10172 6.6375 2.31672 8.055 3.93672 8.37C3.64422 8.46 3.32922 8.505 3.01422 8.505C2.78922 8.505 2.56422 8.4825 2.36172 8.4375C2.81172 9.8325 4.11672 10.845 5.64672 10.89C4.43172 11.835 2.92422 12.3975 1.28172 12.3975C0.989219 12.3975 0.719219 12.375 0.449219 12.3525C1.97922 13.365 3.82422 13.95 5.80422 13.95Z" fill="white"/>
</svg>
