<svg width="50" height="50" viewBox="0 0 50 50" fill="none" xmlns="http://www.w3.org/2000/svg">
<path fill-rule="evenodd" clip-rule="evenodd" d="M42.5119 7.26597C40.2164 4.95562 37.4852 3.12376 34.4767 1.87654C31.4681 0.629307 28.2419 -0.00849297 24.9851 8.53962e-05C11.323 8.53962e-05 0.213842 11.114 0.207902 24.7749C0.202406 29.1226 1.34322 33.3949 3.51533 37.1611L0 50L13.1347 46.5548C16.767 48.5329 20.8371 49.5695 24.9732 49.5699H24.9839C38.6389 49.5699 49.7552 38.4549 49.7599 24.7939C49.7702 21.5383 49.1349 18.3129 47.8908 15.3043C46.6467 12.2957 44.8185 9.56356 42.5119 7.26597ZM24.9851 45.3858H24.9732C21.2851 45.3862 17.6647 44.3949 14.4914 42.5155L13.7394 42.0688L5.94482 44.1134L8.02622 36.5101L7.53557 35.7308C5.47625 32.4497 4.38614 28.6534 4.3909 24.7797C4.3909 13.4258 13.6336 4.18783 24.9934 4.18783C30.4554 4.19098 35.6924 6.36351 39.5527 10.2276C43.4129 14.0916 45.5803 19.3308 45.5781 24.7927C45.5734 36.1478 36.3354 45.3858 24.9851 45.3858ZM36.2807 29.963C35.6618 29.6529 32.6181 28.1548 32.0502 27.9433C31.4824 27.7319 31.0701 27.6345 30.6579 28.2534C30.2456 28.8724 29.0588 30.273 28.6976 30.6805C28.3365 31.088 27.9753 31.1462 27.3564 30.8362C26.7374 30.5261 24.7428 29.8727 22.3774 27.7628C20.5372 26.1221 19.2945 24.0942 18.9322 23.474C18.5698 22.8539 18.8942 22.5236 19.2042 22.2112C19.4822 21.9332 19.8232 21.4877 20.1321 21.1265C20.441 20.7654 20.5455 20.5064 20.751 20.0941C20.9566 19.6819 20.8544 19.3196 20.6999 19.0095C20.5455 18.6994 19.3076 15.6522 18.7908 14.4119C18.2883 13.2049 17.7786 13.3688 17.3985 13.3498C17.042 13.332 16.6239 13.3272 16.2104 13.3272C15.8966 13.3357 15.5879 13.409 15.3037 13.5425C15.0195 13.676 14.766 13.8668 14.5591 14.103C13.9924 14.7219 12.3934 16.22 12.3934 19.2673C12.3934 22.3145 14.6114 25.2584 14.9203 25.6719C15.2291 26.0853 19.2862 32.3378 25.4936 35.0192C26.6462 35.5167 27.8244 35.9529 29.0232 36.326C30.507 36.8012 31.8566 36.7299 32.9222 36.5707C34.1102 36.3937 36.5861 35.0738 37.1017 33.628C37.6173 32.1822 37.6173 30.9419 37.4581 30.6829C37.2989 30.4239 36.8997 30.273 36.2807 29.963Z" fill="#25D366"/>
</svg>
