<svg width="88" height="20" viewBox="0 0 88 20" fill="#AFAFAF" xmlns="http://www.w3.org/2000/svg">
  <path fill-rule="evenodd" clip-rule="evenodd" d="M17.2981 20H18.5022C18.7812 20 19.0162 19.7651 19.0308 19.486V6.37298C19.0308 5.08076 17.9883 4.03818 16.696 4.03818H15.1542C14.8752 4.03818 14.6402 3.80323 14.6402 3.52423V2.3348C14.6402 1.04258 13.5977 0 12.3054 0H2.3348C1.04258 0 0 1.04258 0 2.3348V15.5066C0 16.7841 1.04258 17.8267 2.3348 17.8414H13.8913C13.9941 17.8414 14.0969 17.8708 14.185 17.9295L17.0044 19.9119C17.0925 19.9706 17.1953 20 17.2981 20ZM14.4934 15.9765H2.36417C2.07048 15.9765 1.85022 15.7562 1.85022 15.4626V2.36417C1.85022 2.08517 2.08517 1.85022 2.36417 1.85022H12.2761C12.5551 1.85022 12.79 2.08517 12.79 2.36417V3.52423C12.79 3.80323 12.5551 4.03818 12.2761 4.03818H4.88987C4.61087 4.03818 4.37592 4.27313 4.37592 4.55213V13.2893C4.37592 13.5683 4.61087 13.8032 4.88987 13.8032H14.1116C14.3906 13.8032 14.6256 13.5683 14.6256 13.2893V6.40235C14.6256 6.12335 14.8605 5.8884 15.1395 5.8884H16.652C16.931 5.8884 17.1659 6.12335 17.1659 6.40235V17.1219C17.1659 17.3862 16.8722 17.533 16.6667 17.3862L14.7871 16.0646C14.699 16.0059 14.5962 15.9765 14.4934 15.9765ZM12.5257 11.9383H6.47577C6.34361 11.9383 6.22614 11.8355 6.22614 11.6887V6.13803C6.22614 6.00587 6.32893 5.8884 6.47577 5.8884H12.5257C12.6579 5.8884 12.7753 5.99119 12.7753 6.13803V11.6887C12.7753 11.8209 12.6725 11.9383 12.5257 11.9383ZM65.8037 2.79214C66.5748 2.79214 67.1998 2.1671 67.1998 1.39607C67.1998 0.625043 66.5748 0 65.8037 0C65.0327 0 64.4077 0.625043 64.4077 1.39607C64.4077 2.1671 65.0327 2.79214 65.8037 2.79214ZM49.8777 4.83298V4.05739H47.6284V13.7265H49.8777V7.12099L52.5018 6.03516V3.773H52.4759L49.8777 4.83298ZM41.1632 4.04873C39.7025 4.04873 38.5133 4.52701 37.6084 5.49651C37.1947 5.94894 36.8716 6.466 36.6389 7.07355C36.4192 7.66818 36.3028 8.30158 36.3028 8.96084C36.3028 10.3181 36.6906 11.4427 37.4791 12.3088C38.3452 13.2654 39.5345 13.7307 41.0469 13.7307C42.5205 13.7307 43.6968 13.2525 44.5888 12.283C45.429 11.3652 45.8556 10.2147 45.8556 8.81864C45.8556 7.42257 45.4419 6.29796 44.6275 5.41895C43.7615 4.50116 42.611 4.04873 41.1632 4.04873ZM42.9212 10.9257C42.4947 11.4557 41.9 11.7271 41.1503 11.7271C40.3488 11.7271 39.6896 11.4557 39.1984 10.9128C38.9657 10.6671 38.7847 10.3569 38.6555 10.0079C38.5262 9.65887 38.4616 9.29693 38.4616 8.90913C38.4616 8.13353 38.6684 7.48721 39.095 6.94429C39.5603 6.36259 40.1937 6.06528 41.0081 6.06528C41.8095 6.06528 42.4429 6.33674 42.8954 6.89258C43.322 7.40965 43.5417 8.08183 43.5417 8.92206C43.5546 9.73643 43.3478 10.4086 42.9212 10.9257ZM64.6644 4.05906H66.9007V13.7411H64.6644V4.05906ZM30.5392 4.04873C29.2595 4.04873 28.2124 4.4236 27.3981 5.17334C26.6354 5.88431 26.2476 6.77624 26.2476 7.84915C26.2476 8.80572 26.5837 9.59424 27.2559 10.2276C26.6742 10.693 26.3898 11.2488 26.3898 11.9081C26.3898 12.3088 26.4415 12.6578 26.532 12.9552C26.6225 13.2654 26.8034 13.5239 27.0878 13.7566C26.0796 14.3124 25.5883 15.2173 25.6271 16.4583C25.653 17.5312 26.1183 18.3843 27.0232 19.0307C27.9281 19.677 29.1302 20.0001 30.6039 20.0001C32.0775 20.0001 33.1763 19.7158 33.926 19.147C34.6757 18.5782 35.0506 17.7638 35.0506 16.6909C35.0506 15.631 34.7533 14.8037 34.1587 14.222C33.8355 13.9117 33.4219 13.6661 32.9177 13.4464C32.4007 13.2395 31.7026 13.0586 30.7978 12.9164C29.8929 12.7742 29.2466 12.6191 28.8588 12.4252C28.6778 12.3476 28.5615 12.2571 28.5098 12.1666C28.458 12.0761 28.4322 11.9469 28.4322 11.7788C28.4322 11.6108 28.5485 11.3781 28.7683 11.0808C29.2724 11.2488 29.8283 11.3393 30.4229 11.3393C31.638 11.3393 32.6333 10.9774 33.4219 10.2406C33.7709 9.90448 34.0423 9.50375 34.2362 9.05132C34.4301 8.59889 34.5206 8.09475 34.5206 7.53891C34.5206 6.98307 34.3914 6.45308 34.1328 5.96187C34.1328 5.96187 34.1328 5.94894 34.1199 5.94894H35.0635V4.04873H30.5392ZM28.9751 14.5063L29.4405 14.5839C30.7461 14.7778 31.6768 15.0363 32.2068 15.3854C32.685 15.6827 32.9177 16.0834 32.9177 16.5746C32.9177 17.6087 32.1809 18.1129 30.7073 18.1129C29.8412 18.1129 29.1432 17.9319 28.6002 17.5829C28.3546 17.4278 28.1607 17.2339 28.0315 17.0141C27.8893 16.7944 27.8246 16.5487 27.8246 16.2514C27.8246 15.9541 27.9151 15.6439 28.0961 15.3207C28.29 14.9846 28.5873 14.7261 28.9751 14.5063ZM31.7931 8.96084C31.4312 9.284 31.0046 9.45205 30.5263 9.45205C29.88 9.45205 29.3629 9.27108 28.9622 8.90913C28.7812 8.75401 28.6519 8.56011 28.5485 8.36621C28.458 8.15939 28.4063 7.95256 28.4063 7.73281C28.4063 7.51306 28.4451 7.29331 28.5356 7.07355C28.82 6.33674 29.4534 5.97479 30.4487 5.97479C31.0434 5.97479 31.5216 6.12991 31.8577 6.44015C32.1938 6.75039 32.3748 7.16404 32.3748 7.66818C32.3619 8.15939 32.168 8.59889 31.7931 8.96084ZM76.7763 6.15576C76.9443 6.59527 77.0348 7.11233 77.0348 7.66818V13.7049H74.8373V13.2525C74.178 13.5498 73.5705 13.7049 73.0146 13.7049C72.3166 13.7049 71.7349 13.6403 71.2437 13.511C70.7525 13.3817 70.3388 13.1878 70.0027 12.9422C69.3176 12.4252 68.9686 11.6883 68.9686 10.7318C68.9686 9.87862 69.3822 9.15473 70.2354 8.58596C71.1532 7.96549 72.4071 7.65525 73.9841 7.65525L74.3461 7.66818C74.3833 7.66818 74.4206 7.67116 74.4594 7.67427C74.5012 7.67762 74.5447 7.6811 74.5917 7.6811C74.635 7.6873 74.6754 7.69052 74.7143 7.69363C74.7565 7.697 74.7969 7.70022 74.8373 7.70696C74.7856 6.75039 74.3719 6.18162 73.5963 6.0265C73.3507 5.97479 73.0663 5.94894 72.7819 5.94894C72.4846 5.94894 72.2002 5.97479 71.9288 6.0265C71.6444 6.07821 71.3729 6.15577 71.1144 6.23332C70.5456 6.4143 70.119 6.63405 69.8734 6.86673L69.8476 6.8538L69.5761 4.87603C70.6232 4.32019 71.7866 4.04873 73.0405 4.04873C74.9924 4.04873 76.2333 4.74677 76.7763 6.15576ZM74.8373 11.4169V10.1759V9.33571C74.6692 9.30985 74.5012 9.29693 74.3331 9.29693H73.9712C72.6527 9.29693 71.8124 9.59424 71.4505 10.1759C71.3471 10.344 71.2954 10.525 71.2954 10.7189C71.2954 10.9128 71.3342 11.0808 71.3988 11.223C71.4763 11.3652 71.5927 11.4944 71.7478 11.5849C72.058 11.7659 72.5234 11.8564 73.131 11.8564C73.7385 11.8564 74.3073 11.7013 74.8373 11.4169ZM85.2965 8.32743C85.6714 8.5084 85.9816 8.72816 86.2143 8.98669C86.6409 9.45204 86.8606 10.0725 86.8606 10.874C86.8606 11.7142 86.5245 12.3993 85.8524 12.9293C85.1543 13.4851 84.1719 13.7566 82.9051 13.7566C81.3798 13.7566 80.1905 13.4981 79.3503 12.9939V10.6154C79.3503 10.6025 79.402 10.6542 79.4925 10.7576C79.583 10.861 79.7639 10.9774 80.0095 11.1325C80.2551 11.2876 80.5525 11.4169 80.8756 11.5332C81.5866 11.7788 82.3234 11.8952 83.099 11.8952C84.1331 11.8952 84.6502 11.5462 84.6502 10.861C84.6502 10.6413 84.5468 10.4732 84.3529 10.3698C84.0039 10.1889 83.4868 10.0467 82.8017 9.95618C82.1166 9.85277 81.5607 9.7235 81.1212 9.54253C80.6817 9.36156 80.3198 9.14181 80.0483 8.8962C79.5442 8.41792 79.2856 7.79744 79.2856 7.03477C79.2856 6.10406 79.6476 5.36724 80.3586 4.83725C81.0695 4.30726 82.0519 4.04873 83.3058 4.04873C84.5468 4.04873 85.6068 4.39775 86.4858 5.10871C86.447 5.26383 86.4082 5.41895 86.3565 5.56114C86.2143 5.96187 86.1109 6.24625 86.0463 6.4143L85.8394 6.94429C85.8265 6.99599 85.8136 7.02185 85.8136 7.02185C85.8007 7.02185 85.7489 6.95721 85.6714 6.82795C85.2965 6.38844 84.7019 6.10406 83.9134 5.96187C83.6678 5.91016 83.4222 5.88431 83.1636 5.88431C82.0778 5.88431 81.5349 6.20747 81.5349 6.86673C81.5349 7.08648 81.6383 7.26745 81.871 7.38379C82.2975 7.61647 82.8792 7.78451 83.6161 7.88793C84.3529 8.00427 84.9087 8.14646 85.2965 8.32743ZM58.0845 4.04873C56.8048 4.04873 55.7577 4.4236 54.9434 5.17334C54.1807 5.88431 53.7929 6.77624 53.7929 7.84915C53.7929 8.80572 54.129 9.59424 54.8012 10.2276C54.2195 10.693 53.9351 11.2488 53.9351 11.9081C53.9351 12.3088 53.9868 12.6578 54.0773 12.9552C54.1678 13.2654 54.3487 13.5239 54.6331 13.7566C53.6248 14.3124 53.1336 15.2173 53.1724 16.4583C53.1983 17.5312 53.6636 18.3843 54.5685 19.0307C55.4733 19.677 56.6755 20.0001 58.1492 20.0001C59.6228 20.0001 60.7215 19.7158 61.4713 19.147C62.221 18.5782 62.5959 17.7638 62.5959 16.6909C62.5959 15.631 62.2986 14.8037 61.704 14.222C61.3808 13.9117 60.9672 13.6661 60.463 13.4464C59.9459 13.2395 59.2479 13.0586 58.3431 12.9164C57.4382 12.7742 56.7919 12.6191 56.4041 12.4252C56.2231 12.3476 56.1068 12.2571 56.055 12.1666C56.0033 12.0761 55.9775 11.9469 55.9775 11.7788C55.9775 11.6108 56.0938 11.3781 56.3136 11.0808C56.8177 11.2488 57.3736 11.3393 57.9682 11.3393C59.1833 11.3393 60.1786 10.9774 60.9672 10.2406C61.3162 9.90448 61.5876 9.50375 61.7815 9.05132C61.9754 8.59889 62.0659 8.09475 62.0659 7.53891C62.0659 6.98307 61.9366 6.45308 61.6781 5.96187C61.6781 5.96187 61.6781 5.94894 61.6652 5.94894H62.6088V4.04873H58.0845ZM56.5204 14.5063L56.9858 14.5839C58.2913 14.7778 59.2221 15.0363 59.752 15.3854C60.2303 15.6827 60.463 16.0834 60.463 16.5746C60.463 17.6087 59.7262 18.1129 58.2526 18.1129C57.3865 18.1129 56.6884 17.9319 56.1455 17.5829C55.8999 17.4278 55.706 17.2339 55.5768 17.0141C55.4346 16.7944 55.3699 16.5487 55.3699 16.2514C55.3699 15.9541 55.4604 15.6439 55.6414 15.3207C55.8353 14.9846 56.1326 14.7261 56.5204 14.5063ZM59.3384 8.96084C58.9765 9.284 58.5499 9.45205 58.0716 9.45205C57.4253 9.45205 56.9082 9.27108 56.5075 8.90913C56.3265 8.75401 56.1972 8.56011 56.0938 8.36621C56.0033 8.15939 55.9516 7.95256 55.9516 7.73281C55.9516 7.51306 55.9904 7.29331 56.0809 7.07355C56.3653 6.33674 56.9987 5.97479 57.994 5.97479C58.5887 5.97479 59.0669 6.12991 59.403 6.44015C59.7391 6.75039 59.9201 7.16404 59.9201 7.66818C59.9072 8.15939 59.7133 8.59889 59.3384 8.96084Z"/>
</svg>
