<svg width="12" height="16" viewBox="0 0 12 16" fill="none" xmlns="http://www.w3.org/2000/svg">
<path fill-rule="evenodd" clip-rule="evenodd" d="M1.93048 10.5087C1.66217 10.2702 1.25132 10.2944 1.01282 10.5627C0.774327 10.831 0.798494 11.2419 1.0668 11.4803L5.5668 15.4803C5.81308 15.6993 6.1842 15.6993 6.43048 15.4803L10.9305 11.4803C11.1988 11.2419 11.223 10.831 10.9845 10.5627C10.746 10.2944 10.3351 10.2702 10.0668 10.5087L5.99864 14.1249L1.93048 10.5087ZM1.93096 5.48328C1.66266 5.72177 1.25181 5.69761 1.01331 5.4293C0.774815 5.16099 0.798983 4.75014 1.06729 4.51165L5.56729 0.511645C5.81357 0.292733 6.18469 0.292733 6.43096 0.511645L10.931 4.51165C11.1993 4.75014 11.2234 5.16099 10.9849 5.4293C10.7464 5.69761 10.3356 5.72177 10.0673 5.48328L5.99913 1.86713L1.93096 5.48328Z" fill="#C1C7D1"/>
</svg>
