<svg width="12" height="10" viewBox="0 0 12 10" fill="none" xmlns="http://www.w3.org/2000/svg">
<path fill-rule="evenodd" clip-rule="evenodd" d="M1.93194 9.48522C1.66363 9.72372 1.25279 9.69955 1.01429 9.43124C0.775792 9.16293 0.799959 8.75209 1.06827 8.51359L5.56827 4.51359C5.81454 4.29468 6.18567 4.29468 6.43194 4.51359L10.9319 8.51359C11.2003 8.75209 11.2244 9.16293 10.9859 9.43124C10.7474 9.69955 10.3366 9.72372 10.0683 9.48522L6.0001 5.86908L1.93194 9.48522ZM1.93194 5.48522C1.66363 5.72372 1.25279 5.69955 1.01429 5.43124C0.775792 5.16293 0.799959 4.75209 1.06827 4.51359L5.56827 0.513592C5.81454 0.29468 6.18567 0.29468 6.43194 0.513592L10.9319 4.51359C11.2003 4.75209 11.2244 5.16293 10.9859 5.43124C10.7474 5.69955 10.3366 5.72372 10.0683 5.48522L6.0001 1.86908L1.93194 5.48522Z" fill="#C1C7D1"/>
</svg>
