<svg width="18" height="12" viewBox="0 0 18 12" fill="none" xmlns="http://www.w3.org/2000/svg">
<path d="M0.36762 5.43203L8.43494 0.149864C8.78646 -0.0499548 9.21707 -0.0499548 9.56859 0.149864L17.6359 5.43203C17.9523 5.58842 18.0929 5.96199 17.9347 6.28344C17.8732 6.41376 17.7677 6.51801 17.6359 6.57882L16.555 7.28253C13.9098 3.15584 8.391 1.93086 4.21674 4.53719C3.10067 5.2409 2.15157 6.1705 1.43975 7.28253L0.350044 6.57882C0.0336782 6.41376 -0.0893528 6.03149 0.06883 5.71873C0.139133 5.5971 0.244589 5.49285 0.36762 5.43203ZM8.98858 5.37122C6.67736 5.37991 4.52431 6.55276 3.294 8.49014L5.14826 9.70643C6.42251 7.61267 9.17313 6.94371 11.2822 8.20344C11.9062 8.57701 12.4247 9.08959 12.8025 9.70643L14.6568 8.49014C13.4441 6.54407 11.2998 5.36253 8.98858 5.37122ZM8.98858 9.78461C8.17131 9.7933 7.42433 10.2277 7.02009 10.9314L8.26797 11.7394C8.4701 11.9131 8.72495 12 8.98858 12C9.25222 12 9.51586 11.9044 9.70919 11.7394L10.9571 10.9314C10.5616 10.219 9.80586 9.78461 8.98858 9.78461Z" fill="url(#paint0_linear)"/>
<defs>
<linearGradient id="paint0_linear" x1="8.99596" y1="11.9969" x2="8.99596" y2="0.00143712" gradientUnits="userSpaceOnUse">
<stop stop-color="#EFC119"/>
<stop offset="0.3314" stop-color="#92C84E"/>
<stop offset="0.4859" stop-color="#71BF5B"/>
<stop offset="0.7506" stop-color="#15B158"/>
<stop offset="0.903" stop-color="#23AC69"/>
<stop offset="1" stop-color="#23AC69"/>
</linearGradient>
</defs>
</svg>
