<svg width="20" height="20" viewBox="0 0 20 20" fill="none" xmlns="http://www.w3.org/2000/svg">
<path fill-rule="evenodd" clip-rule="evenodd" d="M16.5352 0.379379L17.0459 1.60907C14.6729 0.134616 12.1333 -0.35106 9.4223 0.253869C6.70787 0.859569 4.59596 2.36963 3.11978 4.72294C0.346725 9.1432 1.46746 14.9536 5.67713 18.0505C9.81365 21.0936 15.2829 20.3926 18.5233 17.2057L17.9249 16.5832C13.9683 20.3627 7.80733 19.7896 4.53484 15.7722C1.37467 11.8929 1.88605 6.12164 5.87675 2.9069C7.90165 1.27575 10.2307 0.646857 12.807 0.961978C14.2218 1.13504 15.5181 1.6416 16.694 2.45751L15.2873 2.57695L15.3595 3.44686L18.6425 3.17149L17.3413 0.0431784L16.5352 0.379379ZM7.32784 6.9994L11.6154 4.7615L12.6935 5.32697L8.62807 7.7361L7.32784 6.9994ZM13.9997 6.01053L15.8815 6.99594L11.6113 9.42807L9.88461 8.44931L13.9997 6.01053ZM9.48941 9.11969L11.2169 10.0988V15.1944L6.91714 12.7781V7.66064L8.23942 8.41061V10.1792L9.48941 10.8873V9.11969ZM16.3097 7.64745V12.76L12.0037 15.2284V10.0997L16.3097 7.64745ZM11.6158 3.88389L6.13906 6.74232V13.2331L11.6481 16.329L17.0862 13.2114V6.74886L11.6158 3.88389Z" fill="#53BAD3"/>
</svg>
