<svg width="24" height="25" viewBox="0 0 24 25" fill="none" xmlns="http://www.w3.org/2000/svg">
<g clip-path="url(#clip0_991_22538)">
<path d="M11.9988 24.9388C18.6256 24.9388 23.9976 19.5667 23.9976 12.94C23.9976 6.31321 18.6256 0.941162 11.9988 0.941162C5.37205 0.941162 0 6.31321 0 12.94C0 19.5667 5.37205 24.9388 11.9988 24.9388Z" fill="#3901F1"/>
<path d="M13.1439 17.6929H7.19622C7.17767 17.6933 7.15929 17.6895 7.14239 17.6818C7.12551 17.6741 7.11054 17.6628 7.0986 17.6485C7.08666 17.6344 7.07803 17.6177 7.07335 17.5997C7.06869 17.5818 7.06807 17.563 7.07158 17.5449L8.23102 11.5901C8.23573 11.5685 8.24652 11.5488 8.26212 11.5332C8.27771 11.5177 8.29745 11.5069 8.31899 11.5022C8.34053 11.4975 8.36297 11.499 8.38363 11.5067C8.40431 11.5144 8.42235 11.5278 8.43562 11.5454L13.2356 17.5001C13.2468 17.5182 13.2533 17.5387 13.2545 17.56C13.2557 17.5812 13.2515 17.6023 13.2423 17.6215C13.2332 17.6407 13.2194 17.6573 13.2023 17.6698C13.185 17.6823 13.1649 17.6903 13.1439 17.6929Z" fill="#FFFBF6"/>
<path d="M7.08571 8.70206H13.0333C13.0519 8.70172 13.0703 8.70553 13.0872 8.71321C13.1041 8.72089 13.119 8.73224 13.131 8.74644C13.1429 8.76063 13.1515 8.77732 13.1562 8.79528C13.1609 8.81323 13.1615 8.832 13.158 8.85022L12.0057 14.8167C12.0005 14.8379 11.9895 14.8571 11.974 14.8724C11.9585 14.8877 11.939 14.8983 11.9178 14.9031C11.8966 14.9081 11.8745 14.907 11.8538 14.9C11.8332 14.8931 11.815 14.8805 11.801 14.8638L6.99399 8.88784C6.97851 8.87144 6.96843 8.85069 6.96509 8.8284C6.96175 8.80609 6.9653 8.7833 6.97529 8.76308C6.98527 8.74286 7.00119 8.72618 7.02093 8.71527C7.04067 8.70436 7.06327 8.69974 7.08571 8.70206Z" fill="#FFFBF6"/>
<path d="M13.7535 8.70203C13.7273 8.70259 13.7019 8.71156 13.6811 8.72767C13.6604 8.74376 13.6454 8.7661 13.6383 8.7914C13.5756 9.28808 13.6186 9.7924 13.7645 10.2713C13.9103 10.7502 14.1557 11.1929 14.4845 11.5704C14.8133 11.9478 15.2182 12.2516 15.6726 12.4616C16.1271 12.6717 16.6208 12.7834 17.1213 12.7894H17.246C17.2728 12.7909 17.2992 12.7823 17.3201 12.7654C17.341 12.7484 17.3548 12.7243 17.3588 12.6977L18.1584 8.82903C18.1598 8.81177 18.1575 8.79443 18.1518 8.77809C18.1462 8.76173 18.1372 8.74671 18.1256 8.73394C18.1138 8.72116 18.0996 8.71092 18.0839 8.70381C18.0682 8.69671 18.051 8.6929 18.0338 8.69263L13.7535 8.70203Z" fill="#FFFBF6"/>
</g>
<defs>
<clipPath id="clip0_991_22538">
<rect width="24" height="24" fill="white" transform="translate(0 0.941162)"/>
</clipPath>
</defs>
</svg>
