<svg width="20" height="20" viewBox="0 0 20 20" fill="none" xmlns="http://www.w3.org/2000/svg">
<path fill-rule="evenodd" clip-rule="evenodd" d="M15.8261 4.38799C15.8921 4.39354 15.9721 4.44401 15.9846 4.53532C15.997 4.62663 17.9668 17.9436 17.9668 17.9436L12.3556 19.1575L2 17.2172C2 17.2172 3.32897 6.9396 3.37929 6.57727C3.44595 6.09869 3.462 6.08265 3.9699 5.92336C4.05246 5.8974 4.69893 5.69698 5.60883 5.41503C5.95964 3.92735 7.07842 1 9.42012 1C9.726 1 10.0802 1.16424 10.3661 1.54232C10.3946 1.54072 10.4232 1.53955 10.4509 1.53955C11.4562 1.53955 12.0276 2.39578 12.3514 3.32741C12.6821 3.22516 12.8819 3.16346 12.8939 3.15996C12.9746 3.13618 13.1824 3.1038 13.2889 3.21028C13.3952 3.31677 14.3645 4.27903 14.3645 4.27903C14.3645 4.27903 15.7601 4.38245 15.8261 4.38799ZM10.9028 3.77565L11.779 3.50449C11.557 2.82622 11.2121 2.23693 10.6941 2.17188C10.823 2.5415 10.9034 3.00768 10.9034 3.58676C10.9034 3.65247 10.9031 3.71274 10.9028 3.77381L10.9028 3.77565ZM10.2892 3.86419C10.2892 3.16536 10.1955 2.64754 10.0516 2.28667C9.48051 2.53172 8.82733 3.18126 8.47886 4.52613L10.2886 3.96572L10.2886 3.96453C10.2889 3.93182 10.2892 3.8995 10.2892 3.86419ZM9.65613 1.72947C9.5587 1.66237 9.45688 1.62809 9.3558 1.62809C7.67384 1.62809 6.72893 3.83648 6.33101 5.19127L7.7615 4.74828C8.10122 2.97209 8.90566 2.08261 9.65613 1.72947ZM9.75911 9.54633L10.4509 7.48833C10.4509 7.48833 9.9833 7.21716 9.03664 7.21716C6.57985 7.21716 5.36275 8.85814 5.36275 10.5538C5.36275 11.6856 5.9971 12.1988 6.5531 12.6487C6.98685 12.9996 7.37291 13.312 7.37291 13.8493C7.37291 14.1457 7.1633 14.5514 6.64811 14.5514C5.85957 14.5514 4.92516 13.7491 4.92516 13.7491L4.4492 15.3217C4.4492 15.3217 5.35823 16.4281 7.13588 16.4281C8.61728 16.4281 9.71593 15.3126 9.71593 13.5805C9.71593 12.2489 8.81963 11.5909 8.11122 11.0709C7.64835 10.7311 7.2657 10.4502 7.2657 10.0787C7.2657 9.90647 7.32055 9.2228 8.40986 9.2228C9.15289 9.2228 9.75911 9.54633 9.75911 9.54633Z" fill="#95BF46"/>
</svg>
