<svg width="80" height="80" viewBox="0 0 80 80" fill="none" xmlns="http://www.w3.org/2000/svg">
<g clip-path="url(#clip0_3_1012)">
<path fill-rule="evenodd" clip-rule="evenodd" d="M7.46687 19.2H72.5536C76.6571 19.2 79.9991 22.4539 79.9991 26.4492V50.6271C79.9991 54.6224 76.6571 57.8763 72.5536 57.8763H49.2012L52.3952 65.5169L38.2864 57.8763H7.44573C3.34212 57.8763 0 54.6224 0 50.6271V26.4492C0 22.4539 3.34212 19.2 7.46687 19.2Z" fill="#7F54B3"/>
<path d="M4.04015 25.7856C4.54787 25.1884 5.28824 24.8177 6.092 24.7971C7.74188 24.6941 8.69375 25.4561 8.94762 27.0831C9.96297 33.7145 11.0629 39.3573 12.2262 43.9911L19.3971 30.7283C20.0528 29.5338 20.8566 28.8954 21.8508 28.8336C23.2892 28.7307 24.1776 29.6162 24.5372 31.5109C25.2141 35.2179 26.2505 38.8631 27.6254 42.3848C28.4927 34.3117 29.9311 28.4629 31.9406 24.8589C32.3425 24.0351 33.1674 23.4996 34.0982 23.4585C34.8385 23.3967 35.5789 23.6232 36.15 24.0969C36.7423 24.5293 37.1019 25.209 37.1441 25.9298C37.1865 26.4652 37.0807 27.0007 36.8269 27.4538C35.5577 29.7604 34.5 33.5909 33.6751 38.9455C32.8713 44.1147 32.554 48.1718 32.7655 51.0756C32.8502 51.7965 32.7021 52.5172 32.3848 53.1556C32.0675 53.8147 31.3906 54.2677 30.6503 54.309C29.783 54.3707 28.9369 53.9794 28.0697 53.1351C25.0237 50.1077 22.6123 45.5975 20.8354 39.6045C18.7413 43.6822 17.1548 46.7508 16.1184 48.769C14.1935 52.3731 12.5436 54.206 11.1898 54.309C10.3014 54.3707 9.53987 53.65 8.92648 52.1259C7.25538 47.9658 5.45739 39.9134 3.53251 27.9686C3.36327 27.1861 3.55365 26.4035 4.04015 25.7856Z" fill="white"/>
<path d="M53.8126 30.774C52.7127 28.8587 50.8089 27.4994 48.5879 27.0876C47.9956 26.964 47.4033 26.9022 46.8111 26.9022C43.6805 26.9022 41.121 28.488 39.1326 31.6595C37.4404 34.3574 36.552 37.4672 36.5943 40.6181C36.5943 43.0688 37.1231 45.1695 38.1596 46.92C39.2596 48.8353 41.1633 50.1945 43.3843 50.6065C43.9766 50.73 44.5688 50.7918 45.1612 50.7918C48.3129 50.7918 50.8724 49.206 52.8396 46.0344C54.5318 43.316 55.4202 40.2063 55.3779 37.0141C55.3779 34.5634 54.8491 32.4833 53.8126 30.774ZM49.6878 39.609C49.2437 41.6891 48.4187 43.2542 47.1918 44.3251C46.2399 45.1695 45.3516 45.499 44.5477 45.3548C43.7439 45.2106 43.1093 44.5105 42.6228 43.2954C42.2632 42.3687 42.0517 41.4007 42.0517 40.3915C42.0517 39.609 42.1363 38.8264 42.2843 38.0644C42.6017 36.7052 43.1728 35.4283 44.0189 34.275C45.0977 32.7305 46.2399 32.0714 47.4245 32.3185C48.2283 32.4833 48.8628 33.1629 49.3494 34.378C49.7089 35.3048 49.9205 36.2727 49.9205 37.2612C49.9205 38.0438 49.8571 38.8264 49.6878 39.609Z" fill="white"/>
<path d="M74.2879 30.774C73.1885 28.8587 71.2847 27.4994 69.0636 27.0876C68.4715 26.964 67.8794 26.9022 67.2864 26.9022C64.1566 26.9022 61.5966 28.488 59.6083 31.6595C57.9162 34.3574 57.0277 37.4672 57.0701 40.6181C57.0701 43.0688 57.5988 45.1695 58.6353 46.92C59.7353 48.8353 61.6394 50.1945 63.8597 50.6065C64.4526 50.73 65.0447 50.7918 65.6368 50.7918C68.7889 50.7918 71.348 49.206 73.3151 46.0344C75.0075 43.316 75.8956 40.2063 75.8537 37.0141C75.8537 34.5634 75.3249 32.4833 74.2879 30.774ZM70.1639 39.609C69.719 41.6891 68.8941 43.2542 67.6672 44.3251C66.7157 45.1695 65.8276 45.499 65.0233 45.3548C64.2199 45.2107 63.585 44.5105 63.0982 43.2954C62.7388 42.3687 62.5275 41.4007 62.5275 40.3915C62.5275 39.609 62.6122 38.8264 62.7602 38.0644C63.0777 36.7052 63.6484 35.4283 64.4946 34.275C65.5735 32.7305 66.7157 32.0714 67.8999 32.3185C68.7042 32.4833 69.3382 33.1629 69.825 34.378C70.1844 35.3048 70.3966 36.2727 70.3966 37.2612C70.3966 38.0438 70.3324 38.8264 70.1639 39.609Z" fill="white"/>
</g>
<defs>
<clipPath id="clip0_3_1012">
<rect width="80" height="46.4" fill="white" transform="translate(0 19.2)"/>
</clipPath>
</defs>
</svg>
