<svg width="12" height="10" viewBox="0 0 12 10" fill="none" xmlns="http://www.w3.org/2000/svg">
<path fill-rule="evenodd" clip-rule="evenodd" d="M1.93194 0.5138C1.66363 0.275304 1.25279 0.299471 1.01429 0.56778C0.775792 0.836089 0.799959 1.24694 1.06827 1.48543L5.56827 5.48543C5.81454 5.70434 6.18567 5.70434 6.43194 5.48543L10.9319 1.48543C11.2003 1.24694 11.2244 0.836089 10.9859 0.56778C10.7474 0.299471 10.3366 0.275304 10.0683 0.5138L6.0001 4.12995L1.93194 0.5138ZM1.93194 4.5138C1.66363 4.2753 1.25279 4.29947 1.01429 4.56778C0.775792 4.83609 0.799959 5.24694 1.06827 5.48543L5.56827 9.48543C5.81454 9.70434 6.18567 9.70434 6.43194 9.48543L10.9319 5.48543C11.2003 5.24694 11.2244 4.83609 10.9859 4.56778C10.7474 4.29947 10.3366 4.2753 10.0683 4.5138L6.0001 8.12995L1.93194 4.5138Z" fill="#4A8DF9"/>
</svg>
