<svg width="21" height="20" viewBox="0 0 21 20" fill="none" xmlns="http://www.w3.org/2000/svg">
<path fill-rule="evenodd" clip-rule="evenodd" d="M3.82334 1C2.2972 1 1.05835 2.23807 1.05835 3.76499V16.235C1.05835 17.7612 2.29642 19 3.82334 19H16.2934C17.8195 19 19.0583 17.7619 19.0583 16.235V3.76499C19.0583 2.23885 17.8203 1 16.2934 1H3.82334ZM12.6027 8.20001H13.1434C13.2511 8.20001 13.3436 8.23851 13.4217 8.31652C13.492 8.38736 13.5383 8.45747 13.5383 8.58036C13.5383 8.58036 13.5193 9.14189 13.5091 9.25396C13.4214 10.2503 13.0779 11.0434 12.4779 11.634C11.8839 12.2194 11.0813 12.5145 10.0704 12.52L10.0463 12.5198C9.03531 12.5145 8.23275 12.2194 7.63871 11.634C7.03876 11.0434 6.69519 10.2503 6.60757 9.25395C6.59738 9.14189 6.57832 8.58034 6.57832 8.58034C6.57832 8.45747 6.62467 8.38736 6.69497 8.31652C6.77308 8.23851 6.86557 8.2 6.97324 8.2H7.51395C7.6216 8.2 7.71411 8.23851 7.79188 8.31652C7.8625 8.38736 7.90674 8.47082 7.90928 8.56618C7.90935 8.5688 7.90943 8.572 7.90953 8.57573C7.91158 8.65495 7.9199 8.97548 7.93832 9.18126C7.99681 9.80629 8.20412 10.3089 8.55992 10.6893C8.91313 11.0676 9.41269 11.2575 10.059 11.2605C10.7046 11.2573 11.2038 11.0674 11.5567 10.6893C11.9125 10.3089 12.1198 9.80631 12.1783 9.18127C12.1967 8.97636 12.205 8.65769 12.2071 8.57677L12.2074 8.56619C12.2099 8.47083 12.2541 8.38736 12.3248 8.31652C12.4025 8.23851 12.495 8.20001 12.6027 8.20001Z" fill="#FBC335"/>
</svg>
