<svg width="302" height="217" viewBox="0 0 302 217" fill="none" xmlns="http://www.w3.org/2000/svg">
<path d="M231 23H21C18.7909 23 17 24.7909 17 27V161C17 163.209 18.7909 165 21 165H231C233.209 165 235 163.209 235 161V27C235 24.7909 233.209 23 231 23Z" fill="#DDDDDD" stroke="black" stroke-linecap="round" stroke-linejoin="round"/>
<path d="M225 152V36C225 34.3431 223.657 33 222 33L30 33C28.3432 33 27 34.3431 27 36V152C27 153.657 28.3431 155 30 155H222C223.657 155 225 153.657 225 152Z" fill="white" stroke="black" stroke-linecap="round" stroke-linejoin="round"/>
<rect width="36" height="3" rx="1.5" transform="matrix(1 0 0 -1 108 41)" fill="#222222"/>
<path d="M17 167C17 165.895 17.8954 165 19 165H233C234.105 165 235 165.895 235 167V172.133C235 175.378 232.891 178 230.281 178H21.7189C19.1088 178 17 175.378 17 172.133V167Z" fill="#DDDDDD" stroke="black" stroke-linecap="round" stroke-linejoin="round"/>
<path d="M46 178H26V182H46V178Z" fill="#DDDDDD" stroke="black" stroke-linecap="round" stroke-linejoin="round"/>
<path d="M223 178H203V182H223V178Z" fill="#DDDDDD" stroke="black" stroke-linecap="round" stroke-linejoin="round"/>
<rect x="94.5" y="61.5" width="71" height="71" stroke="white"/>
<circle cx="130" cy="97" r="36" fill="#24D69D"/>
<path d="M120.088 112L108 102.339L109.934 100.814L119.604 108.949L150.549 82L152 84.0339L120.088 112Z" fill="white" stroke="white"/>
<path d="M298 115.976C297.981 116.214 297.955 116.457 297.924 116.701C297.574 119.669 296.645 122.83 295.412 124.529L273.179 160.753L257.72 182.956C255.716 185.193 254.12 187.771 253.007 190.573L247.297 216H193L206.266 173.365C206.921 170.159 208.11 166.844 207.29 163.683L201.814 129.03C200.04 122.163 200.161 114.938 202.17 108.135L212.778 70.9432C213.045 70.0327 213.503 69.1864 214.12 68.4684C215.347 67.0451 217.458 66 219.703 66C225.427 66 226.686 71.7766 226.686 76.7583C226.686 81.7399 222.476 101.064 218.431 116.009L221 103" fill="#FFE8DB"/>
<path d="M298 115.976C297.981 116.214 297.955 116.457 297.924 116.701C297.574 119.669 296.645 122.83 295.412 124.529L273.179 160.753L257.72 182.956C255.716 185.193 254.12 187.771 253.007 190.573L247.297 216H193L206.266 173.365C206.921 170.159 208.11 166.844 207.29 163.683L201.814 129.03C200.04 122.163 200.161 114.938 202.17 108.135L212.778 70.9432C213.045 70.0327 213.503 69.1864 214.12 68.4684C215.347 67.0451 217.458 66 219.703 66C225.427 66 226.686 71.7766 226.686 76.7583C226.686 81.7399 222.476 101.064 218.431 116.009L221 103" stroke="black" stroke-linejoin="round"/>
<path d="M280.929 1H226.071C223.823 1 222 3.01055 222 5.4907V132.509C222 134.989 223.823 137 226.071 137H280.929C283.177 137 285 134.989 285 132.509V5.4907C285 3.01055 283.177 1 280.929 1Z" fill="#DDDDDD" stroke="black" stroke-miterlimit="10"/>
<path d="M278.31 6.71484H228.69C226.707 6.71484 225.099 8.42043 225.099 10.5244V127.477C225.099 129.581 226.707 131.286 228.69 131.286H278.31C280.294 131.286 281.902 129.581 281.902 127.477V10.5244C281.902 8.42043 280.294 6.71484 278.31 6.71484Z" fill="white" stroke="black" stroke-miterlimit="10"/>
<line x1="228" y1="22.5" x2="280" y2="22.5" stroke="#DDDDDD"/>
<line x1="228" y1="39.5" x2="280" y2="39.5" stroke="#DDDDDD"/>
<path d="M236.166 28.6348V33H235.381V29.4053H235.355L234.335 30.0586V29.332L235.419 28.6348H236.166ZM238.092 33V32.4316L239.61 30.9434C239.753 30.7969 239.872 30.667 239.967 30.5537C240.065 30.4404 240.138 30.3311 240.187 30.2256C240.236 30.1182 240.26 30.0039 240.26 29.8828C240.26 29.7461 240.229 29.6279 240.167 29.5283C240.104 29.4287 240.018 29.3525 239.909 29.2998C239.801 29.2471 239.678 29.2207 239.54 29.2207C239.395 29.2207 239.269 29.25 239.162 29.3086C239.054 29.3672 238.97 29.4502 238.91 29.5576C238.851 29.665 238.822 29.793 238.822 29.9414H238.072C238.072 29.666 238.134 29.4268 238.259 29.2236C238.386 29.0186 238.561 28.8594 238.784 28.7461C239.006 28.6328 239.261 28.5762 239.548 28.5762C239.843 28.5762 240.101 28.6309 240.322 28.7402C240.543 28.8496 240.714 29 240.838 29.1914C240.961 29.3809 241.022 29.5977 241.022 29.8418C241.022 30.0059 240.991 30.167 240.928 30.3252C240.866 30.4814 240.755 30.6562 240.597 30.8496C240.441 31.041 240.221 31.2725 239.938 31.5439L239.188 32.3086V32.3408H241.087V33H238.092ZM241.975 31.8135H242.775C242.785 31.9346 242.826 32.0391 242.898 32.127C242.972 32.2148 243.068 32.2822 243.185 32.3291C243.304 32.374 243.436 32.3965 243.581 32.3965C243.735 32.3965 243.872 32.3701 243.991 32.3174C244.112 32.2646 244.207 32.1885 244.275 32.0889C244.344 31.9873 244.378 31.8652 244.378 31.7227C244.378 31.5898 244.345 31.4697 244.278 31.3623C244.214 31.2529 244.113 31.166 243.976 31.1016C243.842 31.0371 243.669 31.0049 243.458 31.0049H243.03V30.4336L244.038 29.3262V29.2969H242.195V28.6348H245.037V29.209L243.862 30.4688V30.5039C244.151 30.5273 244.394 30.5996 244.592 30.7207C244.789 30.8398 244.938 30.9912 245.04 31.1748C245.141 31.3564 245.192 31.5527 245.192 31.7637C245.192 32.0195 245.122 32.2451 244.981 32.4404C244.841 32.6338 244.648 32.7852 244.404 32.8945C244.162 33.0039 243.886 33.0586 243.575 33.0586C243.276 33.0586 243.008 33.0078 242.769 32.9062C242.533 32.8027 242.345 32.6582 242.204 32.4727C242.063 32.2871 241.987 32.0674 241.975 31.8135ZM247.629 32.1914V31.5615L249.299 28.6348H250.064L248.435 31.5059V31.541H251.025V32.1914H247.629ZM249.709 33V32.0039L249.727 31.7168V30.2754H250.453V33H249.709ZM253.425 33.0586C253.14 33.0586 252.885 33.0059 252.661 32.9004C252.438 32.793 252.26 32.6455 252.127 32.458C251.996 32.2705 251.927 32.0557 251.919 31.8135H252.687C252.699 31.9912 252.775 32.1367 252.915 32.25C253.058 32.3633 253.228 32.4199 253.425 32.4199C253.581 32.4199 253.719 32.3848 253.838 32.3145C253.957 32.2422 254.051 32.1436 254.12 32.0186C254.19 31.8916 254.225 31.7471 254.225 31.585C254.225 31.4189 254.19 31.2725 254.12 31.1455C254.049 31.0166 253.953 30.916 253.829 30.8438C253.706 30.7695 253.565 30.7324 253.405 30.7324C253.272 30.7324 253.143 30.7578 253.018 30.8086C252.893 30.8574 252.793 30.9219 252.719 31.002L252.001 30.8848L252.23 28.6348H254.764V29.2969H252.886L252.76 30.4541H252.784C252.866 30.3564 252.98 30.2773 253.126 30.2168C253.275 30.1543 253.438 30.123 253.616 30.123C253.881 30.123 254.117 30.1855 254.322 30.3105C254.529 30.4336 254.692 30.6035 254.811 30.8203C254.93 31.0371 254.99 31.2861 254.99 31.5674C254.99 31.8545 254.923 32.1113 254.79 32.3379C254.658 32.5625 254.474 32.7393 254.24 32.8682C254.005 32.9951 253.734 33.0586 253.425 33.0586ZM255.861 31.5938C255.863 31.4453 255.883 31.2969 255.922 31.1484C255.962 30.998 256.023 30.8398 256.107 30.6738C256.193 30.5059 256.304 30.3203 256.441 30.1172L257.443 28.6348H258.252L257.165 30.2285C257.217 30.2148 257.272 30.2031 257.329 30.1934C257.385 30.1836 257.443 30.1797 257.502 30.1816C257.769 30.1797 258.006 30.2393 258.213 30.3604C258.422 30.4814 258.587 30.6484 258.706 30.8613C258.825 31.0742 258.884 31.3203 258.884 31.5996C258.884 31.8887 258.819 32.1426 258.688 32.3613C258.559 32.5801 258.381 32.751 258.155 32.874C257.928 32.9971 257.671 33.0586 257.381 33.0586C257.1 33.0586 256.843 32.999 256.611 32.8799C256.38 32.7607 256.197 32.5918 256.06 32.373C255.925 32.1543 255.859 31.8945 255.861 31.5938ZM256.626 31.6113C256.628 31.7695 256.66 31.9102 256.722 32.0332C256.787 32.1543 256.876 32.25 256.989 32.3203C257.102 32.3887 257.232 32.4238 257.379 32.4258C257.525 32.4238 257.654 32.3887 257.765 32.3203C257.879 32.252 257.966 32.1572 258.029 32.0361C258.093 31.9131 258.126 31.7744 258.126 31.6201C258.126 31.46 258.093 31.3193 258.029 31.1982C257.966 31.0752 257.879 30.9795 257.765 30.9111C257.654 30.8428 257.525 30.8096 257.379 30.8115C257.232 30.8096 257.102 30.8428 256.989 30.9111C256.876 30.9795 256.787 31.0742 256.722 31.1953C256.66 31.3164 256.628 31.4551 256.626 31.6113Z" fill="#AFAFAF"/>
<path d="M278.196 28C278.89 29.2022 279.146 30.6078 278.92 31.9774C278.694 33.347 278 34.5958 276.956 35.511C275.912 36.4263 274.584 36.9514 273.196 36.9968C271.809 37.0422 270.449 36.6052 269.347 35.7601C268.246 34.9151 267.472 33.7143 267.157 32.3625C266.842 31.0106 267.005 29.5912 267.619 28.3463C268.233 27.1013 269.259 26.1077 270.524 25.5348C271.788 24.9619 273.212 24.8452 274.553 25.2044L273 31L278.196 28Z" fill="#AFAFAF"/>
<line x1="228" y1="56.5" x2="280" y2="56.5" stroke="#DDDDDD"/>
<line x1="228" y1="73.5" x2="280" y2="73.5" stroke="#DDDDDD"/>
<line x1="228" y1="90.5" x2="280" y2="90.5" stroke="#DDDDDD"/>
<line x1="228" y1="107.5" x2="280" y2="107.5" stroke="#DDDDDD"/>
<line x1="228" y1="124.5" x2="280" y2="124.5" stroke="#DDDDDD"/>
<path d="M235.478 50.0586C235.124 50.0586 234.822 49.9707 234.57 49.7949C234.32 49.6172 234.128 49.3623 233.996 49.0303C233.863 48.6963 233.796 48.293 233.796 47.8203C233.796 47.3477 233.863 46.9443 233.996 46.6104C234.128 46.2744 234.32 46.0186 234.57 45.8428C234.822 45.665 235.124 45.5762 235.478 45.5762C235.829 45.5762 236.131 45.665 236.383 45.8428C236.635 46.0205 236.828 46.2764 236.96 46.6104C237.093 46.9443 237.16 47.3477 237.16 47.8203C237.16 48.293 237.093 48.6963 236.96 49.0303C236.828 49.3623 236.636 49.6172 236.386 49.7949C236.136 49.9707 235.833 50.0586 235.478 50.0586ZM235.478 49.3965C235.667 49.3965 235.828 49.335 235.958 49.2119C236.091 49.0889 236.192 48.9102 236.26 48.6758C236.33 48.4395 236.366 48.1543 236.366 47.8203C236.366 47.4844 236.33 47.1982 236.26 46.9619C236.192 46.7256 236.091 46.5459 235.958 46.4229C235.828 46.2979 235.667 46.2354 235.478 46.2354C235.193 46.2354 234.973 46.374 234.819 46.6514C234.666 46.9268 234.59 47.3164 234.59 47.8203C234.59 48.1543 234.624 48.4395 234.693 48.6758C234.761 48.9102 234.862 49.0889 234.995 49.2119C235.127 49.335 235.288 49.3965 235.478 49.3965ZM240.263 45.6348V50H239.478V46.4053H239.452L238.432 47.0586V46.332L239.516 45.6348H240.263ZM242.189 50V49.4316L243.707 47.9434C243.849 47.7969 243.969 47.667 244.064 47.5537C244.162 47.4404 244.235 47.3311 244.284 47.2256C244.333 47.1182 244.357 47.0039 244.357 46.8828C244.357 46.7461 244.326 46.6279 244.263 46.5283C244.201 46.4287 244.115 46.3525 244.006 46.2998C243.898 46.2471 243.775 46.2207 243.637 46.2207C243.492 46.2207 243.366 46.25 243.259 46.3086C243.151 46.3672 243.067 46.4502 243.007 46.5576C242.948 46.665 242.919 46.793 242.919 46.9414H242.169C242.169 46.666 242.231 46.4268 242.356 46.2236C242.483 46.0186 242.658 45.8594 242.881 45.7461C243.103 45.6328 243.358 45.5762 243.645 45.5762C243.94 45.5762 244.198 45.6309 244.419 45.7402C244.639 45.8496 244.811 46 244.934 46.1914C245.057 46.3809 245.119 46.5977 245.119 46.8418C245.119 47.0059 245.088 47.167 245.025 47.3252C244.963 47.4814 244.852 47.6562 244.694 47.8496C244.538 48.041 244.318 48.2725 244.035 48.5439L243.285 49.3086V49.3408H245.183V50H242.189ZM247.638 48.8135H248.438C248.447 48.9346 248.488 49.0391 248.561 49.127C248.635 49.2148 248.731 49.2822 248.848 49.3291C248.967 49.374 249.099 49.3965 249.243 49.3965C249.398 49.3965 249.534 49.3701 249.654 49.3174C249.775 49.2646 249.869 49.1885 249.938 49.0889C250.006 48.9873 250.04 48.8652 250.04 48.7227C250.04 48.5898 250.007 48.4697 249.941 48.3623C249.876 48.2529 249.776 48.166 249.639 48.1016C249.504 48.0371 249.331 48.0049 249.12 48.0049H248.693V47.4336L249.7 46.3262V46.2969H247.858V45.6348H250.699V46.209L249.525 47.4688V47.5039C249.814 47.5273 250.057 47.5996 250.254 47.7207C250.451 47.8398 250.601 47.9912 250.702 48.1748C250.804 48.3564 250.855 48.5527 250.855 48.7637C250.855 49.0195 250.784 49.2451 250.644 49.4404C250.503 49.6338 250.311 49.7852 250.067 49.8945C249.824 50.0039 249.548 50.0586 249.237 50.0586C248.939 50.0586 248.67 50.0078 248.432 49.9062C248.196 49.8027 248.007 49.6582 247.866 49.4727C247.726 49.2871 247.65 49.0674 247.638 48.8135ZM251.726 49.1914V48.5615L253.396 45.6348H254.161L252.532 48.5059V48.541H255.121V49.1914H251.726ZM253.806 50V49.0039L253.824 48.7168V47.2754H254.55V50H253.806ZM257.522 50.0586C257.237 50.0586 256.982 50.0059 256.757 49.9004C256.535 49.793 256.357 49.6455 256.224 49.458C256.093 49.2705 256.024 49.0557 256.016 48.8135H256.784C256.796 48.9912 256.872 49.1367 257.012 49.25C257.155 49.3633 257.325 49.4199 257.522 49.4199C257.678 49.4199 257.816 49.3848 257.935 49.3145C258.054 49.2422 258.148 49.1436 258.216 49.0186C258.287 48.8916 258.322 48.7471 258.322 48.585C258.322 48.4189 258.287 48.2725 258.216 48.1455C258.146 48.0166 258.049 47.916 257.926 47.8438C257.803 47.7695 257.662 47.7324 257.502 47.7324C257.369 47.7324 257.24 47.7578 257.115 47.8086C256.99 47.8574 256.89 47.9219 256.816 48.002L256.098 47.8848L256.327 45.6348H258.861V46.2969H256.983L256.857 47.4541H256.88C256.962 47.3564 257.077 47.2773 257.223 47.2168C257.372 47.1543 257.535 47.123 257.712 47.123C257.978 47.123 258.213 47.1855 258.419 47.3105C258.626 47.4336 258.789 47.6035 258.908 47.8203C259.027 48.0371 259.087 48.2861 259.087 48.5674C259.087 48.8545 259.02 49.1113 258.887 49.3379C258.754 49.5625 258.571 49.7393 258.337 49.8682C258.102 49.9951 257.831 50.0586 257.522 50.0586Z" fill="#AFAFAF"/>
<path d="M233.773 83.1914V82.5615L235.443 79.6348H236.207L234.579 82.5059V82.541H237.168V83.1914H233.773ZM235.853 84V83.0039L235.871 82.7168V81.2754H236.597V84H235.853ZM237.87 83.1914V82.5615L239.54 79.6348H240.304L238.675 82.5059V82.541H241.265V83.1914H237.87ZM239.95 84V83.0039L239.967 82.7168V81.2754H240.694V84H239.95ZM243.666 84.0586C243.381 84.0586 243.126 84.0059 242.901 83.9004C242.679 83.793 242.501 83.6455 242.368 83.458C242.237 83.2705 242.168 83.0557 242.16 82.8135H242.928C242.939 82.9912 243.015 83.1367 243.156 83.25C243.299 83.3633 243.469 83.4199 243.666 83.4199C243.822 83.4199 243.96 83.3848 244.079 83.3145C244.198 83.2422 244.292 83.1436 244.36 83.0186C244.43 82.8916 244.466 82.7471 244.466 82.585C244.466 82.4189 244.43 82.2725 244.36 82.1455C244.29 82.0166 244.193 81.916 244.07 81.8438C243.947 81.7695 243.805 81.7324 243.645 81.7324C243.513 81.7324 243.384 81.7578 243.259 81.8086C243.134 81.8574 243.034 81.9219 242.96 82.002L242.242 81.8848L242.471 79.6348H245.005V80.2969H243.127L243.001 81.4541H243.024C243.106 81.3564 243.221 81.2773 243.367 81.2168C243.515 81.1543 243.679 81.123 243.856 81.123C244.122 81.123 244.357 81.1855 244.562 81.3105C244.769 81.4336 244.932 81.6035 245.052 81.8203C245.171 82.0371 245.23 82.2861 245.23 82.5674C245.23 82.8545 245.164 83.1113 245.031 83.3379C244.898 83.5625 244.715 83.7393 244.48 83.8682C244.246 83.9951 243.974 84.0586 243.666 84.0586ZM247.626 81.041C247.626 80.75 247.691 80.4951 247.82 80.2764C247.948 80.0576 248.126 79.8867 248.353 79.7637C248.579 79.6387 248.837 79.5762 249.126 79.5762C249.409 79.5762 249.666 79.6357 249.897 79.7549C250.127 79.8721 250.311 80.04 250.447 80.2588C250.584 80.4775 250.652 80.7383 250.65 81.041C250.648 81.1875 250.626 81.3359 250.585 81.4863C250.546 81.6367 250.484 81.7959 250.398 81.9639C250.314 82.1318 250.202 82.3184 250.064 82.5234L249.065 84H248.253L249.343 82.4004C249.29 82.418 249.236 82.4316 249.179 82.4414C249.122 82.4512 249.064 82.457 249.003 82.459C248.737 82.457 248.5 82.3955 248.291 82.2744C248.084 82.1533 247.921 81.9863 247.802 81.7734C247.685 81.5605 247.626 81.3164 247.626 81.041ZM248.382 81.0205C248.384 81.1787 248.416 81.3184 248.479 81.4395C248.543 81.5605 248.631 81.6553 248.742 81.7236C248.856 81.792 248.986 81.8262 249.132 81.8262C249.279 81.8262 249.407 81.792 249.519 81.7236C249.632 81.6553 249.72 81.5605 249.782 81.4395C249.847 81.3184 249.879 81.1797 249.879 81.0234C249.879 80.8652 249.847 80.7256 249.782 80.6045C249.72 80.4814 249.632 80.3857 249.519 80.3174C249.407 80.2471 249.279 80.2119 249.132 80.2119C248.986 80.2119 248.856 80.2471 248.742 80.3174C248.631 80.3857 248.543 80.4805 248.479 80.6016C248.416 80.7227 248.384 80.8623 248.382 81.0205ZM251.735 82.8135H252.535C252.544 82.9346 252.585 83.0391 252.658 83.127C252.732 83.2148 252.828 83.2822 252.945 83.3291C253.064 83.374 253.196 83.3965 253.34 83.3965C253.495 83.3965 253.631 83.3701 253.75 83.3174C253.871 83.2646 253.966 83.1885 254.035 83.0889C254.103 82.9873 254.137 82.8652 254.137 82.7227C254.137 82.5898 254.104 82.4697 254.038 82.3623C253.973 82.2529 253.872 82.166 253.736 82.1016C253.601 82.0371 253.428 82.0049 253.217 82.0049H252.789V81.4336L253.797 80.3262V80.2969H251.954V79.6348H254.796V80.209L253.621 81.4688V81.5039C253.911 81.5273 254.154 81.5996 254.351 81.7207C254.548 81.8398 254.698 81.9912 254.799 82.1748C254.901 82.3564 254.952 82.5527 254.952 82.7637C254.952 83.0195 254.881 83.2451 254.741 83.4404C254.6 83.6338 254.408 83.7852 254.163 83.8945C253.921 84.0039 253.645 84.0586 253.334 84.0586C253.036 84.0586 252.767 84.0078 252.529 83.9062C252.292 83.8027 252.104 83.6582 251.963 83.4727C251.823 83.2871 251.746 83.0674 251.735 82.8135ZM255.82 81.041C255.82 80.75 255.884 80.4951 256.013 80.2764C256.142 80.0576 256.32 79.8867 256.546 79.7637C256.773 79.6387 257.031 79.5762 257.32 79.5762C257.603 79.5762 257.86 79.6357 258.09 79.7549C258.321 79.8721 258.504 80.04 258.641 80.2588C258.778 80.4775 258.845 80.7383 258.843 81.041C258.841 81.1875 258.82 81.3359 258.779 81.4863C258.74 81.6367 258.677 81.7959 258.591 81.9639C258.507 82.1318 258.396 82.3184 258.257 82.5234L257.258 84H256.447L257.537 82.4004C257.484 82.418 257.429 82.4316 257.373 82.4414C257.316 82.4512 257.257 82.457 257.197 82.459C256.931 82.457 256.694 82.3955 256.485 82.2744C256.278 82.1533 256.115 81.9863 255.996 81.7734C255.879 81.5605 255.82 81.3164 255.82 81.041ZM256.576 81.0205C256.578 81.1787 256.61 81.3184 256.672 81.4395C256.737 81.5605 256.825 81.6553 256.936 81.7236C257.049 81.792 257.179 81.8262 257.326 81.8262C257.472 81.8262 257.601 81.792 257.712 81.7236C257.826 81.6553 257.914 81.5605 257.976 81.4395C258.041 81.3184 258.073 81.1797 258.073 81.0234C258.073 80.8652 258.041 80.7256 257.976 80.6045C257.914 80.4814 257.826 80.3857 257.712 80.3174C257.601 80.2471 257.472 80.2119 257.326 80.2119C257.179 80.2119 257.049 80.2471 256.936 80.3174C256.825 80.3857 256.737 80.4805 256.672 80.6016C256.61 80.7227 256.578 80.8623 256.576 81.0205Z" fill="#AFAFAF"/>
<path d="M233.811 65.5938C233.813 65.4453 233.833 65.2969 233.872 65.1484C233.912 64.998 233.973 64.8398 234.057 64.6738C234.143 64.5059 234.254 64.3203 234.391 64.1172L235.393 62.6348H236.202L235.115 64.2285C235.167 64.2148 235.222 64.2031 235.279 64.1934C235.335 64.1836 235.393 64.1797 235.452 64.1816C235.719 64.1797 235.956 64.2393 236.163 64.3604C236.372 64.4814 236.537 64.6484 236.656 64.8613C236.775 65.0742 236.834 65.3203 236.834 65.5996C236.834 65.8887 236.769 66.1426 236.638 66.3613C236.509 66.5801 236.331 66.751 236.105 66.874C235.878 66.9971 235.621 67.0586 235.331 67.0586C235.05 67.0586 234.793 66.999 234.561 66.8799C234.33 66.7607 234.147 66.5918 234.01 66.373C233.875 66.1543 233.809 65.8945 233.811 65.5938ZM234.576 65.6113C234.578 65.7695 234.61 65.9102 234.672 66.0332C234.737 66.1543 234.826 66.25 234.939 66.3203C235.052 66.3887 235.182 66.4238 235.329 66.4258C235.475 66.4238 235.604 66.3887 235.715 66.3203C235.829 66.252 235.916 66.1572 235.979 66.0361C236.043 65.9131 236.076 65.7744 236.076 65.6201C236.076 65.46 236.043 65.3193 235.979 65.1982C235.916 65.0752 235.829 64.9795 235.715 64.9111C235.604 64.8428 235.475 64.8096 235.329 64.8115C235.182 64.8096 235.052 64.8428 234.939 64.9111C234.826 64.9795 234.737 65.0742 234.672 65.1953C234.61 65.3164 234.578 65.4551 234.576 65.6113ZM237.87 66.1914V65.5615L239.54 62.6348H240.304L238.675 65.5059V65.541H241.265V66.1914H237.87ZM239.95 67V66.0039L239.967 65.7168V64.2754H240.694V67H239.95ZM244.36 62.6348V67H243.575V63.4053H243.549L242.529 64.0586V63.332L243.613 62.6348H244.36ZM250.023 62.6348V67H249.237V63.4053H249.211L248.192 64.0586V63.332L249.276 62.6348H250.023ZM251.949 67V66.4316L253.466 64.9434C253.609 64.7969 253.728 64.667 253.824 64.5537C253.921 64.4404 253.995 64.3311 254.043 64.2256C254.092 64.1182 254.117 64.0039 254.117 63.8828C254.117 63.7461 254.085 63.6279 254.023 63.5283C253.96 63.4287 253.874 63.3525 253.765 63.2998C253.658 63.2471 253.535 63.2207 253.396 63.2207C253.251 63.2207 253.125 63.25 253.018 63.3086C252.911 63.3672 252.827 63.4502 252.766 63.5576C252.707 63.665 252.678 63.793 252.678 63.9414H251.928C251.928 63.666 251.991 63.4268 252.116 63.2236C252.243 63.0186 252.417 62.8594 252.64 62.7461C252.863 62.6328 253.118 62.5762 253.405 62.5762C253.7 62.5762 253.957 62.6309 254.178 62.7402C254.399 62.8496 254.571 63 254.694 63.1914C254.817 63.3809 254.878 63.5977 254.878 63.8418C254.878 64.0059 254.847 64.167 254.785 64.3252C254.722 64.4814 254.612 64.6562 254.454 64.8496C254.297 65.041 254.078 65.2725 253.794 65.5439L253.044 66.3086V66.3408H254.943V67H251.949ZM255.832 65.8135H256.631C256.641 65.9346 256.682 66.0391 256.754 66.127C256.829 66.2148 256.924 66.2822 257.042 66.3291C257.161 66.374 257.293 66.3965 257.437 66.3965C257.591 66.3965 257.728 66.3701 257.847 66.3174C257.968 66.2646 258.063 66.1885 258.131 66.0889C258.2 65.9873 258.234 65.8652 258.234 65.7227C258.234 65.5898 258.201 65.4697 258.134 65.3623C258.07 65.2529 257.969 65.166 257.833 65.1016C257.698 65.0371 257.525 65.0049 257.314 65.0049H256.886V64.4336L257.894 63.3262V63.2969H256.051V62.6348H258.893V63.209L257.718 64.4688V64.5039C258.007 64.5273 258.251 64.5996 258.448 64.7207C258.645 64.8398 258.795 64.9912 258.896 65.1748C258.998 65.3564 259.048 65.5527 259.048 65.7637C259.048 66.0195 258.978 66.2451 258.837 66.4404C258.697 66.6338 258.504 66.7852 258.26 66.8945C258.018 67.0039 257.742 67.0586 257.431 67.0586C257.132 67.0586 256.864 67.0078 256.626 66.9062C256.389 66.8027 256.201 66.6582 256.06 66.4727C255.92 66.2871 255.843 66.0674 255.832 65.8135Z" fill="#AFAFAF"/>
<path d="M233.773 100.191V99.5615L235.443 96.6348H236.207L234.579 99.5059V99.541H237.168V100.191H233.773ZM235.853 101V100.004L235.871 99.7168V98.2754H236.597V101H235.853ZM239.575 101.059C239.258 101.059 238.978 101.006 238.734 100.9C238.49 100.793 238.298 100.646 238.16 100.461C238.023 100.275 237.955 100.065 237.955 99.8311C237.955 99.6494 237.995 99.4814 238.075 99.3271C238.155 99.1729 238.263 99.0439 238.4 98.9404C238.539 98.8369 238.694 98.7705 238.866 98.7412V98.7148C238.641 98.6641 238.46 98.5488 238.321 98.3691C238.182 98.1895 238.113 97.9814 238.113 97.7451C238.113 97.5205 238.175 97.3203 238.3 97.1445C238.427 96.9688 238.601 96.8301 238.822 96.7285C239.043 96.627 239.294 96.5762 239.575 96.5762C239.854 96.5762 240.104 96.627 240.325 96.7285C240.546 96.8301 240.719 96.9688 240.846 97.1445C240.973 97.3203 241.037 97.5205 241.037 97.7451C241.037 97.9814 240.966 98.1895 240.826 98.3691C240.685 98.5488 240.505 98.6641 240.287 98.7148V98.7412C240.455 98.7705 240.608 98.8369 240.747 98.9404C240.885 99.0439 240.995 99.1729 241.075 99.3271C241.157 99.4814 241.198 99.6494 241.198 99.8311C241.198 100.065 241.129 100.275 240.99 100.461C240.851 100.646 240.66 100.793 240.416 100.9C240.171 101.006 239.891 101.059 239.575 101.059ZM239.575 100.452C239.739 100.452 239.881 100.424 240.003 100.367C240.124 100.311 240.217 100.231 240.284 100.13C240.35 100.026 240.383 99.9082 240.383 99.7754C240.383 99.6367 240.348 99.5137 240.278 99.4062C240.208 99.2988 240.112 99.2148 239.991 99.1543C239.87 99.0918 239.731 99.0605 239.575 99.0605C239.419 99.0605 239.279 99.0918 239.156 99.1543C239.035 99.2148 238.939 99.2988 238.869 99.4062C238.8 99.5117 238.766 99.6348 238.766 99.7754C238.766 99.9082 238.799 100.026 238.866 100.13C238.932 100.231 239.026 100.311 239.147 100.367C239.268 100.424 239.411 100.452 239.575 100.452ZM239.575 98.4629C239.708 98.4629 239.826 98.4365 239.929 98.3838C240.033 98.3291 240.115 98.2539 240.175 98.1582C240.236 98.0605 240.266 97.9492 240.266 97.8242C240.266 97.6973 240.237 97.5869 240.178 97.4932C240.12 97.3994 240.039 97.3271 239.935 97.2764C239.832 97.2236 239.712 97.1973 239.575 97.1973C239.438 97.1973 239.317 97.2236 239.212 97.2764C239.108 97.3271 239.027 97.3994 238.968 97.4932C238.912 97.5869 238.883 97.6973 238.883 97.8242C238.883 97.9492 238.913 98.0596 238.971 98.1553C239.03 98.251 239.111 98.3262 239.214 98.3809C239.32 98.4355 239.44 98.4629 239.575 98.4629ZM241.967 100.191V99.5615L243.637 96.6348H244.401L242.772 99.5059V99.541H245.362V100.191H241.967ZM244.047 101V100.004L244.064 99.7168V98.2754H244.791V101H244.047ZM249.328 101.059C249.043 101.059 248.788 101.006 248.564 100.9C248.341 100.793 248.163 100.646 248.03 100.458C247.9 100.271 247.83 100.056 247.822 99.8135H248.59C248.602 99.9912 248.678 100.137 248.819 100.25C248.961 100.363 249.131 100.42 249.328 100.42C249.485 100.42 249.622 100.385 249.741 100.314C249.861 100.242 249.954 100.144 250.023 100.019C250.093 99.8916 250.128 99.7471 250.128 99.585C250.128 99.4189 250.093 99.2725 250.023 99.1455C249.952 99.0166 249.856 98.916 249.733 98.8438C249.61 98.7695 249.468 98.7324 249.308 98.7324C249.175 98.7324 249.046 98.7578 248.921 98.8086C248.796 98.8574 248.696 98.9219 248.622 99.002L247.904 98.8848L248.133 96.6348H250.667V97.2969H248.789L248.663 98.4541H248.687C248.769 98.3564 248.883 98.2773 249.029 98.2168C249.178 98.1543 249.341 98.123 249.519 98.123C249.784 98.123 250.02 98.1855 250.225 98.3105C250.432 98.4336 250.595 98.6035 250.714 98.8203C250.833 99.0371 250.893 99.2861 250.893 99.5674C250.893 99.8545 250.826 100.111 250.694 100.338C250.561 100.562 250.377 100.739 250.143 100.868C249.908 100.995 249.637 101.059 249.328 101.059ZM251.949 101V100.432L253.466 98.9434C253.609 98.7969 253.728 98.667 253.824 98.5537C253.921 98.4404 253.995 98.3311 254.043 98.2256C254.092 98.1182 254.117 98.0039 254.117 97.8828C254.117 97.7461 254.085 97.6279 254.023 97.5283C253.96 97.4287 253.874 97.3525 253.765 97.2998C253.658 97.2471 253.535 97.2207 253.396 97.2207C253.251 97.2207 253.125 97.25 253.018 97.3086C252.911 97.3672 252.827 97.4502 252.766 97.5576C252.707 97.665 252.678 97.793 252.678 97.9414H251.928C251.928 97.666 251.991 97.4268 252.116 97.2236C252.243 97.0186 252.417 96.8594 252.64 96.7461C252.863 96.6328 253.118 96.5762 253.405 96.5762C253.7 96.5762 253.957 96.6309 254.178 96.7402C254.399 96.8496 254.571 97 254.694 97.1914C254.817 97.3809 254.878 97.5977 254.878 97.8418C254.878 98.0059 254.847 98.167 254.785 98.3252C254.722 98.4814 254.612 98.6562 254.454 98.8496C254.297 99.041 254.078 99.2725 253.794 99.5439L253.044 100.309V100.341H254.943V101H251.949ZM257.528 101.059C257.174 101.059 256.872 100.971 256.62 100.795C256.37 100.617 256.178 100.362 256.046 100.03C255.913 99.6963 255.846 99.293 255.846 98.8203C255.846 98.3477 255.913 97.9443 256.046 97.6104C256.178 97.2744 256.37 97.0186 256.62 96.8428C256.872 96.665 257.174 96.5762 257.528 96.5762C257.879 96.5762 258.181 96.665 258.433 96.8428C258.685 97.0205 258.878 97.2764 259.01 97.6104C259.143 97.9443 259.21 98.3477 259.21 98.8203C259.21 99.293 259.143 99.6963 259.01 100.03C258.878 100.362 258.686 100.617 258.436 100.795C258.186 100.971 257.883 101.059 257.528 101.059ZM257.528 100.396C257.717 100.396 257.878 100.335 258.008 100.212C258.141 100.089 258.242 99.9102 258.31 99.6758C258.38 99.4395 258.416 99.1543 258.416 98.8203C258.416 98.4844 258.38 98.1982 258.31 97.9619C258.242 97.7256 258.141 97.5459 258.008 97.4229C257.878 97.2979 257.717 97.2354 257.528 97.2354C257.243 97.2354 257.023 97.374 256.869 97.6514C256.716 97.9268 256.64 98.3164 256.64 98.8203C256.64 99.1543 256.674 99.4395 256.743 99.6758C256.811 99.9102 256.912 100.089 257.045 100.212C257.177 100.335 257.338 100.396 257.528 100.396Z" fill="#AFAFAF"/>
<path d="M235.478 118.059C235.124 118.059 234.822 117.971 234.57 117.795C234.32 117.617 234.128 117.362 233.996 117.03C233.863 116.696 233.796 116.293 233.796 115.82C233.796 115.348 233.863 114.944 233.996 114.61C234.128 114.274 234.32 114.019 234.57 113.843C234.822 113.665 235.124 113.576 235.478 113.576C235.829 113.576 236.131 113.665 236.383 113.843C236.635 114.021 236.828 114.276 236.96 114.61C237.093 114.944 237.16 115.348 237.16 115.82C237.16 116.293 237.093 116.696 236.96 117.03C236.828 117.362 236.636 117.617 236.386 117.795C236.136 117.971 235.833 118.059 235.478 118.059ZM235.478 117.396C235.667 117.396 235.828 117.335 235.958 117.212C236.091 117.089 236.192 116.91 236.26 116.676C236.33 116.439 236.366 116.154 236.366 115.82C236.366 115.484 236.33 115.198 236.26 114.962C236.192 114.726 236.091 114.546 235.958 114.423C235.828 114.298 235.667 114.235 235.478 114.235C235.193 114.235 234.973 114.374 234.819 114.651C234.666 114.927 234.59 115.316 234.59 115.82C234.59 116.154 234.624 116.439 234.693 116.676C234.761 116.91 234.862 117.089 234.995 117.212C235.127 117.335 235.288 117.396 235.478 117.396ZM240.263 113.635V118H239.478V114.405H239.452L238.432 115.059V114.332L239.516 113.635H240.263ZM242.189 118V117.432L243.707 115.943C243.849 115.797 243.969 115.667 244.064 115.554C244.162 115.44 244.235 115.331 244.284 115.226C244.333 115.118 244.357 115.004 244.357 114.883C244.357 114.746 244.326 114.628 244.263 114.528C244.201 114.429 244.115 114.353 244.006 114.3C243.898 114.247 243.775 114.221 243.637 114.221C243.492 114.221 243.366 114.25 243.259 114.309C243.151 114.367 243.067 114.45 243.007 114.558C242.948 114.665 242.919 114.793 242.919 114.941H242.169C242.169 114.666 242.231 114.427 242.356 114.224C242.483 114.019 242.658 113.859 242.881 113.746C243.103 113.633 243.358 113.576 243.645 113.576C243.94 113.576 244.198 113.631 244.419 113.74C244.639 113.85 244.811 114 244.934 114.191C245.057 114.381 245.119 114.598 245.119 114.842C245.119 115.006 245.088 115.167 245.025 115.325C244.963 115.481 244.852 115.656 244.694 115.85C244.538 116.041 244.318 116.272 244.035 116.544L243.285 117.309V117.341H245.183V118H242.189ZM249.328 118.059C249.043 118.059 248.788 118.006 248.564 117.9C248.341 117.793 248.163 117.646 248.03 117.458C247.9 117.271 247.83 117.056 247.822 116.813H248.59C248.602 116.991 248.678 117.137 248.819 117.25C248.961 117.363 249.131 117.42 249.328 117.42C249.485 117.42 249.622 117.385 249.741 117.314C249.861 117.242 249.954 117.144 250.023 117.019C250.093 116.892 250.128 116.747 250.128 116.585C250.128 116.419 250.093 116.272 250.023 116.146C249.952 116.017 249.856 115.916 249.733 115.844C249.61 115.77 249.468 115.732 249.308 115.732C249.175 115.732 249.046 115.758 248.921 115.809C248.796 115.857 248.696 115.922 248.622 116.002L247.904 115.885L248.133 113.635H250.667V114.297H248.789L248.663 115.454H248.687C248.769 115.356 248.883 115.277 249.029 115.217C249.178 115.154 249.341 115.123 249.519 115.123C249.784 115.123 250.02 115.186 250.225 115.311C250.432 115.434 250.595 115.604 250.714 115.82C250.833 116.037 250.893 116.286 250.893 116.567C250.893 116.854 250.826 117.111 250.694 117.338C250.561 117.562 250.377 117.739 250.143 117.868C249.908 117.995 249.637 118.059 249.328 118.059ZM251.723 115.041C251.723 114.75 251.788 114.495 251.916 114.276C252.045 114.058 252.223 113.887 252.45 113.764C252.676 113.639 252.934 113.576 253.223 113.576C253.506 113.576 253.763 113.636 253.994 113.755C254.224 113.872 254.408 114.04 254.544 114.259C254.681 114.478 254.748 114.738 254.746 115.041C254.745 115.188 254.723 115.336 254.682 115.486C254.643 115.637 254.58 115.796 254.495 115.964C254.411 116.132 254.299 116.318 254.161 116.523L253.162 118H252.35L253.44 116.4C253.387 116.418 253.332 116.432 253.276 116.441C253.219 116.451 253.161 116.457 253.1 116.459C252.834 116.457 252.597 116.396 252.388 116.274C252.181 116.153 252.018 115.986 251.899 115.773C251.782 115.561 251.723 115.316 251.723 115.041ZM252.479 115.021C252.481 115.179 252.513 115.318 252.576 115.439C252.64 115.561 252.728 115.655 252.839 115.724C252.953 115.792 253.082 115.826 253.229 115.826C253.375 115.826 253.504 115.792 253.616 115.724C253.729 115.655 253.817 115.561 253.879 115.439C253.944 115.318 253.976 115.18 253.976 115.023C253.976 114.865 253.944 114.726 253.879 114.604C253.817 114.481 253.729 114.386 253.616 114.317C253.504 114.247 253.375 114.212 253.229 114.212C253.082 114.212 252.953 114.247 252.839 114.317C252.728 114.386 252.64 114.48 252.576 114.602C252.513 114.723 252.481 114.862 252.479 115.021ZM256.312 118L258.167 114.326V114.297H256.013V113.635H258.99V114.314L257.132 118H256.312Z" fill="#AFAFAF"/>
<path d="M278.196 79C278.89 80.2022 279.146 81.6078 278.92 82.9774C278.694 84.347 278 85.5958 276.956 86.511C275.912 87.4263 274.584 87.9514 273.196 87.9968C271.809 88.0422 270.449 87.6052 269.347 86.7601C268.246 85.9151 267.472 84.7143 267.157 83.3625C266.842 82.0106 267.005 80.5912 267.619 79.3463C268.233 78.1013 269.259 77.1077 270.524 76.5348C271.788 75.9619 273.212 75.8452 274.553 76.2044L273 82L278.196 79Z" fill="#AFAFAF"/>
<path d="M278.196 45C278.89 46.2022 279.146 47.6078 278.92 48.9774C278.694 50.347 278 51.5958 276.956 52.511C275.912 53.4263 274.584 53.9514 273.196 53.9968C271.809 54.0422 270.449 53.6052 269.347 52.7601C268.246 51.9151 267.472 50.7143 267.157 49.3625C266.842 48.0106 267.005 46.5912 267.619 45.3463C268.233 44.1013 269.259 43.1077 270.524 42.5348C271.788 41.9619 273.212 41.8452 274.553 42.2044L273 48L278.196 45Z" fill="#AFAFAF"/>
<path d="M278.196 62C278.89 63.2022 279.146 64.6078 278.92 65.9774C278.694 67.347 278 68.5958 276.956 69.511C275.912 70.4263 274.584 70.9514 273.196 70.9968C271.809 71.0422 270.449 70.6052 269.347 69.7601C268.246 68.9151 267.472 67.7143 267.157 66.3625C266.842 65.0106 267.005 63.5912 267.619 62.3463C268.233 61.1013 269.259 60.1077 270.524 59.5348C271.788 58.9619 273.212 58.8452 274.553 59.2044L273 65L278.196 62Z" fill="#AFAFAF"/>
<path d="M278.196 96C278.89 97.2022 279.146 98.6078 278.92 99.9774C278.694 101.347 278 102.596 276.956 103.511C275.912 104.426 274.584 104.951 273.196 104.997C271.809 105.042 270.449 104.605 269.347 103.76C268.246 102.915 267.472 101.714 267.157 100.362C266.842 99.0106 267.005 97.5912 267.619 96.3463C268.233 95.1013 269.259 94.1077 270.524 93.5348C271.788 92.9619 273.212 92.8452 274.553 93.2044L273 99L278.196 96Z" fill="#AFAFAF"/>
<path d="M278.196 113C278.89 114.202 279.146 115.608 278.92 116.977C278.694 118.347 278 119.596 276.956 120.511C275.912 121.426 274.584 121.951 273.196 121.997C271.809 122.042 270.449 121.605 269.347 120.76C268.246 119.915 267.472 118.714 267.157 117.362C266.842 116.011 267.005 114.591 267.619 113.346C268.233 112.101 269.259 111.108 270.524 110.535C271.788 109.962 273.212 109.845 274.553 110.204L273 116L278.196 113Z" fill="#AFAFAF"/>
<rect width="20" height="3" rx="1.5" transform="matrix(1 0 0 -1 244 13)" fill="#222222"/>
<path d="M212.607 70.9432L202.5 107L218.261 120.5V116.009C222.306 101.064 226.515 81.7399 226.515 76.7583C226.515 71.7766 225.256 66 219.533 66C217.288 66 215.177 67.0451 213.949 68.4684C213.332 69.1864 212.875 70.0327 212.607 70.9432Z" fill="#FFE8DB"/>
<path d="M202 108.5L212.607 70.9432C212.875 70.0327 213.332 69.1864 213.949 68.4684C215.177 67.0451 217.288 66 219.533 66C225.256 66 226.515 71.7766 226.515 76.7583C226.515 81.7399 222.306 101.064 218.261 116.009V120.5" stroke="#222222" stroke-linejoin="round"/>
<path d="M213.459 69.6043C213.459 69.6043 218.219 67.43 220.752 71.3302C221.534 72.5402 220.292 77.2326 219.432 80.5555C218.96 82.3858 217.377 83 215.973 83C211.792 83 210.842 81.8084 210 81.1574L213.459 69.6043Z" fill="#FFE8DB" stroke="black" stroke-linejoin="round"/>
<path d="M292.739 77.9314L297.273 84.1432C298.364 85.6368 298.035 87.7375 296.541 88.8274L278.628 101.895C275.433 104.226 270.953 103.526 268.622 100.332L268.58 100.275C266.249 97.0815 266.948 92.6029 270.143 90.2722L288.057 77.2047C289.551 76.1148 291.652 76.443 292.742 77.9365L292.739 77.9314Z" fill="#FFE8DB" stroke="black" stroke-linejoin="round"/>
<path d="M282.042 90.1671L281.839 89.902C280.46 88.0845 277.892 87.4786 275.871 88.4821C272.56 90.1292 267.934 94.023 271.01 98.0683L271.2 98.3208C275.077 103.42 286.326 95.8027 282.042 90.1671Z" fill="#FFE8DB" stroke="black" stroke-linejoin="round"/>
<path d="M292.737 94.5642L297.271 100.776C298.362 102.27 298.033 104.37 296.539 105.46L278.626 118.528C275.431 120.858 270.951 120.159 268.62 116.965L268.578 116.908C266.247 113.714 266.947 109.236 270.141 106.905L288.055 93.8375C289.549 92.7476 291.65 93.0758 292.741 94.5693L292.737 94.5642Z" fill="#FFE8DB" stroke="black" stroke-linejoin="round"/>
<path d="M282.042 107.167L281.839 106.902C280.46 105.084 277.892 104.479 275.871 105.482C272.56 107.129 267.934 111.023 271.01 115.068L271.2 115.321C275.077 120.42 286.326 112.803 282.042 107.167Z" fill="#FFE8DB" stroke="black" stroke-linejoin="round"/>
<path d="M294.765 110.547L299.062 116.433C300.095 117.849 299.785 119.834 298.369 120.867L281.391 133.252C278.367 135.458 274.114 134.799 271.903 131.77L271.866 131.719C269.659 128.695 270.318 124.444 273.348 122.234L290.325 109.849C291.742 108.816 293.727 109.126 294.761 110.542L294.765 110.547Z" fill="#FFE8DB" stroke="black" stroke-linejoin="round"/>
<path d="M285.035 122.167L284.834 121.901C283.454 120.084 280.893 119.478 278.869 120.483C275.558 122.127 270.934 126.021 274.01 130.068L274.205 130.321C278.085 135.419 289.325 127.805 285.042 122.167H285.035Z" fill="#FFE8DB" stroke="black" stroke-linejoin="round"/>
</svg>
