<svg width="390" height="215" viewBox="0 0 390 215" fill="none" xmlns="http://www.w3.org/2000/svg">
<path d="M301.5 22H91.5C89.2909 22 87.5 23.7909 87.5 26V160C87.5 162.209 89.2909 164 91.5 164H301.5C303.709 164 305.5 162.209 305.5 160V26C305.5 23.7909 303.709 22 301.5 22Z" fill="#DDDDDD" stroke="#222222" stroke-linecap="round" stroke-linejoin="round"/>
<path d="M295.5 151V35C295.5 33.3431 294.157 32 292.5 32L100.5 32C98.8432 32 97.5 33.3431 97.5 35V151C97.5 152.657 98.8431 154 100.5 154H292.5C294.157 154 295.5 152.657 295.5 151Z" fill="white" stroke="#222222" stroke-linecap="round" stroke-linejoin="round"/>
<rect width="36" height="3" rx="1.5" transform="matrix(1 0 0 -1 178.5 40)" fill="#222222"/>
<path d="M87.5 166C87.5 164.895 88.3954 164 89.5 164H303.5C304.605 164 305.5 164.895 305.5 166V171.133C305.5 174.378 303.391 177 300.781 177H92.2189C89.6088 177 87.5 174.378 87.5 171.133V166Z" fill="#DDDDDD" stroke="#222222" stroke-linecap="round" stroke-linejoin="round"/>
<path d="M116.5 177H96.5V181H116.5V177Z" fill="#DDDDDD" stroke="#222222" stroke-linecap="round" stroke-linejoin="round"/>
<path d="M293.5 177H273.5V181H293.5V177Z" fill="#DDDDDD" stroke="#222222" stroke-linecap="round" stroke-linejoin="round"/>
<path d="M332.429 70H277.571C275.323 70 273.5 72.0106 273.5 74.4907V201.509C273.5 203.989 275.323 206 277.571 206H332.429C334.677 206 336.5 203.989 336.5 201.509V74.4907C336.5 72.0106 334.677 70 332.429 70Z" fill="#DDDDDD" stroke="#222222" stroke-miterlimit="10"/>
<path d="M329.81 75.7148H280.19C278.207 75.7148 276.599 77.4204 276.599 79.5244V196.477C276.599 198.581 278.207 200.286 280.19 200.286H329.81C331.794 200.286 333.402 198.581 333.402 196.477V79.5244C333.402 77.4204 331.794 75.7148 329.81 75.7148Z" fill="white" stroke="#222222" stroke-miterlimit="10"/>
<line x1="279.5" y1="91.5" x2="331.5" y2="91.5" stroke="#DDDDDD"/>
<line x1="279.5" y1="108.5" x2="331.5" y2="108.5" stroke="#DDDDDD"/>
<path d="M287.666 97.6348V102H286.881V98.4053H286.855L285.835 99.0586V98.332L286.919 97.6348H287.666ZM289.592 102V101.432L291.11 99.9434C291.253 99.7969 291.372 99.667 291.467 99.5537C291.565 99.4404 291.638 99.3311 291.687 99.2256C291.736 99.1182 291.76 99.0039 291.76 98.8828C291.76 98.7461 291.729 98.6279 291.667 98.5283C291.604 98.4287 291.518 98.3525 291.409 98.2998C291.301 98.2471 291.178 98.2207 291.04 98.2207C290.895 98.2207 290.769 98.25 290.662 98.3086C290.554 98.3672 290.47 98.4502 290.41 98.5576C290.351 98.665 290.322 98.793 290.322 98.9414H289.572C289.572 98.666 289.634 98.4268 289.759 98.2236C289.886 98.0186 290.061 97.8594 290.284 97.7461C290.506 97.6328 290.761 97.5762 291.048 97.5762C291.343 97.5762 291.601 97.6309 291.822 97.7402C292.043 97.8496 292.214 98 292.338 98.1914C292.461 98.3809 292.522 98.5977 292.522 98.8418C292.522 99.0059 292.491 99.167 292.428 99.3252C292.366 99.4814 292.255 99.6562 292.097 99.8496C291.941 100.041 291.721 100.272 291.438 100.544L290.688 101.309V101.341H292.587V102H289.592ZM293.475 100.813H294.275C294.285 100.935 294.326 101.039 294.398 101.127C294.472 101.215 294.568 101.282 294.685 101.329C294.804 101.374 294.936 101.396 295.081 101.396C295.235 101.396 295.372 101.37 295.491 101.317C295.612 101.265 295.707 101.188 295.775 101.089C295.844 100.987 295.878 100.865 295.878 100.723C295.878 100.59 295.845 100.47 295.778 100.362C295.714 100.253 295.613 100.166 295.476 100.102C295.342 100.037 295.169 100.005 294.958 100.005H294.53V99.4336L295.538 98.3262V98.2969H293.695V97.6348H296.537V98.209L295.362 99.4688V99.5039C295.651 99.5273 295.894 99.5996 296.092 99.7207C296.289 99.8398 296.438 99.9912 296.54 100.175C296.641 100.356 296.692 100.553 296.692 100.764C296.692 101.02 296.622 101.245 296.481 101.44C296.341 101.634 296.148 101.785 295.904 101.895C295.662 102.004 295.386 102.059 295.075 102.059C294.776 102.059 294.508 102.008 294.269 101.906C294.033 101.803 293.845 101.658 293.704 101.473C293.563 101.287 293.487 101.067 293.475 100.813ZM299.129 101.191V100.562L300.799 97.6348H301.564L299.935 100.506V100.541H302.525V101.191H299.129ZM301.209 102V101.004L301.227 100.717V99.2754H301.953V102H301.209ZM304.925 102.059C304.64 102.059 304.385 102.006 304.161 101.9C303.938 101.793 303.76 101.646 303.627 101.458C303.496 101.271 303.427 101.056 303.419 100.813H304.187C304.199 100.991 304.275 101.137 304.415 101.25C304.558 101.363 304.728 101.42 304.925 101.42C305.081 101.42 305.219 101.385 305.338 101.314C305.457 101.242 305.551 101.144 305.62 101.019C305.69 100.892 305.725 100.747 305.725 100.585C305.725 100.419 305.69 100.272 305.62 100.146C305.549 100.017 305.453 99.916 305.329 99.8438C305.206 99.7695 305.065 99.7324 304.905 99.7324C304.772 99.7324 304.643 99.7578 304.518 99.8086C304.393 99.8574 304.293 99.9219 304.219 100.002L303.501 99.8848L303.73 97.6348H306.264V98.2969H304.386L304.26 99.4541H304.284C304.366 99.3564 304.48 99.2773 304.626 99.2168C304.775 99.1543 304.938 99.123 305.116 99.123C305.381 99.123 305.617 99.1855 305.822 99.3105C306.029 99.4336 306.192 99.6035 306.311 99.8203C306.43 100.037 306.49 100.286 306.49 100.567C306.49 100.854 306.423 101.111 306.29 101.338C306.158 101.562 305.974 101.739 305.74 101.868C305.505 101.995 305.234 102.059 304.925 102.059ZM307.361 100.594C307.363 100.445 307.383 100.297 307.422 100.148C307.462 99.998 307.523 99.8398 307.607 99.6738C307.693 99.5059 307.804 99.3203 307.941 99.1172L308.943 97.6348H309.752L308.665 99.2285C308.717 99.2148 308.772 99.2031 308.829 99.1934C308.885 99.1836 308.943 99.1797 309.002 99.1816C309.269 99.1797 309.506 99.2393 309.713 99.3604C309.922 99.4814 310.087 99.6484 310.206 99.8613C310.325 100.074 310.384 100.32 310.384 100.6C310.384 100.889 310.319 101.143 310.188 101.361C310.059 101.58 309.881 101.751 309.655 101.874C309.428 101.997 309.171 102.059 308.881 102.059C308.6 102.059 308.343 101.999 308.111 101.88C307.88 101.761 307.697 101.592 307.56 101.373C307.425 101.154 307.359 100.895 307.361 100.594ZM308.126 100.611C308.128 100.77 308.16 100.91 308.222 101.033C308.287 101.154 308.376 101.25 308.489 101.32C308.602 101.389 308.732 101.424 308.879 101.426C309.025 101.424 309.154 101.389 309.265 101.32C309.379 101.252 309.466 101.157 309.529 101.036C309.593 100.913 309.626 100.774 309.626 100.62C309.626 100.46 309.593 100.319 309.529 100.198C309.466 100.075 309.379 99.9795 309.265 99.9111C309.154 99.8428 309.025 99.8096 308.879 99.8115C308.732 99.8096 308.602 99.8428 308.489 99.9111C308.376 99.9795 308.287 100.074 308.222 100.195C308.16 100.316 308.128 100.455 308.126 100.611Z" fill="#AFAFAF"/>
<path d="M329.696 97C330.39 98.2022 330.646 99.6078 330.42 100.977C330.194 102.347 329.5 103.596 328.456 104.511C327.412 105.426 326.084 105.951 324.696 105.997C323.309 106.042 321.949 105.605 320.847 104.76C319.746 103.915 318.972 102.714 318.657 101.362C318.342 100.011 318.505 98.5912 319.119 97.3463C319.733 96.1013 320.759 95.1077 322.024 94.5348C323.288 93.9619 324.712 93.8452 326.053 94.2044L324.5 100L329.696 97Z" fill="#AFAFAF"/>
<line x1="279.5" y1="125.5" x2="331.5" y2="125.5" stroke="#DDDDDD"/>
<line x1="279.5" y1="142.5" x2="331.5" y2="142.5" stroke="#DDDDDD"/>
<line x1="279.5" y1="159.5" x2="331.5" y2="159.5" stroke="#DDDDDD"/>
<line x1="279.5" y1="176.5" x2="331.5" y2="176.5" stroke="#DDDDDD"/>
<line x1="279.5" y1="193.5" x2="331.5" y2="193.5" stroke="#DDDDDD"/>
<path d="M286.978 119.059C286.624 119.059 286.322 118.971 286.07 118.795C285.82 118.617 285.628 118.362 285.496 118.03C285.363 117.696 285.296 117.293 285.296 116.82C285.296 116.348 285.363 115.944 285.496 115.61C285.628 115.274 285.82 115.019 286.07 114.843C286.322 114.665 286.624 114.576 286.978 114.576C287.329 114.576 287.631 114.665 287.883 114.843C288.135 115.021 288.328 115.276 288.46 115.61C288.593 115.944 288.66 116.348 288.66 116.82C288.66 117.293 288.593 117.696 288.46 118.03C288.328 118.362 288.136 118.617 287.886 118.795C287.636 118.971 287.333 119.059 286.978 119.059ZM286.978 118.396C287.167 118.396 287.328 118.335 287.458 118.212C287.591 118.089 287.692 117.91 287.76 117.676C287.83 117.439 287.866 117.154 287.866 116.82C287.866 116.484 287.83 116.198 287.76 115.962C287.692 115.726 287.591 115.546 287.458 115.423C287.328 115.298 287.167 115.235 286.978 115.235C286.693 115.235 286.473 115.374 286.319 115.651C286.166 115.927 286.09 116.316 286.09 116.82C286.09 117.154 286.124 117.439 286.193 117.676C286.261 117.91 286.362 118.089 286.495 118.212C286.627 118.335 286.788 118.396 286.978 118.396ZM291.763 114.635V119H290.978V115.405H290.952L289.932 116.059V115.332L291.016 114.635H291.763ZM293.689 119V118.432L295.207 116.943C295.349 116.797 295.469 116.667 295.564 116.554C295.662 116.44 295.735 116.331 295.784 116.226C295.833 116.118 295.857 116.004 295.857 115.883C295.857 115.746 295.826 115.628 295.763 115.528C295.701 115.429 295.615 115.353 295.506 115.3C295.398 115.247 295.275 115.221 295.137 115.221C294.992 115.221 294.866 115.25 294.759 115.309C294.651 115.367 294.567 115.45 294.507 115.558C294.448 115.665 294.419 115.793 294.419 115.941H293.669C293.669 115.666 293.731 115.427 293.856 115.224C293.983 115.019 294.158 114.859 294.381 114.746C294.603 114.633 294.858 114.576 295.145 114.576C295.44 114.576 295.698 114.631 295.919 114.74C296.139 114.85 296.311 115 296.434 115.191C296.557 115.381 296.619 115.598 296.619 115.842C296.619 116.006 296.588 116.167 296.525 116.325C296.463 116.481 296.352 116.656 296.194 116.85C296.038 117.041 295.818 117.272 295.535 117.544L294.785 118.309V118.341H296.683V119H293.689ZM299.138 117.813H299.938C299.947 117.935 299.988 118.039 300.061 118.127C300.135 118.215 300.231 118.282 300.348 118.329C300.467 118.374 300.599 118.396 300.743 118.396C300.898 118.396 301.034 118.37 301.154 118.317C301.275 118.265 301.369 118.188 301.438 118.089C301.506 117.987 301.54 117.865 301.54 117.723C301.54 117.59 301.507 117.47 301.441 117.362C301.376 117.253 301.276 117.166 301.139 117.102C301.004 117.037 300.831 117.005 300.62 117.005H300.193V116.434L301.2 115.326V115.297H299.358V114.635H302.199V115.209L301.025 116.469V116.504C301.314 116.527 301.557 116.6 301.754 116.721C301.951 116.84 302.101 116.991 302.202 117.175C302.304 117.356 302.355 117.553 302.355 117.764C302.355 118.02 302.284 118.245 302.144 118.44C302.003 118.634 301.811 118.785 301.567 118.895C301.324 119.004 301.048 119.059 300.737 119.059C300.439 119.059 300.17 119.008 299.932 118.906C299.696 118.803 299.507 118.658 299.366 118.473C299.226 118.287 299.15 118.067 299.138 117.813ZM303.226 118.191V117.562L304.896 114.635H305.661L304.032 117.506V117.541H306.621V118.191H303.226ZM305.306 119V118.004L305.324 117.717V116.275H306.05V119H305.306ZM309.022 119.059C308.737 119.059 308.482 119.006 308.257 118.9C308.035 118.793 307.857 118.646 307.724 118.458C307.593 118.271 307.524 118.056 307.516 117.813H308.284C308.296 117.991 308.372 118.137 308.512 118.25C308.655 118.363 308.825 118.42 309.022 118.42C309.178 118.42 309.316 118.385 309.435 118.314C309.554 118.242 309.648 118.144 309.716 118.019C309.787 117.892 309.822 117.747 309.822 117.585C309.822 117.419 309.787 117.272 309.716 117.146C309.646 117.017 309.549 116.916 309.426 116.844C309.303 116.77 309.162 116.732 309.002 116.732C308.869 116.732 308.74 116.758 308.615 116.809C308.49 116.857 308.39 116.922 308.316 117.002L307.598 116.885L307.827 114.635H310.361V115.297H308.483L308.357 116.454H308.38C308.462 116.356 308.577 116.277 308.723 116.217C308.872 116.154 309.035 116.123 309.212 116.123C309.478 116.123 309.713 116.186 309.919 116.311C310.126 116.434 310.289 116.604 310.408 116.82C310.527 117.037 310.587 117.286 310.587 117.567C310.587 117.854 310.52 118.111 310.387 118.338C310.254 118.562 310.071 118.739 309.837 118.868C309.602 118.995 309.331 119.059 309.022 119.059Z" fill="#AFAFAF"/>
<path d="M285.273 152.191V151.562L286.943 148.635H287.707L286.079 151.506V151.541H288.668V152.191H285.273ZM287.353 153V152.004L287.371 151.717V150.275H288.097V153H287.353ZM289.37 152.191V151.562L291.04 148.635H291.804L290.175 151.506V151.541H292.765V152.191H289.37ZM291.45 153V152.004L291.467 151.717V150.275H292.194V153H291.45ZM295.166 153.059C294.881 153.059 294.626 153.006 294.401 152.9C294.179 152.793 294.001 152.646 293.868 152.458C293.737 152.271 293.668 152.056 293.66 151.813H294.428C294.439 151.991 294.515 152.137 294.656 152.25C294.799 152.363 294.969 152.42 295.166 152.42C295.322 152.42 295.46 152.385 295.579 152.314C295.698 152.242 295.792 152.144 295.86 152.019C295.93 151.892 295.966 151.747 295.966 151.585C295.966 151.419 295.93 151.272 295.86 151.146C295.79 151.017 295.693 150.916 295.57 150.844C295.447 150.77 295.305 150.732 295.145 150.732C295.013 150.732 294.884 150.758 294.759 150.809C294.634 150.857 294.534 150.922 294.46 151.002L293.742 150.885L293.971 148.635H296.505V149.297H294.627L294.501 150.454H294.524C294.606 150.356 294.721 150.277 294.867 150.217C295.015 150.154 295.179 150.123 295.356 150.123C295.622 150.123 295.857 150.186 296.062 150.311C296.269 150.434 296.432 150.604 296.552 150.82C296.671 151.037 296.73 151.286 296.73 151.567C296.73 151.854 296.664 152.111 296.531 152.338C296.398 152.562 296.215 152.739 295.98 152.868C295.746 152.995 295.474 153.059 295.166 153.059ZM299.126 150.041C299.126 149.75 299.191 149.495 299.32 149.276C299.448 149.058 299.626 148.887 299.853 148.764C300.079 148.639 300.337 148.576 300.626 148.576C300.909 148.576 301.166 148.636 301.397 148.755C301.627 148.872 301.811 149.04 301.947 149.259C302.084 149.478 302.152 149.738 302.15 150.041C302.148 150.188 302.126 150.336 302.085 150.486C302.046 150.637 301.984 150.796 301.898 150.964C301.814 151.132 301.702 151.318 301.564 151.523L300.565 153H299.753L300.843 151.4C300.79 151.418 300.736 151.432 300.679 151.441C300.622 151.451 300.564 151.457 300.503 151.459C300.237 151.457 300 151.396 299.791 151.274C299.584 151.153 299.421 150.986 299.302 150.773C299.185 150.561 299.126 150.316 299.126 150.041ZM299.882 150.021C299.884 150.179 299.916 150.318 299.979 150.439C300.043 150.561 300.131 150.655 300.242 150.724C300.356 150.792 300.486 150.826 300.632 150.826C300.779 150.826 300.907 150.792 301.019 150.724C301.132 150.655 301.22 150.561 301.282 150.439C301.347 150.318 301.379 150.18 301.379 150.023C301.379 149.865 301.347 149.726 301.282 149.604C301.22 149.481 301.132 149.386 301.019 149.317C300.907 149.247 300.779 149.212 300.632 149.212C300.486 149.212 300.356 149.247 300.242 149.317C300.131 149.386 300.043 149.48 299.979 149.602C299.916 149.723 299.884 149.862 299.882 150.021ZM303.235 151.813H304.035C304.044 151.935 304.085 152.039 304.158 152.127C304.232 152.215 304.328 152.282 304.445 152.329C304.564 152.374 304.696 152.396 304.84 152.396C304.995 152.396 305.131 152.37 305.25 152.317C305.371 152.265 305.466 152.188 305.535 152.089C305.603 151.987 305.637 151.865 305.637 151.723C305.637 151.59 305.604 151.47 305.538 151.362C305.473 151.253 305.372 151.166 305.236 151.102C305.101 151.037 304.928 151.005 304.717 151.005H304.289V150.434L305.297 149.326V149.297H303.454V148.635H306.296V149.209L305.121 150.469V150.504C305.411 150.527 305.654 150.6 305.851 150.721C306.048 150.84 306.198 150.991 306.299 151.175C306.401 151.356 306.452 151.553 306.452 151.764C306.452 152.02 306.381 152.245 306.241 152.44C306.1 152.634 305.908 152.785 305.663 152.895C305.421 153.004 305.145 153.059 304.834 153.059C304.536 153.059 304.267 153.008 304.029 152.906C303.792 152.803 303.604 152.658 303.463 152.473C303.323 152.287 303.246 152.067 303.235 151.813ZM307.32 150.041C307.32 149.75 307.384 149.495 307.513 149.276C307.642 149.058 307.82 148.887 308.046 148.764C308.273 148.639 308.531 148.576 308.82 148.576C309.103 148.576 309.36 148.636 309.59 148.755C309.821 148.872 310.004 149.04 310.141 149.259C310.278 149.478 310.345 149.738 310.343 150.041C310.341 150.188 310.32 150.336 310.279 150.486C310.24 150.637 310.177 150.796 310.091 150.964C310.007 151.132 309.896 151.318 309.757 151.523L308.758 153H307.947L309.037 151.4C308.984 151.418 308.929 151.432 308.873 151.441C308.816 151.451 308.757 151.457 308.697 151.459C308.431 151.457 308.194 151.396 307.985 151.274C307.778 151.153 307.615 150.986 307.496 150.773C307.379 150.561 307.32 150.316 307.32 150.041ZM308.076 150.021C308.078 150.179 308.11 150.318 308.172 150.439C308.237 150.561 308.325 150.655 308.436 150.724C308.549 150.792 308.679 150.826 308.826 150.826C308.972 150.826 309.101 150.792 309.212 150.724C309.326 150.655 309.414 150.561 309.476 150.439C309.541 150.318 309.573 150.18 309.573 150.023C309.573 149.865 309.541 149.726 309.476 149.604C309.414 149.481 309.326 149.386 309.212 149.317C309.101 149.247 308.972 149.212 308.826 149.212C308.679 149.212 308.549 149.247 308.436 149.317C308.325 149.386 308.237 149.48 308.172 149.602C308.11 149.723 308.078 149.862 308.076 150.021Z" fill="#AFAFAF"/>
<path d="M285.311 134.594C285.313 134.445 285.333 134.297 285.372 134.148C285.412 133.998 285.473 133.84 285.557 133.674C285.643 133.506 285.754 133.32 285.891 133.117L286.893 131.635H287.702L286.615 133.229C286.667 133.215 286.722 133.203 286.779 133.193C286.835 133.184 286.893 133.18 286.952 133.182C287.219 133.18 287.456 133.239 287.663 133.36C287.872 133.481 288.037 133.648 288.156 133.861C288.275 134.074 288.334 134.32 288.334 134.6C288.334 134.889 288.269 135.143 288.138 135.361C288.009 135.58 287.831 135.751 287.605 135.874C287.378 135.997 287.121 136.059 286.831 136.059C286.55 136.059 286.293 135.999 286.061 135.88C285.83 135.761 285.647 135.592 285.51 135.373C285.375 135.154 285.309 134.895 285.311 134.594ZM286.076 134.611C286.078 134.77 286.11 134.91 286.172 135.033C286.237 135.154 286.326 135.25 286.439 135.32C286.552 135.389 286.682 135.424 286.829 135.426C286.975 135.424 287.104 135.389 287.215 135.32C287.329 135.252 287.416 135.157 287.479 135.036C287.543 134.913 287.576 134.774 287.576 134.62C287.576 134.46 287.543 134.319 287.479 134.198C287.416 134.075 287.329 133.979 287.215 133.911C287.104 133.843 286.975 133.81 286.829 133.812C286.682 133.81 286.552 133.843 286.439 133.911C286.326 133.979 286.237 134.074 286.172 134.195C286.11 134.316 286.078 134.455 286.076 134.611ZM289.37 135.191V134.562L291.04 131.635H291.804L290.175 134.506V134.541H292.765V135.191H289.37ZM291.45 136V135.004L291.467 134.717V133.275H292.194V136H291.45ZM295.86 131.635V136H295.075V132.405H295.049L294.029 133.059V132.332L295.113 131.635H295.86ZM301.523 131.635V136H300.737V132.405H300.711L299.692 133.059V132.332L300.776 131.635H301.523ZM303.449 136V135.432L304.966 133.943C305.109 133.797 305.228 133.667 305.324 133.554C305.421 133.44 305.495 133.331 305.543 133.226C305.592 133.118 305.617 133.004 305.617 132.883C305.617 132.746 305.585 132.628 305.523 132.528C305.46 132.429 305.374 132.353 305.265 132.3C305.158 132.247 305.035 132.221 304.896 132.221C304.751 132.221 304.625 132.25 304.518 132.309C304.411 132.367 304.327 132.45 304.266 132.558C304.207 132.665 304.178 132.793 304.178 132.941H303.428C303.428 132.666 303.491 132.427 303.616 132.224C303.743 132.019 303.917 131.859 304.14 131.746C304.363 131.633 304.618 131.576 304.905 131.576C305.2 131.576 305.457 131.631 305.678 131.74C305.899 131.85 306.071 132 306.194 132.191C306.317 132.381 306.378 132.598 306.378 132.842C306.378 133.006 306.347 133.167 306.285 133.325C306.222 133.481 306.112 133.656 305.954 133.85C305.797 134.041 305.578 134.272 305.294 134.544L304.544 135.309V135.341H306.443V136H303.449ZM307.332 134.813H308.131C308.141 134.935 308.182 135.039 308.254 135.127C308.329 135.215 308.424 135.282 308.542 135.329C308.661 135.374 308.793 135.396 308.937 135.396C309.091 135.396 309.228 135.37 309.347 135.317C309.468 135.265 309.563 135.188 309.631 135.089C309.7 134.987 309.734 134.865 309.734 134.723C309.734 134.59 309.701 134.47 309.634 134.362C309.57 134.253 309.469 134.166 309.333 134.102C309.198 134.037 309.025 134.005 308.814 134.005H308.386V133.434L309.394 132.326V132.297H307.551V131.635H310.393V132.209L309.218 133.469V133.504C309.507 133.527 309.751 133.6 309.948 133.721C310.145 133.84 310.295 133.991 310.396 134.175C310.498 134.356 310.548 134.553 310.548 134.764C310.548 135.02 310.478 135.245 310.337 135.44C310.197 135.634 310.004 135.785 309.76 135.895C309.518 136.004 309.242 136.059 308.931 136.059C308.632 136.059 308.364 136.008 308.126 135.906C307.889 135.803 307.701 135.658 307.56 135.473C307.42 135.287 307.343 135.067 307.332 134.813Z" fill="#AFAFAF"/>
<path d="M285.273 169.191V168.562L286.943 165.635H287.707L286.079 168.506V168.541H288.668V169.191H285.273ZM287.353 170V169.004L287.371 168.717V167.275H288.097V170H287.353ZM291.075 170.059C290.758 170.059 290.478 170.006 290.234 169.9C289.99 169.793 289.798 169.646 289.66 169.461C289.523 169.275 289.455 169.065 289.455 168.831C289.455 168.649 289.495 168.481 289.575 168.327C289.655 168.173 289.763 168.044 289.9 167.94C290.039 167.837 290.194 167.771 290.366 167.741V167.715C290.141 167.664 289.96 167.549 289.821 167.369C289.682 167.189 289.613 166.981 289.613 166.745C289.613 166.521 289.675 166.32 289.8 166.145C289.927 165.969 290.101 165.83 290.322 165.729C290.543 165.627 290.794 165.576 291.075 165.576C291.354 165.576 291.604 165.627 291.825 165.729C292.046 165.83 292.219 165.969 292.346 166.145C292.473 166.32 292.537 166.521 292.537 166.745C292.537 166.981 292.466 167.189 292.326 167.369C292.185 167.549 292.005 167.664 291.787 167.715V167.741C291.955 167.771 292.108 167.837 292.247 167.94C292.385 168.044 292.495 168.173 292.575 168.327C292.657 168.481 292.698 168.649 292.698 168.831C292.698 169.065 292.629 169.275 292.49 169.461C292.351 169.646 292.16 169.793 291.916 169.9C291.671 170.006 291.391 170.059 291.075 170.059ZM291.075 169.452C291.239 169.452 291.381 169.424 291.503 169.367C291.624 169.311 291.717 169.231 291.784 169.13C291.85 169.026 291.883 168.908 291.883 168.775C291.883 168.637 291.848 168.514 291.778 168.406C291.708 168.299 291.612 168.215 291.491 168.154C291.37 168.092 291.231 168.061 291.075 168.061C290.919 168.061 290.779 168.092 290.656 168.154C290.535 168.215 290.439 168.299 290.369 168.406C290.3 168.512 290.266 168.635 290.266 168.775C290.266 168.908 290.299 169.026 290.366 169.13C290.432 169.231 290.526 169.311 290.647 169.367C290.768 169.424 290.911 169.452 291.075 169.452ZM291.075 167.463C291.208 167.463 291.326 167.437 291.429 167.384C291.533 167.329 291.615 167.254 291.675 167.158C291.736 167.061 291.766 166.949 291.766 166.824C291.766 166.697 291.737 166.587 291.678 166.493C291.62 166.399 291.539 166.327 291.435 166.276C291.332 166.224 291.212 166.197 291.075 166.197C290.938 166.197 290.817 166.224 290.712 166.276C290.608 166.327 290.527 166.399 290.468 166.493C290.412 166.587 290.383 166.697 290.383 166.824C290.383 166.949 290.413 167.06 290.471 167.155C290.53 167.251 290.611 167.326 290.714 167.381C290.82 167.436 290.94 167.463 291.075 167.463ZM293.467 169.191V168.562L295.137 165.635H295.901L294.272 168.506V168.541H296.862V169.191H293.467ZM295.547 170V169.004L295.564 168.717V167.275H296.291V170H295.547ZM300.828 170.059C300.543 170.059 300.288 170.006 300.064 169.9C299.841 169.793 299.663 169.646 299.53 169.458C299.4 169.271 299.33 169.056 299.322 168.813H300.09C300.102 168.991 300.178 169.137 300.319 169.25C300.461 169.363 300.631 169.42 300.828 169.42C300.985 169.42 301.122 169.385 301.241 169.314C301.361 169.242 301.454 169.144 301.523 169.019C301.593 168.892 301.628 168.747 301.628 168.585C301.628 168.419 301.593 168.272 301.523 168.146C301.452 168.017 301.356 167.916 301.233 167.844C301.11 167.77 300.968 167.732 300.808 167.732C300.675 167.732 300.546 167.758 300.421 167.809C300.296 167.857 300.196 167.922 300.122 168.002L299.404 167.885L299.633 165.635H302.167V166.297H300.289L300.163 167.454H300.187C300.269 167.356 300.383 167.277 300.529 167.217C300.678 167.154 300.841 167.123 301.019 167.123C301.284 167.123 301.52 167.186 301.725 167.311C301.932 167.434 302.095 167.604 302.214 167.82C302.333 168.037 302.393 168.286 302.393 168.567C302.393 168.854 302.326 169.111 302.194 169.338C302.061 169.562 301.877 169.739 301.643 169.868C301.408 169.995 301.137 170.059 300.828 170.059ZM303.449 170V169.432L304.966 167.943C305.109 167.797 305.228 167.667 305.324 167.554C305.421 167.44 305.495 167.331 305.543 167.226C305.592 167.118 305.617 167.004 305.617 166.883C305.617 166.746 305.585 166.628 305.523 166.528C305.46 166.429 305.374 166.353 305.265 166.3C305.158 166.247 305.035 166.221 304.896 166.221C304.751 166.221 304.625 166.25 304.518 166.309C304.411 166.367 304.327 166.45 304.266 166.558C304.207 166.665 304.178 166.793 304.178 166.941H303.428C303.428 166.666 303.491 166.427 303.616 166.224C303.743 166.019 303.917 165.859 304.14 165.746C304.363 165.633 304.618 165.576 304.905 165.576C305.2 165.576 305.457 165.631 305.678 165.74C305.899 165.85 306.071 166 306.194 166.191C306.317 166.381 306.378 166.598 306.378 166.842C306.378 167.006 306.347 167.167 306.285 167.325C306.222 167.481 306.112 167.656 305.954 167.85C305.797 168.041 305.578 168.272 305.294 168.544L304.544 169.309V169.341H306.443V170H303.449ZM309.028 170.059C308.674 170.059 308.372 169.971 308.12 169.795C307.87 169.617 307.678 169.362 307.546 169.03C307.413 168.696 307.346 168.293 307.346 167.82C307.346 167.348 307.413 166.944 307.546 166.61C307.678 166.274 307.87 166.019 308.12 165.843C308.372 165.665 308.674 165.576 309.028 165.576C309.379 165.576 309.681 165.665 309.933 165.843C310.185 166.021 310.378 166.276 310.51 166.61C310.643 166.944 310.71 167.348 310.71 167.82C310.71 168.293 310.643 168.696 310.51 169.03C310.378 169.362 310.186 169.617 309.936 169.795C309.686 169.971 309.383 170.059 309.028 170.059ZM309.028 169.396C309.217 169.396 309.378 169.335 309.508 169.212C309.641 169.089 309.742 168.91 309.81 168.676C309.88 168.439 309.916 168.154 309.916 167.82C309.916 167.484 309.88 167.198 309.81 166.962C309.742 166.726 309.641 166.546 309.508 166.423C309.378 166.298 309.217 166.235 309.028 166.235C308.743 166.235 308.523 166.374 308.369 166.651C308.216 166.927 308.14 167.316 308.14 167.82C308.14 168.154 308.174 168.439 308.243 168.676C308.311 168.91 308.412 169.089 308.545 169.212C308.677 169.335 308.838 169.396 309.028 169.396Z" fill="#AFAFAF"/>
<path d="M286.978 187.059C286.624 187.059 286.322 186.971 286.07 186.795C285.82 186.617 285.628 186.362 285.496 186.03C285.363 185.696 285.296 185.293 285.296 184.82C285.296 184.348 285.363 183.944 285.496 183.61C285.628 183.274 285.82 183.019 286.07 182.843C286.322 182.665 286.624 182.576 286.978 182.576C287.329 182.576 287.631 182.665 287.883 182.843C288.135 183.021 288.328 183.276 288.46 183.61C288.593 183.944 288.66 184.348 288.66 184.82C288.66 185.293 288.593 185.696 288.46 186.03C288.328 186.362 288.136 186.617 287.886 186.795C287.636 186.971 287.333 187.059 286.978 187.059ZM286.978 186.396C287.167 186.396 287.328 186.335 287.458 186.212C287.591 186.089 287.692 185.91 287.76 185.676C287.83 185.439 287.866 185.154 287.866 184.82C287.866 184.484 287.83 184.198 287.76 183.962C287.692 183.726 287.591 183.546 287.458 183.423C287.328 183.298 287.167 183.235 286.978 183.235C286.693 183.235 286.473 183.374 286.319 183.651C286.166 183.927 286.09 184.316 286.09 184.82C286.09 185.154 286.124 185.439 286.193 185.676C286.261 185.91 286.362 186.089 286.495 186.212C286.627 186.335 286.788 186.396 286.978 186.396ZM291.763 182.635V187H290.978V183.405H290.952L289.932 184.059V183.332L291.016 182.635H291.763ZM293.689 187V186.432L295.207 184.943C295.349 184.797 295.469 184.667 295.564 184.554C295.662 184.44 295.735 184.331 295.784 184.226C295.833 184.118 295.857 184.004 295.857 183.883C295.857 183.746 295.826 183.628 295.763 183.528C295.701 183.429 295.615 183.353 295.506 183.3C295.398 183.247 295.275 183.221 295.137 183.221C294.992 183.221 294.866 183.25 294.759 183.309C294.651 183.367 294.567 183.45 294.507 183.558C294.448 183.665 294.419 183.793 294.419 183.941H293.669C293.669 183.666 293.731 183.427 293.856 183.224C293.983 183.019 294.158 182.859 294.381 182.746C294.603 182.633 294.858 182.576 295.145 182.576C295.44 182.576 295.698 182.631 295.919 182.74C296.139 182.85 296.311 183 296.434 183.191C296.557 183.381 296.619 183.598 296.619 183.842C296.619 184.006 296.588 184.167 296.525 184.325C296.463 184.481 296.352 184.656 296.194 184.85C296.038 185.041 295.818 185.272 295.535 185.544L294.785 186.309V186.341H296.683V187H293.689ZM300.828 187.059C300.543 187.059 300.288 187.006 300.064 186.9C299.841 186.793 299.663 186.646 299.53 186.458C299.4 186.271 299.33 186.056 299.322 185.813H300.09C300.102 185.991 300.178 186.137 300.319 186.25C300.461 186.363 300.631 186.42 300.828 186.42C300.985 186.42 301.122 186.385 301.241 186.314C301.361 186.242 301.454 186.144 301.523 186.019C301.593 185.892 301.628 185.747 301.628 185.585C301.628 185.419 301.593 185.272 301.523 185.146C301.452 185.017 301.356 184.916 301.233 184.844C301.11 184.77 300.968 184.732 300.808 184.732C300.675 184.732 300.546 184.758 300.421 184.809C300.296 184.857 300.196 184.922 300.122 185.002L299.404 184.885L299.633 182.635H302.167V183.297H300.289L300.163 184.454H300.187C300.269 184.356 300.383 184.277 300.529 184.217C300.678 184.154 300.841 184.123 301.019 184.123C301.284 184.123 301.52 184.186 301.725 184.311C301.932 184.434 302.095 184.604 302.214 184.82C302.333 185.037 302.393 185.286 302.393 185.567C302.393 185.854 302.326 186.111 302.194 186.338C302.061 186.562 301.877 186.739 301.643 186.868C301.408 186.995 301.137 187.059 300.828 187.059ZM303.223 184.041C303.223 183.75 303.288 183.495 303.416 183.276C303.545 183.058 303.723 182.887 303.95 182.764C304.176 182.639 304.434 182.576 304.723 182.576C305.006 182.576 305.263 182.636 305.494 182.755C305.724 182.872 305.908 183.04 306.044 183.259C306.181 183.478 306.248 183.738 306.246 184.041C306.245 184.188 306.223 184.336 306.182 184.486C306.143 184.637 306.08 184.796 305.995 184.964C305.911 185.132 305.799 185.318 305.661 185.523L304.662 187H303.85L304.94 185.4C304.887 185.418 304.832 185.432 304.776 185.441C304.719 185.451 304.661 185.457 304.6 185.459C304.334 185.457 304.097 185.396 303.888 185.274C303.681 185.153 303.518 184.986 303.399 184.773C303.282 184.561 303.223 184.316 303.223 184.041ZM303.979 184.021C303.981 184.179 304.013 184.318 304.076 184.439C304.14 184.561 304.228 184.655 304.339 184.724C304.453 184.792 304.582 184.826 304.729 184.826C304.875 184.826 305.004 184.792 305.116 184.724C305.229 184.655 305.317 184.561 305.379 184.439C305.444 184.318 305.476 184.18 305.476 184.023C305.476 183.865 305.444 183.726 305.379 183.604C305.317 183.481 305.229 183.386 305.116 183.317C305.004 183.247 304.875 183.212 304.729 183.212C304.582 183.212 304.453 183.247 304.339 183.317C304.228 183.386 304.14 183.48 304.076 183.602C304.013 183.723 303.981 183.862 303.979 184.021ZM307.812 187L309.667 183.326V183.297H307.513V182.635H310.49V183.314L308.632 187H307.812Z" fill="#AFAFAF"/>
<path d="M329.696 148C330.39 149.202 330.646 150.608 330.42 151.977C330.194 153.347 329.5 154.596 328.456 155.511C327.412 156.426 326.084 156.951 324.696 156.997C323.309 157.042 321.949 156.605 320.847 155.76C319.746 154.915 318.972 153.714 318.657 152.362C318.342 151.011 318.505 149.591 319.119 148.346C319.733 147.101 320.759 146.108 322.024 145.535C323.288 144.962 324.712 144.845 326.053 145.204L324.5 151L329.696 148Z" fill="#AFAFAF"/>
<path d="M329.696 114C330.39 115.202 330.646 116.608 330.42 117.977C330.194 119.347 329.5 120.596 328.456 121.511C327.412 122.426 326.084 122.951 324.696 122.997C323.309 123.042 321.949 122.605 320.847 121.76C319.746 120.915 318.972 119.714 318.657 118.362C318.342 117.011 318.505 115.591 319.119 114.346C319.733 113.101 320.759 112.108 322.024 111.535C323.288 110.962 324.712 110.845 326.053 111.204L324.5 117L329.696 114Z" fill="#AFAFAF"/>
<path d="M329.696 131C330.39 132.202 330.646 133.608 330.42 134.977C330.194 136.347 329.5 137.596 328.456 138.511C327.412 139.426 326.084 139.951 324.696 139.997C323.309 140.042 321.949 139.605 320.847 138.76C319.746 137.915 318.972 136.714 318.657 135.362C318.342 134.011 318.505 132.591 319.119 131.346C319.733 130.101 320.759 129.108 322.024 128.535C323.288 127.962 324.712 127.845 326.053 128.204L324.5 134L329.696 131Z" fill="#AFAFAF"/>
<path d="M329.696 165C330.39 166.202 330.646 167.608 330.42 168.977C330.194 170.347 329.5 171.596 328.456 172.511C327.412 173.426 326.084 173.951 324.696 173.997C323.309 174.042 321.949 173.605 320.847 172.76C319.746 171.915 318.972 170.714 318.657 169.362C318.342 168.011 318.505 166.591 319.119 165.346C319.733 164.101 320.759 163.108 322.024 162.535C323.288 161.962 324.712 161.845 326.053 162.204L324.5 168L329.696 165Z" fill="#AFAFAF"/>
<path d="M329.696 182C330.39 183.202 330.646 184.608 330.42 185.977C330.194 187.347 329.5 188.596 328.456 189.511C327.412 190.426 326.084 190.951 324.696 190.997C323.309 191.042 321.949 190.605 320.847 189.76C319.746 188.915 318.972 187.714 318.657 186.362C318.342 185.011 318.505 183.591 319.119 182.346C319.733 181.101 320.759 180.108 322.024 179.535C323.288 178.962 324.712 178.845 326.053 179.204L324.5 185L329.696 182Z" fill="#AFAFAF"/>
<rect width="20" height="3" rx="1.5" transform="matrix(1 0 0 -1 295.5 82)" fill="#222222"/>
<rect x="20" y="3.5" width="124" height="85" rx="9.5" fill="white" stroke="#222222"/>
<rect x="32.4736" y="41.7695" width="20" height="6" rx="1" fill="#DDDDDD"/>
<rect x="58.4736" y="41.7695" width="20" height="6" rx="1" fill="#DDDDDD"/>
<rect x="84.4736" y="41.7695" width="20" height="6" rx="1" fill="#DDDDDD"/>
<rect x="110.474" y="41.7695" width="20" height="6" rx="1" fill="#DDDDDD"/>
<rect x="32.4736" y="51.9707" width="20" height="6" rx="1" fill="#DDDDDD"/>
<rect x="58.4736" y="51.9707" width="20" height="6" rx="1" fill="#DDDDDD"/>
<rect x="84.4736" y="51.9707" width="20" height="6" rx="1" fill="#DDDDDD"/>
<rect x="110.474" y="51.9707" width="20" height="6" rx="1" fill="#DDDDDD"/>
<rect x="32.4736" y="62.1719" width="20" height="6" rx="1" fill="#DDDDDD"/>
<rect x="58.4736" y="62.1719" width="20" height="6" rx="1" fill="#DDDDDD"/>
<rect x="84.4736" y="62.1719" width="20" height="6" rx="1" fill="#DDDDDD"/>
<rect x="110.474" y="62.1719" width="20" height="6" rx="1" fill="#DDDDDD"/>
<rect x="32.4736" y="72.373" width="20" height="6" rx="1" fill="#DDDDDD"/>
<rect x="58.4736" y="72.373" width="20" height="6" rx="1" fill="#DDDDDD"/>
<rect x="84.4736" y="72.373" width="20" height="6" rx="1" fill="#DDDDDD"/>
<rect x="110.474" y="72.373" width="20" height="6" rx="1" fill="#DDDDDD"/>
<path d="M19.5 17H143.5" stroke="#222222"/>
<path d="M28.8251 23.9991C28.3501 22.6541 26.9501 21.7491 25.3851 22.0591C24.2401 22.2891 23.3101 23.2041 23.0701 24.3491C22.6601 26.2841 24.1301 27.9991 26.0001 27.9991C27.3051 27.9991 28.4151 27.1641 28.8251 25.9991H31.0001V26.9991C31.0001 27.5491 31.4501 27.9991 32.0001 27.9991C32.5501 27.9991 33.0001 27.5491 33.0001 26.9991V25.9991C33.5501 25.9991 34.0001 25.5491 34.0001 24.9991C34.0001 24.4491 33.5501 23.9991 33.0001 23.9991H28.8251ZM26.0001 25.9991C25.4501 25.9991 25.0001 25.5491 25.0001 24.9991C25.0001 24.4491 25.4501 23.9991 26.0001 23.9991C26.5501 23.9991 27.0001 24.4491 27.0001 24.9991C27.0001 25.5491 26.5501 25.9991 26.0001 25.9991Z" fill="#AFAFAF"/>
<path d="M43.0889 27V22.6348H44.7266C45.0625 22.6348 45.3438 22.6934 45.5703 22.8105C45.7988 22.9277 45.9717 23.0918 46.0889 23.3027C46.2061 23.5117 46.2646 23.7549 46.2646 24.0322C46.2646 24.3115 46.2051 24.5537 46.0859 24.7588C45.9688 24.9639 45.7949 25.1221 45.5645 25.2334C45.334 25.3447 45.0508 25.4004 44.7148 25.4004H43.5518V24.7471H44.6064C44.8037 24.7471 44.9648 24.7197 45.0898 24.665C45.2168 24.6104 45.3096 24.5303 45.3682 24.4248C45.4287 24.3174 45.459 24.1865 45.459 24.0322C45.459 23.8779 45.4287 23.7461 45.3682 23.6367C45.3076 23.5254 45.2148 23.4414 45.0898 23.3848C44.9648 23.3262 44.8027 23.2969 44.6035 23.2969H43.8799V27H43.0889ZM45.541 27L44.4834 25.0195H45.3447L46.4258 27H45.541ZM48.1865 27.0645C47.8584 27.0645 47.5752 26.9961 47.3369 26.8594C47.0986 26.7207 46.915 26.5254 46.7861 26.2734C46.6592 26.0215 46.5957 25.7246 46.5957 25.3828C46.5957 25.0449 46.6592 24.749 46.7861 24.4951C46.9131 24.2393 47.0918 24.04 47.3223 23.8975C47.5527 23.7549 47.8242 23.6836 48.1367 23.6836C48.3379 23.6836 48.5283 23.7158 48.708 23.7803C48.8896 23.8447 49.0498 23.9443 49.1885 24.0791C49.3291 24.2139 49.4395 24.3857 49.5195 24.5947C49.5996 24.8018 49.6396 25.0488 49.6396 25.3359V25.5762H46.9561V25.0576H49.2559L48.8955 25.21C48.8955 25.0244 48.8672 24.8633 48.8105 24.7266C48.7539 24.5879 48.6699 24.4795 48.5586 24.4014C48.4473 24.3232 48.3086 24.2842 48.1426 24.2842C47.9766 24.2842 47.835 24.3232 47.7178 24.4014C47.6006 24.4795 47.5117 24.585 47.4512 24.7178C47.3906 24.8486 47.3604 24.9951 47.3604 25.1572V25.5176C47.3604 25.7168 47.3945 25.8877 47.4629 26.0303C47.5332 26.1709 47.6309 26.2783 47.7559 26.3525C47.8828 26.4268 48.0303 26.4639 48.1982 26.4639C48.3076 26.4639 48.4072 26.4482 48.4971 26.417C48.5889 26.3857 48.667 26.3389 48.7314 26.2764C48.7979 26.2119 48.8486 26.1328 48.8838 26.0391L49.6045 26.124C49.5576 26.3135 49.4707 26.4795 49.3438 26.6221C49.2188 26.7627 49.0576 26.8721 48.8604 26.9502C48.665 27.0264 48.4404 27.0645 48.1865 27.0645ZM51.4854 27.0645C51.1592 27.0645 50.8789 26.9932 50.6445 26.8506C50.4102 26.7061 50.2305 26.5068 50.1055 26.2529C49.9805 25.999 49.918 25.707 49.918 25.377C49.918 25.043 49.9814 24.749 50.1084 24.4951C50.2354 24.2412 50.416 24.043 50.6504 23.9004C50.8848 23.7559 51.1611 23.6836 51.4795 23.6836C51.7471 23.6836 51.9834 23.7324 52.1885 23.8301C52.3936 23.9277 52.5566 24.0654 52.6777 24.2432C52.8008 24.4189 52.8711 24.625 52.8887 24.8613H52.1504C52.1309 24.7559 52.0928 24.6611 52.0361 24.5771C51.9795 24.4932 51.9053 24.4268 51.8135 24.3779C51.7236 24.3291 51.6162 24.3047 51.4912 24.3047C51.333 24.3047 51.1943 24.3477 51.0752 24.4336C50.958 24.5176 50.8662 24.6387 50.7998 24.7969C50.7334 24.9551 50.7002 25.1445 50.7002 25.3652C50.7002 25.5879 50.7324 25.7803 50.7969 25.9424C50.8613 26.1025 50.9531 26.2266 51.0723 26.3145C51.1914 26.4004 51.3311 26.4434 51.4912 26.4434C51.6611 26.4434 51.8047 26.3936 51.9219 26.2939C52.041 26.1943 52.1172 26.0566 52.1504 25.8809H52.8887C52.8711 26.1133 52.8027 26.3184 52.6836 26.4961C52.5645 26.6738 52.4033 26.8135 52.2002 26.915C51.9971 27.0146 51.7588 27.0645 51.4854 27.0645ZM54.7314 27.0645C54.4111 27.0645 54.1338 26.9941 53.8994 26.8535C53.665 26.7129 53.4834 26.5156 53.3545 26.2617C53.2275 26.0078 53.1641 25.7129 53.1641 25.377C53.1641 25.0391 53.2275 24.7432 53.3545 24.4893C53.4834 24.2334 53.665 24.0352 53.8994 23.8945C54.1338 23.7539 54.4111 23.6836 54.7314 23.6836C55.0518 23.6836 55.3291 23.7539 55.5635 23.8945C55.7979 24.0352 55.9795 24.2334 56.1084 24.4893C56.2373 24.7432 56.3018 25.0391 56.3018 25.377C56.3018 25.7129 56.2373 26.0078 56.1084 26.2617C55.9795 26.5156 55.7979 26.7129 55.5635 26.8535C55.3291 26.9941 55.0518 27.0645 54.7314 27.0645ZM54.7314 26.4434C54.9092 26.4434 55.0557 26.3965 55.1709 26.3027C55.2861 26.207 55.3721 26.0781 55.4287 25.916C55.4873 25.7539 55.5166 25.5742 55.5166 25.377C55.5166 25.1758 55.4873 24.9941 55.4287 24.832C55.3721 24.6699 55.2861 24.542 55.1709 24.4482C55.0557 24.3525 54.9092 24.3047 54.7314 24.3047C54.5576 24.3047 54.4121 24.3525 54.2949 24.4482C54.1777 24.542 54.0898 24.6699 54.0312 24.832C53.9746 24.9941 53.9463 25.1758 53.9463 25.377C53.9463 25.5742 53.9746 25.7539 54.0312 25.916C54.0898 26.0781 54.1777 26.207 54.2949 26.3027C54.4121 26.3965 54.5576 26.4434 54.7314 26.4434ZM59.6504 23.7246L58.4844 27H57.6289L56.4658 23.7246H57.2891L58.0479 26.1592H58.083L58.8359 23.7246H59.6504ZM61.4111 27.0645C61.083 27.0645 60.7998 26.9961 60.5615 26.8594C60.3232 26.7207 60.1396 26.5254 60.0107 26.2734C59.8838 26.0215 59.8203 25.7246 59.8203 25.3828C59.8203 25.0449 59.8838 24.749 60.0107 24.4951C60.1377 24.2393 60.3164 24.04 60.5469 23.8975C60.7773 23.7549 61.0488 23.6836 61.3613 23.6836C61.5625 23.6836 61.7529 23.7158 61.9326 23.7803C62.1143 23.8447 62.2744 23.9443 62.4131 24.0791C62.5537 24.2139 62.6641 24.3857 62.7441 24.5947C62.8242 24.8018 62.8643 25.0488 62.8643 25.3359V25.5762H60.1807V25.0576H62.4805L62.1201 25.21C62.1201 25.0244 62.0918 24.8633 62.0352 24.7266C61.9785 24.5879 61.8945 24.4795 61.7832 24.4014C61.6719 24.3232 61.5332 24.2842 61.3672 24.2842C61.2012 24.2842 61.0596 24.3232 60.9424 24.4014C60.8252 24.4795 60.7363 24.585 60.6758 24.7178C60.6152 24.8486 60.585 24.9951 60.585 25.1572V25.5176C60.585 25.7168 60.6191 25.8877 60.6875 26.0303C60.7578 26.1709 60.8555 26.2783 60.9805 26.3525C61.1074 26.4268 61.2549 26.4639 61.4229 26.4639C61.5322 26.4639 61.6318 26.4482 61.7217 26.417C61.8135 26.3857 61.8916 26.3389 61.9561 26.2764C62.0225 26.2119 62.0732 26.1328 62.1084 26.0391L62.8291 26.124C62.7822 26.3135 62.6953 26.4795 62.5684 26.6221C62.4434 26.7627 62.2822 26.8721 62.085 26.9502C61.8896 27.0264 61.665 27.0645 61.4111 27.0645ZM63.2832 27V23.7246H64.0303V24.2754H64.0654C64.124 24.084 64.2266 23.9375 64.373 23.8359C64.5195 23.7324 64.6865 23.6807 64.874 23.6807C64.915 23.6807 64.9619 23.6826 65.0146 23.6865C65.0693 23.6904 65.1143 23.6953 65.1494 23.7012V24.4102C65.1162 24.3984 65.0645 24.3887 64.9941 24.3809C64.9238 24.373 64.8564 24.3691 64.792 24.3691C64.6494 24.3691 64.5225 24.3994 64.4111 24.46C64.2998 24.5205 64.2119 24.6035 64.1475 24.709C64.085 24.8145 64.0537 24.9375 64.0537 25.0781V27H63.2832ZM65.9199 28.2246C65.8145 28.2266 65.7168 28.2188 65.627 28.2012C65.5391 28.1855 65.4678 28.167 65.4131 28.1455L65.5947 27.5449L65.6328 27.5566C65.7891 27.5977 65.9219 27.6006 66.0312 27.5654C66.1426 27.5303 66.2314 27.4238 66.2979 27.2461L66.3623 27.0703L65.1787 23.7246H65.9961L66.749 26.2002H66.7842L67.54 23.7246H68.3633L67.0508 27.3955C66.9902 27.5693 66.9102 27.7178 66.8105 27.8408C66.7109 27.9658 66.5879 28.0605 66.4414 28.125C66.2949 28.1914 66.1211 28.2246 65.9199 28.2246ZM71.8613 27.0586C71.4785 27.0586 71.1357 26.9697 70.833 26.792C70.5322 26.6143 70.2949 26.3584 70.1211 26.0244C69.9492 25.6904 69.8633 25.2891 69.8633 24.8203C69.8633 24.3496 69.9502 23.9473 70.124 23.6133C70.2998 23.2773 70.5381 23.0205 70.8389 22.8428C71.1416 22.665 71.4824 22.5762 71.8613 22.5762C72.1016 22.5762 72.3262 22.6104 72.5352 22.6787C72.7461 22.7471 72.9336 22.8477 73.0977 22.9805C73.2617 23.1113 73.3955 23.2725 73.499 23.4639C73.6045 23.6533 73.6738 23.8691 73.707 24.1113H72.9102C72.8887 23.9785 72.8467 23.8613 72.7842 23.7598C72.7236 23.6582 72.6475 23.5723 72.5557 23.502C72.4658 23.4297 72.3633 23.376 72.248 23.3408C72.1328 23.3037 72.0088 23.2852 71.876 23.2852C71.6377 23.2852 71.4268 23.3447 71.2432 23.4639C71.0596 23.5811 70.916 23.7549 70.8125 23.9854C70.709 24.2139 70.6572 24.4922 70.6572 24.8203C70.6572 25.1523 70.709 25.4326 70.8125 25.6611C70.918 25.8877 71.0615 26.0596 71.2432 26.1768C71.4268 26.292 71.6367 26.3496 71.873 26.3496C72.0039 26.3496 72.126 26.333 72.2393 26.2998C72.3525 26.2646 72.4551 26.2129 72.5469 26.1445C72.6406 26.0742 72.7178 25.9902 72.7783 25.8926C72.8408 25.793 72.8848 25.6787 72.9102 25.5498H73.707C73.6777 25.7588 73.6133 25.9551 73.5137 26.1387C73.416 26.3203 73.2871 26.4805 73.127 26.6191C72.9688 26.7559 72.7832 26.8633 72.5703 26.9414C72.3574 27.0195 72.1211 27.0586 71.8613 27.0586ZM75.6084 27.0645C75.2881 27.0645 75.0107 26.9941 74.7764 26.8535C74.542 26.7129 74.3604 26.5156 74.2314 26.2617C74.1045 26.0078 74.041 25.7129 74.041 25.377C74.041 25.0391 74.1045 24.7432 74.2314 24.4893C74.3604 24.2334 74.542 24.0352 74.7764 23.8945C75.0107 23.7539 75.2881 23.6836 75.6084 23.6836C75.9287 23.6836 76.2061 23.7539 76.4404 23.8945C76.6748 24.0352 76.8564 24.2334 76.9854 24.4893C77.1143 24.7432 77.1787 25.0391 77.1787 25.377C77.1787 25.7129 77.1143 26.0078 76.9854 26.2617C76.8564 26.5156 76.6748 26.7129 76.4404 26.8535C76.2061 26.9941 75.9287 27.0645 75.6084 27.0645ZM75.6084 26.4434C75.7861 26.4434 75.9326 26.3965 76.0479 26.3027C76.1631 26.207 76.249 26.0781 76.3057 25.916C76.3643 25.7539 76.3936 25.5742 76.3936 25.377C76.3936 25.1758 76.3643 24.9941 76.3057 24.832C76.249 24.6699 76.1631 24.542 76.0479 24.4482C75.9326 24.3525 75.7861 24.3047 75.6084 24.3047C75.4346 24.3047 75.2891 24.3525 75.1719 24.4482C75.0547 24.542 74.9668 24.6699 74.9082 24.832C74.8516 24.9941 74.8232 25.1758 74.8232 25.377C74.8232 25.5742 74.8516 25.7539 74.9082 25.916C74.9668 26.0781 75.0547 26.207 75.1719 26.3027C75.2891 26.3965 75.4346 26.4434 75.6084 26.4434ZM78.8105 27.0586C78.5547 27.0586 78.3242 26.9932 78.1191 26.8623C77.916 26.7295 77.7559 26.5371 77.6387 26.2852C77.5215 26.0332 77.4629 25.7275 77.4629 25.3682C77.4629 25.0029 77.5225 24.6953 77.6416 24.4453C77.7627 24.1953 77.9248 24.0059 78.1279 23.877C78.3311 23.748 78.5586 23.6836 78.8105 23.6836C79.0039 23.6836 79.1621 23.7158 79.2852 23.7803C79.4082 23.8447 79.5059 23.9229 79.5781 24.0146C79.6523 24.1045 79.709 24.1885 79.748 24.2666H79.7803V22.6348H80.5479V27H79.7949V26.4814H79.748C79.707 26.5615 79.6494 26.6465 79.5752 26.7363C79.501 26.8242 79.4023 26.9004 79.2793 26.9648C79.1562 27.0273 79 27.0586 78.8105 27.0586ZM79.0244 26.4258C79.1885 26.4258 79.3271 26.3818 79.4404 26.2939C79.5557 26.2041 79.6436 26.0801 79.7041 25.9219C79.7646 25.7617 79.7949 25.5762 79.7949 25.3652C79.7949 25.1523 79.7646 24.9678 79.7041 24.8115C79.6455 24.6533 79.5586 24.5312 79.4434 24.4453C79.3301 24.3594 79.1904 24.3164 79.0244 24.3164C78.8545 24.3164 78.7119 24.3613 78.5967 24.4512C78.4814 24.541 78.3945 24.665 78.3359 24.8232C78.2793 24.9814 78.251 25.1621 78.251 25.3652C78.251 25.5684 78.2803 25.75 78.3389 25.9102C78.3975 26.0703 78.4834 26.1963 78.5967 26.2881C78.7119 26.3799 78.8545 26.4258 79.0244 26.4258ZM82.5693 27.0645C82.2412 27.0645 81.958 26.9961 81.7197 26.8594C81.4814 26.7207 81.2979 26.5254 81.1689 26.2734C81.042 26.0215 80.9785 25.7246 80.9785 25.3828C80.9785 25.0449 81.042 24.749 81.1689 24.4951C81.2959 24.2393 81.4746 24.04 81.7051 23.8975C81.9355 23.7549 82.207 23.6836 82.5195 23.6836C82.7207 23.6836 82.9111 23.7158 83.0908 23.7803C83.2725 23.8447 83.4326 23.9443 83.5713 24.0791C83.7119 24.2139 83.8223 24.3857 83.9023 24.5947C83.9824 24.8018 84.0225 25.0488 84.0225 25.3359V25.5762H81.3389V25.0576H83.6387L83.2783 25.21C83.2783 25.0244 83.25 24.8633 83.1934 24.7266C83.1367 24.5879 83.0527 24.4795 82.9414 24.4014C82.8301 24.3232 82.6914 24.2842 82.5254 24.2842C82.3594 24.2842 82.2178 24.3232 82.1006 24.4014C81.9834 24.4795 81.8945 24.585 81.834 24.7178C81.7734 24.8486 81.7432 24.9951 81.7432 25.1572V25.5176C81.7432 25.7168 81.7773 25.8877 81.8457 26.0303C81.916 26.1709 82.0137 26.2783 82.1387 26.3525C82.2656 26.4268 82.4131 26.4639 82.5811 26.4639C82.6904 26.4639 82.79 26.4482 82.8799 26.417C82.9717 26.3857 83.0498 26.3389 83.1143 26.2764C83.1807 26.2119 83.2314 26.1328 83.2666 26.0391L83.9873 26.124C83.9404 26.3135 83.8535 26.4795 83.7266 26.6221C83.6016 26.7627 83.4404 26.8721 83.2432 26.9502C83.0479 27.0264 82.8232 27.0645 82.5693 27.0645ZM87.0254 24.5947L86.3252 24.668C86.2959 24.5605 86.2324 24.4658 86.1348 24.3838C86.0371 24.2998 85.8994 24.2578 85.7217 24.2578C85.5615 24.2578 85.4268 24.293 85.3174 24.3633C85.21 24.4336 85.1562 24.5234 85.1562 24.6328C85.1562 24.7285 85.1914 24.8076 85.2617 24.8701C85.334 24.9307 85.4531 24.9795 85.6191 25.0166L86.1787 25.1338C86.4854 25.1982 86.7148 25.3037 86.8672 25.4502C87.0195 25.5967 87.0957 25.7861 87.0957 26.0186C87.0957 26.2236 87.0361 26.4053 86.917 26.5635C86.7979 26.7217 86.6328 26.8447 86.4219 26.9326C86.2129 27.0205 85.9717 27.0645 85.6982 27.0645C85.2979 27.0645 84.9756 26.9805 84.7314 26.8125C84.4893 26.6426 84.3438 26.4072 84.2949 26.1064L85.0479 26.0361C85.0811 26.1826 85.1533 26.2939 85.2646 26.3701C85.3779 26.4443 85.5225 26.4814 85.6982 26.4814C85.8818 26.4814 86.0293 26.4443 86.1406 26.3701C86.252 26.2939 86.3076 26.2012 86.3076 26.0918C86.3076 25.9082 86.1611 25.7832 85.8682 25.7168L85.3086 25.5996C84.9941 25.5312 84.7617 25.4209 84.6113 25.2686C84.4609 25.1143 84.3857 24.918 84.3857 24.6797C84.3857 24.4766 84.4414 24.3008 84.5527 24.1523C84.6641 24.0039 84.8193 23.8887 85.0186 23.8066C85.2178 23.7246 85.4482 23.6836 85.71 23.6836C86.0947 23.6836 86.3965 23.7666 86.6152 23.9326C86.8359 24.0967 86.9727 24.3174 87.0254 24.5947Z" fill="#AFAFAF"/>
<rect x="28.5" y="31.7363" width="107" height="2" fill="#AFAFAF"/>
<rect x="28.5" y="35.7363" width="87" height="2" fill="#AFAFAF"/>
<path d="M202.361 62L237.747 123.291H166.974L202.361 62Z" fill="#FD9B5A"/>
<path d="M205.001 87.0217L204.737 106.439H201.677L201.413 87.0217H205.001ZM203.207 114.248C202.556 114.248 201.998 114.015 201.532 113.549C201.066 113.083 200.832 112.525 200.832 111.874C200.832 111.223 201.066 110.665 201.532 110.198C201.998 109.732 202.556 109.499 203.207 109.499C203.858 109.499 204.416 109.732 204.882 110.198C205.348 110.665 205.581 111.223 205.581 111.874C205.581 112.305 205.471 112.7 205.252 113.061C205.04 113.422 204.755 113.712 204.394 113.932C204.042 114.143 203.647 114.248 203.207 114.248Z" fill="white"/>
<path d="M57.5 45H79.5" stroke="#FD9B5A" stroke-width="2"/>
<path d="M57.5 55H79.5" stroke="#FD9B5A" stroke-width="2"/>
<path d="M57.5 65H79.5" stroke="#FD9B5A" stroke-width="2"/>
<path d="M57.5 75H79.5" stroke="#FD9B5A" stroke-width="2"/>
<path d="M31.5 45H53.5" stroke="#FD9B5A" stroke-width="2"/>
<path d="M31.5 55H53.5" stroke="#FD9B5A" stroke-width="2"/>
<path d="M31.5 65H53.5" stroke="#FD9B5A" stroke-width="2"/>
<path d="M31.5 75H53.5" stroke="#FD9B5A" stroke-width="2"/>
<path d="M83.5 45H105.5" stroke="#FD9B5A" stroke-width="2"/>
<path d="M83.5 55H105.5" stroke="#FD9B5A" stroke-width="2"/>
<path d="M83.5 65H105.5" stroke="#FD9B5A" stroke-width="2"/>
<path d="M83.5 75H105.5" stroke="#FD9B5A" stroke-width="2"/>
<path d="M109.5 45H131.5" stroke="#FD9B5A" stroke-width="2"/>
<path d="M109.5 55H131.5" stroke="#FD9B5A" stroke-width="2"/>
<path d="M109.5 65H131.5" stroke="#FD9B5A" stroke-width="2"/>
<path d="M109.5 75H131.5" stroke="#FD9B5A" stroke-width="2"/>
</svg>
