<svg width="206" height="46" viewBox="0 0 206 46" fill="none" xmlns="http://www.w3.org/2000/svg">
<path d="M67.8901 32.2222C66.6811 32.2222 65.5721 31.9809 64.5631 31.4983C63.5632 31.0157 62.7587 30.3101 62.1497 29.3813C61.5497 28.4525 61.2498 27.3234 61.2498 25.994C61.2498 25.1199 61.4043 24.3505 61.7134 23.6857C62.0224 23.021 62.4997 22.4474 63.1451 21.9648C63.7905 21.4822 64.6177 21.0861 65.6267 20.7765C66.6357 20.4578 67.8401 20.212 69.24 20.039C70.3035 19.9115 71.2535 19.7885 72.0898 19.6702C72.926 19.5427 73.5805 19.3469 74.0532 19.0829C74.535 18.8188 74.7759 18.4182 74.7759 17.8809V17.0068C74.7759 15.477 74.2941 14.2615 73.3306 13.36C72.367 12.4585 71.0398 12.0078 69.3491 12.0078C67.8492 12.0078 66.5857 12.3402 65.5585 13.0049C64.5404 13.6605 63.8268 14.5073 63.4178 15.5453L61.8497 14.958C62.2497 13.9564 62.8269 13.1233 63.5814 12.4585C64.3449 11.7938 65.2176 11.2976 66.1993 10.9698C67.1902 10.642 68.2264 10.4781 69.3082 10.4781C70.2445 10.4781 71.1353 10.6101 71.9807 10.8742C72.8351 11.1382 73.5942 11.5389 74.2577 12.0761C74.9304 12.6133 75.4622 13.3008 75.8531 14.1385C76.2439 14.9671 76.4394 15.9596 76.4394 17.1161V31.7715H74.7759V27.9881H74.6532C74.2896 28.7712 73.7896 29.486 73.1533 30.1325C72.5261 30.7699 71.7671 31.2798 70.8762 31.6622C69.9945 32.0356 68.9991 32.2222 67.8901 32.2222ZM68.0537 30.6788C69.3627 30.6788 70.5217 30.3601 71.5307 29.7228C72.5488 29.0763 73.3442 28.193 73.9169 27.073C74.4895 25.953 74.7759 24.6828 74.7759 23.2623V20.1755C74.5668 20.3576 74.2623 20.5215 73.8623 20.6672C73.4715 20.8038 73.026 20.9267 72.5261 21.036C72.0352 21.1362 71.5171 21.2272 70.9717 21.3092C70.4353 21.382 69.9127 21.4503 69.4036 21.5141C67.8765 21.6962 66.6311 21.9784 65.6676 22.3609C64.7131 22.7342 64.0132 23.2259 63.5677 23.836C63.1314 24.4461 62.9133 25.1836 62.9133 26.0486C62.9133 27.4782 63.4041 28.6073 64.3859 29.4359C65.3676 30.2645 66.5902 30.6788 68.0537 30.6788Z" fill="black"/>
<path d="M94.1431 24.3277V10.7922H95.8066V31.7715H94.1431V28.3706H94.0067C93.5159 29.4541 92.7205 30.3374 91.6206 31.0203C90.5297 31.7032 89.2389 32.0447 87.7482 32.0447C86.3755 32.0447 85.162 31.7442 84.1076 31.1432C83.0531 30.5423 82.2259 29.6909 81.6259 28.5891C81.026 27.4782 80.726 26.1579 80.726 24.6282V10.7922H82.3895V24.5599C82.3895 26.3082 82.9167 27.7241 83.9712 28.8076C85.0347 29.8821 86.4074 30.4193 88.089 30.4193C89.1799 30.4193 90.1843 30.1735 91.1024 29.6818C92.0205 29.1901 92.7568 28.4889 93.3113 27.5784C93.8658 26.6587 94.1431 25.5752 94.1431 24.3277Z" fill="black"/>
<path d="M107.415 10.7922V12.281H98.2661V10.7922H107.415ZM101.361 5.76593H103.011V26.8135C103.011 27.6694 103.175 28.3706 103.502 28.9169C103.838 29.4541 104.275 29.8548 104.811 30.1188C105.356 30.3738 105.938 30.5013 106.556 30.5013C106.856 30.5013 107.115 30.4785 107.334 30.433C107.561 30.3875 107.774 30.3283 107.974 30.2554L108.383 31.7715C108.129 31.8626 107.847 31.94 107.538 32.0037C107.229 32.0765 106.865 32.113 106.447 32.113C105.575 32.113 104.747 31.9172 103.966 31.5257C103.193 31.1341 102.566 30.565 102.084 29.8184C101.602 29.0717 101.361 28.1702 101.361 27.114V5.76593Z" fill="black"/>
<path d="M118.458 32.2086C116.731 32.2086 115.195 31.7442 113.85 30.8154C112.504 29.8775 111.445 28.5891 110.672 26.9501C109.9 25.3111 109.514 23.4444 109.514 21.3502C109.514 19.2468 109.9 17.3801 110.672 15.7502C111.445 14.1112 112.504 12.8228 113.85 11.8849C115.195 10.947 116.731 10.4781 118.458 10.4781C120.185 10.4781 121.722 10.947 123.067 11.8849C124.412 12.8228 125.471 14.1112 126.244 15.7502C127.017 17.3892 127.403 19.2559 127.403 21.3502C127.403 23.4444 127.017 25.3111 126.244 26.9501C125.471 28.5891 124.412 29.8775 123.067 30.8154C121.722 31.7442 120.185 32.2086 118.458 32.2086ZM118.458 30.6652C119.922 30.6652 121.199 30.2509 122.29 29.4223C123.39 28.5937 124.24 27.4737 124.839 26.0623C125.449 24.6509 125.753 23.0802 125.753 21.3502C125.753 19.6201 125.449 18.0539 124.839 16.6517C124.23 15.2403 123.381 14.1203 122.29 13.2917C121.199 12.454 119.922 12.0351 118.458 12.0351C116.995 12.0351 115.718 12.454 114.627 13.2917C113.536 14.1203 112.686 15.2403 112.077 16.6517C111.468 18.0539 111.163 19.6201 111.163 21.3502C111.163 23.0802 111.463 24.6509 112.063 26.0623C112.672 27.4737 113.522 28.5937 114.613 29.4223C115.713 30.2509 116.995 30.6652 118.458 30.6652Z" fill="black"/>
<path d="M130.445 31.7715V10.7922H132.068V13.961H132.232C132.632 12.9047 133.322 12.067 134.304 11.4478C135.286 10.8286 136.468 10.5191 137.849 10.5191C139.367 10.5191 140.59 10.8833 141.517 11.6117C142.453 12.3402 143.126 13.3281 143.535 14.5756H143.685C144.094 13.3463 144.826 12.3629 145.88 11.6254C146.944 10.8878 148.253 10.5191 149.807 10.5191C151.834 10.5191 153.38 11.161 154.443 12.4449C155.516 13.7197 156.052 15.4679 156.052 17.6897V31.7715H154.389V17.6897C154.389 15.9414 153.971 14.5665 153.134 13.5649C152.298 12.5633 151.071 12.0624 149.453 12.0624C147.726 12.0624 146.399 12.6042 145.471 13.6878C144.544 14.7714 144.081 16.1509 144.081 17.8263V31.7715H142.417V17.5804C142.417 15.9505 142.008 14.6257 141.19 13.6058C140.372 12.5769 139.145 12.0624 137.508 12.0624C136.399 12.0624 135.44 12.3174 134.631 12.8273C133.831 13.3372 133.209 14.0384 132.763 14.9307C132.327 15.8231 132.109 16.8474 132.109 18.0038V31.7715H130.445Z" fill="black"/>
<path d="M165.817 32.2222C164.608 32.2222 163.499 31.9809 162.49 31.4983C161.49 31.0157 160.685 30.3101 160.076 29.3813C159.476 28.4525 159.176 27.3234 159.176 25.994C159.176 25.1199 159.331 24.3505 159.64 23.6857C159.949 23.021 160.426 22.4474 161.072 21.9648C161.717 21.4822 162.544 21.0861 163.553 20.7765C164.562 20.4578 165.767 20.212 167.167 20.039C168.23 19.9115 169.18 19.7885 170.016 19.6702C170.853 19.5427 171.507 19.3469 171.98 19.0829C172.462 18.8188 172.703 18.4182 172.703 17.8809V17.0068C172.703 15.477 172.221 14.2615 171.257 13.36C170.294 12.4585 168.967 12.0078 167.276 12.0078C165.776 12.0078 164.512 12.3402 163.485 13.0049C162.467 13.6605 161.754 14.5073 161.344 15.5453L159.776 14.958C160.176 13.9564 160.754 13.1233 161.508 12.4585C162.272 11.7938 163.144 11.2976 164.126 10.9698C165.117 10.642 166.153 10.4781 167.235 10.4781C168.171 10.4781 169.062 10.6101 169.907 10.8742C170.762 11.1382 171.521 11.5389 172.184 12.0761C172.857 12.6133 173.389 13.3008 173.78 14.1385C174.171 14.9671 174.366 15.9596 174.366 17.1161V31.7715H172.703V27.9881H172.58C172.216 28.7712 171.716 29.486 171.08 30.1325C170.453 30.7699 169.694 31.2798 168.803 31.6622C167.921 32.0356 166.926 32.2222 165.817 32.2222ZM165.98 30.6788C167.289 30.6788 168.448 30.3601 169.457 29.7228C170.476 29.0763 171.271 28.193 171.844 27.073C172.416 25.953 172.703 24.6828 172.703 23.2623V20.1755C172.494 20.3576 172.189 20.5215 171.789 20.6672C171.398 20.8038 170.953 20.9267 170.453 21.036C169.962 21.1362 169.444 21.2272 168.898 21.3092C168.362 21.382 167.839 21.4503 167.33 21.5141C165.803 21.6962 164.558 21.9784 163.594 22.3609C162.64 22.7342 161.94 23.2259 161.494 23.836C161.058 24.4461 160.84 25.1836 160.84 26.0486C160.84 27.4782 161.331 28.6073 162.313 29.4359C163.294 30.2645 164.517 30.6788 165.98 30.6788Z" fill="black"/>
<path d="M186.057 10.7922V12.281H176.907V10.7922H186.057ZM180.003 5.76593H181.653V26.8135C181.653 27.6694 181.816 28.3706 182.143 28.9169C182.48 29.4541 182.916 29.8548 183.452 30.1188C183.998 30.3738 184.58 30.5013 185.198 30.5013C185.498 30.5013 185.757 30.4785 185.975 30.433C186.202 30.3875 186.416 30.3283 186.616 30.2554L187.025 31.7715C186.77 31.8626 186.488 31.94 186.179 32.0037C185.87 32.0765 185.507 32.113 185.089 32.113C184.216 32.113 183.389 31.9172 182.607 31.5257C181.834 31.1341 181.207 30.565 180.725 29.8184C180.244 29.0717 180.003 28.1702 180.003 27.114V5.76593Z" fill="black"/>
<path d="M197.481 32.2086C195.591 32.2086 193.945 31.7396 192.545 30.8018C191.146 29.8639 190.064 28.58 189.3 26.9501C188.537 25.3202 188.155 23.4627 188.155 21.3775C188.155 19.2832 188.537 17.4165 189.3 15.7775C190.073 14.1385 191.132 12.8455 192.477 11.8985C193.823 10.9516 195.359 10.4781 197.086 10.4781C198.259 10.4781 199.368 10.7148 200.413 11.1883C201.467 11.6527 202.395 12.3265 203.195 13.2098C204.004 14.093 204.635 15.1584 205.09 16.4058C205.553 17.6533 205.785 19.0555 205.785 20.6126V21.6506H189.205V20.1346H204.122C204.122 18.6139 203.813 17.2435 203.195 16.0234C202.576 14.8032 201.736 13.8335 200.672 13.1141C199.608 12.3948 198.413 12.0351 197.086 12.0351C195.695 12.0351 194.454 12.4267 193.364 13.2098C192.282 13.9837 191.423 15.0309 190.786 16.3512C190.159 17.6715 189.832 19.1466 189.805 20.7765V21.4594C189.805 23.2077 190.109 24.7784 190.718 26.1716C191.336 27.5556 192.218 28.6528 193.364 29.4632C194.509 30.2645 195.882 30.6652 197.481 30.6652C198.627 30.6652 199.604 30.474 200.413 30.0915C201.231 29.7 201.899 29.2265 202.417 28.6711C202.935 28.1156 203.326 27.5784 203.59 27.0594L205.103 27.674C204.785 28.3751 204.29 29.0763 203.617 29.7774C202.954 30.4694 202.108 31.0476 201.081 31.512C200.063 31.9764 198.863 32.2086 197.481 32.2086Z" fill="black"/>
<path d="M38.2812 10.496H31.4385V3.64163C31.4385 1.62977 29.8115 0 27.803 0H3.63545C1.627 0 0 1.62977 0 3.64163V38.3463C0 40.3582 1.627 41.988 3.63545 41.988H34.9299L38.3163 45.3801C38.7133 45.7778 39.2466 46 39.807 46C40.9709 46 41.9167 45.0564 41.9167 43.8868V14.1376C41.9167 12.1258 40.2897 10.496 38.2812 10.496ZM38.4253 38.4867H3.49144V3.49737H27.9432V10.496H14.1137C12.1052 10.496 10.4782 12.1258 10.4782 14.1376V27.8503C10.4782 29.8622 12.1052 31.4919 14.1137 31.4919H27.803C29.8115 31.4919 31.4385 29.8622 31.4385 27.8503V13.9973H38.4253V38.4906V38.4867ZM27.9471 13.9934V27.9907H13.9735V13.9934H27.9471Z" fill="black"/>
</svg>
