<svg width="56" height="56" viewBox="0 0 56 56" fill="none" xmlns="http://www.w3.org/2000/svg">
<path d="M5.41699 40.4803V16.0408C5.41699 15.7228 5.61061 15.4368 5.9059 15.3187L26.3742 7.13083C26.5596 7.05664 26.7665 7.05665 26.952 7.13085L46.1012 14.7928C46.7531 15.0536 46.7529 15.9765 46.1009 16.2371L27.1538 23.8108C26.8584 23.9289 26.6647 24.215 26.6647 24.5331V48.3604C26.6647 48.9107 26.1089 49.2869 25.598 49.0825L5.90581 41.2024C5.61057 41.0843 5.41699 40.7983 5.41699 40.4803Z" fill="#EEEEEE"/>
<path fill-rule="evenodd" clip-rule="evenodd" d="M26.4751 6.5469C26.5957 6.49869 26.7301 6.49869 26.8506 6.5469L48.0968 15.0454C48.2888 15.1222 48.4146 15.3081 48.4146 15.5148L48.4146 22.5968C48.4146 22.876 48.1883 23.1024 47.909 23.1024C47.6298 23.1024 47.4035 22.876 47.4035 22.5968L47.4035 16.2615L27.1684 24.3555V48.762L32.1407 46.773C32.4 46.6693 32.6942 46.7954 32.7979 47.0547C32.9016 47.3139 32.7755 47.6081 32.5163 47.7118L26.8506 49.9781C26.7301 50.0263 26.5957 50.0263 26.4751 49.9781L5.22893 41.4796C5.03699 41.4028 4.91113 41.2169 4.91113 41.0102V15.5148C4.91113 15.3081 5.03699 15.1222 5.22893 15.0454L16.9009 10.3766C16.9092 10.373 16.9177 10.3696 16.9262 10.3665L26.4751 6.5469ZM17.1014 11.3854L6.77794 15.5148L26.6629 23.4688L36.9864 19.3394L17.1014 11.3854ZM38.3476 18.7949L18.4627 10.8409L26.6629 7.5608L46.5478 15.5148L38.3476 18.7949ZM26.1573 24.3555L5.92224 16.2615V40.6679L26.1573 48.762L26.1573 24.3555ZM9.19652 34.6845C9.30022 34.4253 9.59444 34.2992 9.85368 34.4029L13.3947 35.8193C13.6539 35.923 13.78 36.2172 13.6763 36.4765C13.5726 36.7357 13.2784 36.8618 13.0192 36.7581L9.47816 35.3417C9.21892 35.238 9.09282 34.9438 9.19652 34.6845Z" fill="#AFAFAF"/>
<path fill-rule="evenodd" clip-rule="evenodd" d="M43.6904 26.4004C44.3081 26.4004 44.872 26.725 45.1444 27.2373L53.6412 43.2316C53.8492 43.6225 53.824 44.0849 53.5747 44.4545C53.3254 44.8241 52.8873 45.0487 52.416 45.0484H34.9648C34.4934 45.0487 34.0553 44.8241 33.806 44.4545C33.5567 44.0849 33.5316 43.6225 33.7395 43.2316L42.2364 27.2373C42.5087 26.725 43.0727 26.4004 43.6904 26.4004ZM43.6902 32.3628C43.9694 32.3628 44.1957 32.5891 44.1957 32.8684V38.2345C44.1957 38.5137 43.9694 38.74 43.6902 38.74C43.411 38.74 43.1846 38.5137 43.1846 38.2345V32.8684C43.1846 32.5891 43.411 32.3628 43.6902 32.3628ZM43.6904 40.3486C43.0878 40.3486 42.5994 40.8371 42.5994 41.4396C42.5994 42.0422 43.0878 42.5307 43.6904 42.5307C44.293 42.5307 44.7814 42.0422 44.7814 41.4396C44.7814 40.8371 44.293 40.3486 43.6904 40.3486Z" fill="#161616"/>
</svg>
