<svg width="56" height="56" viewBox="0 0 56 56" fill="none" xmlns="http://www.w3.org/2000/svg">
<path d="M5.41602 40.4149V16.1069C5.41602 15.7492 5.63384 15.4274 5.96603 15.2945L26.3371 7.1456C26.5457 7.06214 26.7785 7.06215 26.9871 7.14562L45.8745 14.7028C46.6079 14.9962 46.6077 16.0345 45.8742 16.3277L27.2139 23.7867C26.8816 23.9196 26.6637 24.2414 26.6637 24.5992V48.2171C26.6637 48.8362 26.0384 49.2595 25.4636 49.0295L5.96594 41.2272C5.63379 41.0943 5.41602 40.7726 5.41602 40.4149Z" fill="#EEEEEE"/>
<path fill-rule="evenodd" clip-rule="evenodd" d="M26.4696 6.53329C26.5935 6.4837 26.7318 6.4837 26.8558 6.53329L48.102 15.0318C48.2994 15.1107 48.4289 15.3019 48.4289 15.5146L48.4288 22.5966C48.4288 22.8838 48.196 23.1166 47.9088 23.1166C47.6216 23.1166 47.3888 22.8838 47.3888 22.5966L47.3889 16.2826L27.1827 24.3651L27.1827 48.7404L32.1352 46.7594C32.4018 46.6527 32.7044 46.7824 32.8111 47.0491C32.9178 47.3157 32.7881 47.6184 32.5214 47.725L26.8558 49.9913C26.7318 50.0409 26.5935 50.0409 26.4696 49.9913L5.22336 41.4928C5.02594 41.4138 4.89648 41.2226 4.89648 41.01V15.5146C4.89648 15.3019 5.02594 15.1107 5.22336 15.0318L16.8951 10.3631C16.9036 10.3594 16.9122 10.356 16.9208 10.3528L26.4696 6.53329ZM17.1012 11.4007L6.81663 15.5146L26.6627 23.453L36.9473 19.3392L17.1012 11.4007ZM38.3474 18.7791L18.5013 10.8407L26.6627 7.57615L46.5087 15.5146L38.3474 18.7791ZM26.1427 24.3651L5.93648 16.2826V40.6579L26.1427 48.7404L26.1427 24.3651ZM9.1829 34.6789C9.28956 34.4123 9.59219 34.2826 9.85884 34.3893L13.3999 35.8057C13.6665 35.9123 13.7962 36.215 13.6896 36.4816C13.5829 36.7483 13.2803 36.878 13.0136 36.7713L9.47259 35.3549C9.20594 35.2482 9.07625 34.9456 9.1829 34.6789Z" fill="#AFAFAF"/>
<path fill-rule="evenodd" clip-rule="evenodd" d="M34.9655 28.5651C36.8643 26.6663 39.4396 25.5996 42.1249 25.5996C44.8102 25.5996 47.3855 26.6663 49.2843 28.5651C51.1831 30.4639 52.2498 33.0392 52.2498 35.7245C52.2498 38.4098 51.1831 40.9851 49.2843 42.8839C47.3855 44.7827 44.8102 45.8494 42.1249 45.8494C39.4396 45.8494 36.8643 44.7827 34.9655 42.8839C33.0667 40.9851 32 38.4098 32 35.7245C32 33.0392 33.0667 30.4639 34.9655 28.5651ZM46.6471 32.2512C46.9612 32.2512 47.2158 32.5058 47.2158 32.8199C47.2158 35.0841 45.3804 36.9195 43.1162 36.9195H38.6072L40.5761 38.8884C40.7982 39.1105 40.7982 39.4706 40.5761 39.6927C40.3539 39.9148 39.9938 39.9148 39.7717 39.6927L36.8627 36.7837C36.7404 36.6793 36.6628 36.5241 36.6628 36.3507L36.6628 36.3495C36.6625 36.2035 36.718 36.0574 36.8294 35.946L39.7717 33.0037C39.9938 32.7816 40.3539 32.7816 40.5761 33.0037C40.7982 33.2258 40.7982 33.5859 40.5761 33.808L38.6021 35.782H43.1162C44.7521 35.782 46.0783 34.4558 46.0783 32.8199C46.0783 32.5058 46.3329 32.2512 46.6471 32.2512Z" fill="#161616"/>
</svg>
